<svg xmlns="http://www.w3.org/2000/svg" width="19" height="19" fill="none" viewBox="0 0 19 19"><path fill="#16161A" d="M16.0834 9.07552H14.8334V5.74219C14.8334 4.82552 14.0834 4.07552 13.1667 4.07552H9.83335V2.82552C9.83335 1.67552 8.90002 0.742188 7.75002 0.742188C6.60002 0.742188 5.66669 1.67552 5.66669 2.82552V4.07552H2.33335C1.41669 4.07552 0.67502 4.82552 0.67502 5.74219V8.90885H1.91669C3.15835 8.90885 4.16669 9.91719 4.16669 11.1589C4.16669 12.4005 3.15835 13.4089 1.91669 13.4089H0.666687V16.5755C0.666687 17.4922 1.41669 18.2422 2.33335 18.2422H5.50002V16.9922C5.50002 15.7505 6.50835 14.7422 7.75002 14.7422C8.99169 14.7422 10 15.7505 10 16.9922V18.2422H13.1667C14.0834 18.2422 14.8334 17.4922 14.8334 16.5755V13.2422H16.0834C17.2334 13.2422 18.1667 12.3089 18.1667 11.1589C18.1667 10.0089 17.2334 9.07552 16.0834 9.07552Z"/><path fill="url(#paint0_linear_3259_8165)" d="M16.0834 9.07552H14.8334V5.74219C14.8334 4.82552 14.0834 4.07552 13.1667 4.07552H9.83335V2.82552C9.83335 1.67552 8.90002 0.742188 7.75002 0.742188C6.60002 0.742188 5.66669 1.67552 5.66669 2.82552V4.07552H2.33335C1.41669 4.07552 0.67502 4.82552 0.67502 5.74219V8.90885H1.91669C3.15835 8.90885 4.16669 9.91719 4.16669 11.1589C4.16669 12.4005 3.15835 13.4089 1.91669 13.4089H0.666687V16.5755C0.666687 17.4922 1.41669 18.2422 2.33335 18.2422H5.50002V16.9922C5.50002 15.7505 6.50835 14.7422 7.75002 14.7422C8.99169 14.7422 10 15.7505 10 16.9922V18.2422H13.1667C14.0834 18.2422 14.8334 17.4922 14.8334 16.5755V13.2422H16.0834C17.2334 13.2422 18.1667 12.3089 18.1667 11.1589C18.1667 10.0089 17.2334 9.07552 16.0834 9.07552Z"/><defs><linearGradient id="paint0_linear_3259_8165" x1="9.417" x2="9.417" y1=".742" y2="18.242" gradientUnits="userSpaceOnUse"><stop stop-color="#3232DC"/><stop offset="1" stop-color="#FF7583"/></linearGradient></defs></svg>