<svg xmlns="http://www.w3.org/2000/svg" width="12" height="18" fill="none" viewBox="0 0 12 18"><path fill="#16161A" fill-rule="evenodd" d="M9.33329 6.41146V2.24479H10.1666C10.625 2.24479 11 1.86979 11 1.41146C11 0.953125 10.625 0.578125 10.1666 0.578125H1.83329C1.37496 0.578125 0.999959 0.953125 0.999959 1.41146C0.999959 1.86979 1.37496 2.24479 1.83329 2.24479H2.66663V6.41146C2.66663 7.79479 1.54996 8.91146 0.166626 8.91146V10.5781H5.14163V16.4115L5.97496 17.2448L6.80829 16.4115V10.5781H11.8333V8.91146C10.45 8.91146 9.33329 7.79479 9.33329 6.41146Z" clip-rule="evenodd"/><path fill="url(#paint0_linear_3259_8173)" fill-rule="evenodd" d="M9.33329 6.41146V2.24479H10.1666C10.625 2.24479 11 1.86979 11 1.41146C11 0.953125 10.625 0.578125 10.1666 0.578125H1.83329C1.37496 0.578125 0.999959 0.953125 0.999959 1.41146C0.999959 1.86979 1.37496 2.24479 1.83329 2.24479H2.66663V6.41146C2.66663 7.79479 1.54996 8.91146 0.166626 8.91146V10.5781H5.14163V16.4115L5.97496 17.2448L6.80829 16.4115V10.5781H11.8333V8.91146C10.45 8.91146 9.33329 7.79479 9.33329 6.41146Z" clip-rule="evenodd"/><defs><linearGradient id="paint0_linear_3259_8173" x1="6" x2="6" y1=".578" y2="17.245" gradientUnits="userSpaceOnUse"><stop stop-color="#3232DC"/><stop offset="1" stop-color="#FF7583"/></linearGradient></defs></svg>