<svg width="17" height="16" viewBox="0 0 17 16" fill="none" xmlns="http://www.w3.org/2000/svg">
<path fill-rule="evenodd" clip-rule="evenodd" d="M10.7923 7.53419C7.67606 5.85225 3.88594 3.66918 1.0347 1.88932C0.187973 1.28451 0.614218 -0.00574085 1.63951 1.9222e-05H15.7459C16.5351 1.9222e-05 17.0592 0.881309 16.6675 1.54372C15.7229 3.17958 14.3405 5.25896 13.1827 6.90634C12.5606 7.78763 11.5468 7.94316 10.7923 7.53419ZM6.24193 8.07528C9.25445 9.68234 13.4708 12.1246 16.4718 13.9678C17.3992 14.5438 17.0305 15.9147 15.9477 15.909H1.06939C0.205379 15.909 -0.238147 15.0162 0.130498 14.3883C1.36891 12.2686 2.76861 10.1374 3.92638 8.54185C4.43903 7.83336 5.48736 7.67208 6.24193 8.07528Z" fill="currentColor"/>
</svg>
