<svg width="24" height="24" viewBox="0 0 24 24" fill="none" xmlns="http://www.w3.org/2000/svg">
<path d="M17.535 13.251C17.535 13.7177 17.1609 14.0961 16.6995 14.0961C16.2381 14.0961 15.8641 13.7177 15.8641 13.251C15.8641 12.7843 16.2381 12.4059 16.6995 12.4059C17.1609 12.4059 17.535 12.7843 17.535 13.251Z" fill="currentColor"></path>
<path fill-rule="evenodd" clip-rule="evenodd" d="M4.17722 5.34859C4.17722 4.57073 4.80062 3.94014 5.56962 3.94014L19.4937 3.94014C19.9551 3.94014 20.3291 3.56179 20.3291 3.09507C20.3291 2.62835 19.9551 2.25 19.4937 2.25L5.56962 2.25C3.87781 2.25 2.50633 3.63729 2.50633 5.34859V10.9104C3.03324 10.6947 3.59354 10.5449 4.17722 10.4713V8.72887C4.17722 7.95101 4.80062 7.32042 5.56962 7.32042H18.9367C19.7057 7.32042 20.3291 7.95101 20.3291 8.72887V9.01056H14.481C12.7892 9.01056 11.4177 10.3979 11.4177 12.1092V14.3627C11.4177 16.074 12.7892 17.4613 14.481 17.4613H20.3291V17.743C20.3291 18.5208 19.7057 19.1514 18.9367 19.1514H11.4075C11.2258 19.7549 10.963 20.3226 10.6318 20.8416H18.9367C20.6285 20.8416 22 19.4543 22 17.743V8.72887C22 7.01757 20.6285 5.63028 18.9367 5.63028H5.56962C5.06823 5.63028 4.59497 5.75213 4.17722 5.96815V5.34859ZM20.3291 10.7007V15.7711H14.481C13.712 15.7711 13.0886 15.1405 13.0886 14.3627V12.1092C13.0886 11.3313 13.712 10.7007 14.481 10.7007H20.3291Z" fill="currentColor"></path>
<path fill-rule="evenodd" clip-rule="evenodd" d="M10.0253 17.1796C10.0253 19.9799 7.78107 22.25 5.01266 22.25C2.24424 22.25 0 19.9799 0 17.1796C0 14.3793 2.24424 12.1092 5.01266 12.1092C7.78107 12.1092 10.0253 14.3793 10.0253 17.1796ZM4.17722 18.0246V19.7148C4.17722 20.1815 4.55126 20.5599 5.01266 20.5599C5.47406 20.5599 5.8481 20.1815 5.8481 19.7148V18.0246H7.51899C7.98039 18.0246 8.35443 17.6463 8.35443 17.1796C8.35443 16.7129 7.98039 16.3345 7.51899 16.3345H5.8481V14.6444C5.8481 14.1776 5.47406 13.7993 5.01266 13.7993C4.55126 13.7993 4.17722 14.1776 4.17722 14.6444V16.3345H2.50633C2.04493 16.3345 1.67089 16.7129 1.67089 17.1796C1.67089 17.6463 2.04493 18.0246 2.50633 18.0246H4.17722Z" fill="currentColor"></path>
</svg>
