<svg width="400" height="600" viewBox="0 0 400 600" fill="none" xmlns="http://www.w3.org/2000/svg"><g clip-path="url('#clip0_144_7122')"><path opacity=".16" fill-rule="evenodd" clip-rule="evenodd" d="M8.038 319.649c-14.158 12.949-20.252 23.763-21.654 29.961l-48.768-11.031c4.628-20.462 19.092-39.743 36.679-55.826 18.13-16.582 41.968-31.977 69.509-44.132 55.059-24.3 127.321-36.674 202.454-17.247l-12.516 48.408c-62.532-16.168-123.24-5.945-169.75 14.582-23.243 10.259-42.34 22.834-55.954 35.285Z" fill="url('#paint0_radial_144_7122')"/><path opacity=".16" fill-rule="evenodd" clip-rule="evenodd" d="m-19.65 648.876-16.653 44.087c189.219 52.355 263.043-16.945 327.821-80.362l-34.978-35.729c-76.174 60.889-138.283 111.282-276.19 72.004Z" fill="url('#paint1_radial_144_7122')"/><path opacity=".12" fill-rule="evenodd" clip-rule="evenodd" d="M209.316 357.904c30.812 5.883 55.965 20.577 87.696 39.993 66.385 40.62 108.475 22.629 119.006 7.22l41.281 28.21c-32.962 48.236-110.477 53.665-186.383 7.22-32.49-19.88-50.348-29.592-70.978-33.531-20.732-3.958-46.662-2.454-95.167 6.977l-9.543-49.081c49.437-9.612 83.379-12.872 114.088-7.008Z" fill="url('#paint2_radial_144_7122')"/><g opacity=".32" filter="url('#filter0_f_144_7122')"><circle cx="375" cy="90.731" r="80" fill="#2962EF"/></g><g opacity=".24" filter="url('#filter1_f_144_7122')"><ellipse cx="60" cy="601.259" rx="80" ry="79.259" fill="#2962EF"/></g></g><defs><radialGradient id="paint0_radial_144_7122" cx="0" cy="0" r="1" gradientUnits="userSpaceOnUse" gradientTransform="rotate(-10.159 1610.966 206.55) scale(320.195 96.6822)"><stop stop-color="#2962EF"/><stop offset=".68" stop-color="#2962EF" stop-opacity=".34"/><stop offset=".917" stop-color="#2962EF" stop-opacity="0"/></radialGradient><radialGradient id="paint1_radial_144_7122" cx="0" cy="0" r="1" gradientUnits="userSpaceOnUse" gradientTransform="matrix(118.92773 -113.47243 82.78779 86.7679 153.032 703.156)"><stop stop-color="#2962EF"/><stop offset=".847" stop-color="#2962EF" stop-opacity=".34"/><stop offset="1" stop-color="#2962EF" stop-opacity="0"/></radialGradient><radialGradient id="paint2_radial_144_7122" cx="0" cy="0" r="1" gradientUnits="userSpaceOnUse" gradientTransform="rotate(-164.874 212.195 195.039) scale(285.75 117.443)"><stop stop-color="#2962EF"/><stop offset=".802" stop-color="#2962EF" stop-opacity=".34"/><stop offset="1" stop-color="#2962EF" stop-opacity="0"/></radialGradient><filter id="filter0_f_144_7122" x="95" y="-189.269" width="560" height="560" filterUnits="userSpaceOnUse" color-interpolation-filters="sRGB"><feFlood flood-opacity="0" result="BackgroundImageFix"/><feBlend in="SourceGraphic" in2="BackgroundImageFix" result="shape"/><feGaussianBlur stdDeviation="100" result="effect1_foregroundBlur_144_7122"/></filter><filter id="filter1_f_144_7122" x="-220" y="322" width="560" height="558.519" filterUnits="userSpaceOnUse" color-interpolation-filters="sRGB"><feFlood flood-opacity="0" result="BackgroundImageFix"/><feBlend in="SourceGraphic" in2="BackgroundImageFix" result="shape"/><feGaussianBlur stdDeviation="100" result="effect1_foregroundBlur_144_7122"/></filter><clipPath id="clip0_144_7122"><path fill="#fff" d="M0 0h400v600H0z"/></clipPath></defs></svg>