<svg viewBox="0 0 400 600" fill="none" xmlns="http://www.w3.org/2000/svg"><g clip-path="url('#clip0_1_1217')"><path fill-rule="evenodd" clip-rule="evenodd" d="M178.119 3.57c-28.109-33.399-62.711-54.695-97.34-70.433-2.514-1.142-3.66-4.09-2.546-6.617 1.114-2.527 4.065-3.676 6.58-2.534C120.269-59.91 156.344-37.832 185.77-2.87c30.009 35.656 52.833 84.393 61.337 153.121.339 2.74-1.638 5.225-4.383 5.533-2.744.308-5.216-1.678-5.556-4.419-8.306-66.984-30.45-113.814-59.049-147.796Z" fill="#2962EF"/><path fill-rule="evenodd" clip-rule="evenodd" d="M160.046 13.439c-30.228-32.525-69.9-53.389-115.963-73.666l7.655-17.39c46.42 20.434 89.719 42.332 122.76 77.883 33.28 35.808 55.179 83.951 63.263 156.063l-18.628 2.395c-7.724-68.898-29.098-113.018-59.087-145.285Z" fill="url('#paint0_radial_1_1217')"/><path fill-rule="evenodd" clip-rule="evenodd" d="M372.565 216.042c37.591 25.46 80.012 34.698 106.581 33.525 2.483-.109 4.673 1.696 4.91 4.17.238 2.474-1.564 4.679-4.047 4.8-28.656 1.39-73.222-8.446-112.491-35.043-40.728-27.586-75.886-73.296-81.772-143.237-.208-2.476 1.674-4.633 4.154-4.795 2.48-.162 4.618 1.732 4.829 4.208 5.676 66.841 39.133 110.158 77.836 136.372Z" fill="#2962EF"/><path fill-rule="evenodd" clip-rule="evenodd" d="M355.85 214.698c35.091 28.034 76.357 37.105 100.923 34.747l1.816 18.913c-29.852 2.866-75.254-8.157-114.357-37.985-39.513-30.141-72.719-79.561-77.531-153.353l18.824-1.272c4.441 68.099 36.024 111.972 70.325 138.95Z" fill="url('#paint1_radial_1_1217')"/><path fill-rule="evenodd" clip-rule="evenodd" d="M-26.965 116.296c-32.12 26.748-48.466 60.218-54.13 85.592-.602 2.695-3.186 4.512-5.905 4.032-2.72-.48-4.545-3.071-3.953-5.768 6.027-27.451 23.477-63.134 57.589-91.541C2.16 79.029 55.444 57.593 131.96 61.192c2.758.13 4.874 2.504 4.707 5.26-.167 2.757-2.552 4.852-5.311 4.723C57.13 67.71 6.411 88.502-26.965 116.296Z" fill="#2962EF"/><path fill-rule="evenodd" clip-rule="evenodd" d="M-19.627 134.964c-31.174 27.976-45.22 63.395-49.683 88.673l-18.71-3.304c5.041-28.557 20.745-68.138 55.703-99.51C2.87 89.244 56.706 66.763 136.4 71.273l-1.073 18.97C59.993 85.98 11.316 107.194-19.627 134.963Z" fill="url('#paint2_radial_1_1217')"/><path opacity=".16" fill-rule="evenodd" clip-rule="evenodd" d="M8.038 359.742c-14.158 12.949-20.252 23.763-21.654 29.961l-48.768-11.031c4.628-20.463 19.092-39.743 36.679-55.827 18.13-16.581 41.968-31.976 69.509-44.131 55.059-24.3 127.321-36.674 202.454-17.247l-12.516 48.408c-62.532-16.169-123.24-5.945-169.75 14.582-23.243 10.258-42.34 22.834-55.954 35.285Z" fill="url('#paint3_radial_1_1217')"/><path opacity=".16" fill-rule="evenodd" clip-rule="evenodd" d="m-19.65 648.876-16.653 44.088c189.219 52.354 263.043-16.946 327.821-80.363l-34.978-35.729c-76.174 60.889-138.283 111.282-276.19 72.004Z" fill="url('#paint4_radial_1_1217')"/><path opacity=".12" fill-rule="evenodd" clip-rule="evenodd" d="M209.316 373.077c30.812 5.883 55.965 20.578 87.696 39.994 66.385 40.619 108.475 22.629 119.006 7.219l41.281 28.211c-32.962 48.235-110.477 53.664-186.383 7.219-32.49-19.879-50.348-29.591-70.978-33.53-20.732-3.958-46.662-2.455-95.167 6.976l-9.543-49.081c49.437-9.612 83.379-12.871 114.088-7.008Z" fill="url('#paint5_radial_1_1217')"/><g opacity=".32" filter="url('#filter0_f_1_1217')"><circle cx="375" cy="90.731" r="80" fill="#2962EF"/></g><g opacity=".24" filter="url('#filter1_f_1_1217')"><ellipse cx="60" cy="601.259" rx="80" ry="79.259" fill="#2962EF"/></g></g><defs><radialGradient id="paint0_radial_1_1217" cx="0" cy="0" r="1" gradientUnits="userSpaceOnUse" gradientTransform="matrix(66.96973 157.5101 -75.98705 32.30798 170.635 -.808)"><stop stop-color="#2962EF" stop-opacity=".16"/><stop offset=".802" stop-color="#2962EF" stop-opacity=".08"/><stop offset="1" stop-color="#2962EF" stop-opacity="0"/></radialGradient><radialGradient id="paint1_radial_1_1217" cx="0" cy="0" r="1" gradientUnits="userSpaceOnUse" gradientTransform="rotate(-115.498 250.294 1.579) scale(169.218 109.032)"><stop stop-color="#2962EF" stop-opacity=".16"/><stop offset=".855" stop-color="#2962EF" stop-opacity=".08"/><stop offset="1" stop-color="#2962EF" stop-opacity="0"/></radialGradient><radialGradient id="paint2_radial_1_1217" cx="0" cy="0" r="1" gradientUnits="userSpaceOnUse" gradientTransform="matrix(135.49152 -19.91303 14.43707 98.23217 .914 98.72)"><stop stop-color="#2962EF" stop-opacity=".16"/><stop offset=".802" stop-color="#2962EF" stop-opacity=".08"/><stop offset="1" stop-color="#2962EF" stop-opacity="0"/></radialGradient><radialGradient id="paint3_radial_1_1217" cx="0" cy="0" r="1" gradientUnits="userSpaceOnUse" gradientTransform="rotate(-10.159 1836.486 226.595) scale(320.195 96.6822)"><stop stop-color="#2962EF"/><stop offset=".68" stop-color="#2962EF" stop-opacity=".34"/><stop offset=".917" stop-color="#2962EF" stop-opacity="0"/></radialGradient><radialGradient id="paint4_radial_1_1217" cx="0" cy="0" r="1" gradientUnits="userSpaceOnUse" gradientTransform="matrix(118.92773 -113.47243 82.78779 86.7679 153.032 703.156)"><stop stop-color="#2962EF"/><stop offset=".847" stop-color="#2962EF" stop-opacity=".34"/><stop offset="1" stop-color="#2962EF" stop-opacity="0"/></radialGradient><radialGradient id="paint5_radial_1_1217" cx="0" cy="0" r="1" gradientUnits="userSpaceOnUse" gradientTransform="rotate(-164.874 213.203 202.626) scale(285.75 117.443)"><stop stop-color="#2962EF"/><stop offset=".802" stop-color="#2962EF" stop-opacity=".34"/><stop offset="1" stop-color="#2962EF" stop-opacity="0"/></radialGradient><filter id="filter0_f_1_1217" x="95" y="-189.269" width="560" height="560" filterUnits="userSpaceOnUse" color-interpolation-filters="sRGB"><feFlood flood-opacity="0" result="BackgroundImageFix"/><feBlend in="SourceGraphic" in2="BackgroundImageFix" result="shape"/><feGaussianBlur stdDeviation="100" result="effect1_foregroundBlur_1_1217"/></filter><filter id="filter1_f_1_1217" x="-220" y="322" width="560" height="558.518" filterUnits="userSpaceOnUse" color-interpolation-filters="sRGB"><feFlood flood-opacity="0" result="BackgroundImageFix"/><feBlend in="SourceGraphic" in2="BackgroundImageFix" result="shape"/><feGaussianBlur stdDeviation="100" result="effect1_foregroundBlur_1_1217"/></filter><clipPath id="clip0_1_1217"><path fill="#fff" d="M0 0h400v600H0z"/></clipPath></defs></svg>