<svg width="16" height="16" viewBox="0 0 16 16" fill="none" xmlns="http://www.w3.org/2000/svg">
<circle cx="7.99998" cy="8.0005" r="6.06667" stroke="currentColor" stroke-width="1.2"></circle>
<path d="M8.5 10.8576C8.5 11.1206 8.2868 11.3338 8.02381 11.3338H7.97619C7.7132 11.3338 7.5 11.1206 7.5 10.8576C7.5 10.5946 7.7132 10.3814 7.97619 10.3814H8.02381C8.2868 10.3814 8.5 10.5946 8.5 10.8576ZM9.535 7.64334L9.085 8.08143C8.78687 8.36931 8.58132 8.61473 8.51948 9.09627C8.49603 9.27887 8.35076 9.42905 8.16667 9.42905H7.73809C7.6066 9.42905 7.5 9.32245 7.5 9.19095C7.5 8.66714 7.725 8.19095 8.085 7.84333L8.705 7.24334C8.89 7.07191 9 6.83381 9 6.57191C9 6.0481 8.55 5.61953 8 5.61953C7.63138 5.61953 7.30768 5.81204 7.13427 6.09671C6.99061 6.33254 6.77614 6.57191 6.5 6.57191C6.22386 6.57191 5.99315 6.34387 6.06782 6.07801C6.2961 5.26525 7.07437 4.66714 8 4.66714C9.105 4.66714 10 5.51953 10 6.57191C10 6.99095 9.82 7.37191 9.535 7.64334Z" fill="currentColor" stroke="currentColor" stroke-width="0.3"></path>
</svg>
