<svg width="24" height="24" viewBox="0 0 24 24" fill="none" xmlns="http://www.w3.org/2000/svg">
<path d="M18.5733 13.1282C18.2925 12.9125 18.154 12.5645 18.1675 12.2106C18.1702 12.1411 18.1716 12.0709 18.1716 12C18.1716 11.9392 18.1705 11.8789 18.1684 11.8192C18.1555 11.4488 18.2945 11.0798 18.5897 10.8557L19.8482 9.9C20.0025 9.78 20.0436 9.56 19.951 9.39L18.3053 6.62C18.2024 6.44 17.9864 6.38 17.8013 6.44L16.2693 7.03874C15.9489 7.16398 15.5898 7.1104 15.2972 6.92934C15.165 6.84754 15.0302 6.77092 14.8918 6.69947C14.574 6.53532 14.334 6.24181 14.2825 5.88781L14.0572 4.34C14.0263 4.14 13.8515 4 13.6458 4H10.3542C10.1485 4 9.98395 4.14 9.9531 4.34L9.7278 5.88781C9.67628 6.24181 9.43642 6.53561 9.11891 6.7004C8.97967 6.77266 8.84398 6.85002 8.71183 6.93173C8.4203 7.11198 8.06241 7.16437 7.74318 7.03961L6.20901 6.44C6.02386 6.37 5.80786 6.44 5.705 6.62L4.05924 9.39C3.95638 9.57 3.99753 9.78 4.1621 9.9L5.42062 10.8557C5.71578 11.0798 5.85166 11.4482 5.83312 11.8184C5.83008 11.8792 5.82843 11.9399 5.82843 12C5.82843 12.0599 5.82952 12.1202 5.8317 12.1808C5.84503 12.5511 5.70549 12.9202 5.41034 13.1443L4.15182 14.1C3.99753 14.22 3.95638 14.44 4.04896 14.61L5.69471 17.38C5.79757 17.56 6.01357 17.62 6.19872 17.56L7.73067 16.9613C8.05112 16.836 8.41024 16.8896 8.7028 17.0707C8.83497 17.1525 8.96984 17.2291 9.10818 17.3005C9.42603 17.4647 9.66599 17.7582 9.71752 18.1122L9.94281 19.66C9.98395 19.86 10.1485 20 10.3542 20H13.6458C13.8515 20 14.0263 19.86 14.0469 19.66L14.2722 18.1122C14.3237 17.7582 14.5636 17.4644 14.8811 17.2996C15.0203 17.2273 15.156 17.15 15.2882 17.0683C15.5797 16.888 15.9376 16.8356 16.2568 16.9604L17.791 17.56C17.9761 17.63 18.1921 17.56 18.295 17.38L19.9408 14.61C20.0436 14.43 20.0025 14.22 19.8379 14.1L18.5733 13.1282ZM12 15C10.3028 15 8.91421 13.65 8.91421 12C8.91421 10.35 10.3028 9 12 9C13.6972 9 15.0858 10.35 15.0858 12C15.0858 13.65 13.6972 15 12 15Z" stroke="currentColor" stroke-width="1.7"></path>
</svg>
