<svg width="32" height="32" viewBox="0 0 32 32" fill="none" xmlns="http://www.w3.org/2000/svg">
<rect width="32" height="32" rx="4" fill="#255CE5"></rect>
<path d="M7 11H22C23.6569 11 25 12.3431 25 14V22C25 23.6569 23.6569 25 22 25H8C7.44772 25 7 24.5523 7 24V11Z" stroke="white" stroke-width="2"></path>
<path d="M6 9C6 7.89543 6.89543 7 8 7H20C21.1046 7 22 7.89543 22 9H6Z" fill="white"></path>
<rect width="32" height="32" rx="4" fill="#255CE5"></rect>
<path d="M7 11H22C23.6569 11 25 12.3431 25 14V22C25 23.6569 23.6569 25 22 25H8C7.44772 25 7 24.5523 7 24V11Z" stroke="white" stroke-width="2"></path>
<path d="M6 9C6 7.89543 6.89543 7 8 7H20C21.1046 7 22 7.89543 22 9H6Z" fill="white"></path>
</svg>
