<svg xmlns="http://www.w3.org/2000/svg" width="56" height="16" viewBox="0 0 56 16" fill="none">
<path d="M11.5039 12.9498V2.80078H13.4795V12.9498H11.5039Z" fill="#CDCED3"/>
<path d="M18.0219 13.1631C15.7122 13.1631 14.1289 11.4881 14.1289 9.31641C14.1289 7.14468 15.7122 5.46973 18.0219 5.46973C20.3316 5.46973 21.9149 7.14468 21.9149 9.31641C21.9149 11.4881 20.3316 13.1631 18.0219 13.1631ZM18.0219 11.6869C19.2276 11.6869 19.9103 10.7358 19.9103 9.31641C19.9103 7.89695 19.2276 6.93174 18.0219 6.93174C16.8017 6.93174 16.1335 7.89695 16.1335 9.31641C16.1335 10.7358 16.8017 11.6869 18.0219 11.6869Z" fill="#CDCED3"/>
<path d="M25.9981 13.1631C23.6449 13.1631 22.1777 11.4881 22.1777 9.31641C22.1777 7.14468 23.6304 5.46973 25.8964 5.46973C27.8284 5.46973 29.0195 6.5627 29.281 8.13826H27.3491C27.2183 7.49951 26.7099 7.01692 25.9836 7.01692C24.7924 7.01692 24.1823 7.91115 24.1823 9.31641C24.1823 10.6933 24.7489 11.6159 25.9545 11.6159C26.7535 11.6159 27.32 11.2043 27.4507 10.381H29.3537C29.2229 11.9282 27.9882 13.1631 25.9981 13.1631Z" fill="#CDCED3"/>
<path d="M34.8358 12.9498L32.7439 9.62827L31.8869 10.4941V12.9498H29.9258V2.80078H31.8869V8.42175L34.5307 5.66805H36.8984L34.1528 8.43595L37.2324 12.9498H34.8358Z" fill="#CDCED3"/>
<path d="M42.0434 12.9501C41.9269 12.8082 41.8544 12.4675 41.8108 12.1411H41.7819C41.4043 12.6946 40.8667 13.1205 39.5885 13.1205C38.0632 13.1205 36.9883 12.3398 36.9883 10.8919C36.9883 9.28797 38.3247 8.77698 39.9804 8.54987C41.2153 8.37954 41.7819 8.28019 41.7819 7.72659C41.7819 7.20142 41.3607 6.86073 40.5327 6.86073C39.6028 6.86073 39.1527 7.18722 39.0945 7.88275H37.3369C37.3948 6.60525 38.3682 5.48389 40.547 5.48389C42.7842 5.48389 43.6848 6.46329 43.6848 8.16663V11.8713C43.6848 12.4249 43.772 12.7514 43.9463 12.8792V12.9501H42.0434ZM40.0676 11.772C41.2007 11.772 41.8255 11.0907 41.8255 10.3809V9.28797C41.4768 9.48671 40.9392 9.60026 40.4455 9.71382C39.4142 9.94093 38.9055 10.168 38.9055 10.8494C38.9055 11.5307 39.3706 11.772 40.0676 11.772Z" fill="#CDCED3"/>
<path d="M44.6484 12.9498V5.66805H46.6239V12.9498H44.6484ZM44.6484 4.5325V2.80078H46.6239V4.5325H44.6484Z" fill="#CDCED3"/>
<path d="M50.3982 13.1627C48.5243 13.1627 47.2461 11.6723 47.2461 9.31601C47.2461 7.0449 48.5678 5.46933 50.4272 5.46933C51.4731 5.46933 52.1269 5.93776 52.5337 6.5481H52.5773V2.80078H54.5528V12.9498H52.6498V11.9987H52.6209C52.1851 12.6943 51.4442 13.1627 50.3982 13.1627ZM50.8341 11.5445C52.0107 11.5445 52.6209 10.6929 52.6209 9.35859C52.6209 7.96753 52.1558 7.03072 50.8923 7.03072C49.8027 7.03072 49.2508 7.96753 49.2508 9.31601C49.2508 10.7212 49.8174 11.5445 50.8341 11.5445Z" fill="#CDCED3"/>
<path fill-rule="evenodd" clip-rule="evenodd" d="M8.4161 4.45737H1.3165V2.80322H8.4161C9.7451 2.80322 10.8225 3.85634 10.8225 5.15542C10.8225 6.45452 9.7451 7.50762 8.4161 7.50762H3.26745C3.07061 7.50762 2.91101 7.6636 2.91101 7.85603C2.91101 8.04845 3.07061 8.20443 3.26745 8.20443H8.41631C9.7452 8.20443 10.8225 9.25744 10.8225 10.5564C10.8225 11.8554 9.7452 12.9084 8.41631 12.9084H1.3165V11.2542H8.41631C8.81058 11.2542 9.13022 10.9418 9.13022 10.5564C9.13022 10.171 8.81058 9.85859 8.41631 9.85859H3.26745C2.13598 9.85859 1.21875 8.96201 1.21875 7.85603C1.21875 6.75005 2.13598 5.85347 3.26745 5.85347H8.4161C8.81049 5.85347 9.13022 5.54094 9.13022 5.15542C9.13022 4.7699 8.81049 4.45737 8.4161 4.45737Z" fill="#CDCED3"/>
</svg>