<svg width="14" height="16" viewBox="0 0 14 16" fill="none" xmlns="http://www.w3.org/2000/svg">
<path d="M6.99658 0.222656C7.25481 0.222731 7.54361 0.291559 7.78662 0.360352C8.61527 0.589987 11.4717 1.65216 12.3149 2.00391C13.0671 2.31745 13.4165 2.64651 13.4165 3.54883V9.33789C13.4165 12.1217 11.8894 13.2158 7.53564 15.6172C7.3383 15.7241 7.13334 15.7772 6.99658 15.7773C6.86743 15.7773 6.66188 15.7242 6.46436 15.6172C2.09543 13.2235 0.583496 12.1217 0.583496 9.33789V3.54883C0.583535 2.64651 0.932885 2.32509 1.68506 2.00391C2.52839 1.6445 5.37676 0.635897 6.20557 0.360352C6.45631 0.276227 6.74584 0.222656 6.99658 0.222656ZM11.228 5.13086Z" fill="#01A643"/>
</svg>
