<svg width="29" height="28" viewBox="0 0 29 28" fill="none" xmlns="http://www.w3.org/2000/svg">
<path d="M14.2461 6.22266C14.5044 6.22266 14.793 6.29153 15.0361 6.36035C15.8642 6.58974 18.7205 7.65193 19.5645 8.00391C20.3166 8.31745 20.667 8.64651 20.667 9.54883V15.3379C20.667 18.1217 19.1389 19.2158 14.7852 21.6172C14.5877 21.7241 14.3828 21.7773 14.2461 21.7773C14.1169 21.7773 13.9114 21.7242 13.7139 21.6172C9.34516 19.2236 7.83301 18.1216 7.83301 15.3379V9.54883C7.83305 8.64651 8.18337 8.32509 8.93555 8.00391C9.77954 7.64429 12.628 6.63564 13.4561 6.36035C13.7068 6.27623 13.9954 6.22267 14.2461 6.22266Z" fill="currentColor"/>
</svg>
