<svg width="12" height="12" viewBox="0 0 12 12" fill="none" xmlns="http://www.w3.org/2000/svg">
  <path d="M9.15035 2.85438C8.95535 2.65938 8.64035 2.65938 8.44535 2.85438L6.00035 5.29438L3.55535 2.84938C3.36035 2.65437 3.04535 2.65437 2.85035 2.84938C2.65535 3.04438 2.65535 3.35938 2.85035 3.55438L5.29535 5.99938L2.85035 8.44438C2.65535 8.63938 2.65535 8.95438 2.85035 9.14938C3.04535 9.34438 3.36035 9.34438 3.55535 9.14938L6.00035 6.70438L8.44535 9.14938C8.64035 9.34438 8.95535 9.34438 9.15035 9.14938C9.34535 8.95438 9.34535 8.63938 9.15035 8.44438L6.70535 5.99938L9.15035 3.55438C9.34035 3.36438 9.34035 3.04438 9.15035 2.85438Z" fill="currentColor"/>
</svg>
