<svg width="270" height="60" viewBox="0 0 270 60" fill="none" xmlns="http://www.w3.org/2000/svg">
<rect width="216" height="60" rx="8" fill="#404042"/>
<path d="M170 30C170 13.4315 183.431 0 200 0H270V60H200C183.431 60 170 46.5685 170 30Z" fill="#ECECEC"/>
<circle cx="31" cy="30" r="14.5" fill="#404042" stroke="#2C2C2E"/>
<circle cx="200" cy="30" r="14.5" stroke="#ABABAB"/>
<rect x="58" y="6" width="100" height="48" rx="2" fill="#2C2C2E"/>
<g opacity="0.3">
<path fill-rule="evenodd" clip-rule="evenodd" d="M108.405 14L104 21.1789L104 21.179L104 21.179L104 21.1791L104 21.179L108.405 23.7363V19.2121L104.461 20.9731L108.405 19.211V14ZM108.405 14V19.211L112.347 20.9722L108.405 19.2121V23.7363L112.81 21.179L112.81 21.1791L112.81 21.179L112.81 21.179L112.81 21.1789L108.405 14ZM108.405 28.096V24.5546L104 21.9985L108.405 28.096ZM108.405 24.5552V28.096L112.813 21.9985L108.405 24.5552Z" fill="#959596"/>
<path opacity="0.5" d="M80.768 34.6H86.252V35.824H82.148V38.152H85.532V39.34H82.148V41.776H86.396V43H80.768V34.6ZM88.0577 41.332V37.996H86.9897V36.856H88.0577V35.14H89.3657V36.856H90.8657V37.996H89.3657V41.2C89.3657 41.68 89.5337 41.86 90.0257 41.86H90.9377V43H89.7377C88.5617 43 88.0577 42.448 88.0577 41.332ZM92.1421 34.6H93.4381V37.744C93.8221 37.216 94.4101 36.784 95.3701 36.784C96.7381 36.784 97.8541 37.528 97.8541 39.58V43H96.5581V39.688C96.5581 38.524 96.0421 37.9 95.0821 37.9C94.0621 37.9 93.4381 38.656 93.4381 39.892V43H92.1421V34.6ZM102.282 43.072C100.35 43.072 99.1378 41.824 99.1378 39.94C99.1378 38.044 100.35 36.784 102.162 36.784C103.938 36.784 105.126 37.912 105.162 39.712C105.162 39.868 105.15 40.036 105.126 40.204H100.494V40.288C100.53 41.332 101.19 42.016 102.21 42.016C103.002 42.016 103.578 41.62 103.758 40.936H105.054C104.838 42.148 103.806 43.072 102.282 43.072ZM100.542 39.256H103.818C103.71 38.344 103.074 37.828 102.174 37.828C101.346 37.828 100.638 38.38 100.542 39.256ZM106.59 36.856H107.742L107.886 37.78C108.198 37.264 108.69 36.856 109.698 36.856H109.986V38.068H109.41C108.258 38.068 107.886 38.968 107.886 39.916V43H106.59V36.856ZM113.788 43.072C111.856 43.072 110.644 41.824 110.644 39.94C110.644 38.044 111.856 36.784 113.668 36.784C115.444 36.784 116.632 37.912 116.668 39.712C116.668 39.868 116.656 40.036 116.632 40.204H112V40.288C112.036 41.332 112.696 42.016 113.716 42.016C114.508 42.016 115.084 41.62 115.264 40.936H116.56C116.344 42.148 115.312 43.072 113.788 43.072ZM112.048 39.256H115.324C115.216 38.344 114.58 37.828 113.68 37.828C112.852 37.828 112.144 38.38 112.048 39.256ZM118 40.276V36.856H119.296V40.132C119.296 41.332 119.776 41.944 120.724 41.944C121.708 41.944 122.308 41.2 122.308 39.928V36.856H123.604V43H122.464L122.32 42.22C121.936 42.688 121.372 43.072 120.424 43.072C119.116 43.072 118 42.376 118 40.276ZM125.261 43V36.856H126.389L126.533 37.66C126.881 37.204 127.409 36.796 128.333 36.784C129.137 36.784 129.857 37.108 130.229 37.9C130.625 37.228 131.321 36.784 132.329 36.784C133.601 36.784 134.633 37.516 134.633 39.46V43H133.337V39.544C133.337 38.464 132.893 37.9 132.053 37.9C131.165 37.9 130.601 38.572 130.601 39.676V43H129.293V39.544C129.293 38.464 128.849 37.9 127.997 37.9C127.109 37.9 126.557 38.62 126.557 39.712V43H125.261Z" fill="white"/>
</g>
</svg>
