<svg width="249" height="60" viewBox="0 0 249 60" fill="none" xmlns="http://www.w3.org/2000/svg">
<rect width="216" height="60" rx="8" fill="#404042"/>
<path d="M169 30C169 13.4315 182.431 0 199 0H249V60H199C182.431 60 169 46.5685 169 30Z" fill="#ECECEC"/>
<circle cx="30" cy="30" r="14.5" fill="#404042" stroke="#2C2C2E"/>
<circle cx="199" cy="30" r="14.5" stroke="#ABABAB"/>
<rect x="57" y="6" width="100" height="48" rx="2" fill="#2C2C2E"/>
<path fill-rule="evenodd" clip-rule="evenodd" d="M107.405 16L103 23.1789L103 23.179L103 23.179L103 23.1791L103 23.179L107.405 25.7363V21.2121L103.461 22.9731L107.405 21.211V16ZM107.405 16V21.211L111.347 22.9722L107.405 21.2121V25.7363L111.81 23.179L111.81 23.1791L111.81 23.179L111.81 23.179L111.81 23.1789L107.405 16ZM107.405 30.096V26.5546L103 23.9985L107.405 30.096ZM107.405 26.5552V30.096L111.813 23.9985L107.405 26.5552Z" fill="#959596"/>
<path opacity="0.5" d="M79.768 36.6H85.252V37.824H81.148V40.152H84.532V41.34H81.148V43.776H85.396V45H79.768V36.6ZM87.0577 43.332V39.996H85.9897V38.856H87.0577V37.14H88.3657V38.856H89.8657V39.996H88.3657V43.2C88.3657 43.68 88.5337 43.86 89.0257 43.86H89.9377V45H88.7377C87.5617 45 87.0577 44.448 87.0577 43.332ZM91.1421 36.6H92.4381V39.744C92.8221 39.216 93.4101 38.784 94.3701 38.784C95.7381 38.784 96.8541 39.528 96.8541 41.58V45H95.5581V41.688C95.5581 40.524 95.0421 39.9 94.0821 39.9C93.0621 39.9 92.4381 40.656 92.4381 41.892V45H91.1421V36.6ZM101.282 45.072C99.3498 45.072 98.1378 43.824 98.1378 41.94C98.1378 40.044 99.3498 38.784 101.162 38.784C102.938 38.784 104.126 39.912 104.162 41.712C104.162 41.868 104.15 42.036 104.126 42.204H99.4938V42.288C99.5298 43.332 100.19 44.016 101.21 44.016C102.002 44.016 102.578 43.62 102.758 42.936H104.054C103.838 44.148 102.806 45.072 101.282 45.072ZM99.5418 41.256H102.818C102.71 40.344 102.074 39.828 101.174 39.828C100.346 39.828 99.6378 40.38 99.5418 41.256ZM105.59 38.856H106.742L106.886 39.78C107.198 39.264 107.69 38.856 108.698 38.856H108.986V40.068H108.41C107.258 40.068 106.886 40.968 106.886 41.916V45H105.59V38.856ZM112.788 45.072C110.856 45.072 109.644 43.824 109.644 41.94C109.644 40.044 110.856 38.784 112.668 38.784C114.444 38.784 115.632 39.912 115.668 41.712C115.668 41.868 115.656 42.036 115.632 42.204H111V42.288C111.036 43.332 111.696 44.016 112.716 44.016C113.508 44.016 114.084 43.62 114.264 42.936H115.56C115.344 44.148 114.312 45.072 112.788 45.072ZM111.048 41.256H114.324C114.216 40.344 113.58 39.828 112.68 39.828C111.852 39.828 111.144 40.38 111.048 41.256ZM117 42.276V38.856H118.296V42.132C118.296 43.332 118.776 43.944 119.724 43.944C120.708 43.944 121.308 43.2 121.308 41.928V38.856H122.604V45H121.464L121.32 44.22C120.936 44.688 120.372 45.072 119.424 45.072C118.116 45.072 117 44.376 117 42.276ZM124.261 45V38.856H125.389L125.533 39.66C125.881 39.204 126.409 38.796 127.333 38.784C128.137 38.784 128.857 39.108 129.229 39.9C129.625 39.228 130.321 38.784 131.329 38.784C132.601 38.784 133.633 39.516 133.633 41.46V45H132.337V41.544C132.337 40.464 131.893 39.9 131.053 39.9C130.165 39.9 129.601 40.572 129.601 41.676V45H128.293V41.544C128.293 40.464 127.849 39.9 126.997 39.9C126.109 39.9 125.557 40.62 125.557 41.712V45H124.261Z" fill="white"/>
</svg>
