<svg width="56" height="32" viewBox="0 0 56 32" fill="none" xmlns="http://www.w3.org/2000/svg">
<path fill-rule="evenodd" clip-rule="evenodd" d="M28.405 0L24.0001 7.17893L24 7.17897L24.0001 7.179L24 7.17909L24.0001 7.17904L28.405 9.7363V5.21206L24.461 6.9731L28.405 5.21101V0ZM28.4053 0V5.21101L32.3467 6.97222L28.4053 5.21206V9.7363L32.8096 7.17904L32.8097 7.17909L32.8096 7.179L32.8097 7.17897L32.8096 7.17892L28.4053 0ZM28.405 14.096V10.5546L24 7.99847L28.405 14.096ZM28.4053 10.5552V14.096L32.8126 7.99847L28.4053 10.5552Z" fill="#959596"/>
<path opacity="0.5" d="M0.768 20.6H6.252V21.824H2.148V24.152H5.532V25.34H2.148V27.776H6.396V29H0.768V20.6ZM8.05766 27.332V23.996H6.98966V22.856H8.05766V21.14H9.36566V22.856H10.8657V23.996H9.36566V27.2C9.36566 27.68 9.53366 27.86 10.0257 27.86H10.9377V29H9.73766C8.56166 29 8.05766 28.448 8.05766 27.332ZM12.1421 20.6H13.4381V23.744C13.8221 23.216 14.4101 22.784 15.3701 22.784C16.7381 22.784 17.8541 23.528 17.8541 25.58V29H16.5581V25.688C16.5581 24.524 16.0421 23.9 15.0821 23.9C14.0621 23.9 13.4381 24.656 13.4381 25.892V29H12.1421V20.6ZM22.2818 29.072C20.3498 29.072 19.1378 27.824 19.1378 25.94C19.1378 24.044 20.3498 22.784 22.1618 22.784C23.9378 22.784 25.1258 23.912 25.1618 25.712C25.1618 25.868 25.1498 26.036 25.1258 26.204H20.4938V26.288C20.5298 27.332 21.1898 28.016 22.2098 28.016C23.0018 28.016 23.5778 27.62 23.7578 26.936H25.0538C24.8378 28.148 23.8058 29.072 22.2818 29.072ZM20.5418 25.256H23.8178C23.7098 24.344 23.0738 23.828 22.1738 23.828C21.3458 23.828 20.6378 24.38 20.5418 25.256ZM26.5896 22.856H27.7416L27.8856 23.78C28.1976 23.264 28.6896 22.856 29.6976 22.856H29.9856V24.068H29.4096C28.2576 24.068 27.8856 24.968 27.8856 25.916V29H26.5896V22.856ZM33.7879 29.072C31.8559 29.072 30.6439 27.824 30.6439 25.94C30.6439 24.044 31.8559 22.784 33.6679 22.784C35.4439 22.784 36.6319 23.912 36.6679 25.712C36.6679 25.868 36.6559 26.036 36.6319 26.204H31.9999V26.288C32.0359 27.332 32.6959 28.016 33.7159 28.016C34.5079 28.016 35.0839 27.62 35.2639 26.936H36.5599C36.3439 28.148 35.3119 29.072 33.7879 29.072ZM32.0479 25.256H35.3239C35.2159 24.344 34.5799 23.828 33.6799 23.828C32.8519 23.828 32.1439 24.38 32.0479 25.256ZM37.9997 26.276V22.856H39.2957V26.132C39.2957 27.332 39.7757 27.944 40.7237 27.944C41.7077 27.944 42.3077 27.2 42.3077 25.928V22.856H43.6037V29H42.4637L42.3197 28.22C41.9357 28.688 41.3717 29.072 40.4237 29.072C39.1157 29.072 37.9997 28.376 37.9997 26.276ZM45.2608 29V22.856H46.3888L46.5328 23.66C46.8808 23.204 47.4088 22.796 48.3328 22.784C49.1368 22.784 49.8568 23.108 50.2288 23.9C50.6248 23.228 51.3208 22.784 52.3288 22.784C53.6008 22.784 54.6328 23.516 54.6328 25.46V29H53.3368V25.544C53.3368 24.464 52.8928 23.9 52.0528 23.9C51.1648 23.9 50.6008 24.572 50.6008 25.676V29H49.2928V25.544C49.2928 24.464 48.8488 23.9 47.9968 23.9C47.1088 23.9 46.5568 24.62 46.5568 25.712V29H45.2608Z" fill="white"/>
</svg>
