<svg xmlns="http://www.w3.org/2000/svg" width="36" height="36" fill="none" viewBox="0 0 36 36"><g clip-path="url(#clip0_1747_3134)"><path fill="var(--black)" fill-rule="evenodd" d="M36 18C36 27.9411 27.9411 36 18 36C8.05888 36 0 27.9411 0 18C0 8.05888 8.05888 0 18 0C27.9411 0 36 8.05888 36 18ZM34.875 18C34.875 27.3198 27.3198 34.875 18 34.875C8.68019 34.875 1.125 27.3198 1.125 18C1.125 8.68019 8.68019 1.125 18 1.125C27.3198 1.125 34.875 8.68019 34.875 18Z" clip-rule="evenodd"/><path fill="var(--black)" fill-rule="evenodd" d="M22.7377 13.3828H23.6853C24.7276 13.3828 25.5804 14.2356 25.5804 15.2779V24.7533C25.5804 25.7956 24.7276 26.6484 23.6853 26.6484H12.3147C11.2724 26.6484 10.4196 25.7956 10.4196 24.7533V15.2779C10.4196 14.2356 11.2724 13.3828 12.3147 13.3828H20.9374V11.4877C20.9374 9.86742 19.6203 8.55033 18 8.55033C16.8543 8.55033 15.8601 9.20888 15.3761 10.1675C15.1763 10.5632 14.8076 10.8834 14.3643 10.8834C13.7999 10.8834 13.3575 10.3817 13.5526 9.85204C14.2191 8.04203 15.9596 6.75 18 6.75C20.6152 6.75 22.7377 8.8725 22.7377 11.4877V13.3828ZM18 21.9107C19.0423 21.9107 19.8951 21.0579 19.8951 20.0156C19.8951 18.9733 19.0423 18.1205 18 18.1205C16.9577 18.1205 16.1049 18.9733 16.1049 20.0156C16.1049 21.0579 16.9577 21.9107 18 21.9107ZM12.3147 24.7534H23.6853V15.2779H12.3147V24.7534Z" clip-rule="evenodd"/></g><defs><clipPath id="clip0_1747_3134"><rect width="36" height="36" fill="#fff"/></clipPath></defs></svg>