<svg width="24" height="24" viewBox="0 0 24 24" fill="none" xmlns="http://www.w3.org/2000/svg">
<mask id="mask0" mask-type="alpha" maskUnits="userSpaceOnUse" x="0" y="0" width="24" height="24">
<path d="M23.5 12C23.5 18.3513 18.3513 23.5 12 23.5C5.64873 23.5 0.5 18.3513 0.5 12C0.5 5.64873 5.64873 0.5 12 0.5C18.3513 0.5 23.5 5.64873 23.5 12Z" fill="white" stroke="white"/>
</mask>
<g mask="url(#mask0)">
<path fill-rule="evenodd" clip-rule="evenodd" d="M12 24C18.6274 24 24 18.6274 24 12C24 5.37258 18.6274 0 12 0C5.37258 0 0 5.37258 0 12C0 18.6274 5.37258 24 12 24Z" fill="var(--neutral-200)"/>
<path fill-rule="evenodd" clip-rule="evenodd" d="M15.125 9.375H15.75C16.4375 9.375 17 9.9375 17 10.625V16.875C17 17.5625 16.4375 18.125 15.75 18.125H8.25C7.5625 18.125 7 17.5625 7 16.875V10.625C7 9.9375 7.5625 9.375 8.25 9.375H13.9375V8.125C13.9375 7.05625 13.0687 6.1875 12 6.1875C11.2443 6.1875 10.5886 6.62188 10.2693 7.2542C10.1375 7.51519 9.89431 7.72638 9.60193 7.72638C9.22964 7.72638 8.93783 7.39546 9.06648 7.0461C9.50611 5.85222 10.6541 5 12 5C13.725 5 15.125 6.4 15.125 8.125V9.375ZM12 15C12.6875 15 13.25 14.4375 13.25 13.75C13.25 13.0625 12.6875 12.5 12 12.5C11.3125 12.5 10.75 13.0625 10.75 13.75C10.75 14.4375 11.3125 15 12 15ZM8.25 16.875H15.75V10.625H8.25V16.875Z" fill="var(--black)"/>
</g>
</svg>
