<svg width="36" height="36" viewBox="0 0 36 36" fill="none" xmlns="http://www.w3.org/2000/svg">
<g clip-path="url(#clip0_2443_6096)">
<path fill-rule="evenodd" clip-rule="evenodd" d="M36 18C36 27.9411 27.9411 36 18 36C8.05888 36 0 27.9411 0 18C0 8.05888 8.05888 0 18 0C27.9411 0 36 8.05888 36 18ZM34.875 18C34.875 27.3198 27.3198 34.875 18 34.875C8.68019 34.875 1.125 27.3198 1.125 18C1.125 8.68019 8.68019 1.125 18 1.125C27.3198 1.125 34.875 8.68019 34.875 18Z" fill="var(--black)"/>
<path d="M21.0531 18.5264C20.8024 16.6685 19.3316 15.1976 17.4736 14.9469C17.9402 14.3693 18.6542 14 19.4545 14C20.8604 14 22 15.1396 22 16.5455C22 17.3458 21.6307 18.0598 21.0531 18.5264Z" fill="var(--black)"/>
<path d="M16.9091 16.1818C15.3024 16.1818 14 17.4843 14 19.0909C14 20.6976 15.3024 22 16.9091 22C18.5157 22 19.8182 20.6976 19.8182 19.0909C19.8182 17.4843 18.5157 16.1818 16.9091 16.1818Z" fill="var(--black)"/>
<path d="M11.1327 23.8173C12.1096 24.9705 13.3612 25.8591 14.7721 26.4012C16.1829 26.9433 17.7075 27.1213 19.2053 26.9189C20.7031 26.7165 22.1257 26.1402 23.3421 25.2431C24.5584 24.346 25.5293 23.157 26.165 21.7858C26.8008 20.4147 27.081 18.9055 26.9798 17.3975C26.8786 15.8895 26.3993 14.4313 25.5861 13.1573C24.7728 11.8834 23.6519 10.8347 22.3266 10.1082C21.0013 9.38161 19.5144 9.0005 18.003 9" stroke="var(--black)" stroke-width="1.75" stroke-linecap="round"/>
<path d="M18 9L18 11.6966" stroke="var(--black)" stroke-width="1.75" stroke-linecap="round"/>
<path fill-rule="evenodd" clip-rule="evenodd" d="M14.303 10.4366C14.8513 10.5024 15.3492 10.1112 15.415 9.56289C15.4808 9.01454 15.0897 8.51666 14.5413 8.45083C13.993 8.385 13.4951 8.77617 13.4293 9.32451C13.3634 9.87286 13.7546 10.3707 14.303 10.4366ZM12.9348 11.2795C12.8689 11.8279 12.371 12.219 11.8227 12.1532C11.2743 12.0874 10.8832 11.5895 10.949 11.0411C11.0148 10.4928 11.5127 10.1016 12.0611 10.1674C12.6094 10.2333 13.0006 10.7312 12.9348 11.2795ZM9.97348 14.5489C10.5218 14.6148 11.0197 14.2236 11.0855 13.6753C11.1514 13.1269 10.7602 12.629 10.2119 12.5632C9.66352 12.4974 9.16563 12.8885 9.0998 13.4369C9.03398 13.9852 9.42514 14.4831 9.97348 14.5489ZM10.1878 16.0824C10.122 16.6307 9.62411 17.0219 9.07576 16.956C8.52742 16.8902 8.13626 16.3923 8.20208 15.844C8.26791 15.2956 8.7658 14.9045 9.31414 14.9703C9.86249 15.0361 10.2537 15.534 10.1878 16.0824ZM8.77144 19.4911C9.31979 19.5569 9.81768 19.1657 9.8835 18.6174C9.94933 18.069 9.55817 17.5712 9.00982 17.5053C8.46147 17.4395 7.96359 17.8307 7.89776 18.379C7.83193 18.9274 8.2231 19.4253 8.77144 19.4911ZM9.3349 22.0732C9.88325 22.1391 10.3811 21.7479 10.447 21.1995C10.5128 20.6512 10.1216 20.1533 9.57328 20.0875C9.02494 20.0217 8.52705 20.4128 8.46122 20.9612C8.3954 21.5095 8.78656 22.0074 9.3349 22.0732Z" fill="var(--black)"/>
</g>
<defs>
<clipPath id="clip0_2443_6096">
<rect width="36" height="36" fill="white"/>
</clipPath>
</defs>
</svg>
