<svg width="24" height="24" viewBox="0 0 24 24" fill="none" xmlns="http://www.w3.org/2000/svg">
<path d="M24 12C24 18.6274 18.6274 24 12 24C5.37259 24 0 18.6274 0 12C0 5.37259 5.37259 0 12 0C18.6274 0 24 5.37259 24 12Z" fill="var(--neutral-200)"/>
<path fill-rule="evenodd" clip-rule="evenodd" d="M15.1253 5.73914C12.2453 5.73914 9.91309 8.07653 9.91309 10.9565C9.91309 13.8365 12.2453 16.1739 15.1253 16.1739C18.0105 16.1739 20.3479 13.8365 20.3479 10.9565C20.3479 8.07653 18.0105 5.73914 15.1253 5.73914ZM15.1305 15.1304C12.8244 15.1304 10.9566 13.2626 10.9566 10.9565C10.9566 8.65044 12.8244 6.78261 15.1305 6.78261C17.4366 6.78261 19.3044 8.65044 19.3044 10.9565C19.3044 13.2626 17.4366 15.1304 15.1305 15.1304Z" fill="var(--neutral-300)"/>
<path d="M15.1251 5.47827C12.1007 5.47827 9.6521 7.93279 9.6521 10.9565H10.1738C10.1738 8.22027 12.3896 6.00001 15.1251 6.00001V5.47827ZM9.6521 10.9565C9.6521 13.9802 12.1007 16.4348 15.1251 16.4348V15.9131C12.3896 15.9131 10.1738 13.6928 10.1738 10.9565H9.6521ZM15.1251 16.4348C18.1543 16.4348 20.6086 13.9807 20.6086 10.9565H20.0869C20.0869 13.6923 17.8665 15.9131 15.1251 15.9131V16.4348ZM20.6086 10.9565C20.6086 7.93229 18.1543 5.47827 15.1251 5.47827V6.00001C17.8665 6.00001 20.0869 8.22077 20.0869 10.9565H20.6086ZM15.1304 14.8696C12.9684 14.8696 11.2173 13.1185 11.2173 10.9565H10.6956C10.6956 13.4067 12.6802 15.3913 15.1304 15.3913V14.8696ZM11.2173 10.9565C11.2173 8.79452 12.9684 7.04349 15.1304 7.04349V6.52175C12.6802 6.52175 10.6956 8.50637 10.6956 10.9565H11.2173ZM15.1304 7.04349C17.2923 7.04349 19.0434 8.79452 19.0434 10.9565H19.5651C19.5651 8.50637 17.5806 6.52175 15.1304 6.52175V7.04349ZM19.0434 10.9565C19.0434 13.1185 17.2923 14.8696 15.1304 14.8696V15.3913C17.5806 15.3913 19.5651 13.4067 19.5651 10.9565H19.0434Z" fill="var(--neutral-300)"/>
<path fill-rule="evenodd" clip-rule="evenodd" d="M15.3913 8.73914C15.3913 8.52303 15.2161 8.34784 14.9999 8.34784C14.7838 8.34784 14.6086 8.52303 14.6086 8.73914V11.4783L17.0286 12.9303C17.2052 13.0362 17.4343 12.9798 17.5415 12.804C17.6503 12.6257 17.5924 12.393 17.4128 12.2864L15.3913 11.087V8.73914Z" fill="var(--neutral-300)"/>
<path d="M13.5 15H6.5C5.67157 15 5 15.6716 5 16.5C5 17.3284 5.67157 18 6.5 18H13.5C14.3284 18 15 17.3284 15 16.5C15 15.6716 14.3284 15 13.5 15Z" fill="var(--neutral-300)" stroke="var(--neutral-200)"/>
<path d="M13.5 12H6.5C5.67157 12 5 12.6716 5 13.5C5 14.3284 5.67157 15 6.5 15H13.5C14.3284 15 15 14.3284 15 13.5C15 12.6716 14.3284 12 13.5 12Z" fill="var(--neutral-300)" stroke="var(--neutral-200)"/>
</svg>
