<svg width="36" height="36" viewBox="0 0 36 36" fill="none" xmlns="http://www.w3.org/2000/svg">
<g clip-path="url(#clip0_2157_5748)">
<path fill-rule="evenodd" clip-rule="evenodd" d="M18 34.875C27.3198 34.875 34.875 27.3198 34.875 18C34.875 8.68019 27.3198 1.125 18 1.125C8.68019 1.125 1.125 8.68019 1.125 18C1.125 27.3198 8.68019 34.875 18 34.875ZM18 36C27.9411 36 36 27.9411 36 18C36 8.05888 27.9411 0 18 0C8.05888 0 0 8.05888 0 18C0 27.9411 8.05888 36 18 36Z" fill="var(--black)"/>
<path fill-rule="evenodd" clip-rule="evenodd" d="M17.4699 10.6548C17.0429 11.96 16.1416 13.792 14.1107 16.0467C11.8912 18.5108 11.506 20.3263 11.5 20.9942C11.5013 23.9921 13.4237 25.5722 15.1962 26.2935C14.2788 24.0119 14.9869 21.8552 15.6919 20.8631C16.0626 20.3415 16.862 20.4939 17.0285 21.1003C17.1074 21.3876 17.2767 21.8207 17.5091 22.1635C17.7646 22.5404 17.9508 22.6048 18.0219 22.6048C18.203 22.6048 18.4301 22.4991 18.6524 22.0638C18.8732 21.6316 19.0027 21.0122 19.0027 20.3799C19.0027 19.3228 18.7339 17.912 18.5951 17.3307C18.4978 16.9227 18.7442 16.5849 19.0315 16.4623C19.291 16.3515 19.6216 16.3888 19.8546 16.6199C22.8038 19.5449 22.5961 23.4148 21.851 25.9426C23.709 24.7326 25 22.8584 25 21.1507C25 18.9501 23.9405 17.2048 21.8651 14.6187C20.6139 13.0596 18.7478 11.5609 17.4699 10.6548ZM16.1225 9.93465C16.3445 9.17368 17.2786 8.69594 18.0428 9.22202C19.3585 10.1278 21.5535 11.8314 23.0338 13.676C25.1177 16.2727 26.5 18.3812 26.5 21.1507C26.5 23.7973 24.409 26.2998 21.9704 27.6187C21.4313 27.9102 20.8689 27.7371 20.5355 27.395C20.2157 27.0668 20.0605 26.5486 20.242 26.0403C20.7779 24.5395 21.106 22.4688 20.5016 20.4962C20.4869 21.2661 20.3266 22.0854 19.9876 22.7493C19.633 23.4435 18.9947 24.1086 18.0219 24.1086C17.2406 24.1086 16.6896 23.5854 16.3531 23.1285C16.1826 23.9693 16.2119 25.0349 16.7642 26.1199C16.9932 26.5697 16.9424 27.0823 16.6952 27.4576C16.4331 27.8556 15.9213 28.1223 15.3466 27.9432C13.1303 27.2526 10 25.2725 10 20.9912V20.9856H10C10.0085 19.8573 10.5997 17.7008 12.9975 15.0387C15.0471 12.7633 15.8057 11.0204 16.1225 9.93465Z" fill="var(--black)"/>
</g>
<defs>
<clipPath id="clip0_2157_5748">
<rect width="36" height="36" fill="white"/>
</clipPath>
</defs>
</svg>
