<svg width="24" height="24" viewBox="0 0 24 24" fill="none" xmlns="http://www.w3.org/2000/svg">
<mask id="mask0" mask-type="alpha" maskUnits="userSpaceOnUse" x="0" y="0" width="24" height="24">
<path d="M23.5 12C23.5 18.3513 18.3513 23.5 12 23.5C5.64873 23.5 0.5 18.3513 0.5 12C0.5 5.64873 5.64873 0.5 12 0.5C18.3513 0.5 23.5 5.64873 23.5 12Z" fill="white" stroke="white"/>
</mask>
<g mask="url(#mask0)">
<path fill-rule="evenodd" clip-rule="evenodd" d="M12 24C18.6274 24 24 18.6274 24 12C24 5.37258 18.6274 0 12 0C5.37258 0 0 5.37258 0 12C0 18.6274 5.37258 24 12 24Z" fill="var(--neutral-200)"/>
<path fill-rule="evenodd" clip-rule="evenodd" d="M12.0002 5.33281C8.3335 5.33281 5.3335 8.33281 5.3335 11.9995C5.3335 15.6661 8.3335 18.6661 12.0002 18.6661C15.6668 18.6661 18.6668 15.6661 18.6668 11.9995C18.6668 8.33281 15.6668 5.33281 12.0002 5.33281ZM6.66592 12.0013C6.66592 9.06797 9.06592 6.66797 11.9993 6.66797C13.1993 6.66797 14.3326 7.06797 15.2659 7.8013L7.79925 15.268C7.06592 14.3346 6.66592 13.2013 6.66592 12.0013ZM11.999 17.3336C10.799 17.3336 9.66566 16.9336 8.73232 16.2003L16.199 8.73359C16.9323 9.66692 17.3323 10.8003 17.3323 12.0003C17.3323 14.9336 14.9323 17.3336 11.999 17.3336Z" fill="var(--black)"/>
</g>
</svg>
