<svg width="36" height="36" viewBox="0 0 36 36" fill="none" xmlns="http://www.w3.org/2000/svg">
<path d="M12.2343 12.2343C12.5467 11.9219 13.0533 11.9219 13.3657 12.2343L18 16.8687L22.6343 12.2343C22.9467 11.9219 23.4533 11.9219 23.7657 12.2343C24.0781 12.5468 24.0781 13.0533 23.7657 13.3657L19.1314 18L23.7657 22.6343C24.0781 22.9468 24.0781 23.4533 23.7657 23.7657C23.4533 24.0781 22.9467 24.0781 22.6343 23.7657L18 19.1314L13.3657 23.7657C13.0533 24.0781 12.5467 24.0781 12.2343 23.7657C11.9219 23.4533 11.9219 22.9468 12.2343 22.6343L16.8686 18L12.2343 13.3657C11.9219 13.0533 11.9219 12.5468 12.2343 12.2343Z" fill="var(--negative-500)"/>
<path fill-rule="evenodd" clip-rule="evenodd" d="M36 18C36 27.9411 27.9411 36 18 36C8.05888 36 0 27.9411 0 18C0 8.05888 8.05888 0 18 0C27.9411 0 36 8.05888 36 18ZM34.875 18C34.875 27.3198 27.3198 34.875 18 34.875C8.68019 34.875 1.125 27.3198 1.125 18C1.125 8.68019 8.68019 1.125 18 1.125C27.3198 1.125 34.875 8.68019 34.875 18Z" fill="var(--negative-500)"/>
</svg>
