<svg width="36" height="36" viewBox="0 0 36 36" fill="none" xmlns="http://www.w3.org/2000/svg">
<g clip-path="url(#clip0_2444_6325)">
<path fill-rule="evenodd" clip-rule="evenodd" d="M36 18C36 27.9411 27.9411 36 18 36C8.05888 36 0 27.9411 0 18C0 8.05888 8.05888 0 18 0C27.9411 0 36 8.05888 36 18ZM34.875 18C34.875 27.3198 27.3198 34.875 18 34.875C8.68019 34.875 1.125 27.3198 1.125 18C1.125 8.68019 8.68019 1.125 18 1.125C27.3198 1.125 34.875 8.68019 34.875 18Z" fill="var(--black)"/>
<path d="M8.8 20.6996C8.8 17.1657 11.6648 14.3009 15.1987 14.3009C18.7326 14.3009 21.5974 17.1657 21.5974 20.6996C21.5974 24.2335 18.7326 27.0983 15.1987 27.0983C11.6648 27.0983 8.8 24.2335 8.8 20.6996Z" stroke="var(--black)" stroke-width="1.6"/>
<path d="M16 10.8402C20.6543 11.4108 24.3199 15.1792 24.732 19.8808C26.1016 18.7253 26.9715 16.9964 26.9715 15.0642C26.9715 11.5855 24.1514 8.76538 20.6727 8.76538C18.8191 8.76538 17.1526 9.56596 16 10.8402Z" stroke="var(--black)" stroke-width="1.5"/>
<path d="M12.0254 21.5185H14.385V23.8892C14.385 24.3634 14.7208 24.6996 15.1858 24.6996C15.6681 24.6996 16.0125 24.3634 16.0125 23.8892V21.5185H18.3806C18.8543 21.5185 19.1987 21.1823 19.1987 20.7082C19.1987 20.2341 18.8629 19.8892 18.3806 19.8892H16.0125V17.5186C16.0125 17.0358 15.6681 16.6996 15.1858 16.6996C14.7208 16.6996 14.385 17.0358 14.385 17.5186V19.8892H12.0254C11.5346 19.8892 11.1987 20.2341 11.1987 20.7082C11.1987 21.1823 11.5432 21.5185 12.0254 21.5185Z" fill="var(--black)"/>
</g>
<defs>
<clipPath id="clip0_2444_6325">
<rect width="36" height="36" fill="white"/>
</clipPath>
</defs>
</svg>
