<svg width="36" height="36" viewBox="0 0 36 36" fill="none" xmlns="http://www.w3.org/2000/svg">
<g clip-path="url(#clip0_842_2182)">
<path fill-rule="evenodd" clip-rule="evenodd" d="M34.875 18C34.875 27.3198 27.3198 34.875 18 34.875C8.68019 34.875 1.125 27.3198 1.125 18C1.125 8.68019 8.68019 1.125 18 1.125C27.3198 1.125 34.875 8.68019 34.875 18ZM36 18C36 27.9411 27.9411 36 18 36C8.05888 36 0 27.9411 0 18C0 8.05888 8.05888 0 18 0C27.9411 0 36 8.05888 36 18ZM10.6471 10.5115C10.6471 9.50048 11.4662 8.67329 12.4787 8.67329H19.0143C19.5442 8.67329 20.0525 8.88362 20.4275 9.25808L24.7775 13.6019C25.1532 13.9771 25.3643 14.4862 25.3643 15.0171V25.2171C25.3643 26.2281 24.5359 27.0553 23.5235 27.0553H12.4695C11.457 27.0553 10.6379 26.2281 10.6379 25.2171L10.6471 10.5115ZM12.4886 11.9827C12.4886 11.1739 13.103 10.5121 13.8623 10.5121H18.5191C19.0714 10.5121 19.5992 10.7406 19.9772 11.1432L22.9847 14.3466C23.3328 14.7174 23.5266 15.2069 23.5266 15.7155V23.7471C23.5266 24.5559 22.9053 25.2177 22.146 25.2177H13.8554C13.0961 25.2177 12.4817 24.5559 12.4817 23.7471L12.4886 11.9827ZM18.0054 15.0279C18.0054 15.5802 18.4531 16.0279 19.0054 16.0279H21.3991C21.8447 16.0279 22.0677 15.489 21.7524 15.1741L18.8587 12.2845C18.5436 11.9699 18.0054 12.1931 18.0054 12.6383V15.0279Z" fill="var(--notice-500)"/>
</g>
<defs>
<clipPath id="clip0_842_2182">
<rect width="36" height="36" fill="white"/>
</clipPath>
</defs>
</svg>
