<svg xmlns="http://www.w3.org/2000/svg" width="36" height="36" fill="none" viewBox="0 0 36 36"><g clip-path="url(#clip0_2443_5909)"><path fill="var(--black)" fill-rule="evenodd" d="M36 18C36 27.9411 27.9411 36 18 36C8.05888 36 0 27.9411 0 18C0 8.05888 8.05888 0 18 0C27.9411 0 36 8.05888 36 18ZM34.875 18C34.875 27.3198 27.3198 34.875 18 34.875C8.68019 34.875 1.125 27.3198 1.125 18C1.125 8.68019 8.68019 1.125 18 1.125C27.3198 1.125 34.875 8.68019 34.875 18Z" clip-rule="evenodd"/><path fill="var(--black)" fill-rule="evenodd" d="M17.195 8.18724C17.7018 7.93759 18.2982 7.93759 18.805 8.18724L26.005 11.7343C26.6148 12.0347 27 12.6488 27 13.3206V22.236C27 22.8767 26.6492 23.4677 26.0825 23.7818L18.8825 27.7722C18.3345 28.0759 17.6655 28.0759 17.1175 27.7722L9.91753 23.7818C9.35075 23.4677 9 22.8767 9 22.236V13.3206C9 12.6488 9.3852 12.0347 9.99502 11.7343L17.195 8.18724ZM18.115 9.54692C18.0426 9.51126 17.9574 9.51126 17.885 9.54692L11.4162 12.7338L13.8004 14.0551C14.1993 14.2762 14.3163 14.7957 14.0507 15.1665C13.8252 15.4813 13.3996 15.5771 13.0609 15.3894L10.5429 13.9939V22.236C10.5429 22.3275 10.593 22.412 10.6739 22.4568L17.2286 26.0896V24.1069C17.2286 23.6808 17.574 23.3354 18 23.3354C18.4261 23.3354 18.7714 23.6808 18.7714 24.1069V26.0896L25.3261 22.4568C25.407 22.412 25.4571 22.3275 25.4571 22.236V13.9939L22.9391 15.3894C22.6004 15.5771 22.1748 15.4813 21.9493 15.1665C21.6837 14.7957 21.8007 14.2762 22.1996 14.0551L24.5838 12.7338L18.115 9.54692Z" clip-rule="evenodd"/><path fill="var(--black)" d="M17.2466 21.0043V18.1452L17.3363 16.452L15.7758 18.1803L15.2735 18.6629C15.13 18.7857 14.9327 18.8822 14.7175 18.8822C14.296 18.8822 14 18.5751 14 18.1716C14 17.9698 14.0807 17.7855 14.2242 17.6452L17.3812 14.5483C17.5785 14.3553 17.7937 14.25 18 14.25C18.2063 14.25 18.4305 14.3553 18.6188 14.5483L21.7758 17.6452C21.9193 17.7855 22 17.9698 22 18.1716C22 18.5751 21.704 18.8822 21.2825 18.8822C21.0673 18.8822 20.87 18.7945 20.7265 18.6629L20.2242 18.1803L18.6637 16.452L18.7534 18.1452V21.0043C18.7534 21.4517 18.4036 21.75 18 21.75C17.5964 21.75 17.2466 21.4517 17.2466 21.0043Z"/></g><defs><clipPath id="clip0_2443_5909"><rect width="36" height="36" fill="#fff"/></clipPath></defs></svg>