<svg width="24" height="25" viewBox="0 0 24 25" fill="none" xmlns="http://www.w3.org/2000/svg">
<path d="M24 12.5C24 19.1274 18.6274 24.5 12 24.5C5.37259 24.5 0 19.1274 0 12.5C0 5.87259 5.37259 0.5 12 0.5C18.6274 0.5 24 5.87259 24 12.5Z" fill="var(--neutral-200)"/>
<path d="M5.73901 14.0652C5.73901 13.7771 5.97261 13.5435 6.26075 13.5435C6.5489 13.5435 6.78249 13.7771 6.78249 14.0652V16.6739H17.2173V14.0652C17.2173 13.7771 17.4509 13.5435 17.739 13.5435C18.0271 13.5435 18.2608 13.7771 18.2608 14.0652V17.1957C18.2608 17.4838 18.0271 17.7174 17.739 17.7174H6.26075C5.97261 17.7174 5.73901 17.4838 5.73901 17.1957V14.0652Z" fill="var(--positive-500)" stroke="var(--positive-500)" stroke-width="0.5"/>
<path fill-rule="evenodd" clip-rule="evenodd" d="M11.9999 5.19565C11.6157 5.19565 11.3043 5.50711 11.3043 5.8913V11.9226L9.29769 9.92158C9.02653 9.65118 8.5876 9.65148 8.31682 9.92226C8.04576 10.1933 8.04576 10.6328 8.31682 10.9038L11.9999 14.587L15.6831 10.9038C15.9541 10.6328 15.9541 10.1933 15.6831 9.92226C15.4123 9.65148 14.9733 9.65118 14.7022 9.92158L12.6956 11.9226V5.8913C12.6956 5.50711 12.3842 5.19565 11.9999 5.19565Z" fill="var(--positive-500)"/>
</svg>
