<svg xmlns="http://www.w3.org/2000/svg" width="36" height="36" fill="none" viewBox="0 0 36 36"><g clip-path="url(#clip0_2443_5923)"><path fill="var(--black)" fill-rule="evenodd" d="M36 18C36 27.9411 27.9411 36 18 36C8.05888 36 0 27.9411 0 18C0 8.05888 8.05888 0 18 0C27.9411 0 36 8.05888 36 18ZM34.875 18C34.875 27.3198 27.3198 34.875 18 34.875C8.68019 34.875 1.125 27.3198 1.125 18C1.125 8.68019 8.68019 1.125 18 1.125C27.3198 1.125 34.875 8.68019 34.875 18Z" clip-rule="evenodd"/><path fill="var(--black)" fill-rule="evenodd" d="M18.0039 22C17.764 22 17.5319 21.9039 17.3617 21.7338L12.2785 16.8748C12.0851 16.6825 12 16.4828 12 16.2758C12 15.8024 12.3482 15.4622 12.8201 15.4622C13.0677 15.4622 13.2766 15.5584 13.4313 15.7063L15.1954 17.3703L17.2456 19.5151L17.1373 17.7993V8.83571C17.1373 8.3402 17.4932 8 18.0039 8C18.5068 8 18.8627 8.3402 18.8627 8.83571V17.7993L18.7544 19.5151L20.8046 17.3703L22.5687 15.7063C22.7234 15.5584 22.9323 15.4622 23.1799 15.4622C23.6518 15.4622 24 15.8024 24 16.2758C24 16.4828 23.9149 16.6825 23.7369 16.86L18.6383 21.7338C18.4681 21.9039 18.236 22 18.0039 22ZM9.64999 20.85V24C9.64999 25.574 10.926 26.85 12.5 26.85H23.5C25.074 26.85 26.35 25.574 26.35 24V20.85C26.35 20.3806 25.9694 20 25.5 20C25.0306 20 24.65 20.3806 24.65 20.85V24C24.65 24.6351 24.1351 25.15 23.5 25.15H12.5C11.8649 25.15 11.35 24.6351 11.35 24V20.85C11.35 20.3806 10.9694 20 10.5 20C10.0306 20 9.64999 20.3806 9.64999 20.85Z" clip-rule="evenodd"/></g><defs><clipPath id="clip0_2443_5923"><rect width="36" height="36" fill="#fff"/></clipPath></defs></svg>