<svg width="24" height="24" viewBox="0 0 24 24" fill="none" xmlns="http://www.w3.org/2000/svg">
<path fill-rule="evenodd" clip-rule="evenodd" d="M12 24C18.6274 24 24 18.6274 24 12C24 5.37258 18.6274 0 12 0C5.37258 0 0 5.37258 0 12C0 18.6274 5.37258 24 12 24Z" fill="var(--neutral-200)"/>
<path fill-rule="evenodd" clip-rule="evenodd" d="M17.1258 9.19879C16.8847 9.42112 16.5033 9.41201 16.2739 9.17852L15.6507 8.54435C14.7329 7.61035 13.2073 7.57397 12.2432 8.46318L8.05988 12.3214L12.0269 12.4159C12.3596 12.4238 12.6227 12.6915 12.6145 13.0138C12.6063 13.3361 12.33 13.591 11.9973 13.583L6.57602 13.4539C6.24334 13.4459 5.98029 13.1782 5.98847 12.8559L6.12179 7.60389C6.12997 7.28158 6.40629 7.02673 6.73897 7.03465C7.07164 7.04258 7.3347 7.31028 7.32652 7.63258L7.22896 11.4758L11.4123 7.6176C12.8585 6.28383 15.1468 6.33835 16.5235 7.73936L17.1467 8.37353C17.3761 8.60702 17.3668 8.97652 17.1258 9.19879Z" fill="var(--black)"/>
<path fill-rule="evenodd" clip-rule="evenodd" d="M7.86238 14.6257C8.10341 14.4034 8.4848 14.4125 8.71423 14.646L9.33743 15.2802C10.2552 16.2142 11.7809 16.2505 12.7449 15.3614L16.9283 11.5032L12.9612 11.4086C12.6285 11.4007 12.3655 11.133 12.3737 10.8107C12.3818 10.4884 12.6582 10.2336 12.9908 10.2415L18.4121 10.3707C18.7448 10.3786 19.0079 10.6463 18.9997 10.9686L18.8663 16.2207C18.8582 16.543 18.5818 16.7978 18.2491 16.7899C17.9165 16.7819 17.6535 16.5143 17.6616 16.192L17.7592 12.3487L13.5759 16.207C12.1297 17.5407 9.84132 17.4862 8.46463 16.0852L7.84143 15.451C7.61198 15.2175 7.62136 14.848 7.86238 14.6257Z" fill="var(--black)"/>
</svg>
