<svg xmlns="http://www.w3.org/2000/svg" width="36" height="36" fill="none" viewBox="0 0 36 36"><g clip-path="url(#clip0_1688_3168)"><path fill="var(--black)" d="M13.851 14.098C13.887 14.0373 13.9524 14 14.023 14H17.5433C17.6506 14 17.6826 14.146 17.5851 14.1909L12.6664 16.4535C12.5773 16.4945 12.4885 16.396 12.5386 16.3116L13.851 14.098Z"/><path fill="var(--black)" fill-rule="evenodd" d="M11.8071 11.7798C12.0536 11.3915 12.4816 11.1563 12.9415 11.1563H23.0585C23.5184 11.1563 23.9464 11.3915 24.1929 11.7798L26.5189 15.4431C26.8292 15.9319 26.7916 16.5646 26.4254 17.0131L19.041 26.0591C18.5033 26.7178 17.4967 26.7178 16.959 26.0591L9.57458 17.0131C9.20842 16.5646 9.17076 15.9319 9.48112 15.4431L11.8071 11.7798ZM13.1304 12.8438L11.0387 16.1382L18 24.6658L24.9613 16.1382L22.8696 12.8438H13.1304Z" clip-rule="evenodd"/><path fill="var(--black)" fill-rule="evenodd" d="M36 18C36 27.9411 27.9411 36 18 36C8.05888 36 0 27.9411 0 18C0 8.05888 8.05888 0 18 0C27.9411 0 36 8.05888 36 18ZM34.875 18C34.875 27.3198 27.3198 34.875 18 34.875C8.68019 34.875 1.125 27.3198 1.125 18C1.125 8.68019 8.68019 1.125 18 1.125C27.3198 1.125 34.875 8.68019 34.875 18Z" clip-rule="evenodd"/></g><defs><clipPath id="clip0_1688_3168"><rect width="36" height="36" fill="#fff"/></clipPath></defs></svg>