<svg width="24" height="24" viewBox="0 0 24 24" fill="none" xmlns="http://www.w3.org/2000/svg">
<path fill-rule="evenodd" clip-rule="evenodd" d="M12 24C18.6274 24 24 18.6274 24 12C24 5.37258 18.6274 0 12 0C5.37258 0 0 5.37258 0 12C0 18.6274 5.37258 24 12 24Z" fill="var(--neutral-200)"/>
<path d="M6.21011 9.68484L7.85157 7.22265C7.9443 7.08355 8.10042 7 8.26759 7H15.7324C15.8996 7 16.0557 7.08355 16.1484 7.22265L17.7899 9.68484C17.9142 9.87123 17.8993 10.1175 17.7535 10.2876L12.3796 16.5571C12.1801 16.7899 11.8199 16.7899 11.6204 16.5571L6.2465 10.2876C6.10072 10.1175 6.08585 9.87123 6.21011 9.68484Z" stroke="var(--black)" stroke-width="1.4"/>
<path fill-rule="evenodd" clip-rule="evenodd" d="M8.94063 8.58906C8.97772 8.53342 9.04017 8.5 9.10704 8.5L11.4485 8.5C11.5599 8.5 11.5879 8.65454 11.4836 8.69363L8.29029 9.89114C8.19938 9.92523 8.11812 9.82282 8.17198 9.74204L8.94063 8.58906Z" fill="var(--black)"/>
</svg>
