<svg width="36" height="36" viewBox="0 0 36 36" fill="none" xmlns="http://www.w3.org/2000/svg">
<g clip-path="url(#clip0_1688_3174)">
<path d="M18.7181 25.5755C18.5266 25.7668 18.2655 25.875 17.9956 25.875C17.7345 25.875 17.4734 25.7668 17.2819 25.5755L11.5459 20.0925C11.3457 19.8928 11.25 19.6682 11.25 19.4352C11.25 18.9027 11.6417 18.52 12.1726 18.52C12.4512 18.52 12.6862 18.6282 12.8603 18.7946L14.8448 20.6666L17.1514 23.0794L17.0295 21.1492V11.0652C17.0295 10.5077 17.4299 10.125 17.9956 10.125C18.5701 10.125 18.9705 10.5077 18.9705 11.0652V21.1492L18.8486 23.0794L21.1552 20.6666L23.1397 18.7946C23.3138 18.6282 23.5488 18.52 23.8274 18.52C24.3583 18.52 24.75 18.9027 24.75 19.4352C24.75 19.6682 24.6543 19.8928 24.4367 20.1092L18.7181 25.5755Z" fill="var(--positive-500)"/>
<path fill-rule="evenodd" clip-rule="evenodd" d="M36 18C36 27.9411 27.9411 36 18 36C8.05888 36 0 27.9411 0 18C0 8.05888 8.05888 0 18 0C27.9411 0 36 8.05888 36 18ZM34.875 18C34.875 27.3198 27.3198 34.875 18 34.875C8.68019 34.875 1.125 27.3198 1.125 18C1.125 8.68019 8.68019 1.125 18 1.125C27.3198 1.125 34.875 8.68019 34.875 18Z" fill="var(--positive-500)"/>
</g>
<defs>
<clipPath id="clip0_1688_3174">
<rect width="36" height="36" fill="white"/>
</clipPath>
</defs>
</svg>
