<svg width="24" height="24" viewBox="0 0 24 24" fill="none" xmlns="http://www.w3.org/2000/svg">
<mask id="mask0" mask-type="alpha" maskUnits="userSpaceOnUse" x="0" y="0" width="24" height="24">
<path d="M23.5 12C23.5 18.3513 18.3513 23.5 12 23.5C5.64873 23.5 0.5 18.3513 0.5 12C0.5 5.64873 5.64873 0.5 12 0.5C18.3513 0.5 23.5 5.64873 23.5 12Z" fill="white" stroke="white"/>
</mask>
<g mask="url(#mask0)">
<path fill-rule="evenodd" clip-rule="evenodd" d="M12 24C18.6274 24 24 18.6274 24 12C24 5.37258 18.6274 0 12 0C5.37258 0 0 5.37258 0 12C0 18.6274 5.37258 24 12 24Z" fill="var(--neutral-200)"/>
<path d="M11.3779 7.75544V14.7367L8.32788 11.6867C8.08413 11.4429 7.68413 11.4429 7.44038 11.6867C7.19663 11.9304 7.19663 12.3242 7.44038 12.5679L11.5591 16.6867C11.8029 16.9304 12.1966 16.9304 12.4404 16.6867L16.5591 12.5679C16.8029 12.3242 16.8029 11.9304 16.5591 11.6867C16.4424 11.5697 16.2838 11.5039 16.1185 11.5039C15.9532 11.5039 15.7947 11.5697 15.6779 11.6867L12.6279 14.7367V7.75544C12.6279 7.41169 12.3466 7.13044 12.0029 7.13044C11.6591 7.13044 11.3779 7.41169 11.3779 7.75544Z" fill="var(--positive-500)"/>
</g>
</svg>
