<svg width="24" height="24" viewBox="0 0 24 24" fill="none" xmlns="http://www.w3.org/2000/svg">
<path d="M24 12C24 18.6274 18.6274 24 12 24C5.37259 24 0 18.6274 0 12C0 5.37259 5.37259 0 12 0C18.6274 0 24 5.37259 24 12Z" fill="var(--neutral-200)"/>
<path fill-rule="evenodd" clip-rule="evenodd" d="M11.8508 6.63382C8.88735 6.63382 6.48438 9.0368 6.48438 12.0003H4.69556L7.08065 14.3854L9.46574 12.0003H7.67692C7.67692 9.6927 9.54325 7.82637 11.8508 7.82637C14.1584 7.82637 16.0247 9.6927 16.0247 12.0003C16.0247 14.3079 14.1584 16.1742 11.8508 16.1742C11.1343 16.1742 10.4593 15.9892 9.86795 15.6702C9.6062 15.529 9.27689 15.5543 9.06806 15.766C8.81083 16.0269 8.84016 16.4571 9.15707 16.6409C9.94957 17.1005 10.8698 17.3667 11.8508 17.3667C14.8143 17.3667 17.2173 14.9638 17.2173 12.0003C17.2173 9.0368 14.8143 6.63382 11.8508 6.63382Z" fill="var(--black)"/>
<path d="M6.48453 12.0003V12.2612H6.7454V12.0003H6.48453ZM4.69571 12.0003V11.7394H4.06592L4.51124 12.1848L4.69571 12.0003ZM7.0808 14.3854L6.89634 14.5699L7.0808 14.7543L7.26526 14.5699L7.0808 14.3854ZM9.4659 12.0003L9.65036 12.1848L10.0957 11.7394H9.4659V12.0003ZM7.67707 12.0003H7.4162V12.2612H7.67707V12.0003ZM9.15723 16.6409L9.02635 16.8666L9.15723 16.6409ZM9.86811 15.6702L9.74426 15.8998L9.86811 15.6702ZM11.8509 6.37296C8.74343 6.37296 6.22366 8.89274 6.22366 12.0003H6.7454C6.7454 9.18088 9.03158 6.89469 11.8509 6.89469V6.37296ZM6.48453 11.7394H4.69571V12.2612H6.48453V11.7394ZM4.51124 12.1848L6.89634 14.5699L7.26526 14.2009L4.88018 11.8158L4.51124 12.1848ZM7.26526 14.5699L9.65036 12.1848L9.28143 11.8158L6.89634 14.2009L7.26526 14.5699ZM9.4659 11.7394H7.67707V12.2612H9.4659V11.7394ZM7.93794 12.0003C7.93794 9.83678 9.68749 8.08724 11.8509 8.08724V7.5655C9.39933 7.5655 7.4162 9.54864 7.4162 12.0003H7.93794ZM11.8509 8.08724C14.0145 8.08724 15.764 9.83678 15.764 12.0003H16.2857C16.2857 9.54864 14.3026 7.5655 11.8509 7.5655V8.08724ZM15.764 12.0003C15.764 14.1638 14.0145 15.9134 11.8509 15.9134V16.4351C14.3026 16.4351 16.2857 14.452 16.2857 12.0003H15.764ZM11.8509 15.9134C11.18 15.9134 10.5473 15.7401 9.99199 15.4406L9.74426 15.8998C10.3717 16.2382 11.089 16.4351 11.8509 16.4351V15.9134ZM9.02635 16.8666C9.857 17.3482 10.8222 17.6276 11.8509 17.6276V17.1058C10.9178 17.1058 10.0425 16.8527 9.28811 16.4152L9.02635 16.8666ZM11.8509 17.6276C14.9585 17.6276 17.4783 15.1078 17.4783 12.0003H16.9566C16.9566 14.8197 14.6704 17.1058 11.8509 17.1058V17.6276ZM17.4783 12.0003C17.4783 8.89274 14.9585 6.37296 11.8509 6.37296V6.89469C14.6704 6.89469 16.9566 9.18088 16.9566 12.0003H17.4783ZM8.88248 15.5829C8.52291 15.9475 8.54112 16.5851 9.02635 16.8666L9.28811 16.4152C9.1395 16.3291 9.09906 16.1063 9.25397 15.9492L8.88248 15.5829ZM9.99199 15.4406C9.64465 15.2532 9.18515 15.2759 8.88248 15.5829L9.25397 15.9492C9.36893 15.8326 9.56805 15.8047 9.74426 15.8998L9.99199 15.4406Z" fill="var(--black)"/>
</svg>
