<svg width="36" height="36" viewBox="0 0 36 36" fill="none" xmlns="http://www.w3.org/2000/svg">
<g clip-path="url(#clip0_2443_6159)">
<path fill-rule="evenodd" clip-rule="evenodd" d="M36 18C36 27.9411 27.9411 36 18 36C8.05888 36 0 27.9411 0 18C0 8.05888 8.05888 0 18 0C27.9411 0 36 8.05888 36 18ZM34.875 18C34.875 27.3198 27.3198 34.875 18 34.875C8.68019 34.875 1.125 27.3198 1.125 18C1.125 8.68019 8.68019 1.125 18 1.125C27.3198 1.125 34.875 8.68019 34.875 18Z" fill="var(--black)"/>
<path d="M21.0531 18.5264C20.8024 16.6685 19.3316 15.1976 17.4736 14.9469C17.9402 14.3693 18.6542 14 19.4545 14C20.8604 14 22 15.1396 22 16.5455C22 17.3458 21.6307 18.0598 21.0531 18.5264Z" fill="var(--black)"/>
<path d="M16.9091 16.1818C15.3024 16.1818 14 17.4843 14 19.0909C14 20.6976 15.3024 22 16.9091 22C18.5157 22 19.8182 20.6976 19.8182 19.0909C19.8182 17.4843 18.5157 16.1818 16.9091 16.1818Z" fill="var(--black)"/>
<path d="M18.0229 9.00003C20.2386 9.00566 22.3743 9.82842 24.0211 11.3108C25.668 12.7931 26.7101 14.8308 26.948 17.0337C27.1859 19.2366 26.6028 21.4499 25.3104 23.2496C24.018 25.0493 22.1071 26.3091 19.9437 26.7876C17.7803 27.2661 15.5164 26.9298 13.5855 25.843C11.6547 24.7562 10.1926 22.9953 9.4792 20.8976C8.76585 18.7998 8.85138 16.5127 9.71942 14.4741C10.358 12.9744 11.387 11.6868 12.6853 10.7368" stroke="var(--black)" stroke-width="1.75" stroke-linecap="round"/>
<path d="M10.8557 8.93921H14.3269C14.6376 8.93921 14.8731 9.21967 14.8194 9.52572L14.25 12.7664C14.1778 13.1775 13.6635 13.3244 13.3851 13.0135L10.4832 9.77275C10.1949 9.45071 10.4234 8.93921 10.8557 8.93921Z" fill="var(--black)"/>
<path d="M18 9L18 11.6966" stroke="var(--black)" stroke-width="1.75" stroke-linecap="round"/>
</g>
<defs>
<clipPath id="clip0_2443_6159">
<rect width="36" height="36" fill="white"/>
</clipPath>
</defs>
</svg>
