<svg width="36" height="36" viewBox="0 0 36 36" fill="none" xmlns="http://www.w3.org/2000/svg">
<g clip-path="url(#clip0_2532_6164)">
<path d="M22.7377 13.3828H23.6853C24.7276 13.3828 25.5804 14.2356 25.5804 15.2779V24.7533C25.5804 25.7956 24.7276 26.6484 23.6853 26.6484H17.7514C18.0084 26.0599 18.1736 25.4222 18.2292 24.7534H23.6853V15.2779H12.3147V18.2503C12.2932 18.2501 12.2716 18.25 12.25 18.25C11.6117 18.25 10.9967 18.3497 10.4196 18.5343V15.2779C10.4196 14.2356 11.2724 13.3828 12.3147 13.3828H20.9374V11.4877C20.9374 9.86742 19.6203 8.55033 18 8.55033C16.8543 8.55033 15.8601 9.20888 15.3761 10.1675C15.1763 10.5632 14.8076 10.8834 14.3643 10.8834C13.7999 10.8834 13.3575 10.3817 13.5526 9.85204C14.2191 8.04203 15.9596 6.75 18 6.75C20.6152 6.75 22.7377 8.8725 22.7377 11.4877V13.3828Z" fill="#16161A"/>
<path d="M18 21.9107C19.0423 21.9107 19.8951 21.0579 19.8951 20.0156C19.8951 18.9733 19.0423 18.1205 18 18.1205C16.9577 18.1205 16.1049 18.9733 16.1049 20.0156C16.1049 21.0579 16.9577 21.9107 18 21.9107Z" fill="#16161A"/>
<path fill-rule="evenodd" clip-rule="evenodd" d="M12.25 29.0002C14.8734 29.0002 17.0002 26.8734 17.0002 24.25C17.0002 21.6265 14.8734 19.4998 12.25 19.4998C9.62655 19.4998 7.49983 21.6265 7.49983 24.25C7.49983 26.8734 9.62655 29.0002 12.25 29.0002ZM12.25 27.603C14.1018 27.603 15.6031 26.1018 15.6031 24.25C15.6031 23.6496 15.4452 23.086 15.1688 22.5985L10.5985 27.1688C11.086 27.4452 11.6496 27.603 12.25 27.603ZM14.2403 21.5512L9.55125 26.2403C9.14003 25.6836 8.89694 24.9952 8.89694 24.25C8.89694 22.3981 10.3982 20.8969 12.25 20.8969C12.9952 20.8969 13.6836 21.14 14.2403 21.5512Z" fill="#16161A"/>
<path fill-rule="evenodd" clip-rule="evenodd" d="M36 18C36 27.9411 27.9411 36 18 36C8.05888 36 0 27.9411 0 18C0 8.05888 8.05888 0 18 0C27.9411 0 36 8.05888 36 18ZM34.875 18C34.875 27.3198 27.3198 34.875 18 34.875C8.68019 34.875 1.125 27.3198 1.125 18C1.125 8.68019 8.68019 1.125 18 1.125C27.3198 1.125 34.875 8.68019 34.875 18Z" fill="#16161A"/>
</g>
<defs>
<clipPath id="clip0_2532_6164">
<rect width="36" height="36" fill="white"/>
</clipPath>
</defs>
</svg>
