<svg xmlns="http://www.w3.org/2000/svg" width="36" height="36" fill="none" viewBox="0 0 36 36"><g clip-path="url(#clip0_1688_3173)"><path fill="var(--black)" d="M17.2819 10.4245C17.4734 10.2332 17.7345 10.125 18.0044 10.125C18.2655 10.125 18.5266 10.2332 18.7181 10.4245L24.4541 15.9075C24.6543 16.1072 24.75 16.3318 24.75 16.5648C24.75 17.0973 24.3583 17.48 23.8274 17.48C23.5488 17.48 23.3138 17.3718 23.1397 17.2054L21.1552 15.3334L18.8486 12.9206L18.9705 14.8508V24.9348C18.9705 25.4923 18.5701 25.875 18.0044 25.875C17.4299 25.875 17.0295 25.4923 17.0295 24.9348V14.8508L17.1514 12.9206L14.8448 15.3334L12.8603 17.2054C12.6862 17.3718 12.4512 17.48 12.1726 17.48C11.6417 17.48 11.25 17.0973 11.25 16.5648C11.25 16.3318 11.3457 16.1072 11.5633 15.8908L17.2819 10.4245Z"/><path fill="var(--black)" fill-rule="evenodd" d="M36 18C36 27.9411 27.9411 36 18 36C8.05888 36 0 27.9411 0 18C0 8.05888 8.05888 0 18 0C27.9411 0 36 8.05888 36 18ZM34.875 18C34.875 27.3198 27.3198 34.875 18 34.875C8.68019 34.875 1.125 27.3198 1.125 18C1.125 8.68019 8.68019 1.125 18 1.125C27.3198 1.125 34.875 8.68019 34.875 18Z" clip-rule="evenodd"/></g><defs><clipPath id="clip0_1688_3173"><rect width="36" height="36" fill="#fff"/></clipPath></defs></svg>