<svg width="24" height="24" viewBox="0 0 24 24" fill="none" xmlns="http://www.w3.org/2000/svg">
<mask id="mask0" mask-type="alpha" maskUnits="userSpaceOnUse" x="0" y="0" width="24" height="24">
<path d="M23.5 12C23.5 18.3513 18.3513 23.5 12 23.5C5.64873 23.5 0.5 18.3513 0.5 12C0.5 5.64873 5.64873 0.5 12 0.5C18.3513 0.5 23.5 5.64873 23.5 12Z" fill="white" stroke="white"/>
</mask>
<g mask="url(#mask0)">
<path fill-rule="evenodd" clip-rule="evenodd" d="M12 24C18.6274 24 24 18.6274 24 12C24 5.37258 18.6274 0 12 0C5.37258 0 0 5.37258 0 12C0 18.6274 5.37258 24 12 24Z" fill="var(--neutral-200)"/>
<path d="M12.6221 16.2446L12.6221 9.26331L15.6721 12.3133C15.9159 12.5571 16.3159 12.5571 16.5596 12.3133C16.8034 12.0696 16.8034 11.6758 16.5596 11.4321L12.4409 7.31331C12.1971 7.06956 11.8034 7.06956 11.5596 7.31331L7.44087 11.4321C7.19712 11.6758 7.19712 12.0696 7.44087 12.3133C7.55764 12.4303 7.71617 12.4961 7.88149 12.4961C8.04682 12.4961 8.20535 12.4303 8.32212 12.3133L11.3721 9.26331L11.3721 16.2446C11.3721 16.5883 11.6534 16.8696 11.9971 16.8696C12.3409 16.8696 12.6221 16.5883 12.6221 16.2446Z" fill="var(--black)"/>
</g>
</svg>
