<svg width="36" height="36" viewBox="0 0 36 36" fill="none" xmlns="http://www.w3.org/2000/svg">
<g clip-path="url(#clip0_2444_6108)">
<path fill-rule="evenodd" clip-rule="evenodd" d="M36 18C36 27.9411 27.9411 36 18 36C8.05888 36 0 27.9411 0 18C0 8.05888 8.05888 0 18 0C27.9411 0 36 8.05888 36 18ZM34.875 18C34.875 27.3198 27.3198 34.875 18 34.875C8.68019 34.875 1.125 27.3198 1.125 18C1.125 8.68019 8.68019 1.125 18 1.125C27.3198 1.125 34.875 8.68019 34.875 18Z" fill="var(--black)"/>
<path d="M17.3617 18.7338C17.5319 18.9039 17.764 19 18.0039 19C18.236 19 18.4681 18.9039 18.6383 18.7338L23.7369 13.86C23.9149 13.6825 24 13.4828 24 13.2758C24 12.8024 23.6518 12.4622 23.1799 12.4622C22.9323 12.4622 22.7234 12.5584 22.5687 12.7063L20.8046 14.3703L18.7544 16.5151L18.8627 14.7993V6.83571C18.8627 6.3402 18.5068 6 18.0039 6C17.4932 6 17.1373 6.3402 17.1373 6.83571V14.7993L17.2456 16.5151L15.1954 14.3703L13.4313 12.7063C13.2766 12.5584 13.0677 12.4622 12.8201 12.4622C12.3482 12.4622 12 12.8024 12 13.2758C12 13.4828 12.0851 13.6825 12.2785 13.8748L17.3617 18.7338Z" fill="var(--black)"/>
<path fill-rule="evenodd" clip-rule="evenodd" d="M10.5 21C10.2239 21 10 21.2239 10 21.5V22.5C10 22.7761 10.2239 23 10.5 23H25.5C25.7761 23 26 22.7761 26 22.5V21.5C26 21.2239 25.7761 21 25.5 21H10.5ZM10 24.5C10 24.2239 10.2239 24 10.5 24H25.5C25.7761 24 26 24.2239 26 24.5V25.5C26 25.7761 25.7761 26 25.5 26H10.5C10.2239 26 10 25.7761 10 25.5V24.5ZM10 27.5C10 27.2239 10.2239 27 10.5 27H25.5C25.7761 27 26 27.2239 26 27.5V28.5C26 28.7761 25.7761 29 25.5 29H10.5C10.2239 29 10 28.7761 10 28.5V27.5Z" fill="var(--black)"/>
</g>
<defs>
<clipPath id="clip0_2444_6108">
<rect width="36" height="36" fill="white"/>
</clipPath>
</defs>
</svg>
