<svg width="36" height="36" viewBox="0 0 36 36" fill="none" xmlns="http://www.w3.org/2000/svg">
<g clip-path="url(#clip0_1687_3140)">
<path d="M23.3231 16.6499L24.4966 16.6498C24.8345 16.3097 24.8345 15.5078 24.4966 15.1678L21.0339 11.5051C20.696 11.1651 20.1502 11.1651 19.8123 11.5051C19.6501 11.668 19.5589 11.8892 19.5589 12.1198C19.5589 12.3505 19.6501 12.5717 19.8123 12.7346L21.7936 14.9062H12.1164C11.6399 14.9062 11.25 15.2985 11.25 15.7781C11.25 16.2577 11.6399 16.6501 12.1164 16.6501C21.4706 16.6501 22.0242 16.65 23.3231 16.6499Z" fill="var(--black)"/>
<path d="M12.6769 19.3501L11.5034 19.3503C11.1655 19.6903 11.1655 20.4922 11.5034 20.8323L14.9661 24.4949C15.304 24.835 15.8498 24.835 16.1877 24.4949C16.3499 24.332 16.4411 24.1108 16.4411 23.8802C16.4411 23.6495 16.3499 23.4284 16.1877 23.2655L14.2064 21.0939L23.8836 21.0939C24.3601 21.0939 24.75 20.7015 24.75 20.2219C24.75 19.7423 24.3601 19.35 23.8836 19.35C14.5294 19.35 13.9758 19.35 12.6769 19.3501Z" fill="var(--black)"/>
<path fill-rule="evenodd" clip-rule="evenodd" d="M36 18C36 27.9411 27.9411 36 18 36C8.05888 36 0 27.9411 0 18C0 8.05888 8.05888 0 18 0C27.9411 0 36 8.05888 36 18ZM34.875 18C34.875 27.3198 27.3198 34.875 18 34.875C8.68019 34.875 1.125 27.3198 1.125 18C1.125 8.68019 8.68019 1.125 18 1.125C27.3198 1.125 34.875 8.68019 34.875 18Z" fill="var(--black)"/>
</g>
<defs>
<clipPath id="clip0_1687_3140">
<rect width="36" height="36" fill="white"/>
</clipPath>
</defs>
</svg>
