<svg width="24" height="24" viewBox="0 0 24 24" fill="none" xmlns="http://www.w3.org/2000/svg">
<mask id="mask0" mask-type="alpha" maskUnits="userSpaceOnUse" x="0" y="0" width="24" height="24">
<path d="M23.5 12C23.5 18.3513 18.3513 23.5 12 23.5C5.64873 23.5 0.5 18.3513 0.5 12C0.5 5.64873 5.64873 0.5 12 0.5C18.3513 0.5 23.5 5.64873 23.5 12Z" fill="white" stroke="white"/>
</mask>
<g mask="url(#mask0)">
<path fill-rule="evenodd" clip-rule="evenodd" d="M12 24C18.6274 24 24 18.6274 24 12C24 5.37258 18.6274 0 12 0C5.37258 0 0 5.37258 0 12C0 18.6274 5.37258 24 12 24Z" fill="var(--neutral-200)"/>
<path d="M7.64175 11C16.2102 11 14.81 10.9999 16.8123 10.9998C17.0626 10.7479 17.0626 10.1539 16.8123 9.90199L14.2473 7.18892C13.997 6.93703 13.5927 6.93703 13.3424 7.18892C13.2223 7.3096 13.1547 7.47343 13.1547 7.64427C13.1547 7.81512 13.2223 7.97895 13.3424 8.09963L14.81 9.70822L7.64175 9.70822C7.28879 9.70822 7 9.99887 7 10.3541C7 10.7093 7.28879 11 7.64175 11Z" fill="var(--black)"/>
<path d="M16.3583 13C7.78983 13 9.18996 13.0001 7.18771 13.0002C6.93743 13.2521 6.93743 13.8461 7.18771 14.098L9.7527 16.8111C10.003 17.063 10.4073 17.063 10.6576 16.8111C10.7777 16.6904 10.8453 16.5266 10.8453 16.3557C10.8453 16.1849 10.7777 16.021 10.6576 15.9004L9.18996 14.2918L16.3583 14.2918C16.7112 14.2918 17 14.0011 17 13.6459C17 13.2907 16.7112 13 16.3583 13Z" fill="var(--black)"/>
</g>
</svg>
