<svg xmlns="http://www.w3.org/2000/svg" width="36" height="36" fill="none" viewBox="0 0 36 36"><g clip-path="url(#clip0_2444_6254)"><path fill="var(--black)" fill-rule="evenodd" d="M36 18C36 27.9411 27.9411 36 18 36C8.05888 36 0 27.9411 0 18C0 8.05888 8.05888 0 18 0C27.9411 0 36 8.05888 36 18ZM34.875 18C34.875 27.3198 27.3198 34.875 18 34.875C8.68019 34.875 1.125 27.3198 1.125 18C1.125 8.68019 8.68019 1.125 18 1.125C27.3198 1.125 34.875 8.68019 34.875 18Z" clip-rule="evenodd"/><path fill="var(--black)" d="M17.3617 6.86536C17.5319 6.69526 17.764 6.59912 18.0039 6.59912C18.236 6.59912 18.4681 6.69526 18.6383 6.86536L23.7369 11.7391C23.9149 11.9166 24 12.1163 24 12.3234C24 12.7967 23.6518 13.1369 23.1799 13.1369C22.9323 13.1369 22.7234 13.0407 22.5687 12.8928L20.8046 11.2288L18.7544 9.08407L18.8627 10.7999V18.7634C18.8627 19.2589 18.5068 19.5991 18.0039 19.5991C17.4932 19.5991 17.1373 19.2589 17.1373 18.7634V10.7999L17.2456 9.08407L15.1954 11.2288L13.4313 12.8928C13.2766 13.0407 13.0677 13.1369 12.8201 13.1369C12.3482 13.1369 12 12.7967 12 12.3234C12 12.1163 12.0851 11.9166 12.2785 11.7243L17.3617 6.86536Z"/><path fill="var(--black)" fill-rule="evenodd" d="M10.5 21C10.2239 21 10 21.2239 10 21.5V22.5C10 22.7761 10.2239 23 10.5 23H25.5C25.7761 23 26 22.7761 26 22.5V21.5C26 21.2239 25.7761 21 25.5 21H10.5ZM10 24.5C10 24.2239 10.2239 24 10.5 24H25.5C25.7761 24 26 24.2239 26 24.5V25.5C26 25.7761 25.7761 26 25.5 26H10.5C10.2239 26 10 25.7761 10 25.5V24.5ZM10 27.5C10 27.2239 10.2239 27 10.5 27H25.5C25.7761 27 26 27.2239 26 27.5V28.5C26 28.7761 25.7761 29 25.5 29H10.5C10.2239 29 10 28.7761 10 28.5V27.5Z" clip-rule="evenodd"/></g><defs><clipPath id="clip0_2444_6254"><rect width="36" height="36" fill="#fff"/></clipPath></defs></svg>