<svg width="36" height="36" viewBox="0 0 36 36" fill="none" xmlns="http://www.w3.org/2000/svg">
<g clip-path="url(#clip0_2443_5940)">
<path fill-rule="evenodd" clip-rule="evenodd" d="M36 18C36 27.9411 27.9411 36 18 36C8.05888 36 0 27.9411 0 18C0 8.05888 8.05888 0 18 0C27.9411 0 36 8.05888 36 18ZM34.875 18C34.875 27.3198 27.3198 34.875 18 34.875C8.68019 34.875 1.125 27.3198 1.125 18C1.125 8.68019 8.68019 1.125 18 1.125C27.3198 1.125 34.875 8.68019 34.875 18Z" fill="var(--black)"/>
<path fill-rule="evenodd" clip-rule="evenodd" d="M18.0039 9C17.764 9 17.5319 9.09614 17.3617 9.26624L12.2785 14.1252C12.0851 14.3175 12 14.5172 12 14.7242C12 15.1976 12.3482 15.5378 12.8201 15.5378C13.0677 15.5378 13.2766 15.4416 13.4313 15.2937L15.1954 13.6297L17.2456 11.4849L17.1373 13.2007V22.1643C17.1373 22.6598 17.4932 23 18.0039 23C18.5068 23 18.8627 22.6598 18.8627 22.1643V13.2007L18.7544 11.4849L20.8046 13.6297L22.5687 15.2937C22.7234 15.4416 22.9323 15.5378 23.1799 15.5378C23.6518 15.5378 24 15.1976 24 14.7242C24 14.5172 23.9149 14.3175 23.7369 14.14L18.6383 9.26624C18.4681 9.09614 18.236 9 18.0039 9ZM9.64999 20.85V24C9.64999 25.574 10.926 26.85 12.5 26.85H23.5C25.074 26.85 26.35 25.574 26.35 24V20.85C26.35 20.3806 25.9694 20 25.5 20C25.0306 20 24.65 20.3806 24.65 20.85V24C24.65 24.6351 24.1351 25.15 23.5 25.15H12.5C11.8649 25.15 11.35 24.6351 11.35 24V20.85C11.35 20.3806 10.9694 20 10.5 20C10.0306 20 9.64999 20.3806 9.64999 20.85Z" fill="var(--black)"/>
</g>
<defs>
<clipPath id="clip0_2443_5940">
<rect width="36" height="36" fill="white"/>
</clipPath>
</defs>
</svg>
