<svg width="24" height="24" viewBox="0 0 24 24" fill="none" xmlns="http://www.w3.org/2000/svg">
<path d="M24 12C24 18.6274 18.6274 24 12 24C5.37259 24 0 18.6274 0 12C0 5.37259 5.37259 0 12 0C18.6274 0 24 5.37259 24 12Z" fill="var(--neutral-200)"/>
<path d="M5.73901 13.5652C5.73901 13.2771 5.97261 13.0435 6.26075 13.0435C6.5489 13.0435 6.78249 13.2771 6.78249 13.5652V16.1739H17.2173V13.5652C17.2173 13.2771 17.4509 13.0435 17.739 13.0435C18.0271 13.0435 18.2608 13.2771 18.2608 13.5652V16.6957C18.2608 16.9838 18.0271 17.2174 17.739 17.2174H6.26075C5.97261 17.2174 5.73901 16.9838 5.73901 16.6957V13.5652Z" fill="var(--black)" stroke="var(--black)" stroke-width="0.5"/>
<path fill-rule="evenodd" clip-rule="evenodd" d="M11.9999 14.087C12.3842 14.087 12.6956 13.7755 12.6956 13.3913V7.35999L14.7022 9.36102C14.9733 9.63143 15.4123 9.63112 15.6831 9.36034C15.9541 9.08929 15.9541 8.64984 15.6831 8.37878L11.9999 4.69565L8.31682 8.37878C8.04576 8.64984 8.04576 9.08929 8.31682 9.36034C8.5876 9.63112 9.02653 9.63143 9.29769 9.36102L11.3043 7.35999V13.3913C11.3043 13.7755 11.6157 14.087 11.9999 14.087Z" fill="var(--black)"/>
</svg>
