<svg xmlns="http://www.w3.org/2000/svg" width="24" height="24" fill="none" viewBox="0 0 24 24"><path fill="currentColor" d="M3.60473 12.9151C2.66623 13.2751 2 14.1848 2 15.25C2 16.6307 3.11929 17.75 4.5 17.75C5.88071 17.75 7 16.6307 7 15.25C7 14.4675 6.6405 13.769 6.07766 13.3106C6.33705 12.159 6.74312 10.9367 7.35691 9.87611C8.33583 8.18459 9.7687 7 12 7C14.2313 7 15.6642 8.18459 16.6431 9.87611C16.9062 10.3307 17.1312 10.8151 17.3228 11.3108C17.9679 10.9535 18.7102 10.75 19.5 10.75C19.5955 10.75 19.6904 10.753 19.7845 10.7589C19.5247 10.0332 19.2033 9.30883 18.8069 8.62389C17.5192 6.39874 15.3687 4.5 12 4.5C8.63135 4.5 6.48088 6.39874 5.19313 8.62389C4.39776 9.99824 3.90442 11.5313 3.60473 12.9151Z"/><path fill="currentColor" d="M22 15.25C22 16.6307 20.8807 17.75 19.5 17.75C18.1193 17.75 17 16.6307 17 15.25C17 13.8693 18.1193 12.75 19.5 12.75C20.8807 12.75 22 13.8693 22 15.25Z"/></svg>