<svg width="24" height="24" viewBox="0 0 24 24" fill="none" xmlns="http://www.w3.org/2000/svg">
<path d="M4.77989 20H19.2201C21.0537 20 22 18.9567 22 16.981V7.00981C22 5.03404 21.0537 4 19.2201 4L4.77989 4C2.9548 4 2 5.03404 2 7.00981L2 16.981C2 18.966 2.9548 20 4.77989 20ZM3.68145 7.176C3.68145 6.28967 4.11238 5.84651 4.88973 5.84651L19.1103 5.84651C19.8876 5.84651 20.3185 6.28967 20.3185 7.176V7.84074L3.68145 7.84074V7.176ZM4.88973 18.1535C4.11238 18.1535 3.68145 17.7103 3.68145 16.824L3.68145 10.0104L20.3185 10.0104V16.824C20.3185 17.7103 19.8876 18.1535 19.1103 18.1535H4.88973ZM6.03887 16.4824H8.109C8.60752 16.4824 8.9455 16.1223 8.9455 15.6053L8.9455 13.8881C8.9455 13.371 8.60752 13.011 8.109 13.011H6.03887C5.5488 13.011 5.21082 13.371 5.21082 13.8881V15.6053C5.21082 16.1223 5.5488 16.4824 6.03887 16.4824Z" fill="#16161A"/>
</svg>
