<svg width="20" height="20" viewBox="0 0 20 20" fill="none" xmlns="http://www.w3.org/2000/svg">
<path d="M5.83366 10.8327L7.00866 9.65768L9.16699 11.8077V5.83268H10.8337L10.8337 11.8077L12.992 9.65768L14.167 10.8327L10.0003 14.9993L5.83366 10.8327Z" fill="currentColor"/>
<path fill-rule="evenodd" clip-rule="evenodd" d="M1.66699 9.99935C1.66699 5.39935 5.39199 1.66602 9.99199 1.66602C14.6003 1.66602 18.3337 5.39935 18.3337 9.99935C18.3337 14.5993 14.6003 18.3327 9.99199 18.3327C5.39199 18.3327 1.66699 14.5993 1.66699 9.99935ZM3.33366 9.99935C3.33366 13.6827 6.31699 16.666 10.0003 16.666C13.6837 16.666 16.667 13.6827 16.667 9.99935C16.667 6.31602 13.6837 3.33268 10.0003 3.33268C6.31699 3.33268 3.33366 6.31602 3.33366 9.99935Z" fill="currentColor"/>
</svg>
