<svg width="24" height="24" viewBox="0 0 24 24" fill="none" xmlns="http://www.w3.org/2000/svg">
<path transform="translate(3 3)" d="M0 7V1C0 0.716667 0.0958333 0.479167 0.2875 0.2875C0.479167 0.0958333 0.716667 0 1 0H7C7.28333 0 7.52083 0.0958333 7.7125 0.2875C7.90417 0.479167 8 0.716667 8 1V7C8 7.28333 7.90417 7.52083 7.7125 7.7125C7.52083 7.90417 7.28333 8 7 8H1C0.716667 8 0.479167 7.90417 0.2875 7.7125C0.0958333 7.52083 0 7.28333 0 7ZM2 6H6V2H2V6ZM0 17V11C0 10.7167 0.0958333 10.4792 0.2875 10.2875C0.479167 10.0958 0.716667 10 1 10H7C7.28333 10 7.52083 10.0958 7.7125 10.2875C7.90417 10.4792 8 10.7167 8 11V17C8 17.2833 7.90417 17.5208 7.7125 17.7125C7.52083 17.9042 7.28333 18 7 18H1C0.716667 18 0.479167 17.9042 0.2875 17.7125C0.0958333 17.5208 0 17.2833 0 17ZM2 16H6V12H2V16ZM10 7V1C10 0.716667 10.0958 0.479167 10.2875 0.2875C10.4792 0.0958333 10.7167 0 11 0H17C17.2833 0 17.5208 0.0958333 17.7125 0.2875C17.9042 0.479167 18 0.716667 18 1V7C18 7.28333 17.9042 7.52083 17.7125 7.7125C17.5208 7.90417 17.2833 8 17 8H11C10.7167 8 10.4792 7.90417 10.2875 7.7125C10.0958 7.52083 10 7.28333 10 7ZM12 6H16V2H12V6ZM16 18V16H18V18H16ZM10 12V10H12V12H10ZM12 14V12H14V14H12ZM10 16V14H12V16H10ZM12 18V16H14V18H12ZM14 16V14H16V16H14ZM14 12V10H16V12H14ZM16 14V12H18V14H16Z" fill="currentColor"/>
</svg>
