<svg width="24" height="24" viewBox="0 0 24 24" fill="none" xmlns="http://www.w3.org/2000/svg">
<path fill-rule="evenodd" clip-rule="evenodd" d="M13.6889 11.2712C13.1587 11.2712 12.7289 10.8414 12.7289 10.3112V4.96004C12.7289 4.42982 13.1587 4 13.6889 4L19.0401 4C19.5703 4 20.0001 4.42982 20.0001 4.96004V10.3112C20.0001 10.8414 19.5703 11.2712 19.0401 11.2712L13.6889 11.2712ZM15.1415 8.62523C15.1415 8.75248 15.2447 8.85564 15.3719 8.85564H17.3536C17.4809 8.85564 17.584 8.75248 17.584 8.62523V6.64343C17.584 6.51618 17.4809 6.41302 17.3536 6.41302H15.3719C15.2447 6.41302 15.1415 6.51618 15.1415 6.64343V8.62523Z" fill="#16161A"/>
<path fill-rule="evenodd" clip-rule="evenodd" d="M11.2726 10.3127C11.2726 10.8429 10.8428 11.2728 10.3126 11.2728H4.9616C4.43139 11.2728 4.00156 10.8429 4.00156 10.3127L4.00156 4.9616C4.00156 4.43139 4.43139 4.00156 4.9616 4.00156L10.3126 4.00156C10.8428 4.00156 11.2726 4.43139 11.2726 4.9616V10.3127ZM8.8572 6.67956C8.8572 6.53322 8.73857 6.41459 8.59223 6.41459H6.67956C6.53322 6.41459 6.41459 6.53322 6.41459 6.67956V8.59223C6.41459 8.73857 6.53322 8.8572 6.67956 8.8572H8.59223C8.73857 8.8572 8.8572 8.73857 8.8572 8.59223V6.67956Z" fill="#16161A"/>
<path d="M17.0901 14.4146C17.0901 14.8162 17.4156 15.1417 17.8172 15.1417C18.2187 15.1417 18.5442 14.8162 18.5442 14.4146V13.4544C18.5442 13.0529 18.8698 12.7273 19.2713 12.7273C19.6729 12.7273 19.9984 13.0529 19.9984 13.4544V16.1301C19.9984 16.6603 19.5686 17.0901 19.0384 17.0901H16.3628C15.9612 17.0901 15.6356 16.7645 15.6356 16.3628C15.6356 15.9613 15.3102 15.6358 14.9086 15.6358C14.5071 15.6358 14.1817 15.9612 14.1817 16.3627V19.2713C14.1817 19.6729 13.8561 19.9984 13.4545 19.9984C13.0529 19.9984 12.7273 19.6729 12.7273 19.2713V13.6874C12.7273 13.1571 13.1571 12.7273 13.6874 12.7273H16.1301C16.6603 12.7273 17.0901 13.1571 17.0901 13.6874V14.4146Z" fill="#16161A"/>
<path fill-rule="evenodd" clip-rule="evenodd" d="M11.271 19.04C11.271 19.5702 10.8412 20 10.311 20H4.96004C4.42982 20 4 19.5702 4 19.04L4 13.6889C4 13.1587 4.42982 12.7289 4.96004 12.7289H10.311C10.8412 12.7289 11.271 13.1587 11.271 13.6889L11.271 19.04ZM8.85564 15.3721C8.85564 15.2449 8.75248 15.1415 8.62523 15.1415H6.64344C6.51619 15.1415 6.41303 15.2447 6.41303 15.3719V17.3424C6.41303 17.4697 6.51619 17.5728 6.64344 17.5728H8.62523C8.75248 17.5728 8.85564 17.4694 8.85564 17.3422C8.85564 16.6054 8.85564 16.109 8.85564 15.3721Z" fill="#16161A"/>
<path d="M17.0956 18.5408C17.0956 18.0106 16.6658 17.5808 16.1356 17.5808H13.6885C13.1583 17.5808 12.7285 18.0106 12.7285 18.5408V19.035C12.7285 19.5652 13.1583 19.995 13.6885 19.995H16.1356C16.6658 19.995 17.0956 19.5652 17.0956 19.035V18.5408Z" fill="#16161A"/>
<path d="M17.5808 18.5408C17.5808 18.0106 18.0106 17.5808 18.5408 17.5808H19.0353C19.5655 17.5808 19.9953 18.0106 19.9953 18.5408V19.035C19.9953 19.5652 19.5655 19.995 19.0353 19.995H18.5408C18.0106 19.995 17.5808 19.5652 17.5808 19.035V18.5408Z" fill="#16161A"/>
</svg>
