<svg xmlns="http://www.w3.org/2000/svg" width="24" height="24" fill="none" viewBox="0 0 24 24"><path fill="currentColor" d="M20.1397 5.04906L13.7768 21.4601C13.7053 21.6577 13.5178 21.7894 13.3076 21.7895H13.1479C12.9519 21.7895 12.7733 21.6769 12.6888 21.5L10 17C9.65312 16.2641 9.78738 15.3913 10.3394 14.7938L13 12.1888C13.1838 11.996 13.1838 11.6928 13 11.5L12.6207 11.1206C12.4279 10.9368 12.1247 10.9368 11.9319 11.1206L9 13.5C8.40249 14.0521 7.5298 14.1863 6.794 13.8394L2.49996 11.3794C2.30749 11.3069 2.17753 11.1257 2.17056 10.9201V10.7604C2.15288 10.5358 2.28785 10.3272 2.49996 10.2513L19.2214 4.13063C19.4012 4.06461 19.6028 4.10728 19.7405 4.24044L20 4.5C20.156 4.63628 20.2116 4.85477 20.1397 5.04906Z"/></svg>