<svg width="24" height="24" viewBox="0 0 24 24" fill="none" xmlns="http://www.w3.org/2000/svg">
<path transform="translate(3.2875 4.4929)" d="M16.8 8.43205L1.4 14.9321C1.06667 15.0654 0.75 15.0362 0.45 14.8446C0.15 14.6529 0 14.3737 0 14.0071V1.00705C0 0.640385 0.15 0.361218 0.45 0.169551C0.75 -0.0221154 1.06667 -0.0512821 1.4 0.0820513L16.8 6.58205C17.2167 6.76538 17.425 7.07372 17.425 7.50705C17.425 7.94038 17.2167 8.24872 16.8 8.43205ZM2 12.5071L13.85 7.50705L2 2.50705V6.00705L6.05972 7.02198C6.56469 7.14822 6.56469 7.86588 6.05972 7.99212L2 9.00705V12.5071Z" fill="currentColor"/>
</svg>
