<svg width="24" height="24" viewBox="0 0 24 24" fill="none" xmlns="http://www.w3.org/2000/svg">
<path transform="translate(3.4248 3.4248)" d="M1.91211 9.5752C2.37136 9.5752 2.75854 9.89587 2.95996 10.3086C3.15169 10.7014 3.41505 11.0654 3.75 11.4004C4.53332 12.1837 5.47521 12.5752 6.5752 12.5752H13.7754L12.875 11.6748C12.692 11.4916 12.6007 11.2586 12.6006 10.9756C12.6006 10.6924 12.6918 10.4587 12.875 10.2754C13.0583 10.0921 13.2919 10 13.5752 10C13.8585 10 14.0921 10.0921 14.2754 10.2754L16.875 12.875C16.975 12.975 17.0462 13.0835 17.0879 13.2002C17.1295 13.3168 17.1504 13.4419 17.1504 13.5752C17.1504 13.7085 17.1295 13.8335 17.0879 13.9502C17.0462 14.0669 16.975 14.1754 16.875 14.2754L14.2754 16.875C14.0921 17.0583 13.8585 17.1504 13.5752 17.1504C13.2919 17.1504 13.0583 17.0583 12.875 16.875C12.6918 16.6917 12.6006 16.458 12.6006 16.1748C12.6007 15.8918 12.692 15.6588 12.875 15.4756L13.7754 14.5752H6.5752C4.90855 14.5752 3.49185 13.9919 2.3252 12.8252C1.69134 12.1913 1.22991 11.4836 0.94043 10.7021C0.727527 10.1274 1.20255 9.57529 1.81543 9.5752H1.91211ZM3.5752 0C3.85851 8.44415e-06 4.09207 0.0920657 4.27539 0.275391C4.45859 0.458693 4.5498 0.692359 4.5498 0.975586C4.54972 1.25859 4.45843 1.4916 4.27539 1.6748L3.375 2.5752H10.5752C12.2418 2.5752 13.6585 3.15854 14.8252 4.3252C15.459 4.95905 15.9205 5.6668 16.21 6.44824C16.4229 7.02298 15.9478 7.5751 15.335 7.5752H15.2383C14.779 7.57519 14.3919 7.25452 14.1904 6.8418C13.9987 6.44895 13.7353 6.08495 13.4004 5.75C12.6171 4.96668 11.6752 4.5752 10.5752 4.5752H3.375L4.27539 5.47559C4.45843 5.65879 4.54972 5.89181 4.5498 6.1748C4.5498 6.45802 4.45857 6.6917 4.27539 6.875C4.09207 7.05832 3.85851 7.15038 3.5752 7.15039C3.29186 7.15039 3.05833 7.05833 2.875 6.875L0.275391 4.27539C0.17539 4.17539 0.104166 4.06686 0.0625 3.9502C0.0208495 3.83355 -5.8271e-09 3.7085 0 3.5752C1.84259e-06 3.44188 0.0208439 3.31685 0.0625 3.2002C0.104166 3.08353 0.17539 2.975 0.275391 2.875L2.875 0.275391C3.05833 0.0920573 3.29186 -1.23849e-08 3.5752 0Z" fill="currentColor"/>
</svg>
