<svg width="24" height="24" viewBox="0 0 24 24" fill="none" xmlns="http://www.w3.org/2000/svg">
<path d="M14.9767 6.35551C17.396 6.35551 19.4236 7.91863 19.9711 10.0257C20.1316 10.6433 19.599 11.1688 18.9603 11.1688H18.7033C18.0646 11.1688 17.5681 10.6206 17.2576 10.0631C16.8281 9.29184 15.9653 8.76218 14.9767 8.76218L8.87287 8.76218V11.0389C8.87287 11.5446 8.26843 11.8062 7.89912 11.4603L4.18276 7.98023C3.93908 7.75203 3.93908 7.36566 4.18276 7.13746L7.89912 3.65736C8.26843 3.31153 8.87287 3.57309 8.87287 4.07875V6.35551L14.9767 6.35551Z" fill="currentColor"/>
<path d="M9.02327 17.6445C6.60402 17.6445 4.57644 16.0814 4.02886 13.9743C3.86837 13.3567 4.40097 12.8312 5.03969 12.8312H5.2967C5.93543 12.8312 6.43193 13.3794 6.74242 13.9369C7.1719 14.7082 8.03474 15.2378 9.02327 15.2378L15.1271 15.2378V12.9611C15.1271 12.4554 15.7316 12.1938 16.1009 12.5397L19.8172 16.0198C20.0609 16.248 20.0609 16.6343 19.8172 16.8625L16.1009 20.3426C15.7316 20.6885 15.1271 20.4269 15.1271 19.9213V17.6445H9.02327Z" fill="currentColor"/>
</svg>
