<svg viewBox="0 0 24 24" fill="none" xmlns="http://www.w3.org/2000/svg">
<path d="M12 3C12 2.44772 11.5523 2 11 2C10.4477 2 10 2.44772 10 3V4.05493C8.28116 4.27466 7 5.7405 7 7.5C7 9.433 8.567 11 10.5 11H12.5C13.3284 11 14 11.6716 14 12.5C14 13.3284 13.3284 14 12.5 14H9C8.44772 14 8 14.4477 8 15C8 15.5523 8.44772 16 9 16H10V19.9451C8.28116 19.7253 7 18.2595 7 16.5C7 15.9477 6.55228 15.5 6 15.5C5.44772 15.5 5 15.9477 5 16.5C5 19.433 7.567 22 10.5 22H11C11.5523 22 12 21.5523 12 21V20H12.5C14.433 20 16 18.433 16 16.5C16 14.567 14.433 13 12.5 13H10.5C9.67157 13 9 12.3284 9 11.5C9 10.6716 9.67157 10 10.5 10H14C14.5523 10 15 9.55228 15 9C15 8.44772 14.5523 8 14 8H12V4.05493C13.7188 4.27466 15 5.7405 15 7.5C15 8.05228 15.4477 8.5 16 8.5C16.5523 8.5 17 8.05228 17 7.5C17 4.567 14.433 2 11.5 2H11C10.4477 2 10 2.44772 10 3H12Z" fill="currentColor"/>
<path d="M18 7C18 6.44772 17.5523 6 17 6C16.4477 6 16 6.44772 16 7V10C16 10.5523 16.4477 11 17 11C17.5523 11 18 10.5523 18 10V7Z" fill="currentColor"/>
</svg>
