<svg viewBox="0 0 24 24" fill="none" xmlns="http://www.w3.org/2000/svg">
<path d="M10 6C10 5.44772 10.4477 5 11 5H13.5C15.433 5 17 6.567 17 8.5C17 9.66519 16.4357 10.6982 15.5704 11.3214C16.6947 11.9023 17.5 13.0613 17.5 14.5C17.5 16.433 15.933 18 14 18H11C10.4477 18 10 17.5523 10 17V6ZM12 10H13.5C14.3284 10 15 9.32843 15 8.5C15 7.67157 14.3284 7 13.5 7H12V10ZM12 12V16H14C14.8284 16 15.5 15.3284 15.5 14.5C15.5 13.6716 14.8284 13 14 13H12V12Z" fill="currentColor"/>
<path d="M13 3C13 2.44772 12.5523 2 12 2C11.4477 2 11 2.44772 11 3V4H10C9.44772 4 9 4.44772 9 5C9 5.55228 9.44772 6 10 6H11V18H10C9.44772 18 9 18.4477 9 19C9 19.5523 9.44772 20 10 20H11V21C11 21.5523 11.4477 22 12 22C12.5523 22 13 21.5523 13 21V20H14C14.5523 20 15 19.5523 15 19C15 18.4477 14.5523 18 14 18H13V6H14C14.5523 6 15 5.55228 15 5C15 4.44772 14.5523 4 14 4H13V3Z" fill="currentColor"/>
</svg>
