<svg viewBox="0 0 24 24" fill="none" xmlns="http://www.w3.org/2000/svg">
<path d="M12 10L8.5 5C8.18934 4.5 7.5 4.7 7.5 5.3V7L6 5.5C5.6 5.1 5 5.3 5 5.9V10C5 10.5523 5.44772 11 6 11H11V13H8C7.44772 13 7 13.4477 7 14C7 14.5523 7.44772 15 8 15H11V18C11 18.5523 11.4477 19 12 19C12.5523 19 13 18.5523 13 18V15H16C16.5523 15 17 14.5523 17 14C17 13.4477 16.5523 13 16 13H13V11H18C18.5523 11 19 10.5523 19 10V5.9C19 5.3 18.4 5.1 18 5.5L16.5 7V5.3C16.5 4.7 15.8107 4.5 15.5 5L12 10Z" fill="currentColor"/>
</svg>
