<svg viewBox="0 0 24 24" fill="none" xmlns="http://www.w3.org/2000/svg">
<path d="M16 6C15.4477 6 15 6.44772 15 7C15 7.55228 15.4477 8 16 8C16.5304 8 17 8.46957 17 9V10H15C14.4477 10 14 10.4477 14 11C14 11.5523 14.4477 12 15 12H17V13C17 13.5523 16.5523 14 16 14H12C11.4477 14 11 14.4477 11 15C11 15.5523 11.4477 16 12 16H16C17.6569 16 19 14.6569 19 13V12H20C20.5523 12 21 11.5523 21 11C21 10.4477 20.5523 10 20 10H19V9C19 7.34315 17.6569 6 16 6Z" fill="currentColor"/>
<path d="M6 10C6 9.44772 6.44772 9 7 9H12C12.5523 9 13 9.44772 13 10C13 10.5523 12.5523 11 12 11H8C7.44772 11 7 11.4477 7 12C7 12.5523 7.44772 13 8 13H12C12.5523 13 13 13.4477 13 14C13 14.5523 12.5523 15 12 15H7C6.44772 15 6 14.5523 6 14V10Z" fill="currentColor"/>
</svg>
