<svg viewBox="0 0 24 24" fill="none" xmlns="http://www.w3.org/2000/svg">
<path d="M12 4C10.3431 4 9 5.34315 9 7V10H8C7.44772 10 7 10.4477 7 11C7 11.5523 7.44772 12 8 12H9V15C9 16.1046 8.10457 17 7 17C6.44772 17 6 17.4477 6 18C6 18.5523 6.44772 19 7 19H16C16.5523 19 17 18.5523 17 18C17 17.4477 16.5523 17 16 17H11V12H13C13.5523 12 14 11.5523 14 11C14 10.4477 13.5523 10 13 10H11V7C11 6.44772 11.4477 6 12 6C12.5523 6 13 6.44772 13 7V8C13 8.55228 13.4477 9 14 9C14.5523 9 15 8.55228 15 8V7C15 5.34315 13.6569 4 12 4Z" fill="currentColor"/>
</svg>
