<svg viewBox="0 0 24 24" fill="none" xmlns="http://www.w3.org/2000/svg">
<path d="M7 6C7 5.44772 7.44772 5 8 5H10.5C12.433 5 14 6.567 14 8.5C14 10.433 12.433 12 10.5 12H9V17C9 17.5523 8.55228 18 8 18C7.44772 18 7 17.5523 7 17V6ZM9 10H10.5C11.3284 10 12 9.32843 12 8.5C12 7.67157 11.3284 7 10.5 7H9V10Z" fill="currentColor"/>
<path d="M15 8C15 7.44772 15.4477 7 16 7C16.5523 7 17 7.44772 17 8V10H18C18.5523 10 19 10.4477 19 11C19 11.5523 18.5523 12 18 12H17V15C17 15.5523 16.5523 16 16 16C15.4477 16 15 15.5523 15 15V12H14C13.4477 12 13 11.5523 13 11C13 10.4477 13.4477 10 14 10H15V8Z" fill="currentColor"/>
</svg>
