<svg viewBox="0 0 24 24" fill="none" xmlns="http://www.w3.org/2000/svg">
<path d="M8 6C8 5.44772 8.44772 5 9 5H15C15.5523 5 16 5.44772 16 6C16 6.55228 15.5523 7 15 7H13.5C14.3284 7 15 7.67157 15 8.5C15 9.32843 14.3284 10 13.5 10H15C15.5523 10 16 10.4477 16 11C16 11.5523 15.5523 12 15 12H13.5C13.5 13.933 11.933 15.5 10 15.5H9.70711L14.8536 20.6464C15.2441 21.0369 15.2441 21.6701 14.8536 22.0606C14.4631 22.4512 13.8299 22.4512 13.4393 22.0606L6.79289 15.4142C6.40237 15.0237 6.40237 14.3905 6.79289 14L7.5 13.2929C7.5 11.3598 9.06701 9.79289 11 9.79289H13.5C13.2239 9.79289 13 9.56903 13 9.29289C13 9.01675 13.2239 8.79289 13.5 8.79289H11C9.06701 8.79289 7.5 7.22588 7.5 5.29289H9C9 6.12132 9.67157 6.79289 10.5 6.79289H8V6Z" fill="currentColor"/>
<path d="M8 9C8 8.44772 8.44772 8 9 8H15C15.5523 8 16 8.44772 16 9C16 9.55228 15.5523 10 15 10H9C8.44772 10 8 9.55228 8 9Z" fill="currentColor"/>
</svg>
