<svg viewBox="0 0 24 24" fill="none" xmlns="http://www.w3.org/2000/svg">
<path d="M12 10L9 4C8.72386 3.4477 8 3.7 8 4.33333V9H5C4.44772 9 4 9.44772 4 10C4 10.5523 4.44772 11 5 11H8V13H5C4.44772 13 4 13.4477 4 14C4 14.5523 4.44772 15 5 15H8V19C8 19.5523 8.44772 20 9 20C9.55228 20 10 19.5523 10 19V15H14V19C14 19.5523 14.4477 20 15 20C15.5523 20 16 19.5523 16 19V15H19C19.5523 15 20 14.5523 20 14C20 13.4477 19.5523 13 19 13H16V11H19C19.5523 11 20 10.5523 20 10C20 9.44772 19.5523 9 19 9H16V4.33333C16 3.7 15.2761 3.4477 15 4L12 10ZM14 11V13H10V11H14Z" fill="currentColor"/>
</svg>
