<svg viewBox="0 0 24 24" fill="none" xmlns="http://www.w3.org/2000/svg">
<path d="M8 6C8 5.44772 8.44772 5 9 5C9.55228 5 10 5.44772 10 6V10H14V6C14 5.44772 14.4477 5 15 5C15.5523 5 16 5.44772 16 6V17C16 17.5523 15.5523 18 15 18C14.4477 18 14 17.5523 14 17V12H10V17C10 17.5523 9.55228 18 9 18C8.44772 18 8 17.5523 8 17V6Z" fill="currentColor"/>
<path d="M6 10C6 9.44772 6.44772 9 7 9H17C17.5523 9 18 9.44772 18 10C18 10.5523 17.5523 11 17 11H7C6.44772 11 6 10.5523 6 10Z" fill="currentColor"/>
<path d="M6 14C6 13.4477 6.44772 13 7 13H17C17.5523 13 18 13.4477 18 14C18 14.5523 17.5523 15 17 15H7C6.44772 15 6 14.5523 6 14Z" fill="currentColor"/>
</svg>
