<svg viewBox="0 0 24 24" fill="none" xmlns="http://www.w3.org/2000/svg">
<path d="M7 6C7 5.44772 7.44772 5 8 5H10.5C12.433 5 14 6.567 14 8.5C14 10.433 12.433 12 10.5 12H9V17C9 17.5523 8.55228 18 8 18C7.44772 18 7 17.5523 7 17V6ZM9 10H10.5C11.3284 10 12 9.32843 12 8.5C12 7.67157 11.3284 7 10.5 7H9V10Z" fill="currentColor"/>
<path d="M11 3C11 2.44772 10.5523 2 10 2C9.44772 2 9 2.44772 9 3V4H8C7.44772 4 7 4.44772 7 5C7 5.55228 7.44772 6 8 6H9V18H8C7.44772 18 7 18.4477 7 19C7 19.5523 7.44772 20 8 20H9V21C9 21.5523 9.44772 22 10 22C10.5523 22 11 21.5523 11 21V20H12C12.5523 20 13 19.5523 13 19C13 18.4477 12.5523 18 12 18H11V6H12C12.5523 6 13 5.55228 13 5C13 4.44772 12.5523 4 12 4H11V3Z" fill="currentColor"/>
<path d="M15 8C15 7.44772 15.4477 7 16 7C16.5523 7 17 7.44772 17 8V16C17 16.5523 16.5523 17 16 17C15.4477 17 15 16.5523 15 16V8Z" fill="currentColor"/>
</svg>
