<svg viewBox="0 0 24 24" fill="none" xmlns="http://www.w3.org/2000/svg">
<path d="M8 5C8 4.44772 8.44772 4 9 4H12.5C14.433 4 16 5.567 16 7.5C16 9.433 14.433 11 12.5 11H10V13H13C13.5523 13 14 13.4477 14 14C14 14.5523 13.5523 15 13 15H10V17H13C13.5523 17 14 17.4477 14 18C14 18.5523 13.5523 19 13 19H10V21C10 21.5523 9.55228 22 9 22C8.44772 22 8 21.5523 8 21V19H7C6.44772 19 6 18.5523 6 18C6 17.4477 6.44772 17 7 17H8V15H7C6.44772 15 6 14.5523 6 14C6 13.4477 6.44772 13 7 13H8V5ZM10 9H12.5C13.3284 9 14 8.32843 14 7.5C14 6.67157 13.3284 6 12.5 6H10V9Z" fill="currentColor"/>
</svg>
