<svg viewBox="0 0 24 24" fill="none" xmlns="http://www.w3.org/2000/svg">
<path d="M12 3C12 2.44772 11.5523 2 11 2C10.4477 2 10 2.44772 10 3V4H9C8.44772 4 8 4.44772 8 5C8 5.55228 8.44772 6 9 6H10V18H9C8.44772 18 8 18.4477 8 19C8 19.5523 8.44772 20 9 20H10V21C10 21.5523 10.4477 22 11 22C11.5523 22 12 21.5523 12 21V20H13C13.5523 20 14 19.5523 14 19C14 18.4477 13.5523 18 13 18H12V6H13C13.5523 6 14 5.55228 14 5C14 4.44772 13.5523 4 13 4H12V3Z" fill="currentColor"/>
<path d="M11 6C9.89543 6 9 6.89543 9 8V10C9 11.1046 9.89543 12 11 12H13C13.5523 12 14 12.4477 14 13V15C14 15.5523 13.5523 16 13 16H9C8.44772 16 8 16.4477 8 17C8 17.5523 8.44772 18 9 18H13C14.6569 18 16 16.6569 16 15V13C16 11.3431 14.6569 10 13 10H11C10.4477 10 10 9.55228 10 9V8C10 7.44772 10.4477 7 11 7H15C15.5523 7 16 6.55228 16 6C16 5.44772 15.5523 5 15 5H11C9.89543 5 9 5.89543 9 7V8C9 8.55228 9.44772 9 10 9V6Z" fill="currentColor"/>
</svg>
