<svg viewBox="0 0 24 24" fill="none" xmlns="http://www.w3.org/2000/svg">
<path d="M10 4C10 3.44772 10.4477 3 11 3C11.5523 3 12 3.44772 12 4V9H14C14.5523 9 15 9.44772 15 10C15 10.5523 14.5523 11 14 11H12V12H14C14.5523 12 15 12.4477 15 13C15 13.5523 14.5523 14 14 14H12V20C12 20.5523 11.5523 21 11 21C10.4477 21 10 20.5523 10 20V14H8C7.44772 14 7 13.5523 7 13C7 12.4477 7.44772 12 8 12H10V11H8C7.44772 11 7 10.5523 7 10C7 9.44772 7.44772 9 8 9H10V4Z" fill="currentColor"/>
<path d="M15 16C15 15.4477 15.4477 15 16 15C16.5523 15 17 15.4477 17 16C17 16.5523 16.5523 17 16 17C15.4477 17 15 16.5523 15 16Z" fill="currentColor"/>
<path d="M16 19C16.5523 19 17 18.5523 17 18C17 17.4477 16.5523 17 16 17C15.4477 17 15 17.4477 15 18C15 18.5523 15.4477 19 16 19Z" fill="currentColor"/>
</svg>
