<svg viewBox="0 0 24 24" fill="none" xmlns="http://www.w3.org/2000/svg">
<path d="M8 6C8 5.44772 8.44772 5 9 5H13.5C14.3284 5 15 5.67157 15 6.5C15 7.32843 14.3284 8 13.5 8H10V10H13C13.5523 10 14 10.4477 14 11C14 11.5523 13.5523 12 13 12H10V14H13.5C14.3284 14 15 14.6716 15 15.5C15 16.3284 14.3284 17 13.5 17H9C8.44772 17 8 16.5523 8 16V6Z" fill="currentColor"/>
<path d="M16 7C16 6.44772 16.4477 6 17 6C17.5523 6 18 6.44772 18 7V9H19C19.5523 9 20 9.44772 20 10C20 10.5523 19.5523 11 19 11H18V14C18 14.5523 17.5523 15 17 15C16.4477 15 16 14.5523 16 14V7Z" fill="currentColor"/>
</svg>
