<svg width="20" height="20" viewBox="0 0 20 20" fill="none" xmlns="http://www.w3.org/2000/svg">
<path fill-rule="evenodd" clip-rule="evenodd" d="M10.0422 0.446534C9.88252 0.226155 9.55413 0.226155 9.39443 0.446534L8.37511 1.85315C8.2524 2.02248 8.01996 2.06871 7.84179 1.95923L6.36177 1.04977C6.1299 0.907278 5.8265 1.03295 5.76329 1.29767L5.35985 2.98728C5.31128 3.19069 5.11423 3.32235 4.90773 3.28938L3.19233 3.01553C2.92358 2.97262 2.69137 3.20483 2.73428 3.47358L3.00813 5.18898C3.0411 5.39548 2.90944 5.59253 2.70603 5.6411L1.01642 6.04454C0.751697 6.10775 0.626028 6.41114 0.768516 6.64302L1.67798 8.12304C1.78746 8.30121 1.74123 8.53365 1.5719 8.65636L0.165284 9.67568C-0.0550946 9.83538 -0.0550949 10.1638 0.165284 10.3235L1.5719 11.3428C1.74123 11.4655 1.78746 11.6979 1.67798 11.8761L0.768516 13.3561C0.626028 13.588 0.751697 13.8914 1.01642 13.9546L2.70603 14.358C2.90944 14.4066 3.0411 14.6037 3.00813 14.8102L2.73428 16.5256C2.69137 16.7943 2.92358 17.0265 3.19233 16.9836L4.90773 16.7098C5.11423 16.6768 5.31128 16.8085 5.35985 17.0119L5.76329 18.7015C5.8265 18.9662 6.1299 19.0919 6.36177 18.9494L7.84179 18.0399C8.01996 17.9304 8.2524 17.9767 8.37511 18.146L9.39443 19.5526C9.55413 19.773 9.88252 19.773 10.0422 19.5526L11.0615 18.146C11.1843 17.9767 11.4167 17.9304 11.5949 18.0399L13.0749 18.9494C13.3068 19.0919 13.6101 18.9662 13.6734 18.7015L14.0768 17.0119C14.1254 16.8085 14.3224 16.6768 14.5289 16.7098L16.2443 16.9836C16.5131 17.0265 16.7453 16.7943 16.7024 16.5256L16.4285 14.8102C16.3955 14.6037 16.5272 14.4066 16.7306 14.358L18.4202 13.9546C18.685 13.8914 18.8106 13.588 18.6681 13.3561L17.7587 11.8761C17.6492 11.6979 17.6954 11.4655 17.8648 11.3428L19.2714 10.3235C19.4917 10.1638 19.4917 9.83538 19.2714 9.67568L17.8648 8.65636C17.6954 8.53365 17.6492 8.30121 17.7587 8.12304L18.6681 6.64302C18.8106 6.41115 18.685 6.10775 18.4202 6.04454L16.7306 5.6411C16.5272 5.59253 16.3955 5.39548 16.4285 5.18898L16.7024 3.47358C16.7453 3.20483 16.5131 2.97262 16.2443 3.01553L14.5289 3.28938C14.3224 3.32235 14.1254 3.19069 14.0768 2.98728L13.6734 1.29767C13.6101 1.03295 13.3068 0.907278 13.0749 1.04977L11.5949 1.95923C11.4167 2.06871 11.1843 2.02248 11.0615 1.85315L10.0422 0.446534ZM11.8012 7.0507C12.0089 6.84292 12.3446 6.84292 12.5524 7.0507C12.7548 7.25315 12.7548 7.59412 12.5524 7.79657L9.54757 10.8067L8.79638 10.0555L11.8012 7.0507ZM9.54757 12.3091L14.8113 7.04537C15.019 6.8376 15.3547 6.8376 15.5571 7.0507H15.5625C15.7702 7.25848 15.7702 7.59412 15.5625 7.8019L9.92051 13.4385C9.71273 13.6463 9.37709 13.6463 9.16931 13.4385L6.94237 11.2116C6.73459 11.0038 6.73459 10.6682 6.94237 10.4604C7.15015 10.2526 7.48579 10.2526 7.69356 10.4604L9.54757 12.3091ZM6.15921 13.4438L3.93226 11.2169C3.72449 11.0091 3.72449 10.6682 3.93226 10.4604C4.14004 10.2526 4.47568 10.2526 4.68346 10.4604L7.28334 13.0709L6.9104 13.4438C6.70263 13.6516 6.36699 13.6516 6.15921 13.4438Z" fill="white"/>
</svg>
