<svg width="40" height="40" viewBox="0 0 40 40" fill="none" xmlns="http://www.w3.org/2000/svg">
<rect width="40" height="40" rx="8" fill="#2962EF"/>
<path fill-rule="evenodd" clip-rule="evenodd" d="M22.8816 19.4681C18.9693 17.354 14.2092 14.6124 10.6265 12.3778C9.56946 11.6163 10.1059 10 11.3835 10H29.1103C30.0992 10 30.7607 11.1025 30.2651 11.9368C29.0739 13.9941 27.3349 16.6061 25.8823 18.677C25.1026 19.7886 23.8318 19.9796 22.8816 19.4681ZM17.1764 20.1544C20.9591 22.1708 26.2603 25.2374 30.027 27.5561C31.1909 28.2744 30.7272 29.9975 29.3678 29.9975C27.1433 29.9975 23.5286 29.9981 19.9327 29.9987C16.3739 29.9993 12.8334 29.9998 10.6772 29.9998C9.59054 29.9998 9.03359 28.8723 9.49506 28.0857C11.0545 25.4283 12.8072 22.7459 14.2643 20.7432C14.9122 19.8498 16.2307 19.6497 17.1764 20.1544Z" fill="white"/>
</svg>
