<svg width="57" height="62" viewBox="0 0 57 62" fill="none" xmlns="http://www.w3.org/2000/svg">
<path d="M53.4761 21.0006C52.6415 19.3253 50.6069 18.6438 48.9316 19.4783C47.2563 20.3129 46.5748 22.3476 47.4093 24.0229L53.4761 21.0006ZM49.6111 33.4219C49.6111 45.0812 40.1593 54.5329 28.5 54.5329V61.3108C43.9026 61.3108 56.3889 48.8245 56.3889 33.4219H49.6111ZM28.5 54.5329C16.8407 54.5329 7.38894 45.0812 7.38894 33.4219H0.611058C0.611058 48.8245 13.0974 61.3108 28.5 61.3108V54.5329ZM7.38894 33.4219C7.38894 21.7626 16.8407 12.3108 28.5 12.3108V5.53293C13.0974 5.53293 0.611058 18.0192 0.611058 33.4219H7.38894ZM28.5 12.3108C32.3509 12.3108 35.9514 13.3388 39.0531 15.133L42.4469 9.26605C38.3414 6.89112 33.5742 5.53293 28.5 5.53293V12.3108ZM47.4093 24.0229C48.8175 26.8494 49.6111 30.0381 49.6111 33.4219H56.3889C56.3889 28.9659 55.3414 24.7449 53.4761 21.0006L47.4093 24.0229Z" fill="currentColor"/>
<path d="M32.502 15.5469L41.89 12.8013L38.0909 3.788" stroke="currentColor" stroke-width="6.77788" stroke-linecap="round"/>
</svg>
