<svg width="20" height="18" viewBox="0 0 20 18" fill="none" xmlns="http://www.w3.org/2000/svg">
<g clip-path="url(#clip0_3102_5887)">
<path d="M2.36272 17.3111C4.91076 17.3111 6.82563 15.0959 7.9684 13.3454C7.82941 13.7327 7.75218 14.12 7.75218 14.4917C7.75218 15.5142 8.33902 16.2422 9.4972 16.2422C11.0878 16.2422 12.7865 14.848 13.6667 13.3454C13.6049 13.5623 13.5741 13.7637 13.5741 13.9496C13.5741 14.6621 13.9755 15.1114 14.794 15.1114C17.3729 15.1114 19.9673 10.5416 19.9673 6.54498C19.9673 3.43132 18.3921 0.689453 14.4389 0.689453C7.48968 0.689453 0 9.17842 0 14.6621C0 16.8154 1.1582 17.3111 2.36272 17.3111ZM12.0452 6.20419C12.0452 5.42965 12.4776 4.88748 13.1108 4.88748C13.7285 4.88748 14.1609 5.42965 14.1609 6.20419C14.1609 6.97873 13.7285 7.53638 13.1108 7.53638C12.4776 7.53638 12.0452 6.97873 12.0452 6.20419ZM15.3499 6.20419C15.3499 5.42965 15.7824 4.88748 16.4155 4.88748C17.0332 4.88748 17.4656 5.42965 17.4656 6.20419C17.4656 6.97873 17.0332 7.53638 16.4155 7.53638C15.7824 7.53638 15.3499 6.97873 15.3499 6.20419Z" fill="#AB9FF2"/>
</g>
<defs>
<clipPath id="clip0_3102_5887">
<rect width="20" height="16.6216" fill="white" transform="translate(0 0.689453)"/>
</clipPath>
</defs>
</svg>
