<svg width="36" height="36" viewBox="0 0 36 36" fill="none" xmlns="http://www.w3.org/2000/svg">
<rect width="36" height="36" rx="6" fill="#2962EF"/>
<path fill-rule="evenodd" clip-rule="evenodd" d="M21.5437 9.64289C21.5437 8.04965 22.8353 6.75807 24.4285 6.75807H27C28.5932 6.75807 29.8848 8.04965 29.8848 9.64289V12.2143C29.8848 13.8076 28.5932 15.0991 27 15.0991H24.4285C23.7976 15.0991 23.2139 14.8966 22.739 14.5529L14.67 22.2711C14.942 22.7114 15.0991 23.2302 15.0991 23.7858V24.509H21.5437V23.7858C21.5437 22.1925 22.8353 20.9009 24.4285 20.9009H27C28.5932 20.9009 29.8848 22.1925 29.8848 23.7858V26.3572C29.8848 27.9504 28.5932 29.242 27 29.242H24.4285C22.8353 29.242 21.5437 27.9504 21.5437 26.3572V25.634H15.0991V26.3572C15.0991 27.9504 13.8075 29.242 12.2142 29.242H9.64282C8.04957 29.242 6.758 27.9504 6.758 26.3572V23.7858C6.758 22.1925 8.04957 20.9009 9.64282 20.9009H12.2142C12.8452 20.9009 13.4289 21.1035 13.9038 21.4472L21.9729 13.729C21.7007 13.2887 21.5437 12.7699 21.5437 12.2143V11.4911H15.0991V12.2143C15.0991 13.8076 13.8075 15.0991 12.2142 15.0991H9.64282C8.04957 15.0991 6.758 13.8076 6.758 12.2143V9.64289C6.758 8.04965 8.04957 6.75807 9.64282 6.75807H12.2142C13.8075 6.75807 15.0991 8.04965 15.0991 9.64289V10.3661H21.5437V9.64289ZM24.4285 8.67057C23.8915 8.67057 23.4562 9.1059 23.4562 9.64289V12.2143C23.4562 12.7513 23.8915 13.1866 24.4285 13.1866H27C27.537 13.1866 27.9723 12.7513 27.9723 12.2143V9.64289C27.9723 9.1059 27.537 8.67057 27 8.67057H24.4285ZM24.4285 22.8134C23.8915 22.8134 23.4562 23.2488 23.4562 23.7858V26.3572C23.4562 26.8942 23.8915 27.3295 24.4285 27.3295H27C27.537 27.3295 27.9723 26.8942 27.9723 26.3572V23.7858C27.9723 23.2488 27.537 22.8134 27 22.8134H24.4285ZM8.6705 23.7858C8.6705 23.2488 9.10582 22.8134 9.64282 22.8134H12.2142C12.7512 22.8134 13.1866 23.2488 13.1866 23.7858V26.3572C13.1866 26.8942 12.7512 27.3295 12.2142 27.3295H9.64282C9.10582 27.3295 8.6705 26.8942 8.6705 26.3572V23.7858ZM9.64282 8.67057C9.10582 8.67057 8.6705 9.1059 8.6705 9.64289V12.2143C8.6705 12.7513 9.10582 13.1866 9.64282 13.1866H12.2142C12.7512 13.1866 13.1866 12.7513 13.1866 12.2143V9.64289C13.1866 9.1059 12.7512 8.67057 12.2142 8.67057H9.64282Z" fill="white"/>
</svg>
