<svg width="24" height="24" viewBox="0 0 24 24" fill="none" xmlns="http://www.w3.org/2000/svg">
<rect width="24" height="24" rx="6" fill="#2962EF"/>
<path fill-rule="evenodd" clip-rule="evenodd" d="M14.3625 6.42907C14.3625 5.36691 15.2236 4.50586 16.2857 4.50586H18C19.0622 4.50586 19.9232 5.36691 19.9232 6.42907V8.14336C19.9232 9.20552 19.0622 10.0666 18 10.0666H16.2857C15.8651 10.0666 15.476 9.93152 15.1594 9.70241L9.78001 14.8479C9.9614 15.1414 10.0661 15.4873 10.0661 15.8576V16.3398H14.3625V15.8576C14.3625 14.7955 15.2236 13.9344 16.2857 13.9344H18C19.0622 13.9344 19.9232 14.7955 19.9232 15.8576V17.5719C19.9232 18.6341 19.0622 19.4951 18 19.4951H16.2857C15.2236 19.4951 14.3625 18.6341 14.3625 17.5719V17.0898H10.0661V17.5719C10.0661 18.6341 9.20503 19.4951 8.14287 19.4951H6.42859C5.36642 19.4951 4.50537 18.6341 4.50537 17.5719V15.8576C4.50537 14.7955 5.36642 13.9344 6.42859 13.9344H8.14287C8.56354 13.9344 8.95266 14.0695 9.26924 14.2986L14.6486 9.15313C14.4672 8.85964 14.3625 8.51373 14.3625 8.14336V7.66121L10.0661 7.66121V8.14336C10.0661 9.20552 9.20503 10.0666 8.14287 10.0666H6.42859C5.36642 10.0666 4.50537 9.20552 4.50537 8.14336L4.50537 6.42907C4.50537 5.36691 5.36642 4.50586 6.42859 4.50586L8.14287 4.50586C9.20503 4.50586 10.0661 5.36691 10.0661 6.42907V6.91121L14.3625 6.91121V6.42907ZM16.2857 5.78086C15.9277 5.78086 15.6375 6.07107 15.6375 6.42907V8.14336C15.6375 8.50136 15.9277 8.79157 16.2857 8.79157H18C18.358 8.79157 18.6482 8.50136 18.6482 8.14336V6.42907C18.6482 6.07107 18.358 5.78086 18 5.78086H16.2857ZM16.2857 15.2094C15.9277 15.2094 15.6375 15.4996 15.6375 15.8576V17.5719C15.6375 17.9299 15.9277 18.2201 16.2857 18.2201H18C18.358 18.2201 18.6482 17.9299 18.6482 17.5719V15.8576C18.6482 15.4996 18.358 15.2094 18 15.2094H16.2857ZM5.78037 15.8576C5.78037 15.4996 6.07059 15.2094 6.42859 15.2094H8.14287C8.50087 15.2094 8.79109 15.4996 8.79109 15.8576V17.5719C8.79109 17.9299 8.50087 18.2201 8.14287 18.2201H6.42859C6.07059 18.2201 5.78037 17.9299 5.78037 17.5719V15.8576ZM6.42859 5.78086C6.07059 5.78086 5.78037 6.07107 5.78037 6.42907V8.14336C5.78037 8.50136 6.07059 8.79157 6.42859 8.79157H8.14287C8.50087 8.79157 8.79109 8.50136 8.79109 8.14336V6.42907C8.79109 6.07107 8.50087 5.78086 8.14287 5.78086H6.42859Z" fill="white"/>
</svg>
