<svg width="24" height="24" viewBox="0 0 24 24" fill="none" xmlns="http://www.w3.org/2000/svg">
<path d="M12 22C6.53922 22 2 17.4608 2 12C2 6.52941 6.52941 2 11.9902 2C17.4608 2 22 6.52941 22 12C22 17.4608 17.4706 22 12 22ZM12 20.3333C16.6275 20.3333 20.3431 16.6275 20.3333 12C20.3235 7.37255 16.6176 3.66667 11.9902 3.66667C7.36275 3.66667 3.67647 7.37255 3.67647 12C3.67647 16.6275 7.37255 20.3333 12 20.3333ZM12 7.0098C12.4314 7.0098 12.7353 7.31373 12.7353 7.7451V12.6471L12.6569 14.7255L13.6569 13.5392L14.8137 12.3627C14.9412 12.2255 15.1176 12.1471 15.3333 12.1471C15.7353 12.1471 16.049 12.4608 16.049 12.8529C16.049 13.0588 15.9706 13.2353 15.8431 13.3627L12.5784 16.6275C12.3922 16.8137 12.2157 16.902 12 16.902C11.7941 16.902 11.6275 16.8235 11.4314 16.6275L8.15686 13.3627C8.02941 13.2353 7.97059 13.0588 7.97059 12.8529C7.97059 12.4608 8.27451 12.1471 8.67647 12.1471C8.88235 12.1471 9.05882 12.2353 9.19608 12.3627L10.3627 13.5392L11.3431 14.7157L11.2647 12.6471V7.7451C11.2647 7.31373 11.5784 7.0098 12 7.0098Z" fill="currentColor"/>
</svg>
