<svg xmlns="http://www.w3.org/2000/svg" width="400" height="600" fill="none" viewBox="0 0 400 600"><g clip-path="url(#clip0_144_7122)"><path fill="url(#paint0_radial_144_7122)" fill-rule="evenodd" d="M8.03818 319.649C-6.12049 332.598 -12.214 343.412 -13.6159 349.61L-62.384 338.579C-57.7556 318.117 -43.2922 298.836 -25.7054 282.753C-7.57467 266.171 16.2633 250.776 43.8039 238.621C98.8626 214.321 171.125 201.947 246.258 221.374L233.742 269.782C171.21 253.614 110.502 263.837 63.9924 284.364C40.7488 294.623 21.6528 307.198 8.03818 319.649Z" clip-rule="evenodd" opacity=".16"/><path fill="url(#paint1_radial_144_7122)" fill-rule="evenodd" d="M-19.6499 648.876L-36.3032 692.963C152.916 745.318 226.74 676.018 291.518 612.601L256.54 576.872C180.366 637.761 118.257 688.154 -19.6499 648.876Z" clip-rule="evenodd" opacity=".16"/><path fill="url(#paint2_radial_144_7122)" fill-rule="evenodd" d="M209.316 357.904C240.128 363.787 265.281 378.481 297.012 397.897C363.397 438.517 405.487 420.526 416.018 405.117L457.299 433.327C424.337 481.563 346.822 486.992 270.916 440.547C238.426 420.667 220.568 410.955 199.938 407.016C179.206 403.058 153.276 404.562 104.771 413.993L95.2282 364.912C144.665 355.3 178.607 352.04 209.316 357.904Z" clip-rule="evenodd" opacity=".12"/><g filter="url(#filter0_f_144_7122)" opacity=".32"><circle cx="375" cy="90.731" r="80" fill="#2962EF"/></g><g filter="url(#filter1_f_144_7122)" opacity=".24"><ellipse cx="60" cy="601.259" fill="#2962EF" rx="80" ry="79.259"/></g></g><defs><filter id="filter0_f_144_7122" width="560" height="560" x="95" y="-189.269" color-interpolation-filters="sRGB" filterUnits="userSpaceOnUse"><feFlood flood-opacity="0" result="BackgroundImageFix"/><feBlend in="SourceGraphic" in2="BackgroundImageFix" mode="normal" result="shape"/><feGaussianBlur result="effect1_foregroundBlur_144_7122" stdDeviation="100"/></filter><filter id="filter1_f_144_7122" width="560" height="558.519" x="-220" y="322" color-interpolation-filters="sRGB" filterUnits="userSpaceOnUse"><feFlood flood-opacity="0" result="BackgroundImageFix"/><feBlend in="SourceGraphic" in2="BackgroundImageFix" mode="normal" result="shape"/><feGaussianBlur result="effect1_foregroundBlur_144_7122" stdDeviation="100"/></filter><radialGradient id="paint0_radial_144_7122" cx="0" cy="0" r="1" gradientTransform="translate(-11.1745 287.384) rotate(-10.1591) scale(320.195 96.6822)" gradientUnits="userSpaceOnUse"><stop stop-color="#2962EF"/><stop offset=".68" stop-color="#2962EF" stop-opacity=".34"/><stop offset=".917" stop-color="#2962EF" stop-opacity="0"/></radialGradient><radialGradient id="paint1_radial_144_7122" cx="0" cy="0" r="1" gradientTransform="translate(153.032 703.156) rotate(-43.6553) scale(164.377 119.927)" gradientUnits="userSpaceOnUse"><stop stop-color="#2962EF"/><stop offset=".847" stop-color="#2962EF" stop-opacity=".34"/><stop offset="1" stop-color="#2962EF" stop-opacity="0"/></radialGradient><radialGradient id="paint2_radial_144_7122" cx="0" cy="0" r="1" gradientTransform="translate(366.145 438.691) rotate(-164.874) scale(285.75 117.443)" gradientUnits="userSpaceOnUse"><stop stop-color="#2962EF"/><stop offset=".802" stop-color="#2962EF" stop-opacity=".34"/><stop offset="1" stop-color="#2962EF" stop-opacity="0"/></radialGradient><clipPath id="clip0_144_7122"><rect width="400" height="600" fill="#fff"/></clipPath></defs></svg>