<svg width="20" height="20" viewBox="0 0 20 20" fill="none" xmlns="http://www.w3.org/2000/svg">
<path d="M13.7544 4.59543C13.8682 4.65241 13.944 4.69039 14.0451 4.69039C14.4497 4.6904 12.9664 2.0835 9.99983 2.0835C7.03327 2.08347 5.54998 4.69039 5.95452 4.69039C6.05566 4.69039 6.13151 4.65241 6.24529 4.59543C6.58662 4.4245 7.26927 4.08265 9.99984 4.08265C12.7304 4.08265 13.4131 4.42451 13.7544 4.59543Z" fill="currentColor"/>
<path fill-rule="evenodd" clip-rule="evenodd" d="M17.6859 12.3192H16.2444C16.1615 13.1045 15.998 13.833 15.7385 14.4888L17.2528 15.5569C17.5438 15.7621 17.6114 16.1616 17.4037 16.4492C17.1961 16.7368 16.7919 16.8036 16.5009 16.5983L15.1326 15.6333C15.043 15.7629 14.9476 15.888 14.8464 16.0084C13.7794 17.2777 12.1549 17.9168 9.99984 17.9168C7.84482 17.9168 6.22028 17.2777 5.1533 16.0085C5.05204 15.888 4.95667 15.7629 4.86701 15.6333L3.49878 16.5983C3.20781 16.8036 2.8036 16.7368 2.59596 16.4492C2.38832 16.1616 2.45587 15.7621 2.74685 15.5569L4.26115 14.4888C4.00162 13.833 3.83817 13.1045 3.75531 12.3192H2.31375C1.95629 12.3192 1.6665 12.0328 1.6665 11.6795C1.6665 11.3261 1.95629 11.0397 2.31375 11.0397H3.68923L3.68916 10.9942C3.68916 10.0727 3.8099 9.27827 4.04524 8.60188L2.78093 7.82451C2.4774 7.63788 2.38441 7.24339 2.57323 6.94339C2.76205 6.64339 3.16117 6.55148 3.4647 6.73811L4.63002 7.45461C4.89233 7.0869 5.20786 6.77314 5.57457 6.51032C6.7587 5.66163 8.35049 5.44208 9.99984 5.44208C11.6614 5.44209 13.2497 5.69595 14.4303 6.55991C14.7792 6.81523 15.0821 7.11579 15.3369 7.46358L16.5387 6.73581C16.8435 6.55124 17.242 6.64584 17.4288 6.9471C17.6155 7.24837 17.5198 7.64223 17.215 7.8268L15.9367 8.60085C16.1832 9.27949 16.3105 10.0748 16.3105 10.9942L16.3104 11.0397H17.6859C18.0434 11.0397 18.3332 11.3261 18.3332 11.6795C18.3332 12.0328 18.0434 12.3192 17.6859 12.3192ZM4.98366 10.9942C4.98366 9.11326 5.54296 8.11342 6.33449 7.54611C7.05602 7.02898 8.07477 6.79127 9.35604 6.73502C9.35376 6.75687 9.35259 6.77905 9.35259 6.8015V16.6143C7.8282 16.5013 6.81256 15.9802 6.14896 15.1908C5.46919 14.3822 5.08368 13.2046 5.0007 11.6525L4.99996 11.6386C4.9891 11.4305 4.98366 11.2157 4.98366 10.9942ZM10.6471 6.8015C10.6471 6.77963 10.646 6.75801 10.6438 6.7367C11.916 6.79914 12.9362 7.05853 13.66 7.58819C14.4606 8.17409 15.016 9.18107 15.016 10.9942C15.016 11.2157 15.0106 11.4305 14.9997 11.6385L14.999 11.6526C14.916 13.2046 14.5305 14.3822 13.8507 15.1908C13.1871 15.9802 12.1715 16.5012 10.6471 16.6143V6.8015Z" fill="currentColor"/>
</svg>
