<svg width="16" height="16" viewBox="0 0 16 16" fill="none" xmlns="http://www.w3.org/2000/svg">
<path d="M5.42523 7.37323C5.36636 7.31066 5.33325 7.22549 5.33325 7.13663C5.33325 7.04778 5.36636 6.96261 5.42523 6.90004L5.54961 6.76675C5.60812 6.70167 5.68918 6.66547 5.7735 6.66678L10.2263 6.66678C10.3107 6.66547 10.3917 6.70167 10.4502 6.76675L10.5746 6.90004C10.6335 6.96261 10.6666 7.04778 10.6666 7.13663C10.6666 7.22549 10.6335 7.31066 10.5746 7.37323L8.21759 9.8991C8.16116 9.96353 8.08237 10.0001 7.99992 10.0001C7.91746 10.0001 7.83868 9.96353 7.78225 9.8991L5.42523 7.37323Z" fill="currentColor"/>
</svg>
