<svg xmlns="http://www.w3.org/2000/svg" width="25" height="24" viewBox="0 0 25 24" fill="none">
<path d="M11.0597 7.63797C10.9659 7.54967 10.8381 7.5 10.7048 7.5C10.5716 7.5 10.4438 7.54967 10.3499 7.63797L10.15 7.82454C10.0524 7.9123 9.99809 8.03389 10.0001 8.16037L10.0001 14.8396C9.99809 14.9661 10.0524 15.0877 10.15 15.1755L10.3499 15.362C10.4438 15.4503 10.5716 15.5 10.7048 15.5C10.8381 15.5 10.9659 15.4503 11.0597 15.362L14.8485 11.8265C14.9452 11.7419 15 11.6237 15 11.5C15 11.3763 14.9452 11.2581 14.8485 11.1735L11.0597 7.63797Z" fill="currentColor"/>
</svg>