<svg width="32" height="32" viewBox="0 0 32 32" fill="none" xmlns="http://www.w3.org/2000/svg">
<path d="M31.5 16C31.5 24.5604 24.5604 31.5 16 31.5C7.43959 31.5 0.5 24.5604 0.5 16C0.5 7.43959 7.43959 0.5 16 0.5C24.5604 0.5 31.5 7.43959 31.5 16Z" fill="var(--primary)" stroke="var(--primary)"/>
<circle cx="9" cy="16" r="5" fill="white" stroke="var(--primary)" stroke-width="2"/>
<circle cx="16" cy="16" r="5" fill="white" stroke="var(--primary)" stroke-width="2"/>
<circle cx="23" cy="16" r="5" fill="white" stroke="var(--primary)" stroke-width="2"/>
<mask id="mask0" mask-type="alpha" maskUnits="userSpaceOnUse" x="0" y="0" width="32" height="32">
<path d="M31.5 16C31.5 24.5604 24.5604 31.5 16 31.5C7.43959 31.5 0.5 24.5604 0.5 16C0.5 7.43959 7.43959 0.5 16 0.5C24.5604 0.5 31.5 7.43959 31.5 16Z" fill="white" stroke="white"/>
</mask>
<g mask="url(#mask0)">
<circle cx="30" cy="16" r="5" fill="white" stroke="var(--primary)" stroke-width="2"/>
</g>
</svg>
