<svg width="193" height="84" viewBox="0 0 193 84" fill="none" xmlns="http://www.w3.org/2000/svg">
<path opacity="0.4" d="M8.79002 39.1627L1.41579 46.5671C0.669185 47.3168 0.25 48.3317 0.25 49.3898V63.5C0.25 65.7091 2.04086 67.5 4.25 67.5H188.25C190.459 67.5 192.25 65.7091 192.25 63.5V19L184.837 25.2292C184.463 25.5437 184.149 25.9241 183.912 26.3517L178.843 35.4925C177.935 37.1305 176.012 37.9188 174.215 37.3896L166.927 35.2432C165.616 34.8569 164.592 33.8274 164.214 32.5135L157.562 9.42295C156.57 5.97856 151.897 5.47747 150.197 8.63317L140.44 26.745C139.17 29.1031 135.986 29.5707 134.091 27.6773L131.4 24.9882C129.604 23.1938 126.613 23.5043 125.224 25.6292L120.205 33.3086C118.65 35.6884 115.178 35.7316 113.564 33.3913L102.399 17.2034C100.658 14.6778 96.8383 14.9724 95.5053 17.7358C90.6939 27.7105 84.2185 41.1431 81.9053 45.9417C81.3579 47.0774 80.3112 47.8802 79.0739 48.1222L62.3774 51.3882C60.5474 51.7462 58.7127 50.7922 57.9548 49.0884L51.894 35.4631C50.9403 33.3192 48.3546 32.4529 46.3018 33.5894L42.9717 35.4331C41.562 36.2135 39.8217 36.0719 38.5567 35.0739L34.1803 31.6212C32.3083 30.1443 29.5681 30.6229 28.3075 32.6469L23.4811 40.3958C22.2485 42.3748 19.5915 42.8845 17.7141 41.5021L13.996 38.7643C12.4013 37.5901 10.1875 37.7595 8.79002 39.1627Z" fill="url(#paint0_linear_17017_29218)"/>
<path d="M0.25 47.7377L8.79002 39.1627C10.1875 37.7595 12.4013 37.5901 13.996 38.7643L17.7141 41.5021C19.5915 42.8845 22.2485 42.3748 23.4811 40.3958L28.3075 32.6469C29.5681 30.6229 32.3083 30.1443 34.1803 31.6212L38.5567 35.0739C39.8217 36.072 41.562 36.2135 42.9717 35.4331L46.2778 33.6027C48.3393 32.4613 50.9358 33.3404 51.88 35.4993L57.8133 49.0655C58.5635 50.7808 60.4031 51.7463 62.2409 51.3893L79.0702 48.1203C80.3096 47.8795 81.3585 47.0762 81.9067 45.9389C84.221 41.1379 90.6949 27.7085 95.5053 17.7358C96.8383 14.9724 100.658 14.6778 102.399 17.2034L113.564 33.3913C115.178 35.7316 118.65 35.6884 120.205 33.3086L125.224 25.6292C126.613 23.5043 129.604 23.1938 131.4 24.9882L134.091 27.6773C135.986 29.5707 139.17 29.1031 140.44 26.745L150.197 8.63317C151.897 5.47747 156.57 5.97856 157.562 9.42295L164.214 32.5134C164.592 33.8274 165.616 34.8569 166.927 35.2432L174.215 37.3896C176.012 37.9188 177.935 37.1305 178.843 35.4925L183.865 26.4374C184.132 25.9543 184.498 25.532 184.937 25.1969L191.75 20" stroke="#1FC260" stroke-width="2"/>
<circle cx="62.25" cy="50" r="9" fill="white" stroke="#1FC260" stroke-width="2"/>
<path d="M57.25 50H67.25M62.25 45L62.25 55" stroke="#1FC260" stroke-width="2"/>
<path d="M35.3236 72H36.7096V74.366H38.9496V75.64H36.7096V78.006H35.3236V75.64H33.0976V74.366H35.3236V72ZM43.639 67.688H44.997V69.172C46.761 69.438 47.839 70.558 47.895 72.14H46.285C46.159 71.146 45.375 70.474 44.185 70.474C43.079 70.474 42.309 70.95 42.309 71.874C42.309 72.882 43.317 73.092 44.857 73.358C46.481 73.652 48.063 74.17 48.049 76.102C48.049 77.698 46.831 78.86 44.997 79.056V80.498H43.639V79.028C41.679 78.776 40.517 77.516 40.461 75.78L42.085 75.808C42.169 76.956 43.065 77.726 44.437 77.726C45.599 77.726 46.439 77.208 46.439 76.27C46.439 75.234 45.417 75.01 43.863 74.73C42.239 74.45 40.699 73.932 40.699 71.986C40.699 70.432 41.861 69.326 43.639 69.144V67.688ZM52.9443 74.548C53.8263 73.806 54.4843 73.12 54.4843 72.182C54.4843 71.062 53.7423 70.446 52.6223 70.446C51.5023 70.446 50.7463 71.202 50.7463 72.42V72.588H49.1923V72.336C49.1923 70.474 50.5363 69.116 52.6223 69.116C54.8203 69.116 56.0523 70.32 56.0523 72.112C56.0523 73.568 55.1703 74.478 53.9803 75.472L51.3763 77.642H56.1223V79H49.1783V77.754L52.9443 74.548ZM58.6746 75.906C58.7026 77.11 59.6126 77.796 60.8586 77.796C61.9646 77.796 62.8186 77.166 62.8186 76.158C62.8186 75.248 62.1046 74.66 60.7466 74.66H59.8506V73.372H60.6626C61.9506 73.372 62.5946 72.728 62.5946 71.832C62.5946 70.936 61.7966 70.404 60.7746 70.404C59.6686 70.404 58.8706 71.076 58.8426 72.098H57.3306C57.3446 70.334 58.7586 69.116 60.7746 69.116C62.8886 69.116 64.1766 70.166 64.1766 71.734C64.1766 72.938 63.4766 73.652 62.5386 73.904C63.5046 74.1 64.4006 74.786 64.4006 76.256C64.4006 77.936 62.9866 79.084 60.7746 79.084C58.5626 79.084 57.1486 77.922 57.1486 75.906H58.6746ZM69.2943 74.548C70.1763 73.806 70.8343 73.12 70.8343 72.182C70.8343 71.062 70.0923 70.446 68.9723 70.446C67.8523 70.446 67.0963 71.202 67.0963 72.42V72.588H65.5423V72.336C65.5423 70.474 66.8863 69.116 68.9723 69.116C71.1703 69.116 72.4023 70.32 72.4023 72.112C72.4023 73.568 71.5203 74.478 70.3303 75.472L67.7263 77.642H72.4723V79H65.5283V77.754L69.2943 74.548ZM73.7786 78.132C73.7786 77.572 74.1846 77.18 74.7446 77.18C75.3046 77.18 75.7246 77.572 75.7246 78.132C75.7246 78.692 75.3046 79.084 74.7446 79.084C74.1846 79.084 73.7786 78.692 73.7786 78.132ZM76.8513 76.326C76.8513 74.968 77.7473 74.156 78.7973 73.918C77.9013 73.694 77.1173 72.91 77.1173 71.72C77.1173 70.194 78.4333 69.116 80.5193 69.116C82.6193 69.116 83.9353 70.194 83.9353 71.72C83.9353 72.868 83.1513 73.694 82.2413 73.904C83.2913 74.128 84.2013 74.94 84.2013 76.326C84.2013 77.95 82.8293 79.084 80.5193 79.084C78.2093 79.084 76.8513 77.95 76.8513 76.326ZM78.4333 76.242C78.4333 77.194 79.2873 77.894 80.5193 77.894C81.7653 77.894 82.6193 77.194 82.6193 76.242C82.6193 75.29 81.7653 74.604 80.5193 74.604C79.2873 74.604 78.4333 75.29 78.4333 76.242ZM78.6853 71.762C78.6853 72.63 79.4133 73.218 80.5193 73.218C81.6393 73.218 82.3673 72.63 82.3673 71.762C82.3673 70.908 81.6393 70.32 80.5193 70.32C79.4133 70.32 78.6853 70.908 78.6853 71.762ZM89.0342 74.548C89.9162 73.806 90.5742 73.12 90.5742 72.182C90.5742 71.062 89.8322 70.446 88.7122 70.446C87.5922 70.446 86.8362 71.202 86.8362 72.42V72.588H85.2822V72.336C85.2822 70.474 86.6262 69.116 88.7122 69.116C90.9102 69.116 92.1422 70.32 92.1422 72.112C92.1422 73.568 91.2602 74.478 90.0702 75.472L87.4662 77.642H92.2122V79H85.2682V77.754L89.0342 74.548Z" fill="#01A643"/>
<defs>
<linearGradient id="paint0_linear_17017_29218" x1="96.25" y1="0" x2="96.25" y2="67.5" gradientUnits="userSpaceOnUse">
<stop stop-color="#01A643"/>
<stop offset="1" stop-color="#01A643" stop-opacity="0"/>
</linearGradient>
</defs>
</svg>
