<svg width="20" height="20" viewBox="0 0 20 20" fill="none" xmlns="http://www.w3.org/2000/svg">
<path d="M14.4165 5.25008C14.0915 4.92508 13.5665 4.92508 13.2415 5.25008L8.54154 9.95007L9.71654 11.1251L14.4165 6.41674C14.7332 6.10007 14.7332 5.56674 14.4165 5.25008ZM17.9499 5.24174L9.71654 13.4751L6.81654 10.5834C6.49154 10.2584 5.96654 10.2584 5.64154 10.5834C5.31654 10.9084 5.31654 11.4334 5.64154 11.7584L9.12487 15.2417C9.44987 15.5667 9.97487 15.5667 10.2999 15.2417L19.1249 6.42508C19.4499 6.10008 19.4499 5.57508 19.1249 5.25008H19.1165C18.7999 4.91674 18.2749 4.91674 17.9499 5.24174ZM0.933203 11.7667L4.41654 15.2501C4.74154 15.5751 5.26654 15.5751 5.59154 15.2501L6.17487 14.6667L2.1082 10.5834C1.7832 10.2584 1.2582 10.2584 0.933203 10.5834C0.608203 10.9084 0.608203 11.4417 0.933203 11.7667Z" fill="currentColor"/>
</svg>
