<svg width="63" height="62" viewBox="0 0 63 62" fill="none" xmlns="http://www.w3.org/2000/svg">
<path d="M28.8241 42.4074L47.7032 23.7105L46.2959 22.2895L28.8241 39.5926L19.7032 30.5597L18.2959 31.9808L28.8241 42.4074Z" fill="url(#paint0_linear_17283_35149)"/>
<path fill-rule="evenodd" clip-rule="evenodd" d="M60.1403 42.8632C61.6982 39.1021 62.5 35.071 62.5 31C62.5 26.929 61.6982 22.8979 60.1403 19.1368C58.5824 15.3757 56.2989 11.9583 53.4203 9.0797C50.5417 6.20108 47.1243 3.91764 43.3632 2.35974C39.6021 0.801843 35.571 1.98975e-06 31.5 0C27.429 -1.98973e-06 23.3979 0.801835 19.6368 2.35973C15.8757 3.91762 12.4583 6.20107 9.5797 9.07968C6.70108 11.9583 4.41764 15.3757 2.85974 19.1368C1.30184 22.8979 0.5 26.929 0.5 31C0.5 35.071 1.30184 39.1021 2.85973 42.8632C4.41763 46.6243 6.70107 50.0417 9.57968 52.9203C12.4583 55.7989 15.8757 58.0824 19.6368 59.6403C23.3979 61.1982 27.429 62 31.5 62C35.571 62 39.6021 61.1982 43.3632 59.6403C47.1243 58.0824 50.5417 55.7989 53.4203 52.9203C56.2989 50.0417 58.5824 46.6243 60.1403 42.8632ZM60.5 31C60.5 34.8083 59.7499 38.5794 58.2925 42.0978C56.8351 45.6163 54.699 48.8132 52.0061 51.5061C49.3132 54.199 46.1163 56.3351 42.5978 57.7925C39.0794 59.2499 35.3083 60 31.5 60C27.6917 60 23.9206 59.2499 20.4022 57.7925C16.8837 56.3351 13.6868 54.199 10.9939 51.5061C8.301 48.8132 6.16488 45.6163 4.70749 42.0978C3.25011 38.5794 2.5 34.8083 2.5 31C2.5 27.1917 3.25011 23.4206 4.7075 19.9022C6.16489 16.3837 8.30101 13.1868 10.9939 10.4939C13.6868 7.801 16.8837 5.66487 20.4022 4.20749C23.9206 2.7501 27.6917 2 31.5 2C35.3083 2 39.0794 2.75011 42.5978 4.2075C46.1163 5.66489 49.3132 7.80101 52.0061 10.4939C54.699 13.1868 56.8351 16.3838 58.2925 19.9022C59.7499 23.4206 60.5 27.1917 60.5 31Z" fill="url(#paint1_linear_17283_35149)"/>
<defs>
<linearGradient id="paint0_linear_17283_35149" x1="0.5" y1="31" x2="62.5" y2="31" gradientUnits="userSpaceOnUse">
<stop stop-color="#A024EF"/>
<stop offset="1" stop-color="#FDBB6C"/>
</linearGradient>
<linearGradient id="paint1_linear_17283_35149" x1="0.5" y1="31" x2="62.5" y2="31" gradientUnits="userSpaceOnUse">
<stop stop-color="#A024EF"/>
<stop offset="1" stop-color="#FDBB6C"/>
</linearGradient>
</defs>
</svg>
