<svg width="62" height="62" viewBox="0 0 62 62" fill="none" xmlns="http://www.w3.org/2000/svg">
<path d="M28.3241 42.4064L47.2032 23.7096L45.7959 22.2885L28.3241 39.5916L19.2032 30.5588L17.7959 31.9798L28.3241 42.4064Z" fill="currentColor"/>
<path fill-rule="evenodd" clip-rule="evenodd" d="M59.6403 42.8622C61.1982 39.1011 62 35.07 62 30.999C62 26.928 61.1982 22.8969 59.6403 19.1359C58.0824 15.3748 55.7989 11.9573 52.9203 9.07873C50.0417 6.20011 46.6243 3.91666 42.8632 2.35876C39.1021 0.800866 35.071 -0.000974573 31 -0.000976562C26.929 -0.000978552 22.8979 0.800858 19.1368 2.35875C15.3757 3.91665 11.9583 6.20009 9.0797 9.0787C6.20108 11.9573 3.91764 15.3747 2.35974 19.1358C0.801841 22.8969 0 26.928 0 30.999C0 35.07 0.801836 39.1011 2.35973 42.8622C3.91763 46.6233 6.20107 50.0407 9.07968 52.9193C11.9583 55.7979 15.3757 58.0814 19.1368 59.6393C22.8979 61.1972 26.929 61.999 31 61.999C35.071 61.999 39.1021 61.1972 42.8632 59.6393C46.6243 58.0814 50.0417 55.798 52.9203 52.9193C55.7989 50.0407 58.0824 46.6233 59.6403 42.8622ZM60 30.999C60 34.8074 59.2499 38.5784 57.7925 42.0968C56.3351 45.6153 54.199 48.8122 51.5061 51.5051C48.8132 54.198 45.6163 56.3341 42.0978 57.7915C38.5794 59.2489 34.8083 59.999 31 59.999C27.1917 59.999 23.4206 59.2489 19.9022 57.7915C16.3837 56.3341 13.1868 54.198 10.4939 51.5051C7.801 48.8122 5.66488 45.6153 4.20749 42.0968C2.75011 38.5784 2 34.8074 2 30.999C2 27.1907 2.75011 23.4196 4.2075 19.9012C5.66489 16.3828 7.80101 13.1858 10.4939 10.4929C13.1868 7.80002 16.3837 5.6639 19.9022 4.20651C23.4206 2.74913 27.1917 1.99902 31 1.99902C34.8083 1.99903 38.5794 2.74913 42.0978 4.20652C45.6163 5.66391 48.8132 7.80004 51.5061 10.4929C54.199 13.1858 56.3351 16.3828 57.7925 19.9012C59.2499 23.4197 60 27.1907 60 30.999Z" fill="currentColor"/>
</svg>
