<svg width="24" height="24" viewBox="0 0 24 24" fill="none" xmlns="http://www.w3.org/2000/svg">
<path fill-rule="evenodd" clip-rule="evenodd" d="M12 24C18.6274 24 24 18.6274 24 12C24 5.37258 18.6274 0 12 0C5.37258 0 0 5.37258 0 12C0 18.6274 5.37258 24 12 24Z" fill="var(--neutral-200)"/>
<path d="M15.5286 7.52925C15.789 7.2689 16.2111 7.2689 16.4714 7.52925C16.7318 7.7896 16.7318 8.21171 16.4714 8.47206L12.9429 12.0007L16.4714 15.5292C16.7318 15.7896 16.7318 16.2117 16.4714 16.4721C16.2111 16.7324 15.789 16.7324 15.5286 16.4721L12 12.9435L8.47145 16.4721C8.2111 16.7324 7.78899 16.7324 7.52864 16.4721C7.26829 16.2117 7.26829 15.7896 7.52864 15.5292L11.0572 12.0007L7.52864 8.47206C7.26829 8.21171 7.26829 7.7896 7.52864 7.52925C7.78899 7.2689 8.2111 7.2689 8.47145 7.52925L12 11.0578L15.5286 7.52925Z" fill="var(--neutral-600)"/>
</svg>
