<svg width="24" height="24" viewBox="0 0 24 24" fill="none" xmlns="http://www.w3.org/2000/svg">
<path d="M18.2918 7.66519C17.9107 7.29875 17.292 7.29612 16.9121 7.6614L10 14.3077L7.09412 11.5136C6.70693 11.1413 6.09027 11.144 5.7082 11.5113L5.6918 11.5271C5.31071 11.8936 5.31127 12.4916 5.69523 12.8608L9.30477 16.3315C9.68723 16.6993 10.3095 16.7024 10.6913 16.3353L18.3087 9.01084C18.6902 8.64404 18.6903 8.04834 18.3082 7.68096L18.2918 7.66519Z" fill="#CDCED3"/>
<path fill-rule="evenodd" clip-rule="evenodd" d="M24 12C24 18.6274 18.6274 24 12 24C5.37258 24 0 18.6274 0 12C0 5.37258 5.37258 0 12 0C18.6274 0 24 5.37258 24 12ZM22 12C22 17.5228 17.5228 22 12 22C6.47715 22 2 17.5228 2 12C2 6.47715 6.47715 2 12 2C17.5228 2 22 6.47715 22 12Z" fill="#CDCED3"/>
</svg>
