<svg width="24" height="24" viewBox="0 0 24 24" fill="none" xmlns="http://www.w3.org/2000/svg">
<path fill-rule="evenodd" clip-rule="evenodd" d="M12 24C18.6274 24 24 18.6274 24 12C24 5.37258 18.6274 0 12 0C5.37258 0 0 5.37258 0 12C0 18.6274 5.37258 24 12 24Z" fill="var(--positive-200)"/>
<path d="M9.70388 14.7089L7.2227 12.1493C6.94378 11.8616 6.49154 11.8611 6.21164 12.1478C5.93034 12.4359 5.92926 12.9053 6.20957 13.1945L9.70388 16.7992L17.7909 8.45666C18.0697 8.169 18.0697 7.70262 17.7909 7.41496C17.5121 7.1274 17.0602 7.12729 16.7813 7.41472L9.70388 14.7089Z" fill="var(--positive-500)"/>
</svg>
