<svg xmlns="http://www.w3.org/2000/svg" width="24" height="24" fill="none" viewBox="0 0 24 24"><path fill="currentColor" d="M20.3333 12.9584C20.3333 14.9503 19.6286 16.7783 18.4539 18.2086C18.1615 18.5646 18.1579 19.0906 18.4843 19.4156C18.8087 19.7388 19.3364 19.7409 19.6331 19.3921C21.1096 17.6567 22 15.4111 22 12.9584C22 7.45851 17.5228 3 12 3C6.47715 3 2 7.45851 2 12.9584C2 15.4111 2.89041 17.6567 4.3669 19.3921C4.66363 19.7409 5.19126 19.7388 5.51574 19.4156C5.84213 19.0906 5.83846 18.5646 5.54611 18.2086C4.3714 16.7783 3.66667 14.9503 3.66667 12.9584C3.66667 8.37515 7.39763 4.65973 12 4.65973C16.6024 4.65973 20.3333 8.37515 20.3333 12.9584Z"/><path fill="currentColor" d="M18.6666 12.9584C18.6666 14.4945 18.1428 15.9087 17.2632 17.0336C16.9811 17.3944 16.4517 17.3916 16.1272 17.0684C15.8008 16.7434 15.8076 16.2182 16.0756 15.8435C16.6576 15.0295 17 14.0338 17 12.9584C17 10.2084 14.7614 7.97919 12 7.97919C9.23856 7.97919 6.99998 10.2084 6.99998 12.9584C6.99998 14.0338 7.34233 15.0295 7.92441 15.8435C8.19236 16.2182 8.19914 16.7434 7.87275 17.0685C7.54827 17.3916 7.01883 17.3944 6.73677 17.0337C5.85721 15.9088 5.33331 14.4945 5.33331 12.9584C5.33331 9.29181 8.31808 6.31946 12 6.31946C15.6819 6.31946 18.6666 9.29181 18.6666 12.9584Z"/><path fill="currentColor" fill-rule="evenodd" d="M12.8184 16.177C14.2637 15.8137 15.3334 14.5104 15.3334 12.9584C15.3334 11.1251 13.841 9.6389 12 9.6389C10.1591 9.6389 8.66669 11.1251 8.66669 12.9584C8.66669 14.5236 9.75454 15.8358 11.2184 16.186L11.2031 20.197C11.2014 20.6388 11.5582 20.9983 12 21C12.4418 21.0017 12.8014 20.6449 12.8031 20.2031L12.8184 16.177ZM12 14.6181C12.9205 14.6181 13.6667 13.875 13.6667 12.9584C13.6667 12.0417 12.9205 11.2986 12 11.2986C11.0795 11.2986 10.3334 12.0417 10.3334 12.9584C10.3334 13.875 11.0795 14.6181 12 14.6181Z" clip-rule="evenodd"/></svg>