<svg width="24" height="24" viewBox="0 0 24 24" fill="none" xmlns="http://www.w3.org/2000/svg">
<path d="M9 5C9.72398 5 10.4223 5.10991 11.0791 5.31395C10.5073 5.65008 9.98239 6.05748 9.51661 6.52394C9.34653 6.5081 9.17421 6.5 9 6.5C5.96243 6.5 3.5 8.96243 3.5 12C3.5 15.0376 5.96243 17.5 9 17.5C9.49775 17.5 9.98006 17.4339 10.4386 17.3099C10.4386 17.3099 10.4386 17.31 10.4386 17.3099C10.9997 17.1583 11.5251 16.92 11.9999 16.6104C11.9998 16.6104 11.9999 16.6105 11.9999 16.6104C13.505 15.6291 14.5 13.9308 14.5 12C14.5 10.3584 13.7808 8.88479 12.6403 7.87704C13.1156 7.60437 13.6424 7.41151 14.2027 7.31673C15.32 8.55713 16 10.1991 16 12C16 15.866 12.866 19 9 19C5.13401 19 2 15.866 2 12C2 8.13401 5.13401 5 9 5Z" fill="currentColor"/>
<path d="M15 17.5C18.0376 17.5 20.5 15.0376 20.5 12C20.5 8.96243 18.0376 6.5 15 6.5C11.9624 6.5 9.5 8.96243 9.5 12C9.5 13.6417 10.2193 15.1155 11.36 16.1232C10.8846 16.396 10.3577 16.5887 9.79742 16.6834C8.68008 15.443 8 13.8009 8 12C8 8.13401 11.134 5 15 5C18.866 5 22 8.13401 22 12C22 15.866 18.866 19 15 19C14.2759 19 13.5775 18.8901 12.9205 18.6859C13.4926 18.3498 14.0177 17.9424 14.4834 17.4761C14.6535 17.4919 14.8258 17.5 15 17.5Z" fill="currentColor"/>
</svg>
