<svg width="24" height="24" viewBox="0 0 24 24" fill="none" xmlns="http://www.w3.org/2000/svg">
<path d="M19.7726 17.3371C20.1622 17.7254 20.8138 17.6485 21.0499 17.1517C21.6593 15.8691 22 14.4361 22 12.9241C22 7.44315 17.5228 3 12 3C10.1049 3 8.33296 3.52314 6.82276 4.43185L8.04047 5.64536C9.21826 5.01302 10.5669 4.65401 12 4.65401C16.6024 4.65401 20.3333 8.35664 20.3333 12.9241C20.3333 14.1304 20.0731 15.2764 19.6052 16.3098C19.4484 16.6562 19.5033 17.0687 19.7726 17.3371Z" fill="currentColor"/>
<path fill-rule="evenodd" clip-rule="evenodd" d="M2 12.9241C2 10.4731 2.89529 8.22968 4.37903 6.49829L3.00196 5.12597C2.68878 4.81387 2.68878 4.30671 3.00196 3.99461C3.31362 3.68402 3.81778 3.68402 4.12943 3.99461L20.4981 20.3068C20.8112 20.6189 20.8112 21.1261 20.4981 21.4382C20.1864 21.7488 19.6822 21.7488 19.3706 21.4382L13.6893 15.7764C13.4208 15.9334 13.1282 16.054 12.8184 16.1316L12.8031 20.1411C12.8014 20.5829 12.4418 20.9397 12 20.938C11.5582 20.9363 11.2014 20.5768 11.2031 20.1349L11.2184 16.1406C9.75454 15.7915 8.66669 14.4839 8.66669 12.924C8.66669 12.3073 8.83675 11.73 9.13288 11.2358L7.93171 10.0387C7.34519 10.8518 6.99998 11.8479 6.99998 12.9241C6.99998 13.9946 7.34162 14.986 7.92261 15.7967C8.19112 16.1714 8.1979 16.6973 7.87071 17.022C7.54704 17.3432 7.02006 17.3461 6.73843 16.9874C5.85787 15.8661 5.33331 14.4559 5.33331 12.9241C5.33331 11.3894 5.85982 9.97683 6.74334 8.85446L5.55996 7.67515C4.37694 9.10301 3.66667 10.9312 3.66667 12.9241C3.66667 14.908 4.37063 16.7288 5.54419 18.1539C5.83722 18.5097 5.84089 19.0364 5.51371 19.3611C5.19003 19.6823 4.66486 19.6845 4.36868 19.3377C2.89113 17.608 2 15.3693 2 12.9241ZM10.3914 12.4899L12.4308 14.5223C12.2934 14.5587 12.149 14.5781 12 14.5781C11.0795 14.5781 10.3334 13.8375 10.3334 12.924C10.3334 12.7738 10.3535 12.6283 10.3914 12.4899Z" fill="currentColor"/>
<path d="M10.5714 8.16754L9.28091 6.88153C10.1113 6.51297 11.0315 6.30803 12 6.30803C15.6819 6.30803 18.6666 9.27013 18.6666 12.9241C18.6666 13.6411 18.5517 14.3314 18.3391 14.978C18.2303 15.3091 17.8146 15.3859 17.5678 15.1398L17.2128 14.7861C16.9507 14.5249 16.8627 14.1417 16.9264 13.7772C16.9748 13.5 17 13.215 17 12.9241C17 10.1836 14.7614 7.96204 12 7.96204C11.5036 7.96204 11.024 8.03383 10.5714 8.16754Z" fill="currentColor"/>
<path d="M12.025 9.61612L15.3333 12.9131C15.3274 11.0994 13.8508 9.62939 12.025 9.61612Z" fill="currentColor"/>
</svg>
