<svg width="24" height="24" viewBox="0 0 24 24" fill="none" xmlns="http://www.w3.org/2000/svg">
<path fill-rule="evenodd" clip-rule="evenodd" d="M12 24C18.6274 24 24 18.6274 24 12C24 5.37258 18.6274 0 12 0C5.37258 0 0 5.37258 0 12C0 18.6274 5.37258 24 12 24Z" fill="#F0F0F2"/>
<path fill-rule="evenodd" clip-rule="evenodd" d="M8.0013 5.33398C7.26797 5.33398 6.67464 5.93398 6.67464 6.66732L6.66797 17.334C6.66797 18.0673 7.2613 18.6673 7.99464 18.6673H16.0013C16.7346 18.6673 17.3346 18.0673 17.3346 17.334V9.33398L13.3346 5.33398H8.0013ZM9.00312 6.66719C8.45312 6.66719 8.00812 7.14719 8.00812 7.73385L8.00312 16.2672C8.00312 16.8539 8.44812 17.3339 8.99813 17.3339H15.0031C15.5531 17.3339 16.0031 16.8539 16.0031 16.2672V9.86719L13.0031 6.66719H9.00312ZM12.0031 10.6677V7.33437L15.3365 10.6677H12.0031Z" fill="#16161A"/>
</svg>
