<svg width="24" height="24" viewBox="0 0 24 24" fill="none" xmlns="http://www.w3.org/2000/svg">
<path d="M15.4286 3.42855C15.4286 2.95517 15.0448 2.57141 14.5714 2.57141H5.14287C4.20002 2.57141 3.42859 3.34284 3.42859 4.2857V15.4286C3.42859 15.9019 3.81234 16.2857 4.28573 16.2857C4.75912 16.2857 5.14287 15.9019 5.14287 15.4286V4.2857H14.5714C15.0448 4.2857 15.4286 3.90194 15.4286 3.42855ZM18 5.99998H8.57145C7.62859 5.99998 6.85716 6.77141 6.85716 7.71427V19.7143C6.85716 20.6571 7.62859 21.4286 8.57145 21.4286H18C18.9429 21.4286 19.7143 20.6571 19.7143 19.7143V7.71427C19.7143 6.77141 18.9429 5.99998 18 5.99998ZM18 19.7143H8.57145V7.71427H18V19.7143Z" fill="currentColor"/>
</svg>
