
<svg width="75" height="44" viewBox="0 0 75 44" fill="none" xmlns="http://www.w3.org/2000/svg">
<path d="M2.84665 34.7909C1.27828 34.7909 0.0410156 33.5362 0.0410156 31.9853C0.0410156 30.4169 1.27828 29.1796 2.84665 29.1796C4.39758 29.1796 5.65228 30.4169 5.65228 31.9853C5.65228 33.5362 4.39758 34.7909 2.84665 34.7909Z" fill="url(#paint0_linear_16574_30406)"/>
<path d="M18.5484 35C11.09 35 6.55914 30.1206 6.55914 22C6.55914 13.8968 11.1771 9 18.409 9C23.1141 9 26.7562 11.0912 28.4814 14.7158C28.8299 15.378 29.0042 16.0576 29.0042 16.685C29.0042 18.0617 28.0806 18.9504 26.6865 18.9504C25.5015 18.9504 24.7522 18.4276 24.1771 17.2078C23.027 14.6461 20.9707 13.3566 18.4613 13.3566C14.4881 13.3566 11.9264 16.685 11.9264 21.9826C11.9264 27.3499 14.4532 30.6609 18.4787 30.6609C21.1275 30.6609 23.1141 29.4584 24.2468 26.9316C24.787 25.7466 25.4492 25.2761 26.5645 25.2761C28.0457 25.2761 29.0216 26.2172 29.0216 27.6113C29.0216 28.2038 28.8822 28.7614 28.6208 29.3713C27.0524 32.8566 23.3058 35 18.5484 35Z" fill="url(#paint1_linear_16574_30406)"/>
<path d="M41.273 35C36.0799 35 32.7515 32.9263 31.7408 30.1729C31.5665 29.7198 31.462 29.2319 31.462 28.7614C31.462 27.3673 32.4204 26.4437 33.7797 26.4437C34.8601 26.4437 35.5746 26.8619 36.2019 27.9772C37.021 29.8941 38.9901 30.7654 41.395 30.7654C44.218 30.7654 46.1349 29.4062 46.1349 27.559C46.1349 25.9035 44.9499 24.9625 41.7958 24.3177L39.1295 23.7949C34.1108 22.8016 31.6537 20.3968 31.6537 16.6501C31.6537 12.0496 35.6617 9 41.2555 9C45.8561 9 49.3239 10.9343 50.4392 14.2105C50.5612 14.559 50.6309 14.9249 50.6309 15.378C50.6309 16.6327 49.7247 17.4866 48.3829 17.4866C47.1979 17.4866 46.466 17.0161 45.8735 15.9357C45.037 14.0362 43.4164 13.252 41.2555 13.252C38.659 13.252 36.9338 14.4718 36.9338 16.319C36.9338 17.87 38.1362 18.8284 41.1161 19.4209L43.7649 19.9611C49.0974 21.0241 51.3976 23.1676 51.3976 26.9839C51.3976 31.8981 47.5464 35 41.273 35Z" fill="url(#paint2_linear_16574_30406)"/>
<path d="M63.6316 34.9129C61.5753 34.9129 60.3554 34.0067 59.5887 31.8633L52.5833 13.0603C52.4091 12.5724 52.3219 12.0845 52.3219 11.5791C52.3219 10.0979 53.4372 9.08713 55.0927 9.08713C56.5042 9.08713 57.3407 9.7319 57.7763 11.1609L63.6664 29.1622H63.7884L69.6611 11.1086C70.0967 9.69705 70.8809 9.08713 72.2576 9.08713C73.8608 9.08713 74.9587 10.0804 74.9587 11.5094C74.9587 11.9799 74.8715 12.4504 74.6973 12.9209L67.657 31.8807C66.8903 34.0067 65.6704 34.9129 63.6316 34.9129Z" fill="url(#paint3_linear_16574_30406)"/>
<defs>
<linearGradient id="paint0_linear_16574_30406" x1="0.0410156" y1="22" x2="74.9587" y2="22" gradientUnits="userSpaceOnUse">
<stop stop-color="#A024EF"/>
<stop offset="1" stop-color="#FDBB6C"/>
</linearGradient>
<linearGradient id="paint1_linear_16574_30406" x1="0.0410156" y1="22" x2="74.9587" y2="22" gradientUnits="userSpaceOnUse">
<stop stop-color="#A024EF"/>
<stop offset="1" stop-color="#FDBB6C"/>
</linearGradient>
<linearGradient id="paint2_linear_16574_30406" x1="0.0410156" y1="22" x2="74.9587" y2="22" gradientUnits="userSpaceOnUse">
<stop stop-color="#A024EF"/>
<stop offset="1" stop-color="#FDBB6C"/>
</linearGradient>
<linearGradient id="paint3_linear_16574_30406" x1="0.0410156" y1="22" x2="74.9587" y2="22" gradientUnits="userSpaceOnUse">
<stop stop-color="#A024EF"/>
<stop offset="1" stop-color="#FDBB6C"/>
</linearGradient>
</defs>
</svg>
