<svg width="24" height="24" viewBox="0 0 24 24" fill="none" xmlns="http://www.w3.org/2000/svg">
<path d="M19.747 4.21462C20.1356 4.60414 20.1364 5.2354 19.7489 5.62601L19.365 6.013C18.976 6.40515 18.3432 6.40603 17.953 6.01498C17.5644 5.62546 17.5636 4.99419 17.9511 4.60359L18.335 4.21659C18.724 3.82444 19.3568 3.82356 19.747 4.21462Z" fill="currentColor"/>
<path d="M12 1C12.5523 1 13 1.44878 13 2.00239V2.95465C13 3.50826 12.5523 3.95704 12 3.95704C11.4477 3.95704 11 3.50826 11 2.95465V2.00239C11 1.44878 11.4477 1 12 1Z" fill="currentColor"/>
<path d="M21 12.9785C20.4477 12.9785 20 12.5297 20 11.9761C20 11.4225 20.4477 10.9737 21 10.9737H22C22.5523 10.9737 23 11.4225 23 11.9761C23 12.5297 22.5523 12.9785 22 12.9785H21Z" fill="currentColor"/>
<path d="M4 11.9761C4 12.5297 3.55228 12.9785 3 12.9785H2C1.44772 12.9785 1 12.5297 1 11.9761C1 11.4225 1.44772 10.9737 2 10.9737H3C3.55228 10.9737 4 11.4225 4 11.9761Z" fill="currentColor"/>
<path d="M6.06195 4.59662C6.44779 4.98553 6.44691 5.61407 6.06 6.00191C5.67309 6.38975 5.04604 6.39062 4.65805 6.00387L4.26696 5.61402C3.87684 5.22514 3.87596 4.5926 4.265 4.20263C4.65404 3.81266 5.28507 3.81354 5.67303 4.20459L6.06195 4.59662Z" fill="currentColor"/>
<path fill-rule="evenodd" clip-rule="evenodd" d="M9 20.9976L9 17.7554C9 17.3983 8.80653 17.0733 8.5168 16.8655C6.99569 15.7742 6 13.9948 6 11.9761C6 8.65824 8.69 5.96182 12 5.96181C15.31 5.96181 18 8.65823 18 11.9761C18 13.9948 17.0043 15.7742 15.4832 16.8655C15.1935 17.0733 15 17.3983 15 17.7554V20.9976C15 21.5512 14.5523 22 14 22H10C9.44772 22 9 21.5512 9 20.9976ZM11 17.7554V19.9952H13V17.7554C13 16.6516 13.5914 15.7573 14.3192 15.2352C15.3426 14.501 16 13.3154 16 11.9761C16 9.76544 14.2054 7.96659 12 7.96659C9.79457 7.96659 8 9.76544 8 11.9761C8 13.3154 8.65737 14.501 9.68081 15.2352C10.4086 15.7573 11 16.6516 11 17.7554Z" fill="currentColor"/>
</svg>
