<svg xmlns="http://www.w3.org/2000/svg" width="20" height="20" viewBox="0 0 20 20" fill="none">
<path fill-rule="evenodd" clip-rule="evenodd" d="M9.99967 19.1663C15.0623 19.1663 19.1663 15.0623 19.1663 9.99967C19.1663 4.93706 15.0623 0.833008 9.99967 0.833008C4.93706 0.833008 0.833008 4.93706 0.833008 9.99967C0.833008 15.0623 4.93706 19.1663 9.99967 19.1663ZM12.5464 7.28038C12.0361 7.6757 11.5264 7.96423 11.1258 8.16024C11.4186 8.32258 11.741 8.35822 12.0171 8.29718C12.1627 8.26514 12.2943 8.20586 12.3997 8.12443C12.4971 8.04909 12.5711 7.95438 12.6104 7.84549C12.6658 7.69099 12.654 7.49965 12.5464 7.28038ZM11.7255 10.4691L11.1953 10.1686C11.144 10.1495 11.1001 10.1151 11.07 10.0701C11.0399 10.0251 11.0251 9.97196 11.0277 9.9182C11.0762 8.90958 10.7987 8.46355 10.4244 8.1835C10.29 8.08318 10.1435 8.03281 9.99885 8.03281C9.85424 8.03281 9.70766 8.08318 9.57339 8.1835C9.19904 8.46355 8.92151 8.90958 8.97009 9.9182C8.97266 9.97196 8.95783 10.0251 8.92772 10.0701C8.89761 10.1151 8.85377 10.1495 8.80247 10.1686L8.2722 10.4691C9.28623 11.0269 9.60876 12.0322 9.93281 13.0423C9.95475 13.1107 9.97669 13.1791 9.99885 13.2473C10.021 13.179 10.043 13.1105 10.065 13.042C10.389 12.032 10.7116 11.0268 11.7255 10.4691ZM11.7596 3.94277C11.2263 3.71562 10.6118 3.59886 9.99885 3.58271C9.38595 3.59886 8.77148 3.71562 8.23815 3.94277C7.86887 4.10028 7.52429 4.30832 7.21227 4.5571C7.07141 4.66942 6.95539 4.77796 6.82753 4.90282C6.48282 4.91451 5.97905 4.53873 5.74521 4.1871C6.14772 5.48198 7.98441 7.01113 9.25605 7.59624L9.25688 7.59576C9.48509 7.42477 9.74214 7.33898 9.99885 7.33898C10.2556 7.33898 10.5122 7.42448 10.7404 7.59547L10.7417 7.59624C12.0133 7.01113 13.85 5.48198 14.2525 4.1871C14.0187 4.53873 13.5149 4.91451 13.1702 4.90282C13.0424 4.77792 12.9263 4.66942 12.7854 4.5571C12.4734 4.30832 12.1288 4.10028 11.7596 3.94277ZM7.4513 7.28038C7.96158 7.6757 8.47134 7.96423 8.87188 8.16024C8.57911 8.32258 8.25675 8.35822 7.98061 8.29718C7.83508 8.26514 7.70343 8.20586 7.59797 8.12443C7.50067 8.04909 7.42664 7.95438 7.38731 7.84549C7.33192 7.69099 7.34371 7.49965 7.4513 7.28038ZM13.8328 5.93504C13.6338 6.20982 13.3862 6.51776 13.1053 6.79597L13.1931 6.97484C13.3635 7.32223 13.42 7.71057 13.2871 8.07993C13.2016 8.31783 13.0453 8.52185 12.8439 8.67759C12.6484 8.82884 12.4169 8.93079 12.1746 8.98433C12.0168 9.0192 11.856 9.03355 11.6962 9.02866C11.7335 9.23602 11.7498 9.4511 11.7508 9.67024L13.1767 10.4783L12.0764 11.0836C11.9885 11.1319 11.9048 11.1874 11.8261 11.2493C11.0862 11.9011 10.587 13.5941 10.2247 14.8229C10.1428 15.1007 10.0679 15.3547 9.99882 15.5677C9.92976 15.3548 9.8549 15.101 9.77305 14.8233C9.41075 13.5946 8.91147 11.9012 8.17156 11.2493C8.09292 11.1874 8.0092 11.1319 7.92126 11.0836L6.821 10.4783L8.24681 9.67024C8.24786 9.4511 8.26414 9.23602 8.30142 9.02866C8.14166 9.03355 7.98085 9.0192 7.823 8.98433C7.5807 8.93079 7.34926 8.82884 7.15371 8.67759C6.9523 8.52185 6.79608 8.31783 6.71048 8.07993C6.57769 7.71057 6.63413 7.32219 6.80459 6.97484L6.89233 6.79601C6.61135 6.51776 6.36385 6.20987 6.1648 5.93508L6.06375 6.1218C5.7382 6.76072 5.56914 7.3971 5.56914 8.11334L5.56984 9.24982L5.56373 9.83896C5.54011 11.2853 5.2212 12.7487 4.49878 14.0878L6.01032 12.8918L7.07981 14.5949L8.20333 13.5569L9.99878 16.416L11.7942 13.5569L12.9178 14.5948L13.9873 12.8918L15.4988 14.0878C14.7764 12.7486 14.4574 11.2853 14.4339 9.83892L14.4278 9.24977L14.4285 8.11329C14.4285 7.3971 14.2594 6.76072 13.9339 6.12176L13.8328 5.93504Z" fill="currentColor"/>
</svg>