<svg width="20" height="20" viewBox="0 0 20 20" fill="none" xmlns="http://www.w3.org/2000/svg">
<path d="M3.53887 3.53887C3.81334 3.26439 4.25836 3.26439 4.53284 3.53887L16.4605 15.4665C16.735 15.741 16.735 16.186 16.4605 16.4605C16.186 16.735 15.741 16.735 15.4665 16.4605L3.53887 4.53284C3.26439 4.25836 3.26439 3.81334 3.53887 3.53887Z" fill="currentColor"/>
<path d="M9.50531 4.56165C11.1435 2.92346 13.7995 2.92346 15.4377 4.56165C17.0759 6.19983 17.0759 8.85585 15.4377 10.494L14.449 11.4828C14.1759 11.7558 13.7333 11.7558 13.4602 11.4828C13.1872 11.2097 13.1872 10.7671 13.4602 10.494L14.449 9.50531C15.5411 8.41318 15.5411 6.6425 14.449 5.55038C13.3568 4.45826 11.5862 4.45826 10.494 5.55038L9.50531 6.53911C9.23228 6.81214 8.78961 6.81214 8.51658 6.53911C8.24354 6.26608 8.24355 5.82341 8.51658 5.55038L9.50531 4.56165Z" fill="currentColor"/>
<path d="M11.4828 13.4602C11.7558 13.7333 11.7558 14.1759 11.4828 14.449L10.494 15.4377C8.85585 17.0759 6.19983 17.0759 4.56165 15.4377C2.92346 13.7995 2.92346 11.1435 4.56165 9.50531L5.55038 8.51658C5.82341 8.24354 6.26608 8.24354 6.53911 8.51658C6.81214 8.78961 6.81214 9.23228 6.53911 9.50531L5.55038 10.494C4.45826 11.5862 4.45826 13.3568 5.55038 14.449C6.6425 15.5411 8.41318 15.5411 9.50531 14.449L10.494 13.4602C10.7671 13.1872 11.2097 13.1872 11.4828 13.4602Z" fill="currentColor"/>
<path d="M11.9771 7.03348C12.2502 6.76045 12.6928 6.76045 12.9659 7.03348C13.2389 7.30651 13.2389 7.74918 12.9659 8.02221L11.9771 9.01094C11.7041 9.28397 11.2614 9.28397 10.9884 9.01094C10.7154 8.73791 10.7154 8.29524 10.9884 8.02221L11.9771 7.03348Z" fill="currentColor"/>
<path d="M8.02221 10.9884C8.29524 10.7154 8.73791 10.7154 9.01094 10.9884C9.28397 11.2614 9.28397 11.7041 9.01094 11.9771L8.02221 12.9659C7.74918 13.2389 7.30651 13.2389 7.03348 12.9659C6.76045 12.6928 6.76045 12.2502 7.03348 11.9771L8.02221 10.9884Z" fill="currentColor"/>
</svg>
