<svg width="24" height="24" viewBox="0 0 24 24" fill="none" xmlns="http://www.w3.org/2000/svg">
<path fill-rule="evenodd" clip-rule="evenodd" d="M21 12C21 16.9313 16.9226 21 12 21C7.07744 21 3 16.9313 3 12C3 7.07744 7.06873 3 11.9913 3C16.9226 3 21 7.07744 21 12ZM4.77735 12C4.77735 16.0077 7.99226 19.2314 12 19.2314C16.0077 19.2314 19.2314 16.0077 19.2314 12C19.2227 7.99226 15.999 4.77735 11.9913 4.77735C7.98354 4.77735 4.77735 7.99226 4.77735 12ZM12.4792 14.4482C12.3398 14.5789 12.1742 14.6573 11.9826 14.6573C11.7996 14.6573 11.6341 14.5876 11.4947 14.4482L8.61955 11.547C8.49758 11.425 8.41917 11.2246 8.41917 11.0765C8.41917 10.6931 8.68054 10.4318 9.04647 10.4318C9.24685 10.4318 9.40368 10.4927 9.52565 10.6321L10.031 11.1723L11.4337 12.7493L11.3291 11.2594V7.62633C11.3291 7.24298 11.5905 6.96418 11.9826 6.96418C12.3659 6.96418 12.636 7.24298 12.636 7.62633V11.2594L12.5402 12.7406L13.9167 11.181L14.4656 10.6321C14.5963 10.5015 14.7619 10.4318 14.9448 10.4318C15.3107 10.4318 15.5634 10.7106 15.5634 11.0678C15.5634 11.242 15.5111 11.4076 15.3543 11.5557L12.4792 14.4482ZM15.1801 16.5653H8.81123C8.43659 16.5653 8.16651 16.2865 8.16651 15.9119C8.16651 15.546 8.43659 15.2759 8.81123 15.2759H15.1801C15.5547 15.2759 15.8248 15.546 15.8248 15.9119C15.8248 16.2865 15.5547 16.5653 15.1801 16.5653Z" fill="currentColor"/>
</svg>
