
<svg width="24" height="24" viewBox="0 0 24 24" fill="none" xmlns="http://www.w3.org/2000/svg">
<path fill-rule="evenodd" clip-rule="evenodd" d="M4.45343 5.30907C5.30461 4.12236 7.90463 2 12 2C16.0954 2 18.6954 4.12237 19.5465 5.30907C20.703 6.83153 21.1206 8.36961 20.9707 9.85303C20.8224 11.3208 20.1268 12.6592 19.1992 13.8197C17.5216 15.9184 15.2202 17.4538 12.8128 18.6211C12.2995 18.87 11.7007 18.87 11.1873 18.6211C8.7799 17.4538 6.47849 15.9184 4.80084 13.8197C3.87323 12.6592 3.17765 11.3208 3.02932 9.85305C2.8794 8.36961 3.29697 6.83153 4.45343 5.30907ZM5.92068 6.24694C6.30245 5.71025 7.40143 4.69591 9.16512 4.1118C8.88349 4.64328 8.69115 5.17767 8.58479 5.57424C7.45974 9.5197 8.35798 13.1943 9.55751 15.7588C8.32677 14.942 7.11699 13.9408 6.2199 12.8186C5.42137 11.8196 4.90432 10.7671 4.79602 9.69547C4.68964 8.64286 4.96918 7.49661 5.90448 6.26895L5.91277 6.25807L5.92068 6.24694ZM18.0793 6.24694C17.6975 5.71025 16.5986 4.69595 14.835 4.11183C15.1166 4.6433 15.3089 5.17767 15.4153 5.57424C16.5404 9.51969 15.6422 13.1942 14.4426 15.7588C15.6734 14.942 16.8831 13.9408 17.7802 12.8186C18.5787 11.8196 19.0957 10.7672 19.204 9.69548C19.3104 8.64287 19.0308 7.49661 18.0955 6.26895L18.0872 6.25807L18.0793 6.24694ZM13.6995 5.99988C14.9517 10.3831 13.3647 14.4388 12.0001 16.5922C10.6354 14.4388 9.04836 10.3831 10.3006 5.99988L10.3026 5.99316L10.3044 5.98642C10.4184 5.55874 10.6703 4.91383 11.0311 4.39725C11.4174 3.84425 11.7593 3.66717 12 3.66717C12.2407 3.66717 12.5826 3.84426 12.9689 4.39727C13.3298 4.91386 13.5817 5.55876 13.6957 5.98642L13.6975 5.99316L13.6995 5.99988Z" fill="url(#paint0_linear_17280_33551)"/>
<path d="M10 20C9.44772 20 9 20.4477 9 21C9 21.5523 9.44772 22 10 22H14C14.5523 22 15 21.5523 15 21C15 20.4477 14.5523 20 14 20H10Z" fill="url(#paint1_linear_17280_33551)"/>
<defs>
<linearGradient id="paint0_linear_17280_33551" x1="3" y1="12" x2="21" y2="12" gradientUnits="userSpaceOnUse">
<stop stop-color="#A024EF"/>
<stop offset="1" stop-color="#FDBB6C"/>
</linearGradient>
<linearGradient id="paint1_linear_17280_33551" x1="3" y1="12" x2="21" y2="12" gradientUnits="userSpaceOnUse">
<stop stop-color="#A024EF"/>
<stop offset="1" stop-color="#FDBB6C"/>
</linearGradient>
</defs>
</svg>
