<svg width="20" height="20" viewBox="0 0 20 20" fill="none" xmlns="http://www.w3.org/2000/svg" xmlns:xlink="http://www.w3.org/1999/xlink">
<g clip-path="url(#clip0_16_22662)">
<rect x="2" y="2" width="16" height="16" rx="4" fill="white"/>
<rect x="2" y="2" width="16" height="16" fill="url(#pattern0_16_22662)"/>
<rect x="2" y="2" width="16" height="16" fill="url(#paint0_linear_16_22662)"/>
</g>
<rect x="1" y="1" width="18" height="18" rx="5" stroke="white" stroke-width="2"/>
<g clip-path="url(#clip1_16_22662)">
<path d="M6.40348 12.0144C6.46776 11.9498 6.55614 11.9121 6.64987 11.9121H15.1504C15.3057 11.9121 15.3834 12.1005 15.2736 12.2108L13.5943 13.8979C13.5301 13.9625 13.4417 14.0002 13.348 14.0002H4.84747C4.69214 14.0002 4.61447 13.8118 4.72428 13.7015L6.40348 12.0144Z" fill="white"/>
<path d="M6.40348 5.71553C6.47044 5.65095 6.55882 5.61328 6.64987 5.61328H15.1504C15.3057 5.61328 15.3834 5.80164 15.2736 5.91196L13.5943 7.59909C13.5301 7.66367 13.4417 7.70134 13.348 7.70134H4.84747C4.69214 7.70134 4.61447 7.51298 4.72428 7.40266L6.40348 5.71553Z" fill="white"/>
<path d="M13.5943 8.84541C13.5301 8.78084 13.4417 8.74316 13.348 8.74316H4.84747C4.69214 8.74316 4.61447 8.93152 4.72428 9.04184L6.40348 10.729C6.46776 10.7935 6.55614 10.8312 6.64987 10.8312H15.1504C15.3057 10.8312 15.3834 10.6429 15.2736 10.5325L13.5943 8.84541Z" fill="white"/>
</g>
<defs>
<pattern id="pattern0_16_22662" patternContentUnits="objectBoundingBox" width="1" height="1">
<use xlink:href="#image0_16_22662" transform="scale(0.000666667)"/>
</pattern>
<linearGradient id="paint0_linear_16_22662" x1="10" y1="2" x2="10" y2="18" gradientUnits="userSpaceOnUse">
<stop stop-color="#04EF9E"/>
<stop offset="1" stop-color="#D42BF7"/>
</linearGradient>
<clipPath id="clip0_16_22662">
<rect x="2" y="2" width="16" height="16" rx="4" fill="white"/>
</clipPath>
<clipPath id="clip1_16_22662">
<rect width="10.8301" height="8.38721" fill="white" transform="translate(4.58496 5.61328)"/>
</clipPath>
</defs>
</svg>
