<svg width="16" height="16" viewBox="0 0 16 16" fill="none" xmlns="http://www.w3.org/2000/svg">
<g clip-path="url(#clip0_810_14831)">
<rect width="16" height="16" rx="4" fill="white"/>
<rect width="16" height="16" fill="url(#paint0_linear_810_14831)"/>
<path d="M4.40348 10.0135C4.46776 9.94893 4.55614 9.91126 4.64987 9.91126H13.1504C13.3057 9.91126 13.3834 10.0996 13.2736 10.2099L11.5943 11.8971C11.5301 11.9616 11.4417 11.9993 11.348 11.9993H2.84747C2.69214 11.9993 2.61447 11.811 2.72428 11.7006L4.40348 10.0135Z" fill="white"/>
<path d="M4.40348 3.71455C4.47044 3.64998 4.55882 3.6123 4.64987 3.6123H13.1504C13.3057 3.6123 13.3834 3.80066 13.2736 3.91098L11.5943 5.59811C11.5301 5.66269 11.4417 5.70036 11.348 5.70036H2.84747C2.69214 5.70036 2.61447 5.51201 2.72428 5.40168L4.40348 3.71455Z" fill="white"/>
<path d="M11.5943 6.84407C11.5301 6.77949 11.4417 6.74182 11.348 6.74182H2.84747C2.69214 6.74182 2.61447 6.93017 2.72428 7.0405L4.40348 8.72762C4.46776 8.7922 4.55614 8.82987 4.64987 8.82987H13.1504C13.3057 8.82987 13.3834 8.64152 13.2736 8.5312L11.5943 6.84407Z" fill="white"/>
</g>
<defs>
<linearGradient id="paint0_linear_810_14831" x1="8" y1="0" x2="8" y2="16" gradientUnits="userSpaceOnUse">
<stop stop-color="#04EF9E"/>
<stop offset="1" stop-color="#D42BF7"/>
</linearGradient>
<clipPath id="clip0_810_14831">
<rect width="16" height="16" rx="4" fill="white"/>
</clipPath>
</defs>
</svg>
