<svg width="20" height="20" viewBox="0 0 20 20" fill="none" xmlns="http://www.w3.org/2000/svg">
<g clip-path="url(#clip0_16_22648)">
<rect x="2" y="2" width="16" height="16" rx="4" fill="white"/>
<rect x="2" y="2" width="16" height="16" fill="url(#paint0_linear_16_22648)"/>
</g>
<rect x="1" y="1" width="18" height="18" rx="5" stroke="white" stroke-width="2"/>
<path d="M10.0103 12.5438V15.3917L13.4969 10.4678L10.0103 12.5438Z" fill="white"/>
<path d="M10.0133 4L13.5 9.80225L10.0133 11.8783L6.5 9.80225" fill="white"/>
<path d="M10.0133 4V8.2053L6.5 9.80225M6.5 10.4676L10.0133 12.5437V15.3916" fill="white"/>
<path d="M10.0103 8.20508V11.8781L13.4969 9.80203" fill="white"/>
<path d="M6.5 9.80203L10.0133 8.20508V11.8781" fill="white"/>
<defs>
<linearGradient id="paint0_linear_16_22648" x1="10" y1="2" x2="10" y2="18" gradientUnits="userSpaceOnUse">
<stop stop-color="#88FBFF"/>
<stop offset="1" stop-color="#224CE4"/>
</linearGradient>
<clipPath id="clip0_16_22648">
<rect x="2" y="2" width="16" height="16" rx="4" fill="white"/>
</clipPath>
</defs>
</svg>
