<svg xmlns="http://www.w3.org/2000/svg" width="24" height="24" fill="none" viewBox="0 0 24 24"><path fill="currentColor" fill-rule="evenodd" d="M14.8221 4.53789C15.5392 3.8207 16.702 3.8207 17.4192 4.53789L19.4621 6.5808C20.1793 7.29798 20.1793 8.46076 19.4621 9.17794L9.46482 19.1752C8.93673 19.7033 8.2205 20 7.47367 20H5.10188C4.49333 20 4 19.5067 4 18.8981V16.5263C4 15.7795 4.29667 15.0633 4.82476 14.5352L14.8221 4.53789ZM16.2072 5.74989C16.1594 5.70208 16.0819 5.70208 16.0341 5.74989L14.6372 7.14672L16.8533 9.36277L18.2501 7.96594C18.2979 7.91813 18.2979 7.84061 18.2501 7.7928L16.2072 5.74989ZM15.6413 10.5748L13.4252 8.35872L6.03676 15.7472C5.83012 15.9538 5.71403 16.2341 5.71403 16.5263V18.286H7.47367C7.76591 18.286 8.04617 18.1699 8.25282 17.9632L15.6413 10.5748Z" clip-rule="evenodd"/></svg>