<svg xmlns="http://www.w3.org/2000/svg" width="24" height="24" viewBox="0 0 24 24" fill="none">
  <path fill-rule="evenodd" clip-rule="evenodd" d="M14.5211 12.9756C13.381 12.9756 12.4568 13.9038 12.4568 15.0488C12.4568 16.1937 13.381 17.1219 14.5211 17.1219C15.6611 17.1219 16.5854 16.1937 16.5854 15.0488C16.5854 13.9038 15.6611 12.9756 14.5211 12.9756ZM13.6711 15.0488C13.6711 14.5773 14.0516 14.1951 14.5211 14.1951C14.9905 14.1951 15.3711 14.5773 15.3711 15.0488C15.3711 15.5202 14.9905 15.9024 14.5211 15.9024C14.0516 15.9024 13.6711 15.5202 13.6711 15.0488Z" fill="currentColor"/>
  <path fill-rule="evenodd" clip-rule="evenodd" d="M9.7525 18.81C10.7364 18.81 11.534 18.009 11.534 17.0209C11.534 16.0327 10.7364 15.2317 9.7525 15.2317C8.76863 15.2317 7.97104 16.0327 7.97104 17.0209C7.97104 18.009 8.76863 18.81 9.7525 18.81ZM9.7525 17.5905C10.0657 17.5905 10.3197 17.3354 10.3197 17.0209C10.3197 16.7063 10.0657 16.4512 9.7525 16.4512C9.43926 16.4512 9.18532 16.7063 9.18532 17.0209C9.18532 17.3354 9.43926 17.5905 9.7525 17.5905Z" fill="currentColor"/>
  <path fill-rule="evenodd" clip-rule="evenodd" d="M7.38571 4.19512C7.38571 2.98279 8.36429 2 9.57143 2H14.4286C15.6357 2 16.6143 2.98279 16.6143 4.19512C16.6143 5.15089 16.0061 5.96399 15.1571 6.26533V7.24483C15.1571 7.34807 15.2222 7.4399 15.3184 7.47627C18.3226 8.61193 20.5 11.2607 20.5 14.439C20.5 18.7036 16.6 22 12 22C7.40001 22 3.5 18.7036 3.5 14.439C3.5 11.2607 5.67743 8.61193 8.68162 7.47627C8.77783 7.4399 8.84286 7.34807 8.84286 7.24483V6.26533C7.99393 5.96399 7.38571 5.15089 7.38571 4.19512ZM10.3 6.39024V7.74058C10.3 8.19733 9.98208 8.58686 9.55053 8.731C8.23665 9.16986 7.0277 9.96483 6.1802 11.0271L7.74892 11.754C8.61429 12.155 9.61371 12.142 10.4684 11.7185L12.386 10.7685C13.571 10.1814 14.9498 10.1326 16.1729 10.6346L18.1164 11.4322C17.2693 10.166 15.9264 9.22225 14.4509 8.7305C14.0187 8.58647 13.7 8.19665 13.7 7.73932V6.39024H10.3ZM18.9304 13.3472L15.6217 11.9893C14.7848 11.6458 13.8415 11.6792 13.0307 12.0809L11.1131 13.0309C9.86389 13.6498 8.4032 13.6689 7.13843 13.0828L5.41326 12.2833C5.12179 12.9407 4.95714 13.6636 4.95714 14.439C4.95714 17.7179 8.01591 20.5366 12 20.5366C15.9841 20.5366 19.0429 17.7179 19.0429 14.439C19.0429 14.0623 19.0039 13.6978 18.9304 13.3472ZM9.57143 3.46341C9.16905 3.46341 8.84286 3.79101 8.84286 4.19512C8.84286 4.59923 9.16905 4.92683 9.57143 4.92683H14.4286C14.8309 4.92683 15.1571 4.59923 15.1571 4.19512C15.1571 3.79101 14.8309 3.46341 14.4286 3.46341H9.57143Z" fill="currentColor"/>
</svg>