<svg xmlns="http://www.w3.org/2000/svg" width="20" height="20" fill="none" viewBox="0 0 20 20"><path fill="currentColor" d="M10 13.332C11.0417 13.332 11.9271 12.9674 12.6562 12.2383C13.3854 11.5091 13.75 10.6237 13.75 9.58203C13.75 8.54036 13.3854 7.65495 12.6562 6.92578C11.9271 6.19661 11.0417 5.83203 10 5.83203C8.95833 5.83203 8.07292 6.19661 7.34375 6.92578C6.61458 7.65495 6.25 8.54036 6.25 9.58203C6.25 10.6237 6.61458 11.5091 7.34375 12.2383C8.07292 12.9674 8.95833 13.332 10 13.332ZM10 11.832C9.375 11.832 8.84375 11.6133 8.40625 11.1758C7.96875 10.7383 7.75 10.207 7.75 9.58203C7.75 8.95703 7.96875 8.42578 8.40625 7.98828C8.84375 7.55078 9.375 7.33203 10 7.33203C10.625 7.33203 11.1562 7.55078 11.5938 7.98828C12.0312 8.42578 12.25 8.95703 12.25 9.58203C12.25 10.207 12.0312 10.7383 11.5938 11.1758C11.1562 11.6133 10.625 11.832 10 11.832ZM10 15.832C8.13889 15.832 6.44097 15.332 4.90625 14.332C3.37153 13.332 2.15972 12.0126 1.27083 10.3737C1.20139 10.2487 1.14931 10.1202 1.11458 9.98828C1.07986 9.85634 1.0625 9.72092 1.0625 9.58203C1.0625 9.44314 1.07986 9.30773 1.11458 9.17578C1.14931 9.04384 1.20139 8.91536 1.27083 8.79036C2.15972 7.15148 3.37153 5.83203 4.90625 4.83203C6.44097 3.83203 8.13889 3.33203 10 3.33203C11.8611 3.33203 13.559 3.83203 15.0938 4.83203C16.6285 5.83203 17.8403 7.15148 18.7292 8.79036C18.7986 8.91536 18.8507 9.04384 18.8854 9.17578C18.9201 9.30773 18.9375 9.44314 18.9375 9.58203C18.9375 9.72092 18.9201 9.85634 18.8854 9.98828C18.8507 10.1202 18.7986 10.2487 18.7292 10.3737C17.8403 12.0126 16.6285 13.332 15.0938 14.332C13.559 15.332 11.8611 15.832 10 15.832Z"/></svg>