<svg width="36" height="36" viewBox="0 0 36 36" fill="none" xmlns="http://www.w3.org/2000/svg">
<g clip-path="url(#clip0_121_8262)">
<circle cx="18" cy="18" r="17.5" stroke="#FF5050"/>
<path fill-rule="evenodd" clip-rule="evenodd" d="M12.2548 12.2549C12.5948 11.915 13.1459 11.915 13.4859 12.2549L18.0006 16.769L22.514 12.2562C22.8539 11.9163 23.4051 11.9163 23.745 12.2562C24.085 12.5961 24.085 13.1472 23.745 13.4871L19.2317 17.9998L23.7448 22.5123C24.0848 22.8522 24.0848 23.4033 23.7448 23.7432C23.4049 24.0831 22.8537 24.0831 22.5138 23.7432L18.0006 19.2307L13.4861 23.7446C13.1462 24.0845 12.595 24.0845 12.255 23.7446C11.9151 23.4047 11.9151 22.8536 12.255 22.5137L16.7695 17.9998L12.2548 13.4858C11.9148 13.1459 11.9148 12.5948 12.2548 12.2549Z" fill="#FF5050"/>
</g>
<defs>
<clipPath id="clip0_121_8262">
<rect width="36" height="36" fill="white"/>
</clipPath>
</defs>
</svg>
