<svg xmlns="http://www.w3.org/2000/svg" width="16" height="16" fill="none" viewBox="0 0 16 16"><path fill="currentColor" fill-rule="evenodd" d="M8.92003 4.38335H1.88942C1.58212 4.38335 1.33301 4.13424 1.33301 3.82694C1.33301 3.51964 1.58212 3.27053 1.88942 3.27053H8.91999C9.15997 2.53363 9.8639 2 10.6949 2C11.5259 2 12.2299 2.53363 12.4699 3.27053H14.11C14.4173 3.27053 14.6664 3.51964 14.6664 3.82694C14.6664 4.13424 14.4173 4.38335 14.11 4.38335H12.4698C12.2298 5.12019 11.5259 5.65377 10.6949 5.65377C9.86394 5.65377 9.16004 5.12019 8.92003 4.38335ZM9.72093 3.82688C9.72093 3.29936 10.157 2.87171 10.6949 2.87171C11.2328 2.87171 11.6689 3.29936 11.6689 3.82688C11.6689 4.35441 11.2328 4.78205 10.6949 4.78205C10.157 4.78205 9.72093 4.35441 9.72093 3.82688Z" clip-rule="evenodd"/><path fill="currentColor" fill-rule="evenodd" d="M3.81358 8.55631H1.88942C1.58212 8.55631 1.33301 8.3072 1.33301 7.9999C1.33301 7.6926 1.58212 7.44349 1.88942 7.44349H3.81355C4.05352 6.70659 4.75745 6.17296 5.58848 6.17296C6.4195 6.17296 7.12343 6.70659 7.36341 7.44349H14.11C14.4173 7.44349 14.6664 7.6926 14.6664 7.9999C14.6664 8.3072 14.4173 8.55631 14.11 8.55631H7.36337C7.12336 9.29315 6.41946 9.82672 5.58848 9.82672C4.7575 9.82672 4.0536 9.29315 3.81358 8.55631ZM4.61448 7.99984C4.61448 7.47231 5.05055 7.04467 5.58848 7.04467C6.1264 7.04467 6.56247 7.47231 6.56247 7.99984C6.56247 8.52737 6.1264 8.95501 5.58848 8.95501C5.05055 8.95501 4.61448 8.52737 4.61448 7.99984Z" clip-rule="evenodd"/><path fill="currentColor" fill-rule="evenodd" d="M1.88942 12.7293H8.91993C9.15984 13.4663 9.86382 14 10.6949 14C11.526 14 12.23 13.4663 12.4699 12.7293H14.11C14.4173 12.7293 14.6664 12.4802 14.6664 12.1729C14.6664 11.8656 14.4173 11.6164 14.11 11.6164H12.4697C12.2297 10.8797 11.5258 10.3462 10.6949 10.3462C9.86402 10.3462 9.16017 10.8797 8.9201 11.6164H1.88942C1.58212 11.6164 1.33301 11.8656 1.33301 12.1729C1.33301 12.4802 1.58212 12.7293 1.88942 12.7293ZM10.6949 11.2179C10.157 11.2179 9.72093 11.6456 9.72093 12.1731C9.72093 12.7006 10.157 13.1283 10.6949 13.1283C11.2328 13.1283 11.6689 12.7006 11.6689 12.1731C11.6689 11.6456 11.2328 11.2179 10.6949 11.2179Z" clip-rule="evenodd"/></svg>