<svg width="24" height="24" viewBox="0 0 24 24" fill="none" xmlns="http://www.w3.org/2000/svg">
<path fill-rule="evenodd" clip-rule="evenodd" d="M13.3805 6.57503H2.83462C2.37367 6.57503 2 6.20136 2 5.74041C2 5.27947 2.37367 4.9058 2.83462 4.9058H13.3805C13.7404 3.80044 14.7963 3 16.0429 3C17.2894 3 18.3453 3.80044 18.7053 4.9058H21.1654C21.6264 4.9058 22.0001 5.27947 22.0001 5.74041C22.0001 6.20136 21.6264 6.57503 21.1654 6.57503H18.7052C18.3452 7.68029 17.2893 8.48065 16.0429 8.48065C14.7964 8.48065 13.7406 7.68029 13.3805 6.57503ZM14.5819 5.74032C14.5819 4.94904 15.236 4.30757 16.0429 4.30757C16.8498 4.30757 17.5039 4.94904 17.5039 5.74032C17.5039 6.53161 16.8498 7.17308 16.0429 7.17308C15.236 7.17308 14.5819 6.53161 14.5819 5.74032Z" fill="currentColor"/>
<path fill-rule="evenodd" clip-rule="evenodd" d="M5.72086 12.8345H2.83462C2.37367 12.8345 2 12.4608 2 11.9998C2 11.5389 2.37367 11.1652 2.83462 11.1652H5.72081C6.08077 10.0599 7.13667 9.25944 8.3832 9.25944C9.62974 9.25944 10.6856 10.0599 11.0456 11.1652H21.1654C21.6264 11.1652 22.0001 11.5389 22.0001 11.9998C22.0001 12.4608 21.6264 12.8345 21.1654 12.8345H11.0455C10.6855 13.9397 9.62967 14.7401 8.3832 14.7401C7.13673 14.7401 6.08088 13.9397 5.72086 12.8345ZM6.92221 11.9998C6.92221 11.2085 7.57632 10.567 8.3832 10.567C9.19009 10.567 9.8442 11.2085 9.8442 11.9998C9.8442 12.791 9.19009 13.4325 8.3832 13.4325C7.57632 13.4325 6.92221 12.791 6.92221 11.9998Z" fill="currentColor"/>
<path fill-rule="evenodd" clip-rule="evenodd" d="M2.83462 19.0939H13.3804C13.7402 20.1994 14.7962 21 16.0429 21C17.2895 21 18.3455 20.1994 18.7054 19.0939H21.1654C21.6264 19.0939 22.0001 18.7202 22.0001 18.2593C22.0001 17.7983 21.6264 17.4247 21.1654 17.4247H18.7051C18.345 16.3196 17.2892 15.5194 16.0429 15.5194C14.7965 15.5194 13.7407 16.3196 13.3806 17.4247H2.83462C2.37367 17.4247 2 17.7983 2 18.2593C2 18.7202 2.37367 19.0939 2.83462 19.0939ZM16.0429 16.8269C15.236 16.8269 14.5819 17.4684 14.5819 18.2597C14.5819 19.051 15.236 19.6924 16.0429 19.6924C16.8498 19.6924 17.5039 19.051 17.5039 18.2597C17.5039 17.4684 16.8498 16.8269 16.0429 16.8269Z" fill="currentColor"/>
</svg>
