<svg xmlns="http://www.w3.org/2000/svg" width="20" height="20" viewBox="0 0 20 20" fill="none">
<path d="M13.1216 5.00065C12.7238 5.00065 12.3423 4.84262 12.061 4.56131L11.273 3.77332C10.9917 3.49202 10.6102 3.33398 10.2123 3.33398L5.16699 3.33398C4.61471 3.33398 4.16699 3.7817 4.16699 4.33398L4.16699 16.6673C4.16699 17.1276 4.54009 17.5007 5.00033 17.5007C5.46056 17.5007 5.83366 17.1276 5.83366 16.6673L5.83366 11.6673H9.37901C9.77683 11.6673 10.1584 11.8254 10.4397 12.1067L11.2277 12.8946C11.509 13.176 11.8905 13.334 12.2883 13.334H15.667C16.2193 13.334 16.667 12.8863 16.667 12.334V6.00065C16.667 5.44837 16.2193 5.00065 15.667 5.00065L13.1216 5.00065ZM15.0003 11.6673H13.1216C12.7238 11.6673 12.3423 11.5093 12.061 11.228L11.273 10.44C10.9917 10.1587 10.6102 10.0007 10.2123 10.0007H5.83366L5.83366 5.00065L9.37901 5.00065C9.77683 5.00065 10.1584 5.15869 10.4397 5.43999L11.2277 6.22798C11.509 6.50928 11.8905 6.66732 12.2883 6.66732L15.0003 6.66732L15.0003 11.6673Z" fill="currentColor"/>
</svg>