<svg width="20" height="20" viewBox="0 0 20 20" fill="none" xmlns="http://www.w3.org/2000/svg">
<path d="M16.6843 5.76L16.6976 5.74667L13.7277 2.78477C13.6017 2.65904 13.3865 2.74833 13.3865 2.92638V4.32888L14.3198 5.26221C14.3198 6 13.9998 6.05333 13.9998 7C13.9998 7.5 15.1109 9.36888 15.9998 9.36888V13.7778C15.9998 14.2667 15.5998 14.6667 15.111 14.6667C14.6221 14.6667 14.2221 14.2667 14.2221 13.7778V10.7778C14.2221 9.79558 13.4265 9 12.4443 9H11.5554V3.77779C11.5554 2.79554 10.7598 2 9.77763 2H4.4443C3.46205 2 2.6665 2.79554 2.6665 3.77779V16H11.5554V10.3333H12.8887V13.7778C12.8887 15.0045 13.8843 16 15.1109 16C16.3376 16 17.3331 15.0045 17.3331 13.7778V7.33333C17.3332 6.72 17.0843 6.16446 16.6843 5.76ZM9.77763 8.22221H4.4443V3.77779H9.77763V8.22221Z" fill="currentColor"/>
</svg>