<svg width="20" height="20" viewBox="0 0 20 20" fill="none" xmlns="http://www.w3.org/2000/svg">
<circle cx="10.4615" cy="10.4615" r="8.43077" fill="#2962EF" stroke="white" stroke-width="2.09231"/>
<path d="M12.0897 8.01371L10.952 6.40442C10.7158 6.07027 10.2072 6.07027 9.97097 6.40442L8.83333 8.01371C8.756 8.1231 8.64214 8.20329 8.51094 8.24079L6.58069 8.79243C6.1799 8.90697 6.02272 9.37596 6.27752 9.69701L7.50468 11.2432C7.58809 11.3483 7.63158 11.4781 7.62782 11.6107L7.57249 13.5609C7.561 13.9658 7.97251 14.2557 8.36619 14.12L10.2623 13.4663C10.3911 13.4219 10.5319 13.4219 10.6607 13.4663L12.5568 14.12C12.9505 14.2557 13.362 13.9658 13.3505 13.5609L13.2952 11.6107C13.2914 11.4781 13.3349 11.3483 13.4183 11.2432L14.6455 9.69701C14.9003 9.37596 14.7431 8.90697 14.3423 8.79243L12.4121 8.24079C12.2809 8.20329 12.167 8.1231 12.0897 8.01371Z" fill="white"/>
</svg>
