<svg width="24" height="24" viewBox="0 0 24 24" fill="none" xmlns="http://www.w3.org/2000/svg">
<path fill-rule="evenodd" clip-rule="evenodd" d="M11.0567 7.79275C11.057 7.7926 11.0572 7.79251 11.0572 7.7925L11.0545 7.79373L11.0567 7.79275ZM10.8458 7.84183C10.6718 7.8679 10.4317 7.88135 10.098 7.88129C9.90316 7.88126 9.69974 7.87701 9.47346 7.87226L9.47311 7.87226C9.25295 7.86764 9.01166 7.86259 8.76926 7.86259C7.86832 7.86259 7.13797 7.13223 7.13797 6.23129C7.13797 5.33035 7.86832 4.6 8.76926 4.6L8.7648 4.60002L8.76653 4.6004C8.782 4.60341 8.90167 4.62665 9.12764 4.79894C9.38562 4.99563 9.67846 5.31061 9.95952 5.72178C10.502 6.51533 10.7968 7.35596 10.8458 7.84183ZM4.55313 10.0286H11.096V12.9524H6.36265H4.76265H4.55313V10.0286ZM4.76265 14.7619H3.95313C3.40084 14.7619 2.95312 14.3142 2.95312 13.7619V9.42857C2.95312 8.87629 3.40084 8.42857 3.95312 8.42857H6.40002C5.86505 7.85201 5.53797 7.07985 5.53797 6.23129C5.53797 4.4467 6.98467 3 8.76926 3C10.0222 3 11.3317 4.57328 12.0007 6.12829C12.6697 4.57328 13.9791 3 15.232 3C17.0166 3 18.4633 4.4467 18.4633 6.23129C18.4633 7.07985 18.1362 7.85201 17.6013 8.42857H20.0484C20.6006 8.42857 21.0484 8.87629 21.0484 9.42857V13.7619C21.0484 14.3142 20.6006 14.7619 20.0484 14.7619H19.2388V21C19.2388 21.5523 18.7911 22 18.2388 22H5.76265C5.21036 22 4.76265 21.5523 4.76265 21V14.7619ZM6.36265 14.7619V20.4H11.096V14.7619H6.36265ZM12.9055 20.4H17.6388V14.7619H12.9055V20.4ZM19.2388 12.9524H19.4484V10.0286H12.9055V12.9524H17.6388H19.2388ZM15.232 7.86259C16.133 7.86259 16.8633 7.13223 16.8633 6.23129C16.8633 5.33035 16.133 4.6 15.232 4.6L15.2365 4.60002L15.2348 4.6004C15.2193 4.60341 15.0996 4.62665 14.8737 4.79892C14.6157 4.9956 14.3229 5.31057 14.0419 5.72174C13.4995 6.51529 13.2047 7.35595 13.1557 7.84185C13.3296 7.8679 13.5697 7.88135 13.9033 7.88129C14.0982 7.88126 14.3016 7.87701 14.5278 7.87226L14.5282 7.87226C14.7483 7.86764 14.9896 7.86259 15.232 7.86259ZM12.9443 7.79252L12.947 7.79375L12.9455 7.7931C12.9447 7.79273 12.9443 7.79254 12.9443 7.79252Z" fill="url(#paint0_linear_17440_19777)"/>
<defs>
<linearGradient id="paint0_linear_17440_19777" x1="2.95312" y1="12.5" x2="21.0484" y2="12.5" gradientUnits="userSpaceOnUse">
<stop stop-color="#6C6CF9"/>
<stop offset="1" stop-color="#FF7583"/>
</linearGradient>
</defs>
</svg>
