<svg width="24" height="26" viewBox="0 0 24 26" fill="none" xmlns="http://www.w3.org/2000/svg">
  <path d="M-0.00585938 12.1659V9.52056C-0.00585938 8.04298 0.902581 7.37568 2.37573 7.37568H4.78187C4.06984 6.70839 3.64018 5.80277 3.64018 4.74225C3.64018 2.35906 5.5921 0.666992 8.03506 0.666992C9.85194 0.666992 11.3987 1.65602 12.0003 3.41958C12.6018 1.65602 14.1363 0.666992 15.9532 0.666992C18.3962 0.666992 20.3481 2.35906 20.3481 4.74225C20.3481 5.80277 19.9184 6.70839 19.2064 7.37568H21.6126C23.1471 7.37568 23.9941 8.04298 23.9941 9.52056V12.1659C23.9941 13.4886 23.2207 14.0963 21.8458 14.0963H13.1665V7.37568H10.8218V5.70745C10.8218 4.02729 9.6678 2.93103 8.25603 2.93103C6.9302 2.93103 6.02176 3.70556 6.02176 4.96866C6.02176 6.2675 7.10207 7.37568 8.98033 7.37568H10.8218V14.0963H2.14248C0.779819 14.0963 -0.00585938 13.4886 -0.00585938 12.1659ZM15.7323 2.93103C14.3205 2.93103 13.1665 4.02729 13.1665 5.70745V7.37568H15.008C16.8862 7.37568 17.9665 6.2675 17.9665 4.96866C17.9665 3.70556 17.0581 2.93103 15.7323 2.93103ZM1.68826 22.8664V15.55H10.8218V26.0003H5.02739C2.92816 26.0003 1.68826 24.8922 1.68826 22.8664ZM13.1665 26.0003V15.55H22.3V22.8664C22.3 24.8922 21.0601 26.0003 18.9609 26.0003H13.1665Z" fill="currentColor"/>
</svg>
