<svg xmlns="http://www.w3.org/2000/svg" width="24" height="24" viewBox="0 0 24 24" fill="none">
<path d="M17.8384 13.3393C18.2136 13.6995 18.6638 13.722 19.0165 13.3693L21.2602 11.1407C21.5979 10.7955 21.5754 10.3302 21.2152 9.96255L20.6824 9.42977C20.3597 9.1071 20.1496 9.06208 19.8044 9.09209L18.994 9.18214L18.4537 8.64936L18.6939 7.66635C18.8214 7.10356 18.6188 6.53326 18.041 5.95546L16.5477 4.47719C14.4091 2.34608 10.4321 2.12096 8.24092 4.31211C7.85072 4.70231 7.89574 5.16005 8.13587 5.4527C8.33847 5.67782 8.67615 5.80538 9.02883 5.69282C10.4246 5.28761 11.6777 5.20507 12.7133 5.80538L12.1805 7.1861C11.9178 7.86145 12.0454 8.34921 12.4956 8.79944L14.109 10.4128C14.4917 10.7955 14.8744 10.9155 15.4147 10.803L16.5177 10.5779L17.058 11.1181L16.968 11.9286C16.938 12.2813 16.9755 12.5064 17.3131 12.8215L17.8384 13.3393ZM4.29387 19.9878C5.00674 20.7006 5.86969 20.6556 6.59006 19.8302L13.7563 11.6059L11.4001 9.24968L3.16078 16.4009C2.32784 17.1213 2.29032 17.9842 3.0032 18.6971L4.29387 19.9878Z" fill="currentColor"/>
</svg>