<svg xmlns="http://www.w3.org/2000/svg" width="24" height="24" viewBox="0 0 24 24" fill="none">
<rect width="24" height="24" rx="6" fill="var(--black)"/>
<path d="M17.1723 7.0092C15.8739 7.15691 14.7255 7.8068 13.3443 9.1761C13.2286 9.29078 12.8865 9.65743 12.5849 9.98933C12.1802 10.4377 12.0271 10.594 12.0005 10.594C11.974 10.594 11.8193 10.4342 11.4084 9.98064C11.1021 9.64527 10.7506 9.26646 10.6256 9.14134C9.32402 7.83286 8.32247 7.2351 7.12562 7.04569C7.02874 7.03179 6.82406 7.0231 6.53188 7.02484C6.15063 7.02484 6.05688 7.03005 5.8772 7.06307C5.06471 7.21077 4.34285 7.56179 3.71473 8.11263C3.50692 8.29509 3.10224 8.74862 2.95224 8.96931C2.46319 9.6835 2.16632 10.4637 2.06476 11.2978C1.99445 11.8643 1.98663 12.0502 2.01632 12.3005C2.02413 12.37 2.0382 12.5177 2.04913 12.6271C2.09288 13.1293 2.21788 13.6854 2.39288 14.1476C2.70069 14.9713 3.24599 15.7098 3.90692 16.1981C5.05221 17.0461 6.51469 17.2303 7.96467 16.709C8.75059 16.4275 9.51621 15.9148 10.3631 15.1086C10.6834 14.8027 10.9599 14.5143 11.4865 13.9356C11.8396 13.5446 11.974 13.4091 12.0005 13.4091C12.0287 13.4091 12.1818 13.5672 12.6005 14.0312C13.3536 14.8618 13.7474 15.2528 14.2427 15.6646C14.6661 16.0174 14.9786 16.2328 15.3521 16.4344C15.8645 16.709 16.2927 16.8567 16.852 16.947C16.9958 16.9714 17.138 16.9783 17.4614 16.9783C17.9458 16.9783 18.1504 16.9505 18.5676 16.8341C20.3723 16.3267 21.7176 14.6498 21.9457 12.6271C21.9582 12.5072 21.977 12.3474 21.9848 12.2709C22.0051 12.0937 22.0051 11.8573 21.9848 11.6801C21.977 11.6036 21.9582 11.4386 21.9457 11.3152C21.841 10.3334 21.4863 9.36377 20.9738 8.65653C20.3254 7.76162 19.2817 7.17081 18.0879 7.0231C17.9036 7.00051 17.3286 6.99183 17.1723 7.0092ZM6.9725 9.03882C7.76623 9.15524 8.53341 9.62442 9.44589 10.5506C9.6537 10.7609 10.7537 11.9477 10.7709 11.979C10.7771 11.9911 10.7771 12.0137 10.7693 12.0294C10.7412 12.085 9.81308 13.1067 9.57089 13.3483C8.43653 14.4812 7.48186 14.9904 6.4975 14.9904C5.46627 14.9904 4.60847 14.4013 4.18816 13.4039C3.99754 12.9503 3.89285 12.3717 3.9116 11.8747C3.93504 11.3013 4.11316 10.7261 4.41941 10.2465C4.55222 10.0362 4.84128 9.71478 5.0319 9.5636C5.2819 9.3655 5.64908 9.17957 5.96782 9.09095C6.24282 9.01275 6.65531 8.9919 6.9725 9.03882ZM17.8286 9.03187C18.6364 9.14308 19.2926 9.6053 19.6942 10.3456C19.9879 10.8895 20.1395 11.6627 20.077 12.2935C19.9598 13.4786 19.2411 14.4795 18.2458 14.8427C17.9348 14.9556 17.7708 14.9817 17.3833 14.9817C16.9817 14.9817 16.8317 14.9556 16.463 14.8218C15.8411 14.5942 15.1958 14.1181 14.4146 13.31C14.0177 12.8982 13.2271 12.0328 13.2224 12.0033C13.213 11.9442 14.1552 10.9051 14.6146 10.4672C15.5161 9.60704 16.2911 9.16046 17.0864 9.04229C17.2927 9.01102 17.6473 9.0058 17.8286 9.03187Z" fill="var(--white)"/>
</svg>