<svg width="24" height="24" viewBox="0 0 24 24" fill="none" xmlns="http://www.w3.org/2000/svg">
<path d="M6 11C5.44772 11 5 11.4477 5 12V14C5 14.5523 5.44772 15 6 15H8C8.55228 15 9 14.5523 9 14V12C9 11.4477 8.55228 11 8 11H6Z" fill="currentColor"/>
<path fill-rule="evenodd" clip-rule="evenodd" d="M5.76718 4.71186L5.11389 7.15H4.00002C2.42601 7.15 1.15002 8.42599 1.15002 10V18C1.15002 19.574 2.42601 20.85 4.00002 20.85H16C17.1961 20.85 18.2201 20.1132 18.6429 19.0687C19.6526 18.8497 20.5075 18.0879 20.7935 17.0204L22.8641 9.29296C23.2715 7.77258 22.3692 6.20982 20.8488 5.80243L9.25771 2.6966C7.73733 2.28922 6.17457 3.19148 5.76718 4.71186ZM7.40926 5.15185C7.57364 4.53836 8.20423 4.1743 8.81771 4.33868L20.4088 7.44451C21.0223 7.60889 21.3864 8.23948 21.222 8.85296L19.1514 16.5804C19.0968 16.7844 18.9903 16.9611 18.85 17.0999V10C18.85 8.42599 17.574 7.15 16 7.15L6.87385 7.15L7.40926 5.15185ZM17.15 10V18C17.15 18.6351 16.6352 19.15 16 19.15H4.00002C3.3649 19.15 2.85002 18.6351 2.85002 18V10C2.85002 9.36488 3.3649 8.85 4.00002 8.85H16C16.6352 8.85 17.15 9.36488 17.15 10Z" fill="currentColor"/>
</svg>
