<svg width="17" height="24" viewBox="0 0 17 24" fill="none" xmlns="http://www.w3.org/2000/svg">
<path d="M12.5342 18.24C14.9742 18.24 16.3142 16.32 16.3142 14.16C16.3142 12.02 14.9742 10.1 12.5342 10.1C11.1342 10.1 10.1342 10.64 8.77422 12.56C7.39422 10.64 6.37422 10.1 4.97422 10.1C2.53422 10.1 1.19422 12.02 1.19422 14.16C1.19422 16.32 2.53422 18.24 4.97422 18.24C6.37422 18.24 7.37422 17.7 8.75422 15.76C10.1342 17.7 11.1342 18.24 12.5342 18.24ZM3.17422 14.16C3.17422 12.92 3.87422 12.04 5.07422 12.04C5.97422 12.04 6.59422 12.56 7.65422 14.18C6.59422 15.8 5.97422 16.3 5.07422 16.3C3.87422 16.3 3.17422 15.48 3.17422 14.16ZM9.85422 14.16C10.8942 12.54 11.5342 12.04 12.4342 12.04C13.6342 12.04 14.3342 12.92 14.3342 14.16C14.3342 15.48 13.6342 16.3 12.4342 16.3C11.5342 16.3 10.8942 15.78 9.85422 14.16Z" fill="currentColor"/>
</svg>
