<svg width="22" height="23" viewBox="0 0 22 23" fill="none" xmlns="http://www.w3.org/2000/svg">
<path d="M10.906 7.7768C11.6694 7.7768 12.2655 7.17026 12.2655 6.41732C12.2655 5.65392 11.6694 5.04739 10.906 5.04739C10.1531 5.04739 9.54657 5.65392 9.54657 6.41732C9.54657 7.17026 10.1531 7.7768 10.906 7.7768ZM9.1701 17.2513H13.4263C13.8551 17.2513 14.1897 16.948 14.1897 16.5193C14.1897 16.1114 13.8551 15.7873 13.4263 15.7873H12.1296V10.4644C12.1296 9.89967 11.8472 9.5232 11.3139 9.5232H9.34787C8.91912 9.5232 8.58448 9.84739 8.58448 10.2552C8.58448 10.684 8.91912 10.9873 9.34787 10.9873H10.4668V15.7873H9.1701C8.74134 15.7873 8.4067 16.1114 8.4067 16.5193C8.4067 16.948 8.74134 17.2513 9.1701 17.2513Z" fill="currentColor"/>
<path d="M10.995 22.1663C16.8413 22.1663 21.6668 17.3385 21.6668 11.4997C21.6668 5.66086 16.831 0.833008 10.9847 0.833008C5.14871 0.833008 0.333496 5.66086 0.333496 11.4997C0.333496 17.3385 5.15902 22.1663 10.995 22.1663ZM10.995 20.0413C6.26229 20.0413 2.47817 16.2347 2.47817 11.4997C2.47817 6.76466 6.26229 2.9684 10.9847 2.9684C15.7174 2.9684 19.5222 6.76466 19.5325 11.4997C19.5428 16.2347 15.7277 20.0413 10.995 20.0413Z" fill="currentColor"/>
</svg>
