<svg xmlns="http://www.w3.org/2000/svg" width="64" height="64" viewBox="0 0 64 64" fill="none">
<path d="M32 42.9995C33.1046 42.9995 34 43.8949 34 44.9995C34 46.1041 33.1046 46.9995 32 46.9995C30.8954 46.9995 30 46.1041 30 44.9995C30 43.8949 30.8954 42.9995 32 42.9995Z" fill="currentColor"/>
<path d="M32 15.9995C33.1046 15.9995 34 16.8949 34 17.9995V35.9995C34 37.1041 33.1046 37.9995 32 37.9995C30.8954 37.9995 30 37.1041 30 35.9995V17.9995C30 16.8949 30.8954 15.9995 32 15.9995Z" fill="currentColor"/>
<path fill-rule="evenodd" clip-rule="evenodd" d="M32 -0.000488281C49.6731 -0.000488281 64 14.3264 64 31.9995C64 49.6726 49.6731 63.9995 32 63.9995C14.3269 63.9995 0 49.6726 0 31.9995C0 14.3264 14.3269 -0.000488281 32 -0.000488281ZM32 2.99951C15.9837 2.99951 3 15.9833 3 31.9995C3 48.0158 15.9837 60.9995 32 60.9995C48.0163 60.9995 61 48.0158 61 31.9995C61 15.9833 48.0163 2.99951 32 2.99951Z" fill="currentColor"/>
</svg>