<svg width="24" height="24" viewBox="0 0 24 24" fill="none" xmlns="http://www.w3.org/2000/svg">
<g id="ui / person">
<path id="Vector" d="M20.8004 12.2006C20.8004 11.2607 21.3977 10.4536 22.2314 10.14C22.6376 9.98727 23.0005 9.64875 23.0005 9.21481V5.60044C23.0005 4.39041 22.0105 3.40039 20.8004 3.40039H3.20005C1.99002 3.40039 1.011 4.39041 1.011 5.60044V9.21481C1.011 9.64875 1.37403 9.98702 1.77992 10.1405C2.61001 10.4544 3.20005 11.2612 3.20005 12.2006C3.20005 13.142 2.60748 13.9502 1.76939 14.2627C1.36278 14.4143 1 14.7524 1 15.1864V18.8007C1 20.0108 1.99002 21.0008 3.20005 21.0008H20.8004C22.0105 21.0008 23.0005 20.0108 23.0005 18.8007V15.1864C23.0005 14.7524 22.6376 14.4139 22.2314 14.2611C21.3977 13.9476 20.8004 13.1404 20.8004 12.2006ZM15.4194 15.5241C15.6033 16.2172 14.8386 16.7742 14.2352 16.3865L12.0002 14.9506L9.75803 16.3912C9.1556 16.7782 8.39171 16.2235 8.57328 15.5309L9.25018 12.9486L7.18948 11.2637C6.63541 10.8107 6.92613 9.91318 7.64058 9.87105L10.2952 9.71453L11.2658 7.24744C11.5275 6.58223 12.4694 6.58368 12.729 7.24967L13.6943 9.72553L16.3489 9.88205C17.0634 9.92418 17.3541 10.8217 16.8 11.2747L14.7393 12.9596L15.4194 15.5241Z" fill="currentColor"/>
</g>
</svg>
