<svg width="25" height="24" viewBox="0 0 25 24" fill="none" xmlns="http://www.w3.org/2000/svg">
<rect x="0.5" y="-0.000976562" width="24" height="24" rx="6" fill="transparent"/>
<g clip-path="url(#clip0_9396_135)">
<path d="M1.83398 16.0123L1.83398 21.2869H9.85836V20.1172H3.00315L3.00315 16.0123H1.83398ZM21.9982 16.0123L21.9982 20.1172L15.1429 20.1172V21.2866L23.1673 21.2866L23.1673 16.0123H21.9982ZM9.87002 7.98552L9.87002 16.012H15.1429V14.9572H11.0392L11.0392 7.98552H9.87002ZM1.83398 2.71094L1.83398 7.98552H3.00315L3.00315 3.88042L9.85836 3.88042V2.71094L1.83398 2.71094ZM15.1429 2.71094V3.88042L21.9982 3.88042V7.98552H23.1673V2.71094L15.1429 2.71094Z" fill="currentColor"/>
</g>
<defs>
<clipPath id="clip0_9396_135">
<rect width="21.3333" height="18.576" fill="transparent" transform="translate(1.83398 2.71094)"/>
</clipPath>
</defs>
</svg>
