<svg xmlns="http://www.w3.org/2000/svg" width="32" height="32" fill="none" viewBox="0 0 32 32"><path fill="#F68614" fill-rule="evenodd" d="M19.5602 6.31123C19.6553 6.31123 19.7497 6.2941 19.8388 6.26068L27.8525 3.25197C28.2711 3.0948 28.7375 3.31512 28.878 3.73647L29.9602 6.98022C30.0057 7.11657 30.0123 7.26273 29.9794 7.40258L27.9811 15.8845C27.9489 16.0214 27.9546 16.1644 27.9975 16.2984L29.695 21.5876C29.7423 21.735 29.7443 21.893 29.7008 22.0416L28.2137 27.1201C28.0938 27.5297 27.6642 27.7678 27.2495 27.6546L22.164 26.2674C21.935 26.205 21.6899 26.2484 21.4969 26.3855L18.3034 28.6551C18.1698 28.7501 18.0095 28.8012 17.8451 28.8012H14.1549C13.9905 28.8012 13.8302 28.7501 13.6966 28.6551L10.5031 26.3855C10.3101 26.2484 10.065 26.205 9.83603 26.2674L4.75052 27.6546C4.33576 27.7678 3.90624 27.5297 3.78631 27.1201L2.2992 22.0416C2.2557 21.893 2.25773 21.735 2.30504 21.5876L4.00245 16.2984C4.04545 16.1644 4.05112 16.0214 4.01886 15.8845L2.02062 7.40258C1.98767 7.26273 1.99431 7.11657 2.0398 6.98022L3.12197 3.73647C3.26254 3.31512 3.72888 3.0948 4.14749 3.25197L12.1612 6.26068C12.2503 6.2941 12.3447 6.31123 12.4398 6.31123H19.5602ZM5.17287 5.01739L13.4527 10.6984C13.5815 10.7868 13.588 10.9735 13.4657 11.0704L10.3832 13.5136L5.7635 14.7294C5.63855 14.7623 5.51046 14.6881 5.47772 14.564L3.7747 8.10512C3.76269 8.05955 3.76494 8.01142 3.78115 7.96714L4.82061 5.12892C4.87289 4.98615 5.047 4.93103 5.17287 5.01739ZM26.8274 5.01739L18.5475 10.6984C18.4187 10.7868 18.4122 10.9735 18.5346 11.0704L21.6171 13.5136L26.2367 14.7294C26.3617 14.7623 26.4898 14.6881 26.5225 14.564L28.2255 8.10512C28.2375 8.05955 28.2353 8.01142 28.2191 7.96714L27.1796 5.12892C27.1273 4.98615 26.9532 4.93103 26.8274 5.01739Z" clip-rule="evenodd"/><path fill="#16161A" fill-rule="evenodd" d="M9.12119 17.9641L9.25181 19.7974C9.25821 19.8872 9.29333 19.9699 9.34918 20.0268L9.7213 20.4057C9.76879 20.4541 9.82813 20.4805 9.88932 20.4805H12.8309C12.8921 20.4805 12.9514 20.4541 12.9989 20.4057L13.3711 20.0268C13.4269 19.9699 13.462 19.8872 13.4684 19.7974L13.599 17.9641C13.613 17.7687 13.4902 17.6005 13.3336 17.6005H9.38659C9.23008 17.6005 9.10728 17.7687 9.12119 17.9641ZM18.4012 17.9641L18.5318 19.7974C18.5382 19.8872 18.5733 19.9699 18.6292 20.0268L19.0013 20.4057C19.0488 20.4541 19.1081 20.4805 19.1693 20.4805H22.1109C22.1721 20.4805 22.2314 20.4541 22.2789 20.4057L22.6511 20.0268C22.7069 19.9699 22.742 19.8872 22.7484 19.7974L22.879 17.9641C22.893 17.7687 22.7702 17.6005 22.6136 17.6005H18.6666C18.5101 17.6005 18.3873 17.7687 18.4012 17.9641Z" clip-rule="evenodd" opacity=".4"/></svg>