<svg width="32" height="32" viewBox="0 0 32 32" fill="none" xmlns="http://www.w3.org/2000/svg">
<path fill-rule="evenodd" clip-rule="evenodd" d="M19.5602 6.31025C19.6553 6.31025 19.7497 6.29312 19.8388 6.2597L27.8525 3.25099C28.2711 3.09383 28.7375 3.31415 28.878 3.73549L29.9602 6.97924C30.0057 7.11559 30.0123 7.26175 29.9794 7.4016L27.9811 15.8835C27.9489 16.0204 27.9546 16.1635 27.9975 16.2974L29.695 21.5866C29.7423 21.734 29.7443 21.892 29.7008 22.0406L28.2137 27.1191C28.0938 27.5287 27.6642 27.7668 27.2495 27.6537L22.164 26.2664C21.935 26.204 21.6899 26.2474 21.4969 26.3845L18.3034 28.6542C18.1698 28.7491 18.0095 28.8002 17.8451 28.8002H14.1549C13.9905 28.8002 13.8302 28.7491 13.6966 28.6542L10.5031 26.3845C10.3101 26.2474 10.065 26.204 9.83603 26.2664L4.75052 27.6537C4.33576 27.7668 3.90624 27.5287 3.78631 27.1191L2.2992 22.0406C2.2557 21.892 2.25773 21.734 2.30504 21.5866L4.00245 16.2974C4.04545 16.1635 4.05112 16.0204 4.01886 15.8835L2.02062 7.4016C1.98767 7.26175 1.99431 7.11559 2.0398 6.97924L3.12197 3.73549C3.26254 3.31415 3.72888 3.09383 4.14749 3.25099L12.1612 6.2597C12.2503 6.29312 12.3447 6.31025 12.4398 6.31025H19.5602ZM5.17287 5.01641L13.4527 10.6975C13.5815 10.7858 13.588 10.9725 13.4657 11.0695L10.3832 13.5126L5.7635 14.7284C5.63855 14.7613 5.51046 14.6871 5.47772 14.563L3.7747 8.10415C3.76269 8.05857 3.76494 8.01044 3.78115 7.96617L4.82061 5.12794C4.87289 4.98518 5.047 4.93005 5.17287 5.01641ZM26.8274 5.01641L18.5475 10.6975C18.4187 10.7858 18.4122 10.9725 18.5346 11.0695L21.6171 13.5126L26.2367 14.7284C26.3617 14.7613 26.4898 14.6871 26.5225 14.563L28.2255 8.10415C28.2375 8.05857 28.2353 8.01044 28.2191 7.96617L27.1796 5.12794C27.1273 4.98518 26.9532 4.93005 26.8274 5.01641Z" fill="#CDCED3"/>
<path fill-rule="evenodd" clip-rule="evenodd" d="M9.12119 17.9631L9.25181 19.7964C9.25821 19.8862 9.29333 19.969 9.34918 20.0258L9.7213 20.4047C9.76879 20.4531 9.82813 20.4795 9.88932 20.4795H12.8309C12.8921 20.4795 12.9514 20.4531 12.9989 20.4047L13.3711 20.0258C13.4269 19.969 13.462 19.8862 13.4684 19.7964L13.599 17.9631C13.613 17.7677 13.4902 17.5995 13.3336 17.5995H9.38659C9.23008 17.5995 9.10728 17.7677 9.12119 17.9631ZM18.4012 17.9631L18.5318 19.7964C18.5382 19.8862 18.5733 19.969 18.6292 20.0258L19.0013 20.4047C19.0488 20.4531 19.1081 20.4795 19.1693 20.4795H22.1109C22.1721 20.4795 22.2314 20.4531 22.2789 20.4047L22.6511 20.0258C22.7069 19.969 22.742 19.8862 22.7484 19.7964L22.879 17.9631C22.893 17.7677 22.7702 17.5995 22.6136 17.5995H18.6666C18.5101 17.5995 18.3873 17.7677 18.4012 17.9631Z" fill="#9C9FA8"/>
</svg>
