<svg xmlns="http://www.w3.org/2000/svg" width="24" height="24" fill="none" viewBox="0 0 24 24"><path fill="currentColor" fill-rule="evenodd" d="M5.7 3H7.5C8.99117 3 10.2 4.20883 10.2 5.7H13.8C13.8 4.20883 15.0088 3 16.5 3H18.3C19.7912 3 21 4.20883 21 5.7V7.5C21 8.99117 19.7912 10.2 18.3 10.2H16.5C16.0832 10.2 15.6884 10.1055 15.3359 9.93687L9.93687 15.3359C10.1055 15.6884 10.2 16.0832 10.2 16.5H13.8C13.8 15.0088 15.0088 13.8 16.5 13.8H18.3C19.7912 13.8 21 15.0088 21 16.5V18.3C21 19.7912 19.7912 21 18.3 21H16.5C15.0088 21 13.8 19.7912 13.8 18.3H10.2C10.2 19.7912 8.99117 21 7.5 21H5.7C4.20883 21 3 19.7912 3 18.3V16.5C3 15.0088 4.20883 13.8 5.7 13.8H7.5C7.91683 13.8 8.31161 13.8945 8.66408 14.0631L14.0631 8.66408C13.8945 8.31161 13.8 7.91683 13.8 7.5H10.2C10.2 8.99117 8.99117 10.2 7.5 10.2H5.7C4.20883 10.2 3 8.99117 3 7.5V5.7C3 4.20883 4.20883 3 5.7 3ZM5.7 4.8C5.20294 4.8 4.8 5.20294 4.8 5.7V7.5C4.8 7.99706 5.20294 8.4 5.7 8.4H7.5C7.99706 8.4 8.4 7.99706 8.4 7.5V5.7C8.4 5.20294 7.99706 4.8 7.5 4.8H5.7ZM4.8 16.5C4.8 16.0029 5.20294 15.6 5.7 15.6H7.5C7.99706 15.6 8.4 16.0029 8.4 16.5V18.3C8.4 18.7971 7.99706 19.2 7.5 19.2H5.7C5.20294 19.2 4.8 18.7971 4.8 18.3V16.5ZM16.5 4.8C16.0029 4.8 15.6 5.20294 15.6 5.7V7.5C15.6 7.99706 16.0029 8.4 16.5 8.4H18.3C18.7971 8.4 19.2 7.99706 19.2 7.5V5.7C19.2 5.20294 18.7971 4.8 18.3 4.8H16.5ZM15.6 16.5C15.6 16.0029 16.0029 15.6 16.5 15.6H18.3C18.7971 15.6 19.2 16.0029 19.2 16.5V18.3C19.2 18.7971 18.7971 19.2 18.3 19.2H16.5C16.0029 19.2 15.6 18.7971 15.6 18.3V16.5Z" clip-rule="evenodd"/></svg>