<svg width="36" height="36" viewBox="0 0 36 36" fill="none" xmlns="http://www.w3.org/2000/svg">
<path d="M0 18C0 12.4087 0 9.61305 0.913445 7.4078C2.13137 4.46746 4.46746 2.13137 7.4078 0.913445C9.61305 0 12.4087 0 18 0C23.5913 0 26.3869 0 28.5922 0.913445C31.5325 2.13137 33.8686 4.46746 35.0866 7.4078C36 9.61305 36 12.4087 36 18C36 23.5913 36 26.3869 35.0866 28.5922C33.8686 31.5325 31.5325 33.8686 28.5922 35.0866C26.3869 36 23.5913 36 18 36C12.4087 36 9.61305 36 7.4078 35.0866C4.46746 33.8686 2.13137 31.5325 0.913445 28.5922C0 26.3869 0 23.5913 0 18Z" fill="var(--white)"/>
<rect x="8" y="8" width="20" height="20" rx="6" fill="var(--neutral-500)"/>
<path fill-rule="evenodd" clip-rule="evenodd" d="M19.4418 17.734C17.4857 16.677 15.1056 15.3062 13.3143 14.1889C12.7858 13.8081 13.054 13 13.6928 13L22.5562 13C23.0506 13 23.3814 13.5513 23.1336 13.9684C22.538 14.997 21.6685 16.303 20.9422 17.3385C20.5523 17.8943 19.9169 17.9898 19.4418 17.734ZM16.5889 18.0773C18.4803 19.0855 21.1309 20.6188 23.0142 21.7781C23.5962 22.1373 23.3643 22.9989 22.6846 22.9989C21.5724 22.9989 19.765 22.9992 17.9671 22.9994C16.1877 22.9997 14.4175 23 13.3393 23C12.796 23 12.5175 22.4362 12.7483 22.043C13.528 20.7142 14.4043 19.373 15.1329 18.3717C15.4568 17.925 16.1161 17.825 16.5889 18.0773Z" fill="var(--white)"/>
<path d="M27 23H23C20.7909 23 19 24.7909 19 27C19 29.2091 20.7909 31 23 31H27C29.2091 31 31 29.2091 31 27C31 24.7909 29.2091 23 27 23ZM23 28C22.4477 28 22 27.5523 22 27C22 26.4477 22.4477 26 23 26C23.5523 26 24 26.4477 24 27C24 27.2652 23.8946 27.5196 23.7071 27.7071C23.5196 27.8946 23.2652 28 23 28Z" fill="var(--notice-500)" stroke="var(--white)" stroke-width="2"/>
</svg>
