<svg width="24" height="24" viewBox="0 0 24 24" fill="none" xmlns="http://www.w3.org/2000/svg">
<path d="M11.9957 21C16.9285 21 21 16.9265 21 12C21 7.0735 16.9198 3 11.987 3C7.06283 3 3 7.0735 3 12C3 16.9265 7.07153 21 11.9957 21ZM11.9957 15.0116C9.54229 15.0116 7.63702 15.8907 6.71484 16.9004C5.53166 15.6209 4.80957 13.8975 4.80957 12C4.80957 8.00484 8.00242 4.80174 11.987 4.80174C15.9802 4.80174 19.1904 8.00484 19.1991 12C19.1991 13.8975 18.477 15.6209 17.2852 16.9091C16.363 15.8907 14.4577 15.0116 11.9957 15.0116ZM11.9957 13.5841C13.6834 13.6015 14.9971 12.1567 14.9971 10.294C14.9971 8.53578 13.6747 7.0648 11.9957 7.0648C10.3253 7.0648 8.9942 8.53578 9.0029 10.294C9.0116 12.1567 10.3166 13.5754 11.9957 13.5841Z" fill="currentColor"/>
</svg>
