<svg xmlns="http://www.w3.org/2000/svg" width="24" height="24" viewBox="0 0 24 24" fill="none">
<path d="M11.9863 3C16.9191 3.00012 20.999 7.07357 20.999 12C20.999 16.9264 16.9278 20.9998 11.9951 21C10.9448 21 9.93365 20.813 8.99219 20.4736C9.929 19.4152 10.499 18.0247 10.499 16.5C10.499 16.0361 10.4444 15.585 10.3447 15.1514C10.86 15.0621 11.4121 15.0117 11.9951 15.0117C14.457 15.0118 16.362 15.8909 17.2842 16.9092C18.4761 15.621 19.1982 13.8975 19.1982 12C19.1895 8.00491 15.9795 4.80187 11.9863 4.80176C8.50874 4.80176 5.63414 7.24166 4.95898 10.5186C4.80719 10.507 4.65377 10.5 4.49902 10.5C4.0171 10.5 3.54866 10.5577 3.09961 10.665C3.75353 6.35875 7.51502 3 11.9863 3Z" fill="CURRENTCOLOR"/>
<path d="M11.9951 7.06445C13.674 7.06463 14.9961 8.53586 14.9961 10.2939C14.9961 12.1565 13.6827 13.6012 11.9951 13.584C10.316 13.5753 9.01065 12.1566 9.00195 10.2939C8.99328 8.53575 10.3248 7.06445 11.9951 7.06445Z" fill="CURRENTCOLOR"/>
<path fill-rule="evenodd" clip-rule="evenodd" d="M4.5 12C6.98528 12 9 14.0147 9 16.5C9 18.9853 6.98528 21 4.5 21C2.01472 21 5.00705e-07 18.9853 0 16.5C0 14.0147 2.01472 12 4.5 12ZM7.07031 14.9785C6.83222 14.7407 6.44605 14.7406 6.20801 14.9785L3.85156 17.334L2.54102 16.0234L2.49512 15.9824C2.25574 15.787 1.90203 15.8004 1.67871 16.0234C1.45541 16.2467 1.4412 16.6013 1.63672 16.8408L1.67871 16.8867L3.17383 18.3828C3.54785 18.7568 4.1551 18.7565 4.5293 18.3828L7.07031 15.8418C7.30842 15.6037 7.30842 15.2166 7.07031 14.9785Z" fill="CURRENTCOLOR"/>
</svg>