<svg width="12" height="13" viewBox="0 0 12 13" fill="none" xmlns="http://www.w3.org/2000/svg">
<path fill-rule="evenodd" clip-rule="evenodd" d="M3.27636 1.1866C3.93917 0.84805 4.65736 0.636817 5.39395 0.561798V6.74382L9.01883 11.7453C8.37885 12.1187 7.67387 12.3711 6.93907 12.4877C6.00383 12.6362 5.04681 12.5607 4.14625 12.2674C3.24569 11.9741 2.42715 11.4712 1.75756 10.8C1.08796 10.1288 0.586335 9.30817 0.293701 8.40531C0.00106583 7.50246 -0.0742616 6.54299 0.0738807 5.60535C0.222023 4.66771 0.589426 3.77855 1.14604 3.01055C1.70265 2.24256 2.43265 1.61755 3.27636 1.1866Z" fill="var(--primary)"/>
<path fill-rule="evenodd" clip-rule="evenodd" d="M9.99891 11.031L6.98047 6.86623L11.8643 5.27548C12.0876 6.31101 12.0349 7.39121 11.7061 8.40565C11.3773 9.42001 10.7867 10.3249 9.99891 11.031Z" fill="var(--notice-500)"/>
<path fill-rule="evenodd" clip-rule="evenodd" d="M6.60547 5.70979V0.561798C7.65677 0.668862 8.66515 1.05289 9.52587 1.67978C10.3867 2.30675 11.0627 3.14962 11.4892 4.11906L6.60547 5.70979Z" fill="var(--negative-500)"/>
</svg>
