<svg width="16" height="16" viewBox="0 0 16 16" fill="none" xmlns="http://www.w3.org/2000/svg">
<path fill-rule="evenodd" clip-rule="evenodd" d="M4.36803 0.833943C5.25168 0.3826 6.20918 0.10099 7.19119 0.000976562V8.24269L12.0239 14.9106C11.1706 15.4084 10.2308 15.7448 9.25114 15.9003C8.00428 16.0983 6.72839 15.9977 5.52776 15.6066C4.32714 15.2155 3.23586 14.5452 2.34317 13.6503C1.45047 12.7554 0.7817 11.6614 0.391561 10.4578C0.00142096 9.25409 -0.0990053 7.97495 0.0984975 6.72491C0.296 5.47488 0.785821 4.28947 1.52789 3.2656C2.26996 2.24173 3.24321 1.40847 4.36803 0.833943Z" fill="#2962EF"/>
<path fill-rule="evenodd" clip-rule="evenodd" d="M13.3308 13.9583L9.30664 8.4059L15.8177 6.28516C16.1154 7.6657 16.0452 9.10579 15.6068 10.4582C15.1685 11.8105 14.381 13.0169 13.3308 13.9583Z" fill="#FF9D1C"/>
<path fill-rule="evenodd" clip-rule="evenodd" d="M8.80664 6.86415V0.000976562C10.2082 0.143711 11.5526 0.655687 12.7001 1.49144C13.8478 2.3273 14.7491 3.45099 15.3176 4.74343L8.80664 6.86415Z" fill="#FF4A4A"/>
</svg>
