<svg width="24" height="24" viewBox="0 0 24 24" fill="none" xmlns="http://www.w3.org/2000/svg">
<rect width="24" height="24" rx="8" fill="#16161A"/>
<path d="M8.11206 10.9254C8.41288 10.9254 8.65674 11.1693 8.65674 11.4701V17.4214C8.65674 17.7223 8.41288 17.9661 8.11206 17.9661H5.73892C5.43811 17.9661 5.19424 17.7223 5.19424 17.4214V11.4701C5.19424 11.1693 5.43811 10.9254 5.73892 10.9254H8.11206Z" fill="white"/>
<path d="M13.2005 8.94239C13.5013 8.94239 13.7452 9.18625 13.7452 9.48707V17.4214C13.7452 17.7223 13.5013 17.9661 13.2005 17.9661H10.8274C10.5265 17.9661 10.2827 17.7223 10.2827 17.4214V9.48707C10.2827 9.18625 10.5265 8.94239 10.8274 8.94239H13.2005Z" fill="white"/>
<path d="M18.2611 6.03388C18.5619 6.03388 18.8058 6.27774 18.8058 6.57856V17.4214C18.8058 17.7223 18.5619 17.9661 18.2611 17.9661H15.8879C15.5871 17.9661 15.3432 17.7223 15.3432 17.4214V6.57856C15.3433 6.27774 15.5871 6.03388 15.8879 6.03388H18.2611Z" fill="white"/>
</svg>
