<svg width="24" height="24" viewBox="0 0 24 24" fill="none" xmlns="http://www.w3.org/2000/svg">
<path fill-rule="evenodd" clip-rule="evenodd" d="M5.57 4.8H18.43C19.2971 4.8 20 5.43262 20 6.213V17.787C20 18.5674 19.2971 19.2 18.43 19.2H5.57C4.70291 19.2 4 18.5674 4 17.787V6.213C4 5.43262 4.70291 4.8 5.57 4.8ZM2 6.213C2 4.43851 3.59834 3 5.57 3H18.43C20.4017 3 22 4.43851 22 6.213V17.787C22 19.5615 20.4017 21 18.43 21H5.57C3.59834 21 2 19.5615 2 17.787V6.213ZM13 7C12.4477 7 12 7.44772 12 8V12C12 12.5523 12.4477 13 13 13H17C17.5523 13 18 12.5523 18 12V8C18 7.44772 17.5523 7 17 7H13Z" fill="currentColor"/>
</svg>
