<svg width="32" height="32" viewBox="0 0 32 32" fill="none" xmlns="http://www.w3.org/2000/svg"><rect width="32" height="32" rx="6" fill="#2962EF"></rect><path fill-rule="evenodd" clip-rule="evenodd" d="M17.793 9.623a3.587 3.587 0 00-3.586 0L8.44 12.959a.87.87 0 000 1.51l5.768 3.336c1.107.64 2.479.64 3.586 0l5.768-3.335a.87.87 0 000-1.511l-5.768-3.336zM8.439 17.53l1.124-.65 3.881 2.245a5.11 5.11 0 005.112 0l3.881-2.245 1.124.65a.87.87 0 010 1.511l-5.768 3.336a3.587 3.587 0 01-3.586 0L8.44 19.041a.87.87 0 010-1.51z" fill="currentColor"></path></svg>
