<svg xmlns="http://www.w3.org/2000/svg" width="24" height="24" fill="none" viewBox="0 0 24 24"><path fill="currentColor" fill-rule="evenodd" d="M8.75 4.75C6.54086 4.75 4.75 6.54086 4.75 8.75V15.25C4.75 17.4591 6.54086 19.25 8.75 19.25H15.25C17.4591 19.25 19.25 17.4591 19.25 15.25V8.75C19.25 6.54086 17.4591 4.75 15.25 4.75H8.75ZM12.427 8.71928L13.4174 10.1274C13.4847 10.2231 13.5838 10.2933 13.698 10.3261L15.3784 10.8088C15.7273 10.909 15.8641 11.3194 15.6423 11.6003L14.574 12.9533C14.5014 13.0452 14.4635 13.1588 14.4668 13.2748L14.515 14.9812C14.525 15.3355 14.1668 15.5891 13.824 15.4704L12.1735 14.8984C12.0613 14.8595 11.9387 14.8595 11.8265 14.8984L10.176 15.4704C9.83324 15.5891 9.47501 15.3355 9.48501 14.9812L9.53318 13.2748C9.53645 13.1588 9.49859 13.0452 9.42598 12.9533L8.35769 11.6003C8.13588 11.3194 8.27271 10.909 8.62161 10.8088L10.302 10.3261C10.4162 10.2933 10.5153 10.2231 10.5826 10.1274L11.573 8.71928C11.7786 8.42691 12.2214 8.42691 12.427 8.71928Z" clip-rule="evenodd"/><path fill="currentColor" fill-rule="evenodd" d="M8 2C4.68629 2 2 4.68629 2 8V16C2 19.3137 4.68629 22 8 22H16C19.3137 22 22 19.3137 22 16V8C22 4.68629 19.3137 2 16 2H8ZM8 3.5H16C18.4853 3.5 20.5 5.51472 20.5 8V16C20.5 18.4853 18.4853 20.5 16 20.5H8C5.51472 20.5 3.5 18.4853 3.5 16V8C3.5 5.51472 5.51472 3.5 8 3.5Z" clip-rule="evenodd"/></svg>