<svg width="24" height="24" viewBox="0 0 24 24" fill="none" xmlns="http://www.w3.org/2000/svg">
<path fill-rule="evenodd" clip-rule="evenodd" d="M11.2726 19.9998H4V12.7271H11.2726V19.9998ZM9.81786 14.1817H5.45422V18.5341H9.81786V14.1817Z" fill="currentColor"/>
<path d="M6.9082 15.6362H8.3627V17.0909H6.9082V15.6362Z" fill="currentColor"/>
<path d="M15.6367 18.5454H17.0916V20H15.6367V18.5454Z" fill="currentColor"/>
<path d="M18.5449 18.5454H19.9997V20H18.5449V18.5454Z" fill="currentColor"/>
<path d="M18.5447 14.1817H17.0903V12.7271H12.7266V19.9998H14.1812V15.6361H15.6355V17.0909H19.9993V12.7271H18.5447V14.1817Z" fill="currentColor"/>
<path fill-rule="evenodd" clip-rule="evenodd" d="M11.2726 11.2729H4V4H11.2726V11.2729ZM9.81786 5.45445H5.45422V9.81813H9.81786V5.45445Z" fill="currentColor"/>
<path d="M6.9082 6.90894H8.3627V8.36356H6.9082V6.90894Z" fill="currentColor"/>
<path fill-rule="evenodd" clip-rule="evenodd" d="M12.7266 11.2729V4H19.9994V11.2729H12.7266ZM14.1813 9.81813H18.5448V5.45445H14.1813V9.81813Z" fill="currentColor"/>
<path d="M15.6367 6.90894H17.0916V8.36356H15.6367V6.90894Z" fill="currentColor"/>
</svg>
