<svg width="16" height="16" viewBox="0 0 16 16" fill="none" xmlns="http://www.w3.org/2000/svg">
<path d="M7.99992 1.33398C4.31992 1.33398 1.33325 4.32065 1.33325 8.00065C1.33325 11.6807 4.31992 14.6673 7.99992 14.6673C11.6799 14.6673 14.6666 11.6807 14.6666 8.00065C14.6666 4.32065 11.6799 1.33398 7.99992 1.33398ZM8.66659 12.6673H7.33325V11.334H8.66659V12.6673ZM10.0466 7.50065L9.44659 8.11398C9.11325 8.45398 8.87325 8.76065 8.75325 9.24065C8.69992 9.45398 8.66659 9.69398 8.66659 10.0007H7.33325V9.66732C7.33325 9.36065 7.38659 9.06732 7.47992 8.79398C7.61325 8.40732 7.83325 8.06065 8.11325 7.78065L8.93992 6.94065C9.24659 6.64732 9.39325 6.20732 9.30659 5.74065C9.21992 5.26065 8.84659 4.85398 8.37992 4.72065C7.63992 4.51398 6.95325 4.93398 6.73325 5.56732C6.65325 5.81398 6.44659 6.00065 6.18659 6.00065H5.98659C5.59992 6.00065 5.33325 5.62732 5.43992 5.25398C5.72659 4.27398 6.55992 3.52732 7.59325 3.36732C8.60659 3.20732 9.57325 3.73398 10.1733 4.56732C10.9599 5.65398 10.7266 6.82065 10.0466 7.50065Z" fill="currentColor"/>
</svg>
