<svg xmlns="http://www.w3.org/2000/svg" width="24" height="24" fill="none" viewBox="0 0 24 24"><path fill="currentColor" d="M12 4C7.584 4 4 7.584 4 12C4 16.416 7.584 20 12 20C16.416 20 20 16.416 20 12C20 7.584 16.416 4 12 4ZM12 18.4C8.472 18.4 5.6 15.528 5.6 12C5.6 8.472 8.472 5.6 12 5.6C15.528 5.6 18.4 8.472 18.4 12C18.4 15.528 15.528 18.4 12 18.4ZM11.2 15.2H12.8V16.8H11.2V15.2ZM12.488 7.232C10.84 6.992 9.384 8.008 8.944 9.464C8.8 9.928 9.152 10.4 9.64 10.4H9.8C10.128 10.4 10.392 10.168 10.504 9.864C10.76 9.152 11.52 8.664 12.344 8.84C13.104 9 13.664 9.744 13.6 10.52C13.52 11.592 12.304 11.824 11.64 12.824C11.64 12.832 11.632 12.832 11.632 12.84C11.624 12.856 11.616 12.864 11.608 12.88C11.536 13 11.464 13.136 11.408 13.28C11.4 13.304 11.384 13.32 11.376 13.344C11.368 13.36 11.368 13.376 11.36 13.4C11.264 13.672 11.2 14 11.2 14.4H12.8C12.8 14.064 12.888 13.784 13.024 13.544C13.04 13.52 13.048 13.496 13.064 13.472C13.128 13.36 13.208 13.256 13.288 13.16C13.296 13.152 13.304 13.136 13.312 13.128C13.392 13.032 13.48 12.944 13.576 12.856C14.344 12.128 15.384 11.536 15.168 10.008C14.976 8.616 13.88 7.44 12.488 7.232Z"/></svg>