<svg width="20" height="20" viewBox="0 0 20 20" fill="none" xmlns="http://www.w3.org/2000/svg">
<path fill-rule="evenodd" clip-rule="evenodd" d="M1.28499 9.37123C0.681045 9.57254 0.681045 10.4268 1.28499 10.6281L3.1593 11.2529C5.79674 12.132 7.86634 14.2016 8.74548 16.8391L9.37025 18.7134C9.57157 19.3173 10.4258 19.3173 10.6271 18.7134L11.2519 16.8391C12.1311 14.2016 14.2007 12.132 16.8381 11.2529L18.7124 10.6281C19.3163 10.4268 19.3164 9.57254 18.7124 9.37123L16.8381 8.74646C14.2007 7.86731 12.1311 5.79771 11.2519 3.16027L10.6271 1.28597C10.4258 0.682023 9.57157 0.682021 9.37025 1.28597L8.74548 3.16027C7.86634 5.79771 5.79674 7.86731 3.1593 8.74646L1.28499 9.37123Z" fill="url(#paint0_linear_19014_7543)"/>
<defs>
<linearGradient id="paint0_linear_19014_7543" x1="0.832031" y1="9.99967" x2="19.1654" y2="9.99967" gradientUnits="userSpaceOnUse">
<stop stop-color="#A024EF"/>
<stop offset="1" stop-color="#FDBB6C"/>
</linearGradient>
</defs>
</svg>
