<svg width="24" height="24" viewBox="0 0 24 24" fill="none" xmlns="http://www.w3.org/2000/svg">
<g id="Icon">
<path id="&#240;&#159;&#142;&#168; Icon color" fill-rule="evenodd" clip-rule="evenodd" d="M16.7307 3.99226L19.7445 7.00607C20.0724 5.69257 20.2162 4.34588 20.2374 3.42779C19.3577 3.39058 18.2165 3.54861 16.7307 3.99226ZM19.2656 8.51947L15.239 4.49289C13.009 5.31563 10.9169 6.74564 9.56008 8.72154L9.54655 8.73883C9.05589 9.36578 8.27333 10.6927 7.77319 11.5818L12.1559 15.9646C12.2746 15.9124 12.4302 15.8353 12.6231 15.7282C13.1923 15.4124 14.0043 14.8827 14.9945 14.1296C16.8674 12.7048 18.3923 10.7147 19.2656 8.51947ZM6.36989 11.2058C6.70554 10.598 7.28789 9.58044 7.82197 8.75364C7.23706 8.69683 6.74601 8.80475 6.32593 8.98192C5.43904 9.35597 4.66992 10.1035 4.01258 10.8042L6.36989 11.2058ZM8.724 7.48712C9.16714 6.93338 9.81199 6.25947 10.5813 5.60512C13.2125 3.36723 17.2252 1.68283 20.7113 2.05055C21.2473 2.10709 21.6424 2.55577 21.6484 3.08227C21.6998 7.62037 19.7832 12.0444 16.2464 14.9361C16.5569 16.1323 16.5247 18.174 14.8261 20.0071L14.8087 20.026L12.9081 21.7984C12.4771 22.2003 11.7722 21.9691 11.663 21.39L11.117 18.4952C10.5765 19.0301 9.79714 19.2369 9.07898 18.9373C7.82246 20.0845 6.57187 20.7436 5.52295 21.0663C4.94377 21.2444 4.41356 21.3238 3.96986 21.3183C3.50747 21.3126 3.05647 21.2096 2.70658 20.8902C2.45099 20.527 2.36445 20.1035 2.36746 19.6635C2.37044 19.2292 2.45702 18.7186 2.64366 18.1587C2.98085 17.1471 3.65476 15.9427 4.82066 14.6781C4.47846 13.9458 4.59749 13.0513 5.17774 12.4318L2.62385 11.9968C2.07907 11.904 1.80593 11.2588 2.15714 10.8035C3.0571 9.6367 4.39962 8.26537 5.77846 7.68384C6.59483 7.33953 7.57564 7.19362 8.724 7.48712ZM6.89967 12.7007L6.2209 13.3794C5.97843 13.6219 5.97843 14.015 6.2209 14.2575L6.22255 14.2591L9.48992 17.5483C9.64983 17.7076 9.90897 17.7086 10.0694 17.5498L10.9134 16.7144L6.89967 12.7007ZM12.3431 17.3949L12.8249 19.9496L13.8097 19.0313C14.8381 17.9109 15.0408 16.7255 14.9803 15.8879C14.3267 16.3503 13.7609 16.7081 13.3066 16.9601C13.0004 17.13 12.682 17.2993 12.3431 17.3949ZM5.73469 15.767L7.98169 18.029C6.92314 18.96 5.91015 19.4732 5.10869 19.7197C4.73665 19.8342 4.32173 19.9358 3.92437 19.9096C3.84416 19.9044 3.78073 19.841 3.77585 19.7608C3.75213 19.3714 3.8598 18.9653 3.98017 18.6042C4.23605 17.8365 4.76444 16.8512 5.73469 15.767ZM13.9608 8.72579C13.411 8.72579 12.9653 9.17148 12.9653 9.72128C12.9653 10.2711 13.411 10.7168 13.9608 10.7168C14.5105 10.7168 14.9562 10.2711 14.9562 9.72128C14.9562 9.17148 14.5105 8.72579 13.9608 8.72579ZM11.5565 9.72128C11.5565 8.39342 12.6329 7.31698 13.9608 7.31698C15.2886 7.31698 16.365 8.39342 16.365 9.72128C16.365 11.0491 15.2886 12.1256 13.9608 12.1256C12.6329 12.1256 11.5565 11.0491 11.5565 9.72128Z" fill="currentColor"/>
</g>
</svg>
