<svg xmlns="http://www.w3.org/2000/svg" width="36" height="36" viewBox="0 0 36 36" fill="none">
<path d="M12 28C11.1667 28 10.4583 27.7083 9.875 27.125C9.29167 26.5417 9 25.8333 9 25V24C9 23.45 9.19583 22.9792 9.5875 22.5875C9.97917 22.1958 10.45 22 11 22H12V10C12 9.45 12.1958 8.97917 12.5875 8.5875C12.9792 8.19583 13.45 8 14 8H25C25.55 8 26.0208 8.19583 26.4125 8.5875C26.8042 8.97917 27 9.45 27 10V25C27 25.8333 26.7083 26.5417 26.125 27.125C25.5417 27.7083 24.8333 28 24 28H12ZM24 26C24.2833 26 24.5208 25.9042 24.7125 25.7125C24.9042 25.5208 25 25.2833 25 25V10.6429C25 10.2878 24.7122 10 24.3571 10H14.6429C14.2878 10 14 10.2878 14 10.6429V22H21C21.55 22 22.0208 22.1958 22.4125 22.5875C22.8042 22.9792 23 23.45 23 24V25C23 25.2833 23.0958 25.5208 23.2875 25.7125C23.4792 25.9042 23.7167 26 24 26ZM16 15C15.7167 15 15.4792 14.9042 15.2875 14.7125C15.0958 14.5208 15 14.2833 15 14C15 13.7167 15.0958 13.4792 15.2875 13.2875C15.4792 13.0958 15.7167 13 16 13H23C23.2833 13 23.5208 13.0958 23.7125 13.2875C23.9042 13.4792 24 13.7167 24 14C24 14.2833 23.9042 14.5208 23.7125 14.7125C23.5208 14.9042 23.2833 15 23 15H16ZM16 18C15.7167 18 15.4792 17.9042 15.2875 17.7125C15.0958 17.5208 15 17.2833 15 17C15 16.7167 15.0958 16.4792 15.2875 16.2875C15.4792 16.0958 15.7167 16 16 16H23C23.2833 16 23.5208 16.0958 23.7125 16.2875C23.9042 16.4792 24 16.7167 24 17C24 17.2833 23.9042 17.5208 23.7125 17.7125C23.5208 17.9042 23.2833 18 23 18H16Z" fill="currentColor"/>
</svg>