<svg width="24" height="24" viewBox="0 0 24 24" fill="none" xmlns="http://www.w3.org/2000/svg">
<path d="M16.6893 9.49439C17.0582 9.12302 17.0582 8.52092 16.6893 8.14955C16.3203 7.77818 15.7221 7.77818 15.3532 8.14955L10.7833 12.7493L8.87279 10.923C8.49445 10.5613 7.89644 10.5768 7.53712 10.9576C7.17779 11.3384 7.1932 11.9404 7.57155 12.302L10.1497 14.7665C10.5211 15.1216 11.1061 15.114 11.4683 14.7494L16.6893 9.49439Z" fill="currentColor"/>
<path fill-rule="evenodd" clip-rule="evenodd" d="M20.25 6.27729V13.7207C20.25 17.2999 18.2864 18.706 12.6887 21.7935C12.4347 21.9312 12.171 22 11.9951 22C11.829 22 11.5653 21.9312 11.3113 21.7935C5.69405 18.7158 3.75 17.2999 3.75 13.7207L3.75 6.27729C3.75 5.11701 4.19938 4.70403 5.16652 4.29105C6.25089 3.82891 9.9143 2.53097 10.9791 2.17699C11.3015 2.06883 11.6727 2 11.9951 2C12.3273 2 12.6985 2.0885 13.0111 2.17699C14.0759 2.47198 17.7491 3.83874 18.8335 4.29105C19.8006 4.6942 20.25 5.11701 20.25 6.27729ZM11.829 19.9056C11.7216 19.8761 11.6044 19.8171 11.4383 19.7089L11.055 19.4769C6.93855 16.9861 5.57682 16.1622 5.57682 13.3471L5.57682 6.59194C5.57682 6.24779 5.65497 6.1003 5.91874 6.00197L6.51906 5.78617C8.05821 5.2332 10.3395 4.4136 11.4871 3.95674C11.663 3.89202 12.1143 3.80141 12.5129 3.95674C13.6605 4.4136 15.9418 5.2332 17.4809 5.78617L18.0813 6.00197C18.345 6.1003 18.4232 6.24779 18.4232 6.59194V13.3471C18.4232 16.1622 17.0614 16.9861 12.945 19.4769L12.5617 19.7089C12.3956 19.8171 12.2784 19.8761 12.171 19.9056C12.0411 19.9563 11.8889 19.9267 11.829 19.9056Z" fill="currentColor"/>
</svg>
