<svg width="36" height="36" viewBox="0 0 36 36" fill="none" xmlns="http://www.w3.org/2000/svg">
<path d="M16.3662 7.60082C17.4057 7.13566 18.5943 7.13566 19.6338 7.60082L24.5713 9.81078C26.0107 10.455 26.9375 11.8852 26.9375 13.4621V16.8694C26.9375 22.0734 23.5848 26.9612 18.9424 28.5891C18.3327 28.8029 17.6673 28.8029 17.0576 28.5891C12.4152 26.9612 9.0625 22.0734 9.0625 16.8694V13.4621C9.0625 11.8852 9.9893 10.455 11.4287 9.81078L16.3662 7.60082ZM17.999 19.8694C17.4507 19.8694 17.006 20.3172 17.0059 20.8694C17.0059 21.4217 17.4506 21.8694 17.999 21.8694C18.5474 21.8693 18.9922 21.4216 18.9922 20.8694C18.992 20.3173 18.5473 19.8694 17.999 19.8694ZM17.999 12.8694C17.4507 12.8694 17.006 13.3172 17.0059 13.8694V17.8694C17.0059 18.4217 17.4506 18.8694 17.999 18.8694C18.5474 18.8693 18.9922 18.4216 18.9922 17.8694V13.8694C18.992 13.3173 18.5473 12.8694 17.999 12.8694Z" fill="currentColor"/>
</svg>
