<svg width="20" height="20" viewBox="0 0 20 20" fill="none" xmlns="http://www.w3.org/2000/svg">
<path d="M9.12516 10.5846L7.9585 9.41797C7.79183 9.2513 7.59738 9.16797 7.37516 9.16797C7.15294 9.16797 6.9585 9.2513 6.79183 9.41797C6.62516 9.58464 6.54183 9.78255 6.54183 10.0117C6.54183 10.2409 6.62516 10.4388 6.79183 10.6055L8.54183 12.3763C8.7085 12.543 8.90294 12.6263 9.12516 12.6263C9.34738 12.6263 9.54183 12.543 9.7085 12.3763L13.2502 8.83464C13.4168 8.66797 13.5002 8.47005 13.5002 8.24089C13.5002 8.01172 13.4168 7.8138 13.2502 7.64714C13.0835 7.48047 12.8856 7.39714 12.6564 7.39714C12.4272 7.39714 12.2293 7.48047 12.0627 7.64714L9.12516 10.5846ZM10.0002 18.2513C9.90294 18.2513 9.81266 18.2444 9.72933 18.2305C9.646 18.2166 9.56266 18.1957 9.47933 18.168C7.60433 17.543 6.11127 16.3867 5.00016 14.6992C3.88905 13.0117 3.3335 11.1957 3.3335 9.2513V5.3138C3.3335 4.96658 3.43419 4.65408 3.63558 4.3763C3.83697 4.09852 4.09738 3.89714 4.41683 3.77214L9.41683 1.89714C9.61127 1.82769 9.80572 1.79297 10.0002 1.79297C10.1946 1.79297 10.3891 1.82769 10.5835 1.89714L15.5835 3.77214C15.9029 3.89714 16.1634 4.09852 16.3647 4.3763C16.5661 4.65408 16.6668 4.96658 16.6668 5.3138V9.2513C16.6668 11.1957 16.1113 13.0117 15.0002 14.6992C13.8891 16.3867 12.396 17.543 10.521 18.168C10.4377 18.1957 10.3543 18.2166 10.271 18.2305C10.1877 18.2444 10.0974 18.2513 10.0002 18.2513Z" fill="currentColor"/>
</svg>
