<svg xmlns="http://www.w3.org/2000/svg" width="18" height="22" viewBox="0 0 18 22" fill="none">
<path d="M7.36621 0.600819C8.40573 0.135665 9.59427 0.135665 10.6338 0.600819L15.5713 2.81078C17.0107 3.45499 17.9375 4.88515 17.9375 6.46215V9.86937C17.9375 15.0734 14.5848 19.9612 9.94238 21.5891C9.33271 21.8029 8.66729 21.8029 8.05762 21.5891C3.41525 19.9612 0.0625 15.0734 0.0625 9.86937V6.46215C0.0625 4.88515 0.989299 3.45499 2.42871 2.81078L7.36621 0.600819ZM8.99902 12.8694C8.45067 12.8694 8.00601 13.3172 8.00586 13.8694C8.00586 14.4217 8.45057 14.8694 8.99902 14.8694C9.54742 14.8693 9.99219 14.4216 9.99219 13.8694C9.99204 13.3173 9.54733 12.8694 8.99902 12.8694ZM8.99902 5.86937C8.45067 5.86937 8.00601 6.31722 8.00586 6.86937V10.8694C8.00586 11.4217 8.45057 11.8694 8.99902 11.8694C9.54742 11.8693 9.99219 11.4216 9.99219 10.8694V6.86937C9.99204 6.31725 9.54733 5.86943 8.99902 5.86937Z" fill="currentColor"/>
</svg>