<svg xmlns="http://www.w3.org/2000/svg" width="20" height="20" fill="none" viewBox="0 0 20 20"><path fill="currentColor" d="M13.9077 7.91195C14.2152 7.60248 14.2152 7.10072 13.9077 6.79125C13.6003 6.48178 13.1018 6.48178 12.7943 6.79125L8.98606 10.6243L7.39399 9.10244C7.07871 8.80104 6.58037 8.81397 6.28093 9.13132C5.98149 9.44866 5.99434 9.95025 6.30963 10.2516L8.45804 12.3054C8.7676 12.6013 9.25507 12.595 9.55695 12.2911L13.9077 7.91195Z"/><path fill="currentColor" fill-rule="evenodd" d="M16.875 5.23103V11.4339C16.875 14.4165 15.2387 15.5883 10.5739 18.1612C10.3623 18.2759 10.1425 18.3333 9.99593 18.3333C9.85753 18.3333 9.63773 18.2759 9.42607 18.1612C4.74504 15.5965 3.125 14.4165 3.125 11.4339V5.23103C3.125 4.26413 3.49948 3.91999 4.30543 3.57584C5.20907 3.19072 8.26192 2.1091 9.14927 1.81412C9.41792 1.72398 9.72728 1.66663 9.99593 1.66663C10.2727 1.66663 10.5821 1.74037 10.8426 1.81412C11.7299 2.05994 14.7909 3.19891 15.6946 3.57584C16.5005 3.91179 16.875 4.26413 16.875 5.23103ZM9.85753 16.588C9.76798 16.5634 9.67029 16.5142 9.5319 16.4241L9.21249 16.2307C5.78213 14.1551 4.64735 13.4684 4.64735 11.1225V5.49324C4.64735 5.20645 4.71248 5.08354 4.93228 5.0016L5.43255 4.82177C6.71517 4.36096 8.61626 3.67796 9.5726 3.29724C9.71914 3.24331 10.0952 3.1678 10.4274 3.29724C11.3837 3.67796 13.2848 4.36096 14.5675 4.82177L15.0677 5.0016C15.2875 5.08354 15.3526 5.20645 15.3526 5.49324V11.1225C15.3526 13.4684 14.2179 14.1551 10.7875 16.2307L10.4681 16.4241C10.3297 16.5142 10.232 16.5634 10.1425 16.588C10.0342 16.6302 9.90742 16.6056 9.85753 16.588Z" clip-rule="evenodd"/></svg>