<svg width="20" height="20" viewBox="0 0 20 20" fill="none" xmlns="http://www.w3.org/2000/svg">
<path d="M16.875 5.23103V11.4339C16.875 14.4165 15.2387 15.5883 10.5739 18.1612C10.3623 18.2759 10.1425 18.3333 9.99593 18.3333C9.85753 18.3333 9.63773 18.2759 9.42607 18.1612C4.74504 15.5965 3.125 14.4165 3.125 11.4339V5.23103C3.125 4.26413 3.49948 3.91999 4.30543 3.57584C5.20907 3.19072 8.26192 2.1091 9.14927 1.81412C9.41792 1.72398 9.72728 1.66663 9.99593 1.66663C10.2727 1.66663 10.5821 1.74037 10.8426 1.81412C11.7299 2.05994 14.7909 3.19891 15.6946 3.57584C16.5005 3.91179 16.875 4.26413 16.875 5.23103Z" fill="currentColor"/>
</svg>
