<svg xmlns="http://www.w3.org/2000/svg" width="18" height="20" viewBox="0 0 18 20" fill="none">
<path d="M8.99512 0C9.32713 8.97384e-06 9.69822 0.0882996 10.0107 0.176758C11.0755 0.471711 14.7482 1.83857 15.833 2.29102C16.8001 2.69416 17.25 3.11708 17.25 4.27734V11.7207C17.25 15.2998 15.2861 16.7055 9.68848 19.793C9.43451 19.9306 9.17096 20 8.99512 20C8.82905 20 8.5655 19.9306 8.31152 19.793C2.69434 16.7153 0.750009 15.2998 0.75 11.7207V4.27734C0.75 3.11708 1.19986 2.70399 2.16699 2.29102C3.25188 1.82872 6.9148 0.530693 7.97949 0.176758C8.30177 0.068681 8.67288 0 8.99512 0ZM14.4355 6.31152C14.0166 5.89646 13.3378 5.89642 12.9189 6.31152L7.73047 11.4531L5.56152 9.41113C5.13197 9.00693 4.45287 9.02457 4.04492 9.4502C3.63696 9.87587 3.65443 10.5488 4.08398 10.9531L7.01074 13.708C7.43246 14.1049 8.09652 14.0959 8.50781 13.6885L14.4355 7.81445C14.8544 7.39934 14.8544 6.72664 14.4355 6.31152Z" fill="currentColor"/>
</svg>
