<svg width="24" height="24" viewBox="0 0 24 24" fill="none" xmlns="http://www.w3.org/2000/svg">
<path d="M18.6 8.5H15.4C15.1791 8.5 15 8.33211 15 8.125V7.375C15 7.16789 15.1791 7 15.4 7H18.6C18.8209 7 19 7.16789 19 7.375V8.125C19 8.33211 18.8209 8.5 18.6 8.5Z" fill="currentColor"/>
<path d="M18.6 11.5H15.4C15.1791 11.5 15 11.3321 15 11.125V10.375C15 10.1679 15.1791 10 15.4 10H18.6C18.8209 10 19 10.1679 19 10.375V11.125C19 11.3321 18.8209 11.5 18.6 11.5Z" fill="currentColor"/>
<path d="M15.4167 14.5H17.0833C17.3135 14.5 17.5 14.3321 17.5 14.125V13.375C17.5 13.1679 17.3135 13 17.0833 13H15.4167C15.1865 13 15 13.1679 15 13.375V14.125C15 14.3321 15.1865 14.5 15.4167 14.5Z" fill="currentColor"/>
<path fill-rule="evenodd" clip-rule="evenodd" d="M5 3C3.34315 3 2 4.34315 2 6V18C2 19.6569 3.34315 21 5 21H19C20.6569 21 22 19.6569 22 18V6C22 4.34315 20.6569 3 19 3H5ZM12 5H5C4.44772 5 4 5.44772 4 6V18C4 18.5523 4.44772 19 5 19H12V5ZM14 5V19H19C19.5523 19 20 18.5523 20 18V6C20 5.44771 19.5523 5 19 5H14Z" fill="currentColor"/>
</svg>
