<svg xmlns="http://www.w3.org/2000/svg" width="36" height="36" viewBox="0 0 36 36" fill="none">
<path d="M19.6868 20.6758C21.0118 19.6878 22.0463 18.6038 22.7905 17.4237C23.5346 16.2436 23.9067 15.068 23.9067 13.8971C23.9067 13.3116 23.8114 12.8816 23.6208 12.6072C23.4302 12.3328 23.1716 12.1955 22.8449 12.1955C21.9919 12.1955 21.2386 12.9228 20.5852 14.3774C19.9318 15.8319 19.6051 17.474 19.6051 19.3036C19.6051 19.5597 19.6097 19.8022 19.6187 20.0309C19.6278 20.2596 19.6505 20.4746 19.6868 20.6758ZM8.82407 25.6981C8.62442 25.8994 8.37032 26 8.06177 26C7.75322 26 7.49912 25.8994 7.29947 25.6981C7.09982 25.4969 7 25.2407 7 24.9297C7 24.6186 7.09982 24.3625 7.29947 24.1612L8.27957 23.1732L7.29947 22.1852C7.09982 21.984 7 21.7278 7 21.4168C7 21.1058 7.09982 20.8496 7.29947 20.6484C7.49912 20.4471 7.75322 20.3465 8.06177 20.3465C8.37032 20.3465 8.62442 20.4471 8.82407 20.6484L9.80417 21.6364L10.7843 20.6484C10.9839 20.4471 11.238 20.3465 11.5466 20.3465C11.8551 20.3465 12.1092 20.4471 12.3089 20.6484C12.5085 20.8496 12.6083 21.1058 12.6083 21.4168C12.6083 21.7278 12.5085 21.984 12.3089 22.1852L11.3288 23.1732L12.3089 24.1612C12.5085 24.3625 12.6083 24.6186 12.6083 24.9297C12.6083 25.2407 12.5085 25.4969 12.3089 25.6981C12.1092 25.8994 11.8551 26 11.5466 26C11.238 26 10.9839 25.8994 10.7843 25.6981L9.80417 24.7101L8.82407 25.6981ZM21.1842 25.3688C20.6397 25.3688 20.1406 25.2636 19.6868 25.0532C19.2331 24.8428 18.8428 24.4997 18.5161 24.024C18.2257 24.1704 17.9263 24.3168 17.6177 24.4631L16.6921 24.9022C16.4017 25.0303 16.1158 25.0349 15.8345 24.916C15.5532 24.797 15.358 24.5912 15.2491 24.2985C15.1402 24.0057 15.1539 23.7221 15.29 23.4477C15.4261 23.1732 15.6394 22.972 15.9298 22.8439C16.2383 22.6975 16.5378 22.5557 16.8282 22.4185C17.1186 22.2813 17.3999 22.1395 17.6722 21.9931C17.5814 21.5906 17.5134 21.1515 17.468 20.6758C17.4226 20.2001 17.3999 19.6878 17.3999 19.1389C17.3999 16.5043 17.9172 14.3225 18.9517 12.5935C19.9863 10.8645 21.284 10 22.8449 10C23.7887 10 24.5601 10.3522 25.159 11.0566C25.758 11.761 26.0574 12.7444 26.0574 14.0069C26.0574 15.5803 25.5629 17.1355 24.5737 18.6724C23.5845 20.2093 22.2097 21.5906 20.4491 22.8165C20.5762 22.9445 20.7077 23.0406 20.8439 23.1046C20.98 23.1687 21.1207 23.2007 21.2659 23.2007C21.647 23.2007 22.0917 22.9903 22.5999 22.5695C23.1081 22.1487 23.5981 21.5815 24.07 20.8679C24.2515 20.6118 24.4829 20.4334 24.7643 20.3328C25.0456 20.2321 25.3224 20.2459 25.5946 20.3739C25.8669 20.5203 26.0665 20.7353 26.1936 21.0189C26.3206 21.3025 26.3569 21.5998 26.3025 21.9108C26.2662 22.1304 26.248 22.3408 26.248 22.542C26.248 22.7433 26.2752 22.9354 26.3297 23.1184C26.4204 23.0818 26.5248 23.0223 26.6428 22.94C26.7608 22.8576 26.8833 22.7524 27.0103 22.6244C27.2281 22.4231 27.4867 22.3087 27.7862 22.2813C28.0857 22.2539 28.3534 22.3316 28.5894 22.5146C28.8435 22.7158 28.9796 22.9628 28.9977 23.2556C29.0159 23.5483 28.9251 23.7953 28.7255 23.9966C28.308 24.4174 27.8679 24.7513 27.4051 24.9983C26.9423 25.2453 26.5021 25.3688 26.0847 25.3688C25.7035 25.3688 25.3632 25.2544 25.0637 25.0257C24.7643 24.797 24.5147 24.4448 24.315 23.9691C23.8068 24.4265 23.2896 24.7742 22.7632 25.012C22.2369 25.2499 21.7105 25.3688 21.1842 25.3688Z" fill="currentColor"/>
</svg>