<svg width="24" height="24" viewBox="0 0 24 24" fill="none" xmlns="http://www.w3.org/2000/svg">
<path d="M5.87664 8.13348C5.68389 8.48263 5.85258 8.9107 6.21769 9.0712C6.5828 9.2317 7.00552 9.06328 7.20518 8.71802C7.83354 7.63147 8.76366 6.74337 9.8896 6.16618C11.2307 5.47869 12.7677 5.27425 14.2418 5.58726C15.716 5.90027 17.0373 6.71163 17.9833 7.88473C18.9294 9.05784 19.4423 10.5211 19.4359 12.0281C19.4294 13.5351 18.9039 14.9939 17.9479 16.1588C16.9919 17.3238 15.6637 18.1238 14.1869 18.4242C12.7101 18.7245 11.1749 18.5069 9.83974 17.808C8.71878 17.2212 7.7963 16.3251 7.17727 15.2332C6.98058 14.8863 6.55932 14.7143 6.19285 14.8716C5.82638 15.029 5.65402 15.4556 5.84378 15.8064C6.59865 17.2019 7.75464 18.3467 9.16989 19.0875C10.7992 19.9405 12.6726 20.206 14.4747 19.8395C16.2769 19.4729 17.8977 18.4967 19.0644 17.0751C20.231 15.6534 20.8723 13.8733 20.8801 12.0343C20.888 10.1952 20.262 8.40965 19.1076 6.9781C17.9532 5.54655 16.3408 4.55644 14.5418 4.17447C12.7429 3.7925 10.8673 4.04199 9.23074 4.88093C7.8092 5.60966 6.64345 6.74449 5.87664 8.13348Z" fill="currentColor"/>
<path d="M12.1973 7.26785C11.9252 6.99321 11.482 6.99112 11.2073 7.26321C10.9327 7.53529 10.9306 7.9785 11.2027 8.25314L14.2612 11.3405H4.2C3.8134 11.3405 3.5 11.6539 3.5 12.0405C3.5 12.4271 3.8134 12.7405 4.2 12.7405H14.2386L11.2074 15.7432C10.9327 16.0152 10.9306 16.4584 11.2027 16.7331C11.4747 17.0078 11.918 17.0099 12.1926 16.7378L16.3758 12.5941C16.6818 12.2909 16.6842 11.7971 16.381 11.491L12.1973 7.26785Z" fill="currentColor"/>
</svg>
