<svg xmlns="http://www.w3.org/2000/svg" width="28" height="22" viewBox="0 0 28 22" fill="none">
<g clip-path="url(#clip0_4299_12464)">
<path d="M4.54762 16.6964C4.71659 16.5279 4.94893 16.4297 5.19534 16.4297H27.5418C27.9502 16.4297 28.1544 16.9209 27.8657 17.2087L23.4513 21.6089C23.2823 21.7774 23.05 21.8756 22.8036 21.8756H0.457098C0.0487495 21.8756 -0.155424 21.3844 0.133235 21.0966L4.54762 16.6964Z" fill="currentColor"/>
<path d="M4.54762 0.266683C4.72363 0.0982515 4.95597 0 5.19534 0H27.5418C27.9502 0 28.1544 0.491258 27.8657 0.778994L23.4513 5.17926C23.2823 5.34769 23.05 5.44594 22.8036 5.44594H0.457098C0.0487495 5.44594 -0.155424 4.95468 0.133235 4.66695L4.54762 0.266683Z" fill="currentColor"/>
<path d="M23.4513 8.42879C23.2823 8.26036 23.05 8.16211 22.8036 8.16211H0.457098C0.0487495 8.16211 -0.155424 8.65337 0.133235 8.9411L4.54762 13.3414C4.71659 13.5098 4.94893 13.608 5.19534 13.608H27.5418C27.9502 13.608 28.1544 13.1168 27.8657 12.8291L23.4513 8.42879Z" fill="currentColor"/>
</g>
<defs>
<clipPath id="clip0_4299_12464">
<rect width="28" height="21.875" fill="white"/>
</clipPath>
</defs>
</svg>