
<svg width="110" height="61" viewBox="0 0 110 61" fill="none" xmlns="http://www.w3.org/2000/svg">
<circle cx="16.75" cy="30.5" r="11" fill="white"/>
<path fill-rule="evenodd" clip-rule="evenodd" d="M33.0844 30.5C33.0844 39.3366 25.8269 46.5 16.8742 46.5C7.9216 46.5 0.664062 39.3366 0.664062 30.5C0.664062 21.6634 7.9216 14.5 16.8742 14.5C25.8269 14.5 33.0844 21.6634 33.0844 30.5ZM20.5507 25.1782L17.9821 21.4768C17.4488 20.7083 16.3003 20.7083 15.767 21.4768L13.1984 25.1782C13.0238 25.4298 12.7667 25.6142 12.4705 25.7004L8.11226 26.9692C7.20735 27.2327 6.85246 28.3113 7.42776 29.0498L10.1985 32.6061C10.3868 32.8478 10.485 33.1463 10.4765 33.4512L10.3516 37.9367C10.3257 38.868 11.2548 39.5347 12.1437 39.2225L16.4247 37.7191C16.7157 37.6169 17.0334 37.6169 17.3244 37.7191L21.6054 39.2225C22.4943 39.5347 23.4234 38.868 23.3975 37.9367L23.2726 33.4512C23.2641 33.1463 23.3623 32.8478 23.5506 32.6061L26.3213 29.0498C26.8966 28.3113 26.5417 27.2327 25.6368 26.9692L21.2786 25.7004C20.9824 25.6142 20.7253 25.4298 20.5507 25.1782ZM86.1164 24.1414V24.792C86.1164 27.9946 87.8678 30.163 90.7702 30.163C93.7726 30.163 95.524 27.8611 95.524 24.792V24.1414C95.524 20.9222 93.7893 18.7871 90.8536 18.7871C87.9179 18.7871 86.1164 20.9555 86.1164 24.1414ZM97.0586 29.8961L88.8686 40.438C88.5684 40.8383 88.435 41.2553 88.4683 41.6223C88.485 42.1227 88.902 42.5564 89.369 42.6564C89.8861 42.89 90.5367 42.8566 91.0537 42.1727L99.2604 31.464L106.983 21.4893C107.267 21.1223 107.417 20.7554 107.4 20.3884C107.384 19.838 107 19.3876 106.466 19.2708C105.932 19.0206 105.299 19.0874 104.798 19.7712L97.0586 29.8961ZM89.269 24.7086V24.2248C89.269 22.34 89.8695 21.3892 90.8202 21.3892C91.7543 21.3892 92.3548 22.34 92.3548 24.2248V24.7086C92.3548 26.5934 91.7543 27.5609 90.8202 27.5609C89.8695 27.5609 89.269 26.5934 89.269 24.7086ZM100.428 36.4681V37.1186C100.428 40.3212 102.179 42.5063 105.098 42.5063C108.084 42.5063 109.836 40.1878 109.836 37.1186V36.4681C109.836 33.2488 108.118 31.1138 105.182 31.1138C102.246 31.1138 100.428 33.2822 100.428 36.4681ZM103.581 37.0352V36.5515C103.581 34.6666 104.181 33.7159 105.132 33.7159C106.083 33.7159 106.683 34.6833 106.683 36.5515V37.0352C106.683 38.9201 106.066 39.9042 105.132 39.9042C104.198 39.9042 103.581 38.9201 103.581 37.0352ZM43.7188 30.3298V31.3973C43.7188 38.2696 46.938 42.7065 52.3424 42.7065C57.7468 42.7065 61.0494 38.2195 61.0494 31.3973V30.3298C61.0494 23.4409 57.8469 19.0206 52.4091 19.0206C46.9881 19.0206 43.7188 23.4909 43.7188 30.3298ZM48.2224 31.364V30.3465C48.2224 25.5426 49.7903 22.6903 52.3758 22.6903C54.9612 22.6903 56.5291 25.5593 56.5291 30.3465V31.364C56.5291 36.1679 54.9612 39.0368 52.3758 39.0368C49.7903 39.0368 48.2224 36.1679 48.2224 31.364ZM64.4789 37.4022C63.0611 37.4022 61.8935 38.5698 61.8935 39.9876C61.8935 41.4221 63.0611 42.5897 64.4789 42.5897C65.9134 42.5897 67.081 41.4221 67.081 39.9876C67.081 38.5698 65.9134 37.4022 64.4789 37.4022ZM79.0507 40.1377V38.0027H70.7273C69.0259 38.0027 67.9917 37.0853 67.9917 35.534C67.9917 34.8001 68.1919 34.1496 68.8091 32.8985C70.7106 29.2956 72.4954 26.2598 75.4645 21.8729C76.8656 19.838 77.9331 19.1374 79.6679 19.1374C81.9197 19.1374 83.2708 20.3384 83.2708 22.3233V34.333H84.3884C85.5893 34.333 86.3232 35.067 86.3232 36.2012C86.3232 37.3188 85.606 38.0027 84.3884 38.0027H83.2708V40.1377C83.2708 41.5555 82.4701 42.4229 81.1524 42.4229C79.8347 42.4229 79.0507 41.5555 79.0507 40.1377ZM72.1117 34.333H79.0507V23.0072H78.8172C76.8156 26.043 73.5796 31.5641 72.1117 34.2163V34.333Z" fill="url(#paint0_linear_16574_30392)"/>
<defs>
<linearGradient id="paint0_linear_16574_30392" x1="11.1167" y1="14.5" x2="58.9385" y2="84.2521" gradientUnits="userSpaceOnUse">
<stop stop-color="#20DBE7"/>
<stop offset="0.541667" stop-color="#4B7AEF"/>
<stop offset="1" stop-color="#BC29EF"/>
</linearGradient>
</defs>
</svg>
