<svg xmlns="http://www.w3.org/2000/svg" width="32" height="32" viewBox="0 0 32 32" fill="none">
<path fill-rule="evenodd" clip-rule="evenodd" d="M15.3793 5.4597C15.8638 4.32725 17.4692 4.32723 17.9537 5.4597L20.6251 11.7043L27.4602 12.2788C28.6979 12.3828 29.1972 13.9273 28.2547 14.7363L23.073 19.1835L24.6292 25.7925C24.9128 26.9966 23.6097 27.9498 22.548 27.315L16.6665 23.7981L10.785 27.315C9.7233 27.9498 8.42024 26.9966 8.70377 25.7925L10.26 19.1835L5.07829 14.7363C4.13577 13.9273 4.63512 12.3828 5.87282 12.2788L12.7079 11.7043L15.3793 5.4597ZM16.6665 8.2138L14.5869 13.0749C14.3832 13.5512 13.9331 13.876 13.417 13.9194L8.12508 14.3642L12.1362 17.8067C12.5331 18.1474 12.707 18.6809 12.5872 19.19L11.3795 24.3185L15.948 21.5868C16.3905 21.3222 16.9425 21.3222 17.385 21.5868L21.9535 24.3185L20.7458 19.19C20.626 18.6809 20.7999 18.1474 21.1968 17.8067L25.2079 14.3642L19.916 13.9194C19.3999 13.876 18.9498 13.5512 18.7461 13.0749L16.6665 8.2138Z" fill="currentColor"/>
</svg>