<svg xmlns="http://www.w3.org/2000/svg" width="24" height="24" fill="none" viewBox="0 0 24 24"><path fill="currentColor" d="M12 6V7.79C12 8.24 11.46 8.46 11.15 8.14L8.36 5.35C8.16 5.15 8.16 4.84 8.36 4.64L11.15 1.85C11.46 1.54 12 1.76 12 2.21V4C16.42 4 20 7.58 20 12C20 13.04 19.8 14.04 19.43 14.95C19.16 15.62 18.3 15.8 17.79 15.29C17.52 15.02 17.41 14.61 17.56 14.25C17.85 13.56 18 12.79 18 12C18 8.69 15.31 6 12 6ZM6.21 8.71C6.48 8.98 6.59 9.4 6.44 9.75C6.16 10.45 6 11.21 6 12C6 15.31 8.69 18 12 18V16.21C12 15.76 12.54 15.54 12.85 15.86L15.64 18.65C15.84 18.85 15.84 19.16 15.64 19.36L12.85 22.15C12.54 22.46 12 22.24 12 21.8V20C7.58 20 4 16.42 4 12C4 10.96 4.2 9.96 4.57 9.05C4.84 8.38 5.7 8.2 6.21 8.71Z"/></svg>