<svg width="44" height="44" viewBox="0 0 44 44" fill="none" xmlns="http://www.w3.org/2000/svg">
<rect x="0.75" y="0.75" width="42.5" height="42.5" rx="21.25" fill="#F5F5F7"/>
<rect x="6" y="6" width="32" height="32" rx="16" fill="#2962EF"/>
<path fill-rule="evenodd" clip-rule="evenodd" d="M24.0183 21.6277C21.2797 20.1478 17.9476 18.2287 15.4398 16.6645C14.6998 16.1314 15.0754 15 15.9697 15H28.3784C29.0706 15 29.5337 15.7718 29.1868 16.3558C28.353 17.7959 27.1356 19.6242 26.1188 21.0739C25.573 21.852 24.6835 21.9857 24.0183 21.6277ZM20.0242 22.1082C22.6721 23.5197 26.383 25.6663 29.0197 27.2894C29.8344 27.7922 29.5098 28.9984 28.5582 28.9984C27.0011 28.9984 24.4708 28.9988 21.9537 28.9992C19.4625 28.9996 16.9842 29 15.4748 29C14.7142 29 14.3243 28.2107 14.6473 27.6601C15.7389 25.7999 16.9658 23.9222 17.9858 22.5203C18.4393 21.895 19.3623 21.7549 20.0242 22.1082Z" fill="white"/>
<rect x="0.75" y="0.75" width="42.5" height="42.5" rx="21.25" stroke="white" stroke-width="1.5"/>
</svg>
