<svg width="44" height="44" viewBox="0 0 44 44" fill="none" xmlns="http://www.w3.org/2000/svg">
<rect x="0.75" y="0.75" width="42.5" height="42.5" rx="21.25" fill="#29292C"/>
<rect x="6" y="6" width="32" height="32" rx="16" fill="#296DF5"/>
<g clip-path="url(#clip0_3354_22097)">
<g clip-path="url(#clip1_3354_22097)">
<rect x="8" y="8" width="28" height="28" rx="5.33333" fill="#2962EF"/>
<path d="M14.0823 15C13.6024 15 13.4175 15.5933 13.8202 15.8412L23.8929 21.9147C24.144 22.0693 24.4789 22.0082 24.6517 21.7763L29.0805 15.9622C29.3815 15.5583 29.0773 15 28.5561 15H14.0823Z" fill="white"/>
<path d="M29.9137 29C30.3935 29 30.5832 28.4035 30.1806 28.1557L20.105 22.0829C19.8539 21.9283 19.5272 21.9972 19.3543 22.229L14.917 28.042C14.616 28.4458 14.9297 29 15.4508 29H29.9137Z" fill="white"/>
</g>
</g>
<rect x="0.75" y="0.75" width="42.5" height="42.5" rx="21.25" stroke="#45464A" stroke-width="1.5"/>
<defs>
<clipPath id="clip0_3354_22097">
<rect x="8" y="8" width="28" height="28" rx="14" fill="white"/>
</clipPath>
<clipPath id="clip1_3354_22097">
<rect width="28" height="28" fill="white" transform="translate(8 8)"/>
</clipPath>
</defs>
</svg>
