<svg width="24" height="24" viewBox="0 0 24 24" fill="none" xmlns="http://www.w3.org/2000/svg">
<path d="M11.5679 15.9199L12.9895 14.4816C11.8931 14.3888 11.1034 14.0269 10.5366 13.4609C8.96632 11.8927 8.96632 9.675 10.5273 8.12538L13.6121 5.03544C15.1823 3.47654 17.3937 3.46726 18.964 5.03544C20.5436 6.61289 20.525 8.82132 18.9733 10.3802L17.3937 11.9484C17.6911 12.635 17.7933 13.4702 17.626 14.1939L20.2834 11.5494C22.5691 9.276 22.5784 6.0283 20.2741 3.72708C17.9605 1.41658 14.7271 1.43513 12.4413 3.7178L9.2079 6.94694C6.92218 9.2296 6.91289 12.468 9.21719 14.7692C9.7561 15.3167 10.4994 15.725 11.5679 15.9199ZM12.4321 8.07899L11.0105 9.51725C12.1069 9.61932 12.8966 9.97193 13.4634 10.538C15.043 12.1061 15.0337 14.3238 13.4727 15.8827L10.3879 18.9634C8.81765 20.5316 6.60627 20.5316 5.0453 18.9634C3.46574 17.386 3.47503 15.1868 5.036 13.6279L6.60627 12.0505C6.30894 11.3731 6.21603 10.538 6.37398 9.80491L3.71661 12.4587C1.43089 14.7321 1.4216 17.9705 3.7259 20.2718C6.03949 22.5823 9.27294 22.5637 11.5587 20.2903L14.7921 17.0519C17.0778 14.7692 17.0871 11.5308 14.7828 9.2296C14.2439 8.69141 13.5099 8.28313 12.4321 8.07899Z" fill="currentColor"/>
</svg>
