<svg xmlns="http://www.w3.org/2000/svg" width="41" height="40" viewBox="0 0 41 40" fill="none">
<path fill-rule="evenodd" clip-rule="evenodd" d="M20.9807 0.729708C20.986 1.13799 20.6605 1.47328 20.2537 1.4786C13.0837 1.57227 6.89442 5.75406 3.89687 11.8112C3.71589 12.1769 3.2738 12.3261 2.90943 12.1444C2.54506 11.9628 2.39639 11.5191 2.57737 11.1534C5.81147 4.6183 12.4915 0.10122 20.2346 6.39368e-05C20.6414 -0.00525062 20.9754 0.321422 20.9807 0.729708ZM23.1295 0.901982C23.1999 0.499817 23.5818 0.231056 23.9825 0.301688C33.3681 1.95609 40.5 10.177 40.5 20.0711C40.5 20.4795 40.1702 20.8105 39.7634 20.8105C39.3565 20.8105 39.0267 20.4795 39.0267 20.0711C39.0267 10.9073 32.4209 3.29041 23.7276 1.75806C23.3269 1.68742 23.0591 1.30415 23.1295 0.901982ZM14.1837 4.48717C16.134 3.69015 18.2669 3.25138 20.5 3.25138C28.5743 3.25138 35.3134 8.98151 36.9035 16.6105C36.9044 16.6146 36.9052 16.6187 36.906 16.6227C37.3415 18.5847 37.6592 20.5911 37.8515 22.6339C37.8898 23.0404 37.5925 23.4011 37.1874 23.4395C36.7824 23.4779 36.423 23.1795 36.3848 22.7729C36.1979 20.7876 35.8888 18.8382 35.4652 16.9323C35.4633 16.9233 35.4614 16.9143 35.4598 16.9054C34.0065 9.95149 27.86 4.73004 20.5 4.73004C18.4606 4.73004 16.5162 5.1305 14.7393 5.85665C14.3625 6.01064 13.9326 5.8289 13.7792 5.45072C13.6258 5.07255 13.8069 4.64115 14.1837 4.48717ZM11.8452 6.51619C12.0805 6.84929 12.0022 7.31076 11.6703 7.54691C7.76514 10.3254 4.09158 16.2304 5.56747 23.3586C5.57955 23.4169 5.58441 23.4751 5.58268 23.5322C5.7765 24.6293 5.87753 25.7581 5.87753 26.9099C5.87753 28.3599 5.71744 29.7732 5.41375 31.1328C5.32475 31.5312 4.93078 31.7818 4.53379 31.6924C4.13681 31.6031 3.88714 31.2077 3.97614 30.8093C4.25627 29.5552 4.40424 28.2504 4.40424 26.9099C4.40424 25.7676 4.29679 24.6512 4.09168 23.5701C4.0826 23.5222 4.07833 23.4746 4.07855 23.4276C2.58678 15.7171 6.57728 9.35807 10.8182 6.34063C11.1501 6.10448 11.6099 6.18308 11.8452 6.51619ZM6.98254 20.0381C7.00029 12.5606 13.0455 6.50443 20.5 6.50443C21.7226 6.50443 22.9084 6.66752 24.0364 6.97363C24.4292 7.0802 24.6615 7.48613 24.5553 7.8803C24.4491 8.27446 24.0447 8.50761 23.6519 8.40103C22.6481 8.12864 21.5916 7.98309 20.5 7.98309C13.8482 7.98309 8.4558 13.3951 8.4558 20.0711V20.1202L8.4515 20.1526C8.45105 20.1609 8.45033 20.1776 8.44998 20.2043C8.44912 20.2708 8.45065 20.3947 8.46351 20.597C8.48918 21.0007 8.55915 21.7031 8.73932 22.8625C8.98826 24.0994 9.11878 25.3789 9.11878 26.6881C9.11878 29.2608 8.61481 31.7173 7.69985 33.962C7.5458 34.3399 7.11567 34.5209 6.73913 34.3663C6.36258 34.2117 6.1822 33.78 6.33624 33.4021C7.18002 31.332 7.64549 29.0656 7.64549 26.6881C7.64549 25.4625 7.52179 24.2667 7.28647 23.1122C7.281 23.0854 7.27705 23.0586 7.27457 23.0319C7.0964 21.877 7.02207 21.145 6.99321 20.6912C6.97845 20.4591 6.97537 20.2966 6.97681 20.1851C6.97753 20.1292 6.97941 20.0853 6.98164 20.0511C6.98194 20.0466 6.98224 20.0423 6.98254 20.0381ZM26.396 8.66324C26.6042 8.31239 27.0563 8.19731 27.4059 8.4062C30.5425 10.2805 32.8601 13.3938 33.687 17.0767C33.6936 17.0973 33.6994 17.1184 33.7042 17.1399C34.4396 20.3772 34.8278 23.7464 34.8278 27.2057C34.8278 29.6776 34.6296 32.1037 34.2481 34.4685C34.183 34.8716 33.8048 35.1454 33.4031 35.0802C33.0015 35.0149 32.7287 34.6352 32.7937 34.2322C33.1627 31.9452 33.3545 29.5982 33.3545 27.2057C33.3545 23.8787 32.9835 20.6397 32.2812 17.5276C32.2736 17.5044 32.2672 17.4807 32.2619 17.4565C31.5367 14.1549 29.465 11.3575 26.6521 9.67672C26.3026 9.46783 26.1879 9.01408 26.396 8.66324ZM10.1501 20.1081C10.1501 14.3508 14.8004 9.68355 20.5368 9.68355C23.7987 9.68355 26.7097 11.1934 28.6127 13.552C28.8687 13.8693 28.82 14.3349 28.5038 14.5918C28.1876 14.8488 27.7238 14.7999 27.4677 14.4825C25.8324 12.4558 23.3354 11.1622 20.5368 11.1622C15.6194 11.1622 11.6321 15.1587 11.6234 20.0919L11.6235 20.0941C11.624 20.1052 11.6248 20.1216 11.6259 20.1429L11.6262 20.1484C11.6286 20.1963 11.6325 20.2668 11.638 20.3548C11.6492 20.5312 11.667 20.777 11.6936 21.0535C11.7403 21.5375 11.8108 22.0788 11.9099 22.506C11.9354 22.5627 11.9542 22.6235 11.965 22.6876C12.1764 23.9407 12.2864 25.2279 12.2864 26.5403C12.2864 27.2531 12.2539 27.9586 12.1904 28.6552C12.1533 29.0618 11.7948 29.3613 11.3897 29.3241C10.9845 29.2869 10.6861 28.9271 10.7232 28.5204C10.7827 27.8686 10.8131 27.2081 10.8131 26.5403C10.8131 25.3649 10.7189 24.2122 10.5379 23.0891C10.3764 22.5072 10.282 21.7647 10.2272 21.1959C10.1986 20.8994 10.1796 20.6369 10.1677 20.4482C10.1617 20.3538 10.1575 20.2775 10.1548 20.2243C10.1534 20.1978 10.1524 20.1769 10.1518 20.1625L10.151 20.1457L10.1507 20.1392L10.1507 20.139C10.1507 20.1389 10.1507 20.1389 10.8867 20.1081L10.1507 20.1389L10.1501 20.1235V20.1081ZM18.0879 13.2795C18.8427 13.0094 19.6551 12.8627 20.5 12.8627C24.0642 12.8627 27.0208 15.4676 27.5853 18.8841C27.5857 18.8859 27.586 18.8877 27.5864 18.8895C28.0841 21.3378 28.3453 23.8718 28.3453 26.4663C28.3453 30.8332 27.6054 35.0281 26.2438 38.9308C26.1094 39.3162 25.6891 39.5192 25.3051 39.3843C24.9211 39.2494 24.7189 38.8276 24.8533 38.4422C26.1608 34.6944 26.872 30.6645 26.872 26.4663C26.872 23.9717 26.6209 21.5366 26.1428 19.1851C26.1415 19.1782 26.1402 19.1714 26.139 19.1646C26.1366 19.1535 26.1345 19.1422 26.1326 19.1309C25.6862 16.4139 23.3335 14.3413 20.5 14.3413C19.826 14.3413 19.1809 14.4582 18.5826 14.6723C18.1993 14.8094 17.7779 14.6088 17.6413 14.2241C17.5047 13.8395 17.7046 13.4166 18.0879 13.2795ZM2.18089 14.0297C2.57202 14.142 2.79834 14.5514 2.68639 14.9439C2.22215 16.5717 1.9733 18.2916 1.9733 20.0711C1.9733 22.2295 2.33941 24.3005 3.01209 26.2259C3.14671 26.6112 2.94462 27.0331 2.56069 27.1682C2.17677 27.3033 1.75641 27.1005 1.62179 26.7151C0.894925 24.6347 0.5 22.3984 0.5 20.0711C0.5 18.1526 0.768378 16.2958 1.26997 14.537C1.38192 14.1445 1.78975 13.9173 2.18089 14.0297ZM16.0655 15.3188C16.3754 15.5833 16.4129 16.0499 16.1493 16.361C15.3049 17.3572 14.7948 18.6455 14.791 20.0552L14.7911 20.0572C14.7916 20.0692 14.7925 20.0876 14.7938 20.1117C14.7964 20.1599 14.8005 20.231 14.8065 20.3199C14.8187 20.4981 14.8385 20.7462 14.8693 21.0245C14.9329 21.5989 15.0366 22.2376 15.19 22.6689C15.2269 22.7724 15.2393 22.8787 15.2304 22.9814C15.426 24.1884 15.5276 25.4266 15.5276 26.6881C15.5276 30.6306 14.5402 34.4659 12.8685 37.7452C12.6832 38.1087 12.2394 38.2526 11.8772 38.0666C11.515 37.8806 11.3716 37.4352 11.5569 37.0717C13.1265 33.9927 14.0543 30.3874 14.0543 26.6881C14.0543 25.4372 13.9477 24.2118 13.7431 23.0205C13.7397 23.0008 13.7372 22.9812 13.7354 22.9616C13.5626 22.3928 13.4632 21.7133 13.4051 21.1878C13.3714 20.884 13.3498 20.6145 13.3367 20.4207C13.3301 20.3237 13.3255 20.2451 13.3226 20.1903C13.3211 20.1628 13.3201 20.1413 13.3194 20.1262C13.319 20.1187 13.3188 20.1128 13.3186 20.1086L13.3184 20.1037L13.3183 20.1014C13.3183 20.1014 13.3183 20.1013 14.0543 20.0711L13.3183 20.1013L13.3177 20.0862V20.0711C13.3177 18.2912 13.9614 16.6603 15.0271 15.4029C15.2907 15.0919 15.7556 15.0542 16.0655 15.3188ZM16.7063 20.0342C16.7063 17.9109 18.4213 16.1896 20.5368 16.1896C22.3899 16.1896 23.9342 17.5096 24.2902 19.2633C24.2986 19.3045 24.3034 19.3456 24.3048 19.3862C24.8282 21.7617 25.104 24.23 25.104 26.7621C25.104 27.1704 24.7742 27.5014 24.3674 27.5014C23.9606 27.5014 23.6308 27.1704 23.6308 26.7621C23.6308 24.2875 23.3556 21.8784 22.8346 19.5635C22.8246 19.5192 22.8189 19.4749 22.817 19.431C22.5516 18.4165 21.6305 17.6683 20.5368 17.6683C19.2353 17.6683 18.1801 18.727 18.1796 20.0332C18.1796 20.0333 18.1796 20.0334 18.1796 20.0335V20.034C18.1796 20.034 18.1796 20.0341 18.1796 20.0342L18.1796 20.0351C18.1796 20.0376 18.1796 20.0422 18.1797 20.0489C18.18 20.0623 18.1804 20.0838 18.1814 20.1127C18.1834 20.1704 18.1875 20.2569 18.1958 20.3656C18.2125 20.584 18.2461 20.8862 18.3126 21.22C18.3212 21.2633 18.3259 21.3065 18.3268 21.3492C18.5694 22.8964 18.6952 24.482 18.6952 26.0967C18.6952 30.6472 17.6956 34.9655 15.9041 38.8407C15.7329 39.2111 15.2949 39.372 14.9258 39.2002C14.5568 39.0283 14.3964 38.5887 14.5677 38.2183C16.2709 34.5342 17.2219 30.4279 17.2219 26.0967C17.2219 24.5204 17.096 22.9742 16.8537 21.4675C16.8498 21.4428 16.8471 21.4181 16.8456 21.3936C16.7795 21.0351 16.745 20.7159 16.7268 20.479C16.7168 20.3474 16.7116 20.2399 16.709 20.1636C16.7077 20.1254 16.707 20.095 16.7066 20.0731C16.7065 20.0668 16.7065 20.0612 16.7064 20.0563C16.7064 20.0528 16.7063 20.0496 16.7063 20.0469L16.7063 20.0388L16.7063 20.036L16.7063 20.035L16.7063 20.0346V20.0344C16.7063 20.0343 16.7063 20.0342 17.4429 20.0342H16.7063ZM29.5998 16.6043C29.9944 16.5051 30.3945 16.7459 30.4933 17.142C31.2556 20.1984 31.6602 23.3963 31.6602 26.6881C31.6602 30.3262 31.166 33.8497 30.2409 37.194C30.132 37.5874 29.726 37.8178 29.334 37.7086C28.942 37.5993 28.7124 37.1919 28.8213 36.7984C29.7111 33.5817 30.1869 30.1913 30.1869 26.6881C30.1869 23.5184 29.7974 20.441 29.0641 17.5011C28.9653 17.105 29.2051 16.7035 29.5998 16.6043ZM20.4127 19.3802C20.8124 19.3044 21.1977 19.5682 21.2732 19.9694C21.6604 22.0269 21.8628 24.1493 21.8628 26.3185C21.8628 28.9218 21.5712 31.4578 21.0187 33.8948C20.9285 34.2929 20.5337 34.5423 20.137 34.4517C19.7403 34.3611 19.4919 33.9649 19.5821 33.5667C20.1104 31.2366 20.3895 28.8107 20.3895 26.3185C20.3895 24.2418 20.1957 22.2113 19.8255 20.2438C19.75 19.8426 20.0129 19.4559 20.4127 19.3802ZM37.3082 25.5681C37.7149 25.56 38.0512 25.8844 38.0593 26.2926C38.0658 26.6208 38.0691 26.9498 38.0691 27.2796C38.0691 27.9992 38.0535 28.7151 38.0228 29.4272C38.0052 29.8351 37.6614 30.1515 37.255 30.1338C36.8485 30.1162 36.5333 29.7711 36.5509 29.3632C36.5807 28.6724 36.5958 27.9778 36.5958 27.2796C36.5958 26.9596 36.5926 26.6404 36.5863 26.322C36.5782 25.9137 36.9014 25.5762 37.3082 25.5681ZM24.2449 29.7364C24.6493 29.7814 24.9407 30.1469 24.8959 30.5527C24.5484 33.6968 23.7737 36.7121 22.6315 39.5384C22.4785 39.9168 22.0489 40.0991 21.6719 39.9456C21.2949 39.7921 21.1133 39.361 21.2662 38.9826C22.3584 36.2802 23.0992 33.397 23.4316 30.3897C23.4764 29.9838 23.8406 29.6913 24.2449 29.7364ZM11.0225 31.4347C11.4162 31.5377 11.6522 31.9415 11.5496 32.3366C11.2079 33.6524 10.7527 34.9221 10.1951 36.1346C10.0246 36.5053 9.5869 36.6672 9.2175 36.4961C8.84811 36.3249 8.68688 35.8857 8.85737 35.5149C9.3788 34.3811 9.80444 33.1939 10.1239 31.9637C10.2265 31.5686 10.6288 31.3317 11.0225 31.4347ZM19.6187 36.2947C20.004 36.4257 20.2106 36.8454 20.0802 37.2321C19.9457 37.6305 19.7275 38.2067 19.547 38.6734C19.456 38.9089 19.3731 39.1202 19.3129 39.2726C19.2828 39.3489 19.2584 39.4105 19.2415 39.4531C19.233 39.4744 19.2264 39.491 19.2219 39.5023L19.2154 39.5186L19.2151 39.5195L19.215 39.5197C19.215 39.5197 19.2149 39.5198 18.7764 39.3434L19.2149 39.5198C19.0636 39.8988 18.6347 40.0829 18.2571 39.931C17.8795 39.779 17.696 39.3486 17.8474 38.9696L17.8475 38.9694L17.8539 38.9533C17.8582 38.9425 17.8646 38.9264 17.8729 38.9055C17.8895 38.8639 17.9135 38.8033 17.9431 38.7283C18.0024 38.578 18.084 38.3699 18.1736 38.1383C18.3544 37.6709 18.5618 37.1221 18.6847 36.7579C18.8152 36.3711 19.2333 36.1638 19.6187 36.2947Z" fill="currentColor"/>
</svg>