<svg xmlns="http://www.w3.org/2000/svg" width="24" height="24" viewBox="0 0 24 24" fill="none">
<path d="M11.779 3.16121C11.9107 3.06516 12.0893 3.06516 12.221 3.16121L14.2649 4.65215C14.3293 4.6991 14.4069 4.72434 14.4866 4.72418L17.0165 4.71937C17.1795 4.71906 17.324 4.82406 17.3741 4.97917L18.1513 7.38674C18.1758 7.46257 18.2238 7.52862 18.2883 7.57534L20.3379 9.05848C20.4699 9.15403 20.5251 9.32393 20.4745 9.47884L19.6881 11.8834C19.6634 11.9592 19.6634 12.0408 19.6881 12.1166L20.4745 14.5212C20.5251 14.6761 20.4699 14.846 20.3379 14.9415L18.2883 16.4247C18.2238 16.4714 18.1758 16.5374 18.1513 16.6133L17.3741 19.0208C17.324 19.1759 17.1795 19.2809 17.0165 19.2806L14.4866 19.2758C14.4069 19.2757 14.3293 19.3009 14.2649 19.3479L12.221 20.8388C12.0893 20.9348 11.9107 20.9348 11.779 20.8388L9.7351 19.3479C9.67072 19.3009 9.59307 19.2757 9.51339 19.2758L6.98348 19.2806C6.82049 19.2809 6.67597 19.1759 6.6259 19.0208L5.84869 16.6133C5.82422 16.5374 5.77622 16.4714 5.71167 16.4247L3.6621 14.9415C3.53006 14.846 3.47486 14.6761 3.52552 14.5212L4.31188 12.1166C4.33665 12.0408 4.33665 11.9592 4.31188 11.8834L3.52552 9.47884C3.47486 9.32393 3.53006 9.15403 3.6621 9.05848L5.71167 7.57534C5.77622 7.52862 5.82422 7.46257 5.84869 7.38674L6.6259 4.97916C6.67597 4.82406 6.82049 4.71906 6.98348 4.71937L9.51339 4.72418C9.59307 4.72434 9.67072 4.6991 9.7351 4.65215L11.779 3.16121Z" fill="var(--primary)"/>
<path opacity="0.5" d="M9.95609 4.95511L9.7351 4.65215L9.95609 4.95511L12 3.46417L14.0439 4.95511L14.2649 4.65215L14.0439 4.95511C14.1727 5.04902 14.328 5.09949 14.4873 5.09918L17.0172 5.09437L17.7944 7.50194C17.8434 7.65359 17.9394 7.78571 18.0685 7.87914L20.1181 9.36228L19.3317 11.7669C19.2822 11.9183 19.2822 12.0817 19.3317 12.2331L20.1181 14.6377L18.0685 16.1209C17.9394 16.2143 17.8434 16.3464 17.7944 16.4981L17.0172 18.9056L14.4873 18.9008C14.328 18.9005 14.1727 18.951 14.0439 19.0449L12 20.5358L9.95609 19.0449C9.82734 18.951 9.67203 18.9005 9.51268 18.9008L6.98276 18.9056L6.20556 16.4981L5.84869 16.6133L6.20556 16.4981C6.1566 16.3464 6.06061 16.2143 5.93151 16.1209L3.88194 14.6377L4.66831 12.2331C4.71784 12.0817 4.71784 11.9183 4.66831 11.7669L3.88194 9.36228L5.93151 7.87914C6.06061 7.78571 6.1566 7.65359 6.20556 7.50194L6.98276 5.09437L9.51267 5.09918C9.67203 5.09949 9.82735 5.04902 9.95609 4.95511Z" stroke="var(--primary-400)" stroke-width="0.75"/>
<g filter="url(#filter0_d_20461_17953)">
<path d="M16.1287 8.59766C15.931 8.40446 15.615 8.40502 15.4179 8.59891L10.622 13.3169C10.4762 13.4604 10.2424 13.4605 10.0964 13.3173L8.57568 11.8248C8.37861 11.6314 8.0629 11.6316 7.86606 11.8252C7.66444 12.0236 7.66444 12.3486 7.86606 12.547L10.2542 14.8964C10.3126 14.9538 10.4062 14.9538 10.4646 14.8964L16.13 9.32281C16.3327 9.12338 16.3321 8.79637 16.1287 8.59766Z" fill="white"/>
<path fill-rule="evenodd" clip-rule="evenodd" d="M15.2864 8.46525C15.5562 8.19975 15.9889 8.19899 16.2598 8.46353C16.5383 8.73562 16.5391 9.1834 16.2615 9.45647L10.5961 15.03C10.4647 15.1592 10.254 15.1592 10.1227 15.03L7.73456 12.6806C7.45827 12.4088 7.45827 11.9634 7.73456 11.6915C8.00431 11.4262 8.43695 11.4259 8.70701 11.691L10.2277 13.1834C10.3007 13.2551 10.4176 13.255 10.4906 13.1833L15.2864 8.46525ZM15.9977 8.73178C15.873 8.60993 15.6737 8.61028 15.5494 8.73258L10.7535 13.4506C10.5348 13.6658 10.184 13.666 9.96506 13.4511L8.44434 11.9586C8.32026 11.8368 8.12149 11.8369 7.99755 11.9589C7.87061 12.0838 7.87061 12.2884 7.99755 12.4133L10.3594 14.7368L15.9985 9.18915C16.1264 9.06336 16.126 8.85711 15.9977 8.73178Z" fill="white"/>
</g>
<defs>
<filter id="filter0_d_20461_17953" x="6.02734" y="7.51562" width="11.9414" height="9.86133" filterUnits="userSpaceOnUse" color-interpolation-filters="sRGB">
<feFlood flood-opacity="0" result="BackgroundImageFix"/>
<feColorMatrix in="SourceAlpha" type="matrix" values="0 0 0 0 0 0 0 0 0 0 0 0 0 0 0 0 0 0 127 0" result="hardAlpha"/>
<feOffset dy="0.75"/>
<feGaussianBlur stdDeviation="0.75"/>
<feColorMatrix type="matrix" values="0 0 0 0 0 0 0 0 0 0 0 0 0 0 0 0 0 0 0.12 0"/>
<feBlend mode="normal" in2="BackgroundImageFix" result="effect1_dropShadow_20461_17953"/>
<feBlend mode="normal" in="SourceGraphic" in2="effect1_dropShadow_20461_17953" result="shape"/>
</filter>
</defs>
</svg>