<svg xmlns="http://www.w3.org/2000/svg" width="24" height="24" fill="none" viewBox="0 0 24 24"><path fill="currentColor" d="M16.0678 15.0508C16.6294 15.0508 17.0847 14.5955 17.0847 14.0339C17.0847 13.4723 16.6294 13.0169 16.0678 13.0169C15.5061 13.0169 15.0508 13.4723 15.0508 14.0339C15.0508 14.5955 15.5061 15.0508 16.0678 15.0508Z"/><path fill="currentColor" fill-rule="evenodd" d="M5.8983 3C4.29762 3 3 4.29762 3 5.8983L3 18.1017C3 19.7024 4.29761 21 5.8983 21L18.1017 21C19.7024 21 21 19.7024 21 18.1017L21 9.9661C21 8.36541 19.7024 7.0678 18.1017 7.0678L4.72881 7.0678V5.8983C4.72881 5.25241 5.25241 4.72881 5.8983 4.72881L18.1017 4.72881C18.5791 4.72881 18.9661 4.34181 18.9661 3.86441C18.9661 3.38701 18.5791 3 18.1017 3L5.8983 3ZM4.72881 18.1017L4.72881 8.79661L18.1017 8.79661C18.7476 8.79661 19.2712 9.32021 19.2712 9.9661V10.1186H14.0339C12.4332 10.1186 11.1356 11.4163 11.1356 13.0169V15.0508C11.1356 16.6515 12.4332 17.9492 14.0339 17.9492H19.2712V18.1017C19.2712 18.7476 18.7476 19.2712 18.1017 19.2712L5.8983 19.2712C5.25241 19.2712 4.72881 18.7476 4.72881 18.1017ZM14.0339 11.8475H19.2712V16.2203H14.0339C13.388 16.2203 12.8644 15.6967 12.8644 15.0508V13.0169C12.8644 12.3711 13.388 11.8475 14.0339 11.8475Z" clip-rule="evenodd"/></svg>