<svg width="24" height="24" viewBox="0 0 24 24" fill="none" xmlns="http://www.w3.org/2000/svg">
<g filter="url(#filter0_ii_9759_7307)">
<path fill-rule="evenodd" clip-rule="evenodd" d="M3 7.3983C3 5.79762 4.29762 4.125 5.8983 4.125H18.1017C18.5791 4.125 18.9661 4.51201 18.9661 4.98941C18.9661 5.46681 18.5791 5.85381 18.1017 5.85381H6.17592C5.13939 5.85381 4.80347 6.85238 4.74048 7.03962C4.73555 7.05427 4.7323 7.06395 4.7305 7.0678H4.72881C4.72881 7.07033 4.72936 7.07026 4.7305 7.0678H18.1017C19.7024 7.0678 21 8.36541 21 9.9661V11.8475V16.2203V18.1017C21 19.7024 19.7024 21 18.1017 21H5.8983C4.29762 21 3 19.7024 3 18.1017V7.3983ZM18.0001 14C18.0001 15.1046 17.1047 16 16.0001 16C14.8955 16 14.0001 15.1046 14.0001 14C14.0001 12.8954 14.8955 12 16.0001 12C17.1047 12 18.0001 12.8954 18.0001 14Z" fill="url(#paint0_linear_9759_7307)"/>
</g>
<defs>
<filter id="filter0_ii_9759_7307" x="3" y="3.125" width="18" height="17.875" filterUnits="userSpaceOnUse" color-interpolation-filters="sRGB">
<feFlood flood-opacity="0" result="BackgroundImageFix"/>
<feBlend mode="normal" in="SourceGraphic" in2="BackgroundImageFix" result="shape"/>
<feColorMatrix in="SourceAlpha" type="matrix" values="0 0 0 0 0 0 0 0 0 0 0 0 0 0 0 0 0 0 127 0" result="hardAlpha"/>
<feOffset/>
<feGaussianBlur stdDeviation="1.5"/>
<feComposite in2="hardAlpha" operator="arithmetic" k2="-1" k3="1"/>
<feColorMatrix type="matrix" values="0 0 0 0 0 0 0 0 0 0 0 0 0 0 0 0 0 0 0.4 0"/>
<feBlend mode="normal" in2="shape" result="effect1_innerShadow_9759_7307"/>
<feColorMatrix in="SourceAlpha" type="matrix" values="0 0 0 0 0 0 0 0 0 0 0 0 0 0 0 0 0 0 127 0" result="hardAlpha"/>
<feOffset dy="-1"/>
<feGaussianBlur stdDeviation="0.5"/>
<feComposite in2="hardAlpha" operator="arithmetic" k2="-1" k3="1"/>
<feColorMatrix type="matrix" values="0 0 0 0 0 0 0 0 0 0 0 0 0 0 0 0 0 0 0.25 0"/>
<feBlend mode="normal" in2="effect1_innerShadow_9759_7307" result="effect2_innerShadow_9759_7307"/>
</filter>
<linearGradient id="paint0_linear_9759_7307" x1="3" y1="13.3295" x2="20.9906" y2="12.9192" gradientUnits="userSpaceOnUse">
<stop stop-color="#EBEBEB"/>
<stop offset="0.473958" stop-color="#C1C1C1"/>
<stop offset="0.604167" stop-color="#AFAFAF"/>
<stop offset="1" stop-color="#929292"/>
</linearGradient>
</defs>
</svg>
