<svg xmlns="http://www.w3.org/2000/svg" width="16" height="16" fill="none" viewBox="0 0 16 16"><path fill="currentColor" d="M7.99613 16C12.3809 16 16 12.3791 16 8C16 3.62089 12.3731 0 7.9884 0C3.61141 0 0 3.62089 0 8C0 12.3791 3.61914 16 7.99613 16ZM7.99613 14.4062C4.44659 14.4062 1.60851 11.5513 1.60851 8C1.60851 4.44874 4.44659 1.60155 7.9884 1.60155C11.5379 1.60155 14.3915 4.44874 14.3992 8C14.407 11.5513 11.5457 14.4062 7.99613 14.4062ZM7.9884 9.28433C8.41373 9.28433 8.66119 9.04449 8.66892 8.59575L8.78492 4.87427C8.80039 4.4178 8.46013 4.08511 7.98067 4.08511C7.50121 4.08511 7.16868 4.41006 7.18415 4.86654L7.29241 8.59575C7.30788 9.03675 7.55534 9.28433 7.9884 9.28433ZM7.9884 11.853C8.49106 11.853 8.90092 11.4894 8.90092 10.9942C8.90092 10.5068 8.49879 10.1431 7.9884 10.1431C7.48574 10.1431 7.07588 10.5068 7.07588 10.9942C7.07588 11.4816 7.49348 11.853 7.9884 11.853Z"/></svg>