<svg xmlns="http://www.w3.org/2000/svg" width="24" height="24" viewBox="0 0 24 24" fill="none">
<path d="M10.4346 2.75417C11.2052 1.36517 13.21 1.38592 13.9521 2.79031L21.4932 17.0647C22.1964 18.3966 21.2308 19.9983 19.7246 19.9983H4.26659C2.74221 19.9983 1.77817 18.3616 2.51756 17.0286L10.4346 2.75417ZM11.956 15.4475C11.3439 15.4478 10.8479 15.9564 10.8476 16.5843C10.8476 17.2123 11.3438 17.7217 11.956 17.7219C12.5685 17.7219 13.0654 17.2124 13.0654 16.5843C13.0652 15.9563 12.5683 15.4475 11.956 15.4475ZM11.956 7.48464C11.3439 7.48488 10.8478 7.9944 10.8476 8.62234V13.1721C10.8476 13.8002 11.3438 14.3096 11.956 14.3098C12.5685 14.3098 13.0654 13.8003 13.0654 13.1721V8.62234C13.0653 7.99425 12.5684 7.48464 11.956 7.48464Z" fill="currentColor"/>
</svg>