<svg xmlns="http://www.w3.org/2000/svg" width="24" height="24" fill="none" viewBox="0 0 24 24"><path fill="currentColor" d="M11.9961 20C16.3809 20 20 16.3791 20 12C20 7.62089 16.3731 4 11.9884 4C7.61141 4 4 7.62089 4 12C4 16.3791 7.61914 20 11.9961 20ZM11.9961 18.4062C8.44659 18.4062 5.60851 15.5513 5.60851 12C5.60851 8.44874 8.44659 5.60155 11.9884 5.60155C15.5379 5.60155 18.3915 8.44874 18.3992 12C18.407 15.5513 15.5457 18.4062 11.9961 18.4062ZM11.9884 13.2843C12.4137 13.2843 12.6612 13.0445 12.6689 12.5957L12.7849 8.87427C12.8004 8.4178 12.4601 8.08511 11.9807 8.08511C11.5012 8.08511 11.1687 8.41006 11.1841 8.86654L11.2924 12.5957C11.3079 13.0368 11.5553 13.2843 11.9884 13.2843ZM11.9884 15.853C12.4911 15.853 12.9009 15.4894 12.9009 14.9942C12.9009 14.5068 12.4988 14.1431 11.9884 14.1431C11.4857 14.1431 11.0759 14.5068 11.0759 14.9942C11.0759 15.4816 11.4935 15.853 11.9884 15.853Z"/></svg>