<svg width="36" height="36" viewBox="0 0 36 36" fill="none" xmlns="http://www.w3.org/2000/svg">
<g clip-path="url(#clip0_2884_822)">
<rect width="36" height="36" rx="4" fill="var(--neutral-400)"/>
<path d="M18 21C17.1667 21 16.4583 20.7083 15.875 20.125C15.2917 19.5417 15 18.8333 15 18C15 17.1667 15.2917 16.4583 15.875 15.875C16.4583 15.2917 17.1667 15 18 15C18.3168 15 18.6156 15.0422 18.8962 15.1265C18.3685 15.3588 18 15.8864 18 16.5C18 17.3284 18.6716 18 19.5 18C20.1136 18 20.6412 17.6315 20.8735 17.1038C20.9578 17.3844 21 17.6832 21 18C21 18.8333 20.7083 19.5417 20.125 20.125C19.5417 20.7083 18.8333 21 18 21Z" fill="currentColor"/>
<path fill-rule="evenodd" clip-rule="evenodd" d="M18 27C15.1242 27 12.5045 26.185 10.1409 24.555C7.77727 22.925 6.06364 20.74 5 18C6.06364 15.26 7.77727 13.075 10.1409 11.445C12.5045 9.815 15.1242 9 18 9C20.8758 9 23.4955 9.815 25.8591 11.445C28.2227 13.075 29.9364 15.26 31 18C29.9364 20.74 28.2227 22.925 25.8591 24.555C23.4955 26.185 20.8758 27 18 27ZM24 18C24 21.3137 21.3137 24 18 24C14.6863 24 12 21.3137 12 18C12 14.6863 14.6863 12 18 12C21.3137 12 24 14.6863 24 18Z" fill="currentColor"/>
</g>
<defs>
<clipPath id="clip0_2884_822">
<path d="M0 9.6C0 6.23968 0 4.55953 0.653961 3.27606C1.2292 2.14708 2.14708 1.2292 3.27606 0.653961C4.55953 0 6.23969 0 9.6 0H26.4C29.7603 0 31.4405 0 32.7239 0.653961C33.8529 1.2292 34.7708 2.14708 35.346 3.27606C36 4.55953 36 6.23969 36 9.6V26.4C36 29.7603 36 31.4405 35.346 32.7239C34.7708 33.8529 33.8529 34.7708 32.7239 35.346C31.4405 36 29.7603 36 26.4 36H9.6C6.23968 36 4.55953 36 3.27606 35.346C2.14708 34.7708 1.2292 33.8529 0.653961 32.7239C0 31.4405 0 29.7603 0 26.4V9.6Z" fill="white"/>
</clipPath>
</defs>
</svg>
