<svg width="33" height="32" viewBox="0 0 33 32" fill="none" xmlns="http://www.w3.org/2000/svg">
<path fill-rule="evenodd" clip-rule="evenodd" d="M27.2695 9.78435L16.5035 3.56861L5.73755 9.78435L5.73755 22.2158L16.5035 28.4316L27.2695 22.2158V9.78435ZM17.7864 1.34667C16.9925 0.888351 16.0145 0.888351 15.2207 1.34667L4.45471 7.56241C3.66089 8.02072 3.17188 8.86772 3.17188 9.78435V22.2158C3.17188 23.1325 3.66089 23.9795 4.45471 24.4378L15.2207 30.6535C16.0145 31.1118 16.9925 31.1118 17.7864 30.6535L28.5523 24.4378C29.3462 23.9795 29.8352 23.1325 29.8352 22.2158V9.78435C29.8352 8.86772 29.3462 8.02072 28.5523 7.56241L17.7864 1.34667Z" fill="#16161A"/>
<path d="M10.4331 16.1541L7.63141 12.244H10.6333L12.0341 14.2761L13.4812 12.244H16.2983L13.5273 16.1541L16.4214 20.1874H13.4196L11.8802 18.063L10.3408 20.1874H7.52366L10.4331 16.1541Z" fill="#16161A"/>
<path d="M21.8926 12.1517C24.0016 12.1363 25.5256 13.7681 25.5256 16.2311C25.5256 18.7249 24.0016 20.2798 21.9234 20.2798C20.9228 20.2798 20.1992 19.8795 19.6912 19.2791V23.2662H17.0281V12.244H19.368L19.5835 13.2447C20.0915 12.5981 20.8458 12.1517 21.8926 12.1517ZM19.6604 16.2003C19.6604 17.3549 20.23 18.1708 21.2306 18.1708C22.2159 18.1708 22.8162 17.3549 22.8162 16.2003C22.8162 15.0458 22.2159 14.2607 21.2306 14.2607C20.23 14.2607 19.6604 15.0458 19.6604 16.2003Z" fill="#16161A"/>
</svg>
