<svg xmlns="http://www.w3.org/2000/svg" width="36" height="37" viewBox="0 0 36 37" fill="none">
<path fill-rule="evenodd" clip-rule="evenodd" d="M10.1796 36.917H25.8205C31.4428 36.917 36.0001 32.3597 36.0001 26.7375V11.0965C36.0001 5.47427 31.4428 0.916994 25.8205 0.916994L10.1796 0.916992C4.55728 0.916992 1.85889e-06 5.47427 1.36738e-06 11.0965L0 26.7375C-4.91515e-07 32.3597 4.55728 36.917 10.1796 36.917ZM26.3885 25.7313C23.1854 23.7337 18.9295 21.282 15.4311 19.3923C14.5819 18.9341 13.4457 19.1052 12.7492 20.0989C11.4501 21.9499 9.89433 24.2855 8.83137 26.1264C8.38949 26.8717 8.98002 27.8572 9.86378 27.8572L25.7124 27.8572C26.8548 27.8572 27.3333 26.4114 26.3885 25.7313ZM20.5327 18.7776C17.1524 16.9755 12.4118 14.2326 9.04377 12.1596C8.00321 11.5182 8.41863 9.97669 9.63227 9.97872C11.6206 9.97872 14.8518 9.97821 18.0667 9.9777C21.2492 9.9772 24.4156 9.97669 26.3443 9.97669C27.3156 9.97669 27.8145 10.9826 27.4012 11.6872C26.0063 14.0636 24.4383 16.4624 23.1371 18.2523C22.5568 19.0505 21.3798 19.2297 20.5327 18.7776Z" fill="currentColor"/>
</svg>