<svg xmlns="http://www.w3.org/2000/svg" width="512" height="512" fill="none" viewBox="0 0 512 512"><rect width="512" height="512" fill="url(#paint0_linear_1098_5380)" rx="170.667"/><rect width="426.667" height="426.667" x="42.667" y="42.667" fill="#2461ED" rx="170.667"/><path fill="#fff" fill-rule="evenodd" d="M286.757 250.326C245.027 227.776 194.251 198.532 156.037 174.697C144.761 166.574 150.484 149.333 164.111 149.333H353.197C363.745 149.333 370.801 161.094 365.515 169.993C352.809 191.937 334.259 219.798 318.765 241.888C310.448 253.745 296.893 255.782 286.757 250.326ZM225.895 257.649C266.244 279.157 322.79 311.867 362.969 336.6C375.384 344.263 370.437 362.642 355.937 362.642C332.209 362.642 293.652 362.649 255.296 362.655C217.335 362.661 179.571 362.667 156.57 362.667C144.98 362.667 139.039 350.64 143.961 342.25C160.595 313.904 179.291 285.291 194.833 263.929C201.744 254.4 215.808 252.266 225.895 257.649Z" clip-rule="evenodd"/><defs><linearGradient id="paint0_linear_1098_5380" x1="0" x2="604.983" y1="0" y2="352.348" gradientUnits="userSpaceOnUse"><stop stop-color="#2962EF"/><stop offset="1" stop-color="#255CE5"/></linearGradient></defs></svg>