<svg xmlns="http://www.w3.org/2000/svg" width="20" height="20" viewBox="0 0 20 20" fill="none">
<path d="M12.1284 9.61688C9.22805 8.09535 5.69911 6.12228 3.04313 4.51404C2.25948 3.96596 2.6572 2.80273 3.60432 2.80273L16.746 2.80273C17.4791 2.80273 17.9695 3.59622 17.6021 4.19665C16.7191 5.67727 15.4298 7.55709 14.3529 9.04753C13.7749 9.84756 12.8328 9.98499 12.1284 9.61688Z" fill="currentColor"/>
<path d="M7.89839 10.1109C10.7027 11.5621 14.6327 13.7692 17.4252 15.4379C18.288 15.9549 17.9442 17.195 16.9365 17.195C15.2873 17.195 12.6076 17.1954 9.94177 17.1959C7.30346 17.1963 4.67877 17.1967 3.08021 17.1967C2.27465 17.1967 1.86176 16.3852 2.20387 15.8191C3.35996 13.9066 4.65931 11.976 5.73956 10.5347C6.21986 9.89172 7.19731 9.74774 7.89839 10.1109Z" fill="currentColor"/>
</svg>