<svg width="32" height="32" viewBox="0 0 32 32" fill="none" xmlns="http://www.w3.org/2000/svg">
<rect width="32" height="32" rx="16" fill="#2962EF"/>
<g clip-path="url(#clip0_3256_5849)">
<g clip-path="url(#clip1_3256_5849)">
<rect x="2" y="2" width="28" height="28" rx="5.33333" fill="#2962EF"/>
<path d="M8.08275 9C7.60289 9 7.41801 9.59334 7.82065 9.84119L17.8934 15.9147C18.1445 16.0693 18.4793 16.0082 18.6522 15.7763L23.0809 9.96218C23.382 9.55827 23.0778 9 22.5566 9H8.08275Z" fill="white"/>
<path d="M23.9142 23C24.394 23 24.5837 22.4035 24.1811 22.1557L14.1055 16.0829C13.8544 15.9283 13.5277 15.9972 13.3548 16.229L8.91751 22.042C8.61647 22.4458 8.9302 23 9.45132 23H23.9142Z" fill="white"/>
</g>
</g>
<defs>
<clipPath id="clip0_3256_5849">
<rect x="2" y="2" width="28" height="28" rx="14" fill="white"/>
</clipPath>
<clipPath id="clip1_3256_5849">
<rect width="28" height="28" fill="white" transform="translate(2 2)"/>
</clipPath>
</defs>
</svg>
