<svg xmlns="http://www.w3.org/2000/svg" width="21" height="20" viewBox="0 0 21 20" fill="none">
<rect x="0.5" width="20" height="20" rx="8" fill="url(#paint0_linear_4813_2177)"/>
<path d="M7.63257 10.3721C7.95645 9.92547 8.61581 9.82501 9.08863 10.0771C10.98 11.0853 13.631 12.619 15.5144 13.7783C16.0961 14.1376 15.864 14.999 15.1843 14.999C12.9713 14.999 8.0072 15 5.8396 15C5.29639 15 5.01729 14.4362 5.24781 14.043C6.02742 12.7144 6.90406 11.3734 7.63257 10.3721ZM15.0564 5C15.5507 5.00016 15.8813 5.55167 15.6335 5.96875C15.038 6.99735 14.1684 8.3035 13.4421 9.33887C13.0524 9.89429 12.4171 9.98982 11.9421 9.73438C9.98601 8.67732 7.60553 7.30578 5.81421 6.18848C5.28604 5.80763 5.55444 5 6.19312 5L15.0564 5Z" fill="white"/>
<defs>
<linearGradient id="paint0_linear_4813_2177" x1="1.88614" y1="-1.00884e-07" x2="19.6814" y2="0.518448" gradientUnits="userSpaceOnUse">
<stop stop-color="#5353E3"/>
<stop offset="1" stop-color="#F58792"/>
</linearGradient>
</defs>
</svg>