<svg viewBox="0 0 1400 256" fill="none" xmlns="http://www.w3.org/2000/svg">
<g clip-path="url(#clip0_1042_878)">
<g clip-path="url(#clip1_1042_878)">
<path d="M0 245.217L119.171 47.3043H13.2801V3.47826H199.201V10.087L82.4764 208H195.008V252.174H0V245.217Z" fill="#2962EF"/>
<path d="M260.939 3.47826H423.795V47.3043H317.204V105.391H402.477V146.435H317.204V208.348H429.386V252.174H260.939V3.47826Z" fill="#2962EF"/>
<path d="M494.89 3.47826H584.356C599.034 3.47826 612.314 4.98551 624.196 8C636.078 11.0145 646.213 15.6522 654.601 21.913C662.988 28.1739 669.395 36.058 673.822 45.5652C678.481 55.0725 680.811 66.2029 680.811 78.9565V80.3478C680.811 89.8551 679.53 98.2029 676.967 105.391C674.404 112.58 670.793 118.841 666.133 124.174C661.474 129.507 655.999 134.029 649.708 137.739C643.417 141.449 636.661 144.348 629.438 146.435L695.489 252.174H635.379L575.619 156.174H551.156V252.174H494.89V3.47826ZM582.958 117.913C597.17 117.913 607.771 114.899 614.76 108.87C621.983 102.841 625.594 93.913 625.594 82.087V80.6956C625.594 67.942 621.866 59.1304 614.411 54.2609C607.188 49.1594 596.704 46.6087 582.958 46.6087H551.156V117.913H582.958Z" fill="#2962EF"/>
<path d="M755.031 3.47826H811.995V252.174H755.031V3.47826Z" fill="#2962EF"/>
<path d="M999.696 211.13C1010.18 211.13 1019.62 209.159 1028 205.217C1036.62 201.275 1043.96 195.71 1050.02 188.522C1055.84 181.565 1060.39 172.986 1063.65 162.783C1066.91 152.58 1068.54 141.217 1068.54 128.696V125.913C1068.54 113.855 1066.91 102.841 1063.65 92.8696C1060.62 82.8986 1056.19 74.3188 1050.37 67.1304C1044.31 59.942 1036.97 54.3768 1028.35 50.4348C1019.73 46.4928 1009.95 44.5217 998.997 44.5217C988.047 44.5217 978.261 46.4928 969.641 50.4348C961.253 54.1449 954.031 59.4783 947.973 66.4348C941.916 73.6232 937.256 82.3188 933.994 92.5217C930.965 102.493 929.451 113.739 929.451 126.261V129.043C929.451 141.797 931.198 153.275 934.693 163.478C938.188 173.449 943.08 181.913 949.371 188.87C955.429 196.058 962.768 201.623 971.388 205.565C980.009 209.275 989.444 211.13 999.696 211.13ZM998.647 256C979.076 256 961.37 252.87 945.527 246.609C929.684 240.116 916.287 231.188 905.337 219.826C894.154 208.696 885.534 195.362 879.476 179.826C873.418 164.29 870.39 147.478 870.39 129.391V126.609C870.39 108.058 873.535 91.0145 879.825 75.4783C886.349 59.942 895.435 46.6087 907.084 35.4783C918.501 24.3478 932.014 15.6522 947.624 9.39131C963.234 3.13044 980.358 0 998.997 0C1017.87 0 1035.11 3.01449 1050.72 9.04347C1066.56 15.0725 1080.19 23.5362 1091.61 34.4348C1102.79 45.5652 1111.53 58.7826 1117.82 74.087C1124.34 89.3913 1127.6 106.435 1127.6 125.217V128C1127.6 146.551 1124.46 163.71 1118.17 179.478C1112.11 195.014 1103.49 208.464 1092.31 219.826C1081.12 231.188 1067.61 240.116 1051.77 246.609C1035.92 252.87 1018.22 256 998.647 256Z" fill="#2962EF"/>
<path d="M1188.92 3.47826H1254.62L1349.68 167.304V3.47826H1400V252.174H1343.38L1239.24 75.1304V252.174H1188.92V3.47826Z" fill="#2962EF"/>
</g>
</g>
<defs>
<clipPath id="clip0_1042_878">
<rect width="1400" height="256" fill="white"/>
</clipPath>
<clipPath id="clip1_1042_878">
<rect width="1400" height="256" fill="white"/>
</clipPath>
</defs>
</svg>
