<svg width="95" height="23" viewBox="0 0 95 23" fill="none" xmlns="http://www.w3.org/2000/svg">
<path d="M30.7553 17.2051H39.9452C40.1275 17.2051 40.2421 17.0907 40.2421 16.9085V15.1951C40.2421 15.013 40.1275 14.8985 39.9452 14.8985H34.2766C34.1164 14.8985 34.0018 14.7164 34.1164 14.5785L39.8085 7.95519C39.9686 7.77305 40.0376 7.61303 40.0376 7.38406V6.08178C40.0376 5.89964 39.9231 5.78516 39.7407 5.78516H30.9403C30.7579 5.78516 30.6433 5.89964 30.6433 6.08178V7.79517C30.6433 7.97731 30.7579 8.09179 30.9403 8.09179H36.1752C36.3354 8.09179 36.4266 8.27393 36.312 8.41183L30.6433 15.0351C30.5066 15.1951 30.461 15.3773 30.461 15.5607V16.9085C30.4571 17.0907 30.5717 17.2051 30.7553 17.2051Z" fill="#2962EF"/>
<path d="M49.8744 10.2655H44.2735C44.1133 10.2655 43.9987 10.151 44.0221 10.0144C44.2044 8.71215 45.439 7.77675 46.9938 7.77675C48.5943 7.77675 49.8744 8.71345 50.0801 10.0378C50.1036 10.1744 50.0124 10.2655 49.8744 10.2655ZM47.0173 5.53906C43.6575 5.53906 41.1885 8.02783 41.1885 11.4312C41.1885 14.9933 43.6796 17.4599 47.2686 17.4599C49.7142 17.4599 51.8173 15.9989 52.4801 13.851C52.5491 13.622 52.4346 13.4854 52.2509 13.4854H50.0788C49.9186 13.4854 49.8275 13.5544 49.7585 13.7144C49.2558 14.6277 48.2492 15.1754 47.0615 15.1754C45.439 15.1754 44.1133 14.0566 43.9987 12.5943C43.9753 12.4342 44.0443 12.3198 44.2044 12.3198H52.2965C52.5713 12.3198 52.7536 12.1376 52.7536 11.8852C52.9841 7.75463 50.2859 5.53906 47.0173 5.53906Z" fill="#2962EF"/>
<path d="M62.2007 5.78711H60.6914C59.2967 5.78711 58.406 6.28929 57.9255 7.36259C57.7887 7.65922 57.3994 7.59157 57.3994 7.29364V6.08373C57.3994 5.9016 57.2848 5.78711 57.1025 5.78711H55.1817C54.9994 5.78711 54.8848 5.9016 54.8848 6.08373V16.9092C54.8848 17.0913 54.9994 17.2058 55.1817 17.2058H57.3759C57.5817 17.2058 57.6728 17.0692 57.6728 16.9092V9.19047C57.6728 8.91596 57.8786 8.64276 58.1755 8.64276H62.1981C62.3804 8.64276 62.495 8.52827 62.495 8.34613V6.08503C62.4976 5.90159 62.383 5.78711 62.2007 5.78711Z" fill="#2962EF"/>
<path d="M65.8119 3.9151C66.7495 3.9151 67.5269 3.16183 67.5269 2.22513C67.5269 1.28842 66.7495 0.535156 65.8119 0.535156C64.8521 0.535156 64.0513 1.28842 64.0513 2.22513C64.0513 3.16183 64.8521 3.9151 65.8119 3.9151ZM64.692 17.2059H66.8862C67.0685 17.2059 67.1831 17.0914 67.1831 16.9093V6.08383C67.1831 5.90169 67.092 5.78721 66.8862 5.78721H64.692C64.5097 5.78721 64.3951 5.90169 64.3951 6.08383V16.9093C64.3951 17.0914 64.5084 17.2059 64.692 17.2059Z" fill="#2962EF"/>
<path d="M75.1552 15.0622C73.2578 15.0622 71.9087 13.5544 71.9087 11.4533C71.9087 9.39777 73.2578 7.93677 75.1552 7.93677C77.0525 7.93677 78.4238 9.39777 78.4238 11.4533C78.4238 13.5544 77.0512 15.0622 75.1552 15.0622ZM75.1773 17.4599C78.6972 17.4599 81.2118 14.9477 81.2118 11.4312C81.2118 8.00572 78.6972 5.53906 75.1773 5.53906C71.6339 5.53906 69.0972 8.00572 69.0972 11.4312C69.0972 14.9477 71.6339 17.4599 75.1773 17.4599Z" fill="#2962EF"/>
<path d="M93.9996 16.9122V10.2213C93.9996 7.1835 92.1934 5.53906 89.5421 5.53906C88.1018 5.53906 86.8907 6.08677 86.1133 7.09243C85.931 7.3214 85.6562 7.25245 85.6562 6.97795V6.11019C85.6562 5.90464 85.5416 5.79015 85.3593 5.79015H83.4385C83.2562 5.79015 83.1416 5.90464 83.1416 6.08678V16.9122C83.1416 17.0944 83.2562 17.2088 83.4385 17.2088H85.6328C85.8151 17.2088 85.9297 17.0944 85.9297 16.9122V11.0201C85.9297 8.98796 86.9129 7.93677 88.7412 7.93677C90.3182 7.93677 91.2102 8.94112 91.2102 10.7235V16.9122C91.2102 17.0944 91.3248 17.2088 91.5071 17.2088H93.7014C93.885 17.2088 93.9996 17.0944 93.9996 16.9122Z" fill="#2962EF"/>
<path fill-rule="evenodd" clip-rule="evenodd" d="M16.5123 0H6.50985C2.91439 0 0 2.91159 0 6.50359V16.4964C0 20.0884 2.91439 23 6.50985 23H16.5123C20.1078 23 23.0222 20.0884 23.0222 16.4964V6.50359C23.0222 2.91159 20.1078 0 16.5123 0ZM6.14618 7.14562C8.19459 8.42188 10.9163 9.98826 13.1535 11.1956C13.6965 11.4883 14.4232 11.379 14.8685 10.7441C15.6993 9.56153 16.6943 8.06931 17.374 6.89323C17.6566 6.41707 17.279 5.78739 16.7138 5.78739H6.57852C5.84797 5.78739 5.54194 6.71109 6.14618 7.14562ZM9.8916 11.5878C12.0533 12.7392 15.0849 14.4916 17.2388 15.816C17.9042 16.2258 17.6386 17.2107 16.8624 17.2094C15.5909 17.2094 13.5245 17.2097 11.4686 17.21C9.4334 17.2103 7.40847 17.2107 6.17503 17.2107C5.55387 17.2107 5.23482 16.568 5.49917 16.1178C6.3912 14.5996 7.39392 13.067 8.22605 11.9235C8.59718 11.4135 9.34987 11.299 9.8916 11.5878Z" fill="#2962EF"/>
</svg>
