<svg width="209" height="24" viewBox="0 0 209 24" fill="none" xmlns="http://www.w3.org/2000/svg">
<path d="M7.86181 19.8782C7.87858 19.8542 8.96283 18.2471 10.4864 15.9876L4.99572 16.0093C2.67918 19.3769 0.756954 22.1705 0.697543 22.2552C0.403843 22.7326 0.524581 23.2984 0.524581 23.2984C0.524581 23.6407 0.837446 23.9484 1.18481 23.9484H20.2835C20.4114 23.9484 20.5153 23.8461 20.5153 23.7199C20.5153 23.6563 20.4885 23.5955 20.4411 23.5527L16.5487 20.0077C16.5061 19.9685 16.4495 19.9469 16.3911 19.9469L7.86181 19.9463C7.86181 19.9463 7.8048 19.9579 7.86181 19.8782Z" fill="#2962EF"/>
<path d="M13.1465 4.16001L10.4802 8.03641L15.8243 8.06665C18.2242 4.50429 20.2595 1.48158 20.3577 1.32805C20.569 0.999626 20.5153 0.649684 20.5153 0.649684C20.5153 0.307621 20.2025 0 19.8551 0H0.756954C0.550932 0 0.446964 0.244871 0.592616 0.388773L4.16541 3.93349C4.20901 3.9768 4.26842 4.00115 4.33022 4.00115H7.9011L13.1465 4.02327C13.1465 4.02327 13.2462 4.01516 13.1465 4.16001Z" fill="#2962EF"/>
<path d="M98.1814 23.6573L93.4428 15.6316C93.373 15.513 93.4267 15.3642 93.5552 15.3088C94.9 14.73 96.0254 13.8058 96.9305 12.5347C97.92 11.1871 98.3832 9.6904 98.3832 8.01414C98.3832 5.82939 97.5799 3.97265 95.9712 2.38649C94.363 0.829615 92.4147 0.0515766 90.1566 0.0515766H79.7109C79.5286 0.0515766 79.4152 0.242657 79.5061 0.395426L81.4197 3.58798C81.4295 3.60496 81.4422 3.62085 81.4569 3.63471C81.4569 3.63471 81.6709 4.06299 81.9964 4.06299H90.1566C91.2702 4.06299 92.229 4.45187 93.0329 5.2299C93.8685 6.00898 94.2701 6.93648 94.2701 8.01414C94.2701 9.12175 93.8685 10.0802 93.0329 10.8583C92.229 11.6363 91.2702 12.0261 90.1566 12.0261L86.8903 11.9996C86.7071 11.998 86.5918 12.1896 86.6836 12.3429L93.5831 23.8855C93.6256 23.9562 93.7033 24 93.7878 24H97.9762C98.1575 24 98.2718 23.8102 98.1814 23.6573Z" fill="#2962EF"/>
<path d="M125.003 19.4042L121.066 22.8869C120.905 23.0292 120.628 22.9291 120.628 22.7289V0.318664C120.628 0.119142 120.903 0.0189183 121.064 0.159512L125.001 3.58994C125.05 3.63221 125.078 3.68947 125.078 3.74928V19.2461C125.078 19.3054 125.051 19.3621 125.003 19.4042Z" fill="#2962EF"/>
<path fill-rule="evenodd" clip-rule="evenodd" d="M168.457 12.0261C168.457 8.73282 167.235 5.91864 164.821 3.58373C162.438 1.24881 159.597 0.0515766 156.206 0.0515766C152.815 0.0515766 149.944 1.24881 147.591 3.58373C145.208 5.91864 143.986 8.73282 143.986 12.0261C143.986 15.3489 145.208 18.1327 147.591 20.4675C149.974 22.8028 152.815 24 156.206 24C159.597 24 162.438 22.8028 164.821 20.4675C167.235 18.1627 168.457 15.3489 168.457 12.0261ZM148.079 12.0261C148.079 9.84061 148.843 7.95483 150.432 6.39772C152.051 4.81104 153.976 4.06299 156.206 4.06299C158.436 4.06299 160.361 4.84098 161.95 6.39772C163.538 7.95483 164.333 9.84061 164.333 12.0261C164.333 14.2108 163.569 16.0968 161.95 17.6838C160.361 19.2407 158.436 19.9886 156.206 19.9886C153.976 19.9886 152.021 19.2407 150.432 17.6838C148.843 16.1267 148.079 14.2108 148.079 12.0261Z" fill="#2962EF"/>
<path d="M208.269 0.0515766C208.397 0.0515766 208.5 0.153738 208.5 0.280495V24L188.555 6.16639C188.506 6.12297 188.479 6.0611 188.479 5.99626V0.565696C188.479 0.367521 188.715 0.262994 188.862 0.395426L204.111 14.0464C204.26 14.179 204.496 14.0747 204.496 13.8764V0.280495C204.496 0.153738 204.598 0.0515766 204.726 0.0515766H208.269Z" fill="#2962EF"/>
<path d="M59.2114 19.9886H47.0231C46.9627 19.9886 46.9049 20.0103 46.8603 20.0496L42.8424 23.6028C42.7934 23.6462 42.7658 23.7072 42.7658 23.7709C42.7658 23.8975 42.8731 24 43.0051 24H59.2114C59.3435 24 59.4503 23.8975 59.4503 23.7709V20.2177C59.4503 20.0912 59.3435 19.9886 59.2114 19.9886Z" fill="#2962EF"/>
<path d="M56.0971 10.0501H46.933V14.0312H56.0971C56.2291 14.0312 56.3364 13.929 56.3364 13.8025V10.2791C56.3364 10.1527 56.2291 10.0501 56.0971 10.0501Z" fill="#2962EF"/>
<path d="M59.4503 3.83407V0.280495C59.4503 0.153738 59.3435 0.0515766 59.2114 0.0515766H43.3405C43.1278 0.0515766 43.021 0.297522 43.1708 0.441779L46.8589 3.99535C46.9039 4.03839 46.9652 4.06299 47.029 4.06299H59.2114C59.3435 4.06299 59.4503 3.96045 59.4503 3.83407Z" fill="#2962EF"/>
</svg>
