<svg xmlns="http://www.w3.org/2000/svg" width="20" height="20" fill="none" viewBox="0 0 20 20"><g id="Icon"><rect width="20" height="20" fill="#fff" rx="4"/><path id="Zerion Icon" fill="#16161A" fill-rule="evenodd" d="M11.4416 9.73404C9.48546 8.67698 7.10537 7.30621 5.31406 6.18891C4.78553 5.80814 5.05377 5 5.69255 5L14.5559 5C15.0504 5 15.3811 5.55126 15.1333 5.9684C14.5378 6.99705 13.6682 8.30303 12.9419 9.33849C12.5521 9.8943 11.9167 9.98978 11.4416 9.73404ZM8.58867 10.0773C10.48 11.0855 13.1306 12.6188 15.014 13.7781C15.596 14.1373 15.3641 14.9989 14.6844 14.9989C13.5721 14.9989 11.7648 14.9992 9.96682 14.9994C8.18742 14.9997 6.41721 15 5.33907 15C4.79576 15 4.51729 14.4362 4.74802 14.043C5.52774 12.7142 6.40408 11.373 7.13266 10.3717C7.45659 9.92498 8.11584 9.82495 8.58867 10.0773Z" clip-rule="evenodd"/></g></svg>