<svg width="14" height="14" viewBox="0 0 14 14" fill="none" xmlns="http://www.w3.org/2000/svg">
<path d="M8.74935 13.2721H5.24935C2.08185 13.2721 0.728516 11.9188 0.728516 8.7513V5.2513C0.728516 2.0838 2.08185 0.730469 5.24935 0.730469H8.74935C11.9168 0.730469 13.2702 2.0838 13.2702 5.2513V8.7513C13.2702 11.9188 11.9168 13.2721 8.74935 13.2721Z" fill="var(--black)"/>
<path d="M4.62683 10C4.46751 10 4.30818 9.94132 4.18239 9.81558C3.9392 9.57248 3.9392 9.1701 4.18239 8.927L8.92872 4.18233C9.17191 3.93922 9.57442 3.93922 9.81761 4.18233C10.0608 4.42543 10.0608 4.8278 9.81761 5.0709L5.07128 9.81558C4.95388 9.94132 4.78616 10 4.62683 10Z" fill="var(--white)"/>
<path d="M9.37317 10C9.21384 10 9.05451 9.94132 8.92872 9.81558L4.18239 5.0709C3.9392 4.8278 3.9392 4.42543 4.18239 4.18233C4.42558 3.93922 4.82809 3.93922 5.07128 4.18233L9.81761 8.927C10.0608 9.1701 10.0608 9.57248 9.81761 9.81558C9.69182 9.94132 9.5325 10 9.37317 10Z" fill="var(--white)"/>
</svg>
