<svg width="16" height="16" viewBox="0 0 16 16" fill="none" xmlns="http://www.w3.org/2000/svg">
<path fill-rule="evenodd" clip-rule="evenodd" d="M8.32355 0.16524C8.16384 -0.05508 7.83552 -0.0550799 7.67582 0.16524L6.92436 1.20192C6.80165 1.37121 6.56927 1.41743 6.39112 1.30799L5.29997 0.637679C5.0681 0.495237 4.76476 0.620897 4.70154 0.88558L4.40416 2.13066C4.35558 2.33404 4.15855 2.46569 3.95206 2.43274L2.68749 2.23091C2.41873 2.18802 2.18653 2.42024 2.22945 2.68899L2.43128 3.95287C2.46426 4.15939 2.33258 4.35645 2.12916 4.40501L0.883786 4.7023C0.619032 4.76549 0.493353 5.06894 0.635889 5.30083L1.30611 6.39119C1.41564 6.56939 1.36939 6.80187 1.20001 6.92458L0.163376 7.67558C-0.0570626 7.83527 -0.0570627 8.16374 0.163375 8.32343L1.20001 9.07443C1.36939 9.19714 1.41564 9.42962 1.30611 9.60782L0.635889 10.6982C0.493353 10.9301 0.619032 11.2335 0.883786 11.2967L2.12916 11.594C2.33258 11.6426 2.46426 11.8396 2.43128 12.0461L2.22945 13.31C2.18653 13.5788 2.41873 13.811 2.68749 13.7681L3.95206 13.5663C4.15855 13.5333 4.35558 13.665 4.40416 13.8683L4.70154 15.1134C4.76476 15.3781 5.0681 15.5038 5.29997 15.3613L6.39112 14.691C6.56927 14.5816 6.80165 14.6278 6.92436 14.7971L7.67582 15.8338C7.83552 16.0541 8.16384 16.0541 8.32355 15.8338L9.07501 14.7971C9.19772 14.6278 9.4301 14.5816 9.60825 14.691L10.6994 15.3613C10.9313 15.5038 11.2346 15.3781 11.2978 15.1134L11.5952 13.8683C11.6438 13.665 11.8408 13.5333 12.0473 13.5663L13.3119 13.7681C13.5806 13.811 13.8128 13.5788 13.7699 13.31L13.5681 12.0461C13.5351 11.8396 13.6668 11.6426 13.8702 11.594L15.1156 11.2967C15.3803 11.2335 15.506 10.9301 15.3635 10.6982L14.6933 9.60782C14.5837 9.42962 14.63 9.19714 14.7994 9.07442L15.836 8.32343C16.0564 8.16374 16.0564 7.83527 15.836 7.67558L14.7994 6.92458C14.63 6.80187 14.5837 6.56939 14.6933 6.39119L15.3635 5.30083C15.506 5.06894 15.3803 4.76549 15.1156 4.7023L13.8702 4.40501C13.6668 4.35645 13.5351 4.15939 13.5681 3.95287L13.7699 2.68899C13.8128 2.42024 13.5806 2.18802 13.3119 2.23091L12.0473 2.43274C11.8408 2.46569 11.6438 2.33404 11.5952 2.13066L11.2978 0.88558C11.2346 0.620897 10.9313 0.495237 10.6994 0.637679L9.60825 1.30799C9.4301 1.41743 9.19772 1.37121 9.07501 1.20192L8.32355 0.16524ZM6.31193 9.91432L10.6721 5.55543C10.8442 5.38337 11.1222 5.38337 11.2899 5.55984H11.2943C11.4664 5.7319 11.4664 6.00985 11.2943 6.18191L6.62084 10.8496C6.44873 11.0217 6.17071 11.0217 5.9986 10.8496L4.15392 9.00548C3.98181 8.83342 3.98181 8.55548 4.15392 8.38342C4.32603 8.21135 4.60406 8.21135 4.77617 8.38342L6.31193 9.91432Z" fill="currentColor"/>
</svg>
