<svg xmlns="http://www.w3.org/2000/svg" width="154" height="26" fill="none" viewBox="0 0 154 26"><path stroke="var(--neutral-400)" d="M0 25H4.15C7.51031 25 9.19047 25 10.4739 24.346C11.6029 23.7708 12.5208 22.8529 13.096 21.7239C13.75 20.4405 13.75 18.7603 13.75 15.4V13.8C13.75 9.31958 13.75 7.07937 14.6219 5.36808C15.3889 3.86278 16.6128 2.63893 18.1181 1.87195C19.8294 1 22.0696 1 26.55 1H126.95C131.43 1 133.671 1 135.382 1.87195C136.887 2.63893 138.111 3.86278 138.878 5.36808C139.75 7.07937 139.75 9.31958 139.75 13.8V15.4C139.75 18.7603 139.75 20.4405 140.404 21.7239C140.979 22.8529 141.897 23.7708 143.026 24.346C144.31 25 145.99 25 149.35 25H154"/></svg>